<?xml version="1.0" encoding="UTF-8" standalone="no"?>
<svg
   width="560pt"
   height="500pt"
   viewBox="0 0 560 500"
   version="1.1"
   id="svg320"
   sodipodi:docname="gradient-01-2d.svg"
   inkscape:version="1.2.2 (b0a8486541, 2022-12-01)"
   xmlns:inkscape="http://www.inkscape.org/namespaces/inkscape"
   xmlns:sodipodi="http://sodipodi.sourceforge.net/DTD/sodipodi-0.dtd"
   xmlns="http://www.w3.org/2000/svg"
   xmlns:svg="http://www.w3.org/2000/svg"
   xmlns:rdf="http://www.w3.org/1999/02/22-rdf-syntax-ns#"
   xmlns:cc="http://creativecommons.org/ns#"
   xmlns:dc="http://purl.org/dc/elements/1.1/">
  <sodipodi:namedview
     id="namedview322"
     pagecolor="#ffffff"
     bordercolor="#000000"
     borderopacity="0.25"
     inkscape:showpageshadow="2"
     inkscape:pageopacity="0.0"
     inkscape:pagecheckerboard="0"
     inkscape:deskcolor="#d1d1d1"
     inkscape:document-units="pt"
     showgrid="false"
     inkscape:zoom="1.8005952"
     inkscape:cx="320.1719"
     inkscape:cy="122.4595"
     inkscape:window-width="1415"
     inkscape:window-height="877"
     inkscape:window-x="25"
     inkscape:window-y="0"
     inkscape:window-maximized="1"
     inkscape:current-layer="svg320" />
  <metadata
     id="metadata2">
    <rdf:RDF>
      <cc:Work>
        <dc:type
           rdf:resource="http://purl.org/dc/dcmitype/StillImage" />
        <dc:date>2024-12-19T16:50:47.092842</dc:date>
        <dc:format>image/svg+xml</dc:format>
        <dc:creator>
          <cc:Agent>
            <dc:title>Matplotlib v3.9.2, https://matplotlib.org/</dc:title>
          </cc:Agent>
        </dc:creator>
      </cc:Work>
    </rdf:RDF>
  </metadata>
  <defs
     id="defs6">
    <marker
       style="overflow:visible"
       id="Arrow1"
       refX="0.38260415"
       refY="0.028054057"
       orient="auto-start-reverse"
       inkscape:stockid="Arrow1"
       markerWidth="10"
       markerHeight="8"
       viewBox="0 0 3.8535327 6.7071068"
       inkscape:isstock="true"
       inkscape:collect="always"
       preserveAspectRatio="none">
      <path
         style="fill:none;stroke:context-stroke;stroke-width:1;stroke-linecap:butt"
         d="M 3,-3 0,0 3,3"
         id="path5057"
         transform="rotate(180,0.125,0)"
         sodipodi:nodetypes="ccc" />
    </marker>
    <style
       type="text/css"
       id="style4">*{stroke-linejoin: round; stroke-linecap: butt}</style>
    <marker
       style="overflow:visible"
       id="Arrow1-6"
       refX="0.38260415"
       refY="0.028054057"
       orient="auto-start-reverse"
       inkscape:stockid="Arrow1"
       markerWidth="10"
       markerHeight="8"
       viewBox="0 0 3.8535327 6.7071068"
       inkscape:isstock="true"
       inkscape:collect="always"
       preserveAspectRatio="none">
      <path
         style="fill:none;stroke:context-stroke;stroke-width:1;stroke-linecap:butt"
         d="M 3,-3 0,0 3,3"
         id="path5057-7"
         transform="rotate(180,0.125,0)"
         sodipodi:nodetypes="ccc" />
    </marker>
    <marker
       style="overflow:visible"
       id="Arrow1-6-3"
       refX="0.38260415"
       refY="0.028054057"
       orient="auto-start-reverse"
       inkscape:stockid="Arrow1"
       markerWidth="10"
       markerHeight="8"
       viewBox="0 0 3.8535327 6.7071068"
       inkscape:isstock="true"
       inkscape:collect="always"
       preserveAspectRatio="none">
      <path
         style="fill:none;stroke:context-stroke;stroke-width:1;stroke-linecap:butt"
         d="M 3,-3 0,0 3,3"
         id="path5057-7-5"
         transform="rotate(180,0.125,0)"
         sodipodi:nodetypes="ccc" />
    </marker>
    <marker
       style="overflow:visible"
       id="Arrow1-6-3-2"
       refX="0.38260415"
       refY="0.028054057"
       orient="auto-start-reverse"
       inkscape:stockid="Arrow1"
       markerWidth="10"
       markerHeight="8"
       viewBox="0 0 3.8535327 6.7071068"
       inkscape:isstock="true"
       inkscape:collect="always"
       preserveAspectRatio="none">
      <path
         style="fill:none;stroke:context-stroke;stroke-width:1;stroke-linecap:butt"
         d="M 3,-3 0,0 3,3"
         id="path5057-7-5-9"
         transform="rotate(180,0.125,0)"
         sodipodi:nodetypes="ccc" />
    </marker>
    <clipPath
       id="clipPath6104">
      <path
         clip-rule="nonzero"
         d="m 11,5 h 10 v 6.953125 H 11 Z m 0,0"
         id="path5353" />
    </clipPath>
    <clipPath
       id="clipPath3015">
      <path
         clip-rule="nonzero"
         d="m 11,5 h 9 v 6.953125 h -9 z m 0,0"
         id="path249" />
    </clipPath>
    <clipPath
       id="clipPath5793">
      <path
         clip-rule="nonzero"
         d="m 11,5 h 9 v 6.953125 h -9 z m 0,0"
         id="path5264" />
    </clipPath>
    <clipPath
       id="clipPath1525">
      <path
         clip-rule="nonzero"
         d="m 11,5 h 10 v 6.953125 H 11 Z m 0,0"
         id="path4545" />
    </clipPath>
    <clipPath
       id="clipPath438">
      <path
         clip-rule="nonzero"
         d="M 0,0 H 11 V 9.804688 H 0 Z m 0,0"
         id="path490" />
    </clipPath>
    <marker
       style="overflow:visible"
       id="Arrow1-2"
       refX="0.38260415"
       refY="0.028054057"
       orient="auto-start-reverse"
       inkscape:stockid="Arrow1"
       markerWidth="10"
       markerHeight="8"
       viewBox="0 0 3.8535327 6.7071068"
       inkscape:isstock="true"
       inkscape:collect="always"
       preserveAspectRatio="none">
      <path
         style="fill:none;stroke:context-stroke;stroke-width:1;stroke-linecap:butt"
         d="M 3,-3 0,0 3,3"
         id="path5057-70"
         transform="rotate(180,0.125,0)"
         sodipodi:nodetypes="ccc" />
    </marker>
    <marker
       style="overflow:visible"
       id="Arrow1-2-3"
       refX="0.38260415"
       refY="0.028054057"
       orient="auto-start-reverse"
       inkscape:stockid="Arrow1"
       markerWidth="10"
       markerHeight="8"
       viewBox="0 0 3.8535327 6.7071068"
       inkscape:isstock="true"
       inkscape:collect="always"
       preserveAspectRatio="none">
      <path
         style="fill:none;stroke:context-stroke;stroke-width:1;stroke-linecap:butt"
         d="M 3,-3 0,0 3,3"
         id="path5057-70-6"
         transform="rotate(180,0.125,0)"
         sodipodi:nodetypes="ccc" />
    </marker>
    <marker
       style="overflow:visible"
       id="Arrow1-2-3-6"
       refX="0.38260415"
       refY="0.028054057"
       orient="auto-start-reverse"
       inkscape:stockid="Arrow1"
       markerWidth="10"
       markerHeight="8"
       viewBox="0 0 3.8535327 6.7071068"
       inkscape:isstock="true"
       inkscape:collect="always"
       preserveAspectRatio="none">
      <path
         style="fill:none;stroke:context-stroke;stroke-width:1;stroke-linecap:butt"
         d="M 3,-3 0,0 3,3"
         id="path5057-70-6-2"
         transform="rotate(180,0.125,0)"
         sodipodi:nodetypes="ccc" />
    </marker>
    <marker
       style="overflow:visible"
       id="Arrow1-2-3-1"
       refX="0.38260415"
       refY="0.028054057"
       orient="auto-start-reverse"
       inkscape:stockid="Arrow1"
       markerWidth="10"
       markerHeight="8"
       viewBox="0 0 3.8535327 6.7071068"
       inkscape:isstock="true"
       inkscape:collect="always"
       preserveAspectRatio="none">
      <path
         style="fill:none;stroke:context-stroke;stroke-width:1;stroke-linecap:butt"
         d="M 3,-3 0,0 3,3"
         id="path5057-70-6-8"
         transform="rotate(180,0.125,0)"
         sodipodi:nodetypes="ccc" />
    </marker>
    <clipPath
       id="clipPath9919">
      <path
         clip-rule="nonzero"
         d="m 7,5 h 10 v 7.378906 H 7 Z m 0,0"
         id="path8231" />
    </clipPath>
    <clipPath
       id="clipPath4999">
      <path
         clip-rule="nonzero"
         d="m 8,7 h 11 v 7.851562 H 8 Z m 0,0"
         id="path5227" />
    </clipPath>
    <clipPath
       id="clipPath44">
      <path
         clip-rule="nonzero"
         d="m 8,6 h 12 v 8.851562 H 8 Z m 0,0"
         id="path5615" />
    </clipPath>
    <clipPath
       id="clipPath4278">
      <path
         clip-rule="nonzero"
         d="m 10,8 h 14 v 9.828125 H 10 Z m 0,0"
         id="path7101" />
    </clipPath>
    <clipPath
       id="clipPath391">
      <path
         clip-rule="nonzero"
         d="m 10,8 h 14 v 9.828125 H 10 Z m 0,0"
         id="path1862" />
    </clipPath>
    <clipPath
       id="clipPath1757">
      <path
         clip-rule="nonzero"
         d="M 12,10 H 27 V 21.386719 H 12 Z m 0,0"
         id="path6154" />
    </clipPath>
    <clipPath
       id="clipPath2744">
      <path
         clip-rule="nonzero"
         d="M 12,10 H 27 V 21.386719 H 12 Z m 0,0"
         id="path3620" />
    </clipPath>
    <clipPath
       id="clipPath5365">
      <path
         clip-rule="nonzero"
         d="M 13,10 H 27 V 21.386719 H 13 Z m 0,0"
         id="path6230" />
    </clipPath>
    <clipPath
       id="clipPath7812">
      <path
         clip-rule="nonzero"
         d="M 13,10 H 27 V 21.386719 H 13 Z m 0,0"
         id="path110" />
    </clipPath>
    <clipPath
       id="clipPath1198">
      <path
         clip-rule="nonzero"
         d="M 20,9 H 34 V 20.65625 H 20 Z m 0,0"
         id="path3297" />
    </clipPath>
    <clipPath
       id="clipPath1606">
      <path
         clip-rule="nonzero"
         d="M 19,9 H 34 V 20.65625 H 19 Z m 0,0"
         id="path7152" />
    </clipPath>
    <clipPath
       id="clipPath5408">
      <path
         clip-rule="nonzero"
         d="M 19,9 H 34 V 20.65625 H 19 Z m 0,0"
         id="path5407" />
    </clipPath>
    <clipPath
       id="clipPath8382">
      <path
         clip-rule="nonzero"
         d="M 20,9 H 34 V 20.65625 H 20 Z m 0,0"
         id="path3738" />
    </clipPath>
    <clipPath
       id="clipPath1599">
      <path
         clip-rule="nonzero"
         d="M 1,0 H 19 V 16.9375 H 1 Z m 0,0"
         id="path4460" />
    </clipPath>
    <clipPath
       id="clipPath4383">
      <path
         clip-rule="nonzero"
         d="M 13,10 H 27 V 21.386719 H 13 Z m 0,0"
         id="path5208" />
    </clipPath>
    <clipPath
       id="clipPath8723">
      <path
         clip-rule="nonzero"
         d="M 0,0 H 13 V 10.671875 H 0 Z m 0,0"
         id="path8979" />
    </clipPath>
    <clipPath
       id="clipPath5592">
      <path
         clip-rule="nonzero"
         d="M 0,0 H 12 V 15.492188 H 0 Z m 0,0"
         id="path9786" />
    </clipPath>
  </defs>
  <defs
     id="defs318">
    <clipPath
       id="pa21686b4ca">
      <rect
         x="176.39999"
         y="176.39999"
         width="151.2"
         height="151.2"
         id="rect315" />
    </clipPath>
  </defs>
  <rect
     style="fill:#ffffff;stroke:#ffffff;stroke-width:0;stroke-linejoin:bevel;stroke-miterlimit:1;paint-order:stroke markers fill"
     id="rect2611"
     width="560"
     height="500"
     x="5.6869612e-07"
     y="5.6869612e-07"
     sodipodi:insensitive="true" />
  <path
     style="fill:none;fill-opacity:0.976491;stroke:#ff0000;stroke-width:1.6;stroke-linejoin:bevel;stroke-miterlimit:1;stroke-dasharray:none;marker-end:url(#Arrow1);paint-order:stroke markers fill"
     d="m 211.40814,329.91746 121.55519,89.353"
     id="path3208"
     sodipodi:nodetypes="cc" />
  <path
     style="fill:none;fill-opacity:0.976491;stroke:#0000ff;stroke-width:1.6;stroke-linecap:butt;stroke-linejoin:bevel;stroke-miterlimit:1;stroke-dasharray:none;marker-end:url(#Arrow1-2);paint-order:stroke markers fill"
     d="m 211.82116,330.12933 71.46403,-87.71888"
     id="path3208-9"
     sodipodi:nodetypes="cc" />
  <path
     style="fill:none;fill-opacity:0.976491;stroke:#0000ff;stroke-width:1.6;stroke-linecap:butt;stroke-linejoin:bevel;stroke-miterlimit:1;stroke-dasharray:none;marker-end:url(#Arrow1-2-3);paint-order:stroke markers fill"
     d="M 361.88681,330.19761 286.09253,243.53995"
     id="path3208-9-0"
     sodipodi:nodetypes="cc" />
  <path
     style="fill:none;fill-opacity:0.976491;stroke:#0000ff;stroke-width:1.6;stroke-linecap:butt;stroke-linejoin:bevel;stroke-miterlimit:1;stroke-dasharray:none;marker-end:url(#Arrow1-2-3-6);paint-order:stroke markers fill"
     d="m 211.60341,179.39836 71.32313,60.9919"
     id="path3208-9-0-6"
     sodipodi:nodetypes="cc" />
  <path
     style="fill:none;fill-opacity:0.976491;stroke:#0000ff;stroke-width:1.6;stroke-linecap:butt;stroke-linejoin:bevel;stroke-miterlimit:1;stroke-dasharray:none;marker-end:url(#Arrow1-2-3-1);paint-order:stroke markers fill"
     d="M 362.72857,179.62598 286.9322,239.7213"
     id="path3208-9-0-7"
     sodipodi:nodetypes="cc" />
  <path
     style="fill:none;fill-opacity:0.976491;stroke:#ff0000;stroke-width:1.6;stroke-linecap:butt;stroke-linejoin:bevel;stroke-miterlimit:1;stroke-dasharray:none;marker-end:url(#Arrow1-6);paint-order:stroke markers fill"
     d="M 362.74953,330.26592 214.53979,299.84901"
     id="path3208-5"
     sodipodi:nodetypes="cc" />
  <path
     style="fill:none;fill-opacity:0.976491;stroke:#ff0000;stroke-width:1.6;stroke-linecap:butt;stroke-linejoin:bevel;stroke-miterlimit:1;stroke-dasharray:none;marker-end:url(#Arrow1-6-3);paint-order:stroke markers fill"
     d="m 362.58152,179.04982 -32.24143,147.1032"
     id="path3208-5-6"
     sodipodi:nodetypes="cc" />
  <path
     style="fill:none;fill-opacity:0.976491;stroke:#ff0000;stroke-width:1.6;stroke-linecap:butt;stroke-linejoin:bevel;stroke-miterlimit:1;stroke-dasharray:none;marker-end:url(#Arrow1-6-3-2);paint-order:stroke markers fill"
     d="M 211.91357,179.5944 126.14383,57.27162"
     id="path3208-5-6-1"
     sodipodi:nodetypes="cc" />
  <rect
     style="fill:#000000;fill-opacity:0.976491;stroke:none;stroke-width:3.41225;stroke-linejoin:bevel;stroke-miterlimit:1;stroke-dasharray:none;paint-order:stroke markers fill"
     id="rect15789"
     width="5.2137856"
     height="5.420095"
     x="282.19406"
     y="238.89641" />
  <rect
     style="display:inline;fill:none;fill-opacity:0.976491;stroke:#000000;stroke-width:1.58717;stroke-linejoin:bevel;stroke-miterlimit:1;stroke-dasharray:none;paint-order:stroke markers fill"
     id="rect15945"
     width="150.69653"
     height="151.18752"
     x="211.569"
     y="179.17715" />
  <g
     inkscape:label=""
     transform="translate(259.17705,382.72431)"
     id="g11473"
     style="fill:#ff0000">
    <g
       fill="#000000"
       fill-opacity="1"
       id="g11453"
       transform="translate(-0.665444,0.00387573)"
       style="fill:#ff0000">
      <g
         id="g11451"
         transform="translate(-0.98799998,17.667999)"
         style="fill:#ff0000">
        <path
           d="m 13.265625,-14.796875 c -0.3125,0.28125 -1.21875,1.140625 -1.21875,1.484375 0,0.25 0.21875,0.46875 0.46875,0.46875 0.21875,0 0.328125,-0.140625 0.5,-0.390625 0.59375,-0.75 1.265625,-1.21875 1.828125,-1.53125 0.25,-0.15625 0.421875,-0.234375 0.421875,-0.5 0,-0.21875 -0.203125,-0.34375 -0.34375,-0.46875 -0.703125,-0.46875 -0.875,-1.140625 -0.9375,-1.4375 -0.07813,-0.203125 -0.15625,-0.5 -0.5,-0.5 -0.15625,0 -0.453125,0.109375 -0.453125,0.46875 0,0.234375 0.15625,0.828125 0.625,1.484375 H 5.328125 c -0.421875,0 -0.84375,0 -0.84375,0.484375 0,0.4375 0.453125,0.4375 0.84375,0.4375 z m 0,0"
           id="path11449"
           style="fill:#ff0000" />
      </g>
    </g>
    <g
       fill="#000000"
       fill-opacity="1"
       id="g11459"
       transform="translate(-0.665444,0.00387573)"
       style="fill:#ff0000">
      <g
         id="g11457"
         transform="translate(-0.00643084,17.667999)"
         style="fill:#ff0000">
        <path
           d="m 11.328125,-9.265625 c 0,-1.5625 -0.796875,-1.65625 -1,-1.65625 -0.59375,0 -1.140625,0.59375 -1.140625,1.078125 0,0.296875 0.1875,0.46875 0.28125,0.578125 0.25,0.21875 0.890625,0.890625 0.890625,2.171875 0,1.046875 -1.484375,6.84375 -4.46875,6.84375 -1.5,0 -1.796875,-1.265625 -1.796875,-2.171875 0,-1.25 0.5625,-2.984375 1.234375,-4.765625 0.390625,-1.015625 0.5,-1.265625 0.5,-1.765625 0,-1.03125 -0.75,-1.96875 -1.96875,-1.96875 -2.265625,0 -3.1875,3.59375 -3.1875,3.78125 0,0.109375 0.09375,0.234375 0.265625,0.234375 0.234375,0 0.25,-0.109375 0.34375,-0.453125 0.609375,-2.125 1.5625,-3.078125 2.515625,-3.078125 0.21875,0 0.640625,0 0.640625,0.828125 0,0.640625 -0.28125,1.359375 -0.640625,2.296875 -1.1875,3.171875 -1.1875,3.9375 -1.1875,4.53125 0,0.546875 0.0625,1.5625 0.828125,2.265625 C 4.34375,0.25 5.578125,0.25 5.796875,0.25 c 4.109375,0 5.53125,-8.109375 5.53125,-9.515625 z m 0,0"
           id="path11455"
           style="fill:#ff0000" />
      </g>
    </g>
    <g
       clip-path="url(#clipPath1757)"
       id="g11471"
       transform="translate(-0.665444,0.00387573)"
       style="fill:#ff0000">
      <g
         fill="#000000"
         fill-opacity="1"
         id="g11469"
         style="fill:#ff0000">
        <g
           id="g11463"
           transform="translate(11.734,21.386)"
           style="fill:#ff0000">
          <path
             d="m 7.234375,-5.53125 c 0,-1.046875 -0.015625,-2.84375 -0.75,-4.21875 -0.625,-1.203125 -1.640625,-1.625 -2.546875,-1.625 -0.828125,0 -1.875,0.375 -2.53125,1.609375 -0.6875,1.296875 -0.75,2.890625 -0.75,4.234375 0,0.984375 0.015625,2.484375 0.546875,3.796875 0.75,1.765625 2.0625,2.015625 2.734375,2.015625 0.796875,0 2,-0.328125 2.703125,-1.96875 0.515625,-1.1875 0.59375,-2.578125 0.59375,-3.84375 z M 3.9375,0 C 2.84375,0 2.1875,-0.953125 1.953125,-2.25 1.75,-3.265625 1.75,-4.75 1.75,-5.71875 c 0,-1.328125 0,-2.421875 0.234375,-3.46875 0.328125,-1.46875 1.28125,-1.921875 1.953125,-1.921875 0.71875,0 1.625,0.46875 1.953125,1.875 C 6.109375,-8.25 6.125,-7.09375 6.125,-5.71875 c 0,1.125 0,2.5 -0.203125,3.515625 C 5.5625,-0.328125 4.546875,0 3.9375,0 Z m 0,0"
             id="path11461"
             style="fill:#ff0000" />
        </g>
        <g
           id="g11467"
           transform="translate(19.628983,21.386)"
           style="fill:#ff0000">
          <path
             d="m 7.234375,-5.53125 c 0,-1.046875 -0.015625,-2.84375 -0.75,-4.21875 -0.625,-1.203125 -1.640625,-1.625 -2.546875,-1.625 -0.828125,0 -1.875,0.375 -2.53125,1.609375 -0.6875,1.296875 -0.75,2.890625 -0.75,4.234375 0,0.984375 0.015625,2.484375 0.546875,3.796875 0.75,1.765625 2.0625,2.015625 2.734375,2.015625 0.796875,0 2,-0.328125 2.703125,-1.96875 0.515625,-1.1875 0.59375,-2.578125 0.59375,-3.84375 z M 3.9375,0 C 2.84375,0 2.1875,-0.953125 1.953125,-2.25 1.75,-3.265625 1.75,-4.75 1.75,-5.71875 c 0,-1.328125 0,-2.421875 0.234375,-3.46875 0.328125,-1.46875 1.28125,-1.921875 1.953125,-1.921875 0.71875,0 1.625,0.46875 1.953125,1.875 C 6.109375,-8.25 6.125,-7.09375 6.125,-5.71875 c 0,1.125 0,2.5 -0.203125,3.515625 C 5.5625,-0.328125 4.546875,0 3.9375,0 Z m 0,0"
             id="path11465"
             style="fill:#ff0000" />
        </g>
      </g>
    </g>
  </g>
  <g
     inkscape:label=""
     transform="translate(275.60733,288.66392)"
     id="g11760"
     style="fill:#ff0000">
    <g
       fill="#000000"
       fill-opacity="1"
       id="g11749"
       transform="translate(-0.665444,0.00387573)"
       style="fill:#ff0000">
      <g
         id="g11747"
         transform="translate(-0.98799998,17.667999)"
         style="fill:#ff0000">
        <path
           d="m 13.265625,-14.796875 c -0.3125,0.28125 -1.21875,1.140625 -1.21875,1.484375 0,0.25 0.21875,0.46875 0.46875,0.46875 0.21875,0 0.328125,-0.140625 0.5,-0.390625 0.59375,-0.75 1.265625,-1.21875 1.828125,-1.53125 0.25,-0.15625 0.421875,-0.234375 0.421875,-0.5 0,-0.21875 -0.203125,-0.34375 -0.34375,-0.46875 -0.703125,-0.46875 -0.875,-1.140625 -0.9375,-1.4375 -0.07813,-0.203125 -0.15625,-0.5 -0.5,-0.5 -0.15625,0 -0.453125,0.109375 -0.453125,0.46875 0,0.234375 0.15625,0.828125 0.625,1.484375 H 5.328125 c -0.421875,0 -0.84375,0 -0.84375,0.484375 0,0.4375 0.453125,0.4375 0.84375,0.4375 z m 0,0"
           id="path41"
           style="fill:#ff0000" />
      </g>
    </g>
    <g
       fill="#000000"
       fill-opacity="1"
       id="g27"
       transform="translate(-0.665444,0.00387573)"
       style="fill:#ff0000">
      <g
         id="use25"
         transform="translate(-0.00643084,17.667999)"
         style="fill:#ff0000">
        <path
           d="m 11.328125,-9.265625 c 0,-1.5625 -0.796875,-1.65625 -1,-1.65625 -0.59375,0 -1.140625,0.59375 -1.140625,1.078125 0,0.296875 0.1875,0.46875 0.28125,0.578125 0.25,0.21875 0.890625,0.890625 0.890625,2.171875 0,1.046875 -1.484375,6.84375 -4.46875,6.84375 -1.5,0 -1.796875,-1.265625 -1.796875,-2.171875 0,-1.25 0.5625,-2.984375 1.234375,-4.765625 0.390625,-1.015625 0.5,-1.265625 0.5,-1.765625 0,-1.03125 -0.75,-1.96875 -1.96875,-1.96875 -2.265625,0 -3.1875,3.59375 -3.1875,3.78125 0,0.109375 0.09375,0.234375 0.265625,0.234375 0.234375,0 0.25,-0.109375 0.34375,-0.453125 0.609375,-2.125 1.5625,-3.078125 2.515625,-3.078125 0.21875,0 0.640625,0 0.640625,0.828125 0,0.640625 -0.28125,1.359375 -0.640625,2.296875 -1.1875,3.171875 -1.1875,3.9375 -1.1875,4.53125 0,0.546875 0.0625,1.5625 0.828125,2.265625 C 4.34375,0.25 5.578125,0.25 5.796875,0.25 c 4.109375,0 5.53125,-8.109375 5.53125,-9.515625 z m 0,0"
           id="path45"
           style="fill:#ff0000" />
      </g>
    </g>
    <g
       clip-path="url(#clipPath2744)"
       id="g35"
       transform="translate(-0.665444,0.00387573)"
       style="fill:#ff0000">
      <g
         fill="#000000"
         fill-opacity="1"
         id="g33"
         style="fill:#ff0000">
        <g
           id="use29"
           transform="translate(11.734,21.386)"
           style="fill:#ff0000">
          <path
             d="m 7.234375,-5.53125 c 0,-1.046875 -0.015625,-2.84375 -0.75,-4.21875 -0.625,-1.203125 -1.640625,-1.625 -2.546875,-1.625 -0.828125,0 -1.875,0.375 -2.53125,1.609375 -0.6875,1.296875 -0.75,2.890625 -0.75,4.234375 0,0.984375 0.015625,2.484375 0.546875,3.796875 0.75,1.765625 2.0625,2.015625 2.734375,2.015625 0.796875,0 2,-0.328125 2.703125,-1.96875 0.515625,-1.1875 0.59375,-2.578125 0.59375,-3.84375 z M 3.9375,0 C 2.84375,0 2.1875,-0.953125 1.953125,-2.25 1.75,-3.265625 1.75,-4.75 1.75,-5.71875 c 0,-1.328125 0,-2.421875 0.234375,-3.46875 0.328125,-1.46875 1.28125,-1.921875 1.953125,-1.921875 0.71875,0 1.625,0.46875 1.953125,1.875 C 6.109375,-8.25 6.125,-7.09375 6.125,-5.71875 c 0,1.125 0,2.5 -0.203125,3.515625 C 5.5625,-0.328125 4.546875,0 3.9375,0 Z m 0,0"
             id="path49"
             style="fill:#ff0000" />
        </g>
        <g
           id="use31"
           transform="translate(19.628983,21.386)"
           style="fill:#ff0000">
          <path
             d="m 4.578125,-11 c 0,-0.359375 -0.015625,-0.375 -0.25,-0.375 -0.671875,0.796875 -1.6875,1.0625 -2.65625,1.09375 -0.046875,0 -0.140625,0 -0.15625,0.03125 C 1.5,-10.203125 1.5,-10.171875 1.5,-9.8125 c 0.53125,0 1.421875,-0.109375 2.109375,-0.515625 V -1.25 c 0,0.59375 -0.03125,0.796875 -1.515625,0.796875 H 1.578125 V 0 c 0.828125,-0.015625 1.6875,-0.03125 2.515625,-0.03125 0.828125,0 1.6875,0.015625 2.515625,0.03125 V -0.453125 H 6.09375 c -1.484375,0 -1.515625,-0.1875 -1.515625,-0.796875 z m 0,0"
             id="path53"
             style="fill:#ff0000" />
        </g>
      </g>
    </g>
  </g>
  <g
     inkscape:label=""
     transform="translate(318.78188,231.95252)"
     id="g12080"
     style="fill:#ff0000">
    <g
       fill="#000000"
       fill-opacity="1"
       id="g12067"
       transform="translate(-0.665444,0.00387573)"
       style="fill:#ff0000">
      <g
         id="g12065"
         transform="translate(-0.98799998,17.667999)"
         style="fill:#ff0000">
        <path
           d="m 13.265625,-14.796875 c -0.3125,0.28125 -1.21875,1.140625 -1.21875,1.484375 0,0.25 0.21875,0.46875 0.46875,0.46875 0.21875,0 0.328125,-0.140625 0.5,-0.390625 0.59375,-0.75 1.265625,-1.21875 1.828125,-1.53125 0.25,-0.15625 0.421875,-0.234375 0.421875,-0.5 0,-0.21875 -0.203125,-0.34375 -0.34375,-0.46875 -0.703125,-0.46875 -0.875,-1.140625 -0.9375,-1.4375 -0.07813,-0.203125 -0.15625,-0.5 -0.5,-0.5 -0.15625,0 -0.453125,0.109375 -0.453125,0.46875 0,0.234375 0.15625,0.828125 0.625,1.484375 H 5.328125 c -0.421875,0 -0.84375,0 -0.84375,0.484375 0,0.4375 0.453125,0.4375 0.84375,0.4375 z m 0,0"
           id="path12063"
           style="fill:#ff0000" />
      </g>
    </g>
    <g
       fill="#000000"
       fill-opacity="1"
       id="g24"
       transform="translate(-0.665444,0.00387573)"
       style="fill:#ff0000">
      <g
         id="g12071"
         transform="translate(-0.00643084,17.667999)"
         style="fill:#ff0000">
        <path
           d="m 11.328125,-9.265625 c 0,-1.5625 -0.796875,-1.65625 -1,-1.65625 -0.59375,0 -1.140625,0.59375 -1.140625,1.078125 0,0.296875 0.1875,0.46875 0.28125,0.578125 0.25,0.21875 0.890625,0.890625 0.890625,2.171875 0,1.046875 -1.484375,6.84375 -4.46875,6.84375 -1.5,0 -1.796875,-1.265625 -1.796875,-2.171875 0,-1.25 0.5625,-2.984375 1.234375,-4.765625 0.390625,-1.015625 0.5,-1.265625 0.5,-1.765625 0,-1.03125 -0.75,-1.96875 -1.96875,-1.96875 -2.265625,0 -3.1875,3.59375 -3.1875,3.78125 0,0.109375 0.09375,0.234375 0.265625,0.234375 0.234375,0 0.25,-0.109375 0.34375,-0.453125 0.609375,-2.125 1.5625,-3.078125 2.515625,-3.078125 0.21875,0 0.640625,0 0.640625,0.828125 0,0.640625 -0.28125,1.359375 -0.640625,2.296875 -1.1875,3.171875 -1.1875,3.9375 -1.1875,4.53125 0,0.546875 0.0625,1.5625 0.828125,2.265625 C 4.34375,0.25 5.578125,0.25 5.796875,0.25 c 4.109375,0 5.53125,-8.109375 5.53125,-9.515625 z m 0,0"
           id="path12069"
           style="fill:#ff0000" />
      </g>
    </g>
    <g
       clip-path="url(#clipPath5365)"
       id="g32"
       transform="translate(-0.665444,0.00387573)"
       style="fill:#ff0000">
      <g
         fill="#000000"
         fill-opacity="1"
         id="g30"
         style="fill:#ff0000">
        <g
           id="use26"
           transform="translate(11.734,21.386)"
           style="fill:#ff0000">
          <path
             d="m 4.578125,-11 c 0,-0.359375 -0.015625,-0.375 -0.25,-0.375 -0.671875,0.796875 -1.6875,1.0625 -2.65625,1.09375 -0.046875,0 -0.140625,0 -0.15625,0.03125 C 1.5,-10.203125 1.5,-10.171875 1.5,-9.8125 c 0.53125,0 1.421875,-0.109375 2.109375,-0.515625 V -1.25 c 0,0.59375 -0.03125,0.796875 -1.515625,0.796875 H 1.578125 V 0 c 0.828125,-0.015625 1.6875,-0.03125 2.515625,-0.03125 0.828125,0 1.6875,0.015625 2.515625,0.03125 V -0.453125 H 6.09375 c -1.484375,0 -1.515625,-0.1875 -1.515625,-0.796875 z m 0,0"
             id="path46"
             style="fill:#ff0000" />
        </g>
        <g
           id="use28"
           transform="translate(19.628983,21.386)"
           style="fill:#ff0000">
          <path
             d="m 4.578125,-11 c 0,-0.359375 -0.015625,-0.375 -0.25,-0.375 -0.671875,0.796875 -1.6875,1.0625 -2.65625,1.09375 -0.046875,0 -0.140625,0 -0.15625,0.03125 C 1.5,-10.203125 1.5,-10.171875 1.5,-9.8125 c 0.53125,0 1.421875,-0.109375 2.109375,-0.515625 V -1.25 c 0,0.59375 -0.03125,0.796875 -1.515625,0.796875 H 1.578125 V 0 c 0.828125,-0.015625 1.6875,-0.03125 2.515625,-0.03125 0.828125,0 1.6875,0.015625 2.515625,0.03125 V -0.453125 H 6.09375 c -1.484375,0 -1.515625,-0.1875 -1.515625,-0.796875 z m 0,0"
             id="path50"
             style="fill:#ff0000" />
        </g>
      </g>
    </g>
  </g>
  <g
     inkscape:label=""
     transform="translate(169.04186,171.78755)"
     id="g12818">
    <g
       fill="#000000"
       fill-opacity="1"
       id="g12804"
       transform="translate(-1.1875,0.515125)">
      <g
         id="g12802"
         transform="translate(0,16.938)">
        <path
           d="m 17.984375,-10.859375 c 0,-4.078125 -2.671875,-6.59375 -6.140625,-6.59375 -5.296875,0 -10.65625,5.703125 -10.65625,11.4375 0,3.890625 2.578125,6.53125 6.171875,6.53125 5.203125,0 10.625,-5.421875 10.625,-11.375 z m -10.46875,10.8125 c -2.03125,0 -4.1875,-1.484375 -4.1875,-5.359375 0,-2.25 0.8125,-5.9375 2.84375,-8.421875 1.8125,-2.1875 3.890625,-3.078125 5.546875,-3.078125 2.1875,0 4.296875,1.59375 4.296875,5.15625 0,2.203125 -0.953125,5.65625 -2.609375,8.015625 -1.8125,2.515625 -4.0625,3.6875 -5.890625,3.6875 z m 0,0"
           id="path12800" />
      </g>
    </g>
    <g
       clip-path="url(#clipPath1198)"
       id="g12816"
       transform="translate(-1.1875,0.515125)">
      <g
         fill="#000000"
         fill-opacity="1"
         id="g12814">
        <g
           id="g12808"
           transform="translate(18.548,20.656)">
          <path
             d="m 4.578125,-11 c 0,-0.359375 -0.015625,-0.375 -0.25,-0.375 -0.671875,0.796875 -1.6875,1.0625 -2.65625,1.09375 -0.046875,0 -0.140625,0 -0.15625,0.03125 C 1.5,-10.203125 1.5,-10.171875 1.5,-9.8125 c 0.53125,0 1.421875,-0.109375 2.109375,-0.515625 V -1.25 c 0,0.59375 -0.03125,0.796875 -1.515625,0.796875 H 1.578125 V 0 c 0.828125,-0.015625 1.6875,-0.03125 2.515625,-0.03125 0.828125,0 1.6875,0.015625 2.515625,0.03125 V -0.453125 H 6.09375 c -1.484375,0 -1.515625,-0.1875 -1.515625,-0.796875 z m 0,0"
             id="path12806" />
        </g>
        <g
           id="g12812"
           transform="translate(26.442982,20.656)">
          <path
             d="m 7.234375,-5.53125 c 0,-1.046875 -0.015625,-2.84375 -0.75,-4.21875 -0.625,-1.203125 -1.640625,-1.625 -2.546875,-1.625 -0.828125,0 -1.875,0.375 -2.53125,1.609375 -0.6875,1.296875 -0.75,2.890625 -0.75,4.234375 0,0.984375 0.015625,2.484375 0.546875,3.796875 0.75,1.765625 2.0625,2.015625 2.734375,2.015625 0.796875,0 2,-0.328125 2.703125,-1.96875 0.515625,-1.1875 0.59375,-2.578125 0.59375,-3.84375 z M 3.9375,0 C 2.84375,0 2.1875,-0.953125 1.953125,-2.25 1.75,-3.265625 1.75,-4.75 1.75,-5.71875 c 0,-1.328125 0,-2.421875 0.234375,-3.46875 0.328125,-1.46875 1.28125,-1.921875 1.953125,-1.921875 0.71875,0 1.625,0.46875 1.953125,1.875 C 6.109375,-8.25 6.125,-7.09375 6.125,-5.71875 c 0,1.125 0,2.5 -0.203125,3.515625 C 5.5625,-0.328125 4.546875,0 3.9375,0 Z m 0,0"
             id="path12810" />
        </g>
      </g>
    </g>
  </g>
  <g
     inkscape:label=""
     transform="translate(180.89692,331.80553)"
     id="g13200">
    <g
       fill="#000000"
       fill-opacity="1"
       id="g13186"
       transform="translate(-1.1875,0.515125)">
      <g
         id="g13184"
         transform="translate(0,16.938)">
        <path
           d="m 17.984375,-10.859375 c 0,-4.078125 -2.671875,-6.59375 -6.140625,-6.59375 -5.296875,0 -10.65625,5.703125 -10.65625,11.4375 0,3.890625 2.578125,6.53125 6.171875,6.53125 5.203125,0 10.625,-5.421875 10.625,-11.375 z m -10.46875,10.8125 c -2.03125,0 -4.1875,-1.484375 -4.1875,-5.359375 0,-2.25 0.8125,-5.9375 2.84375,-8.421875 1.8125,-2.1875 3.890625,-3.078125 5.546875,-3.078125 2.1875,0 4.296875,1.59375 4.296875,5.15625 0,2.203125 -0.953125,5.65625 -2.609375,8.015625 -1.8125,2.515625 -4.0625,3.6875 -5.890625,3.6875 z m 0,0"
           id="path13182" />
      </g>
    </g>
    <g
       clip-path="url(#clipPath1606)"
       id="g13198"
       transform="translate(-1.1875,0.515125)">
      <g
         fill="#000000"
         fill-opacity="1"
         id="g13196">
        <g
           id="g13190"
           transform="translate(18.548,20.656)">
          <path
             d="m 7.234375,-5.53125 c 0,-1.046875 -0.015625,-2.84375 -0.75,-4.21875 -0.625,-1.203125 -1.640625,-1.625 -2.546875,-1.625 -0.828125,0 -1.875,0.375 -2.53125,1.609375 -0.6875,1.296875 -0.75,2.890625 -0.75,4.234375 0,0.984375 0.015625,2.484375 0.546875,3.796875 0.75,1.765625 2.0625,2.015625 2.734375,2.015625 0.796875,0 2,-0.328125 2.703125,-1.96875 0.515625,-1.1875 0.59375,-2.578125 0.59375,-3.84375 z M 3.9375,0 C 2.84375,0 2.1875,-0.953125 1.953125,-2.25 1.75,-3.265625 1.75,-4.75 1.75,-5.71875 c 0,-1.328125 0,-2.421875 0.234375,-3.46875 0.328125,-1.46875 1.28125,-1.921875 1.953125,-1.921875 0.71875,0 1.625,0.46875 1.953125,1.875 C 6.109375,-8.25 6.125,-7.09375 6.125,-5.71875 c 0,1.125 0,2.5 -0.203125,3.515625 C 5.5625,-0.328125 4.546875,0 3.9375,0 Z m 0,0"
             id="path13188" />
        </g>
        <g
           id="g13194"
           transform="translate(26.442982,20.656)">
          <path
             d="m 7.234375,-5.53125 c 0,-1.046875 -0.015625,-2.84375 -0.75,-4.21875 -0.625,-1.203125 -1.640625,-1.625 -2.546875,-1.625 -0.828125,0 -1.875,0.375 -2.53125,1.609375 -0.6875,1.296875 -0.75,2.890625 -0.75,4.234375 0,0.984375 0.015625,2.484375 0.546875,3.796875 0.75,1.765625 2.0625,2.015625 2.734375,2.015625 0.796875,0 2,-0.328125 2.703125,-1.96875 0.515625,-1.1875 0.59375,-2.578125 0.59375,-3.84375 z M 3.9375,0 C 2.84375,0 2.1875,-0.953125 1.953125,-2.25 1.75,-3.265625 1.75,-4.75 1.75,-5.71875 c 0,-1.328125 0,-2.421875 0.234375,-3.46875 0.328125,-1.46875 1.28125,-1.921875 1.953125,-1.921875 0.71875,0 1.625,0.46875 1.953125,1.875 C 6.109375,-8.25 6.125,-7.09375 6.125,-5.71875 c 0,1.125 0,2.5 -0.203125,3.515625 C 5.5625,-0.328125 4.546875,0 3.9375,0 Z m 0,0"
             id="path13192" />
        </g>
      </g>
    </g>
  </g>
  <g
     inkscape:label=""
     transform="translate(352.60334,335.98366)"
     id="g13534">
    <g
       fill="#000000"
       fill-opacity="1"
       id="g13520"
       transform="translate(-1.1875,0.515125)">
      <g
         id="g13518"
         transform="translate(0,16.938)">
        <path
           d="m 17.984375,-10.859375 c 0,-4.078125 -2.671875,-6.59375 -6.140625,-6.59375 -5.296875,0 -10.65625,5.703125 -10.65625,11.4375 0,3.890625 2.578125,6.53125 6.171875,6.53125 5.203125,0 10.625,-5.421875 10.625,-11.375 z m -10.46875,10.8125 c -2.03125,0 -4.1875,-1.484375 -4.1875,-5.359375 0,-2.25 0.8125,-5.9375 2.84375,-8.421875 1.8125,-2.1875 3.890625,-3.078125 5.546875,-3.078125 2.1875,0 4.296875,1.59375 4.296875,5.15625 0,2.203125 -0.953125,5.65625 -2.609375,8.015625 -1.8125,2.515625 -4.0625,3.6875 -5.890625,3.6875 z m 0,0"
           id="path13516" />
      </g>
    </g>
    <g
       clip-path="url(#clipPath5408)"
       id="g13532"
       transform="translate(-1.1875,0.515125)">
      <g
         fill="#000000"
         fill-opacity="1"
         id="g13530">
        <g
           id="g13524"
           transform="translate(18.548,20.656)">
          <path
             d="m 7.234375,-5.53125 c 0,-1.046875 -0.015625,-2.84375 -0.75,-4.21875 -0.625,-1.203125 -1.640625,-1.625 -2.546875,-1.625 -0.828125,0 -1.875,0.375 -2.53125,1.609375 -0.6875,1.296875 -0.75,2.890625 -0.75,4.234375 0,0.984375 0.015625,2.484375 0.546875,3.796875 0.75,1.765625 2.0625,2.015625 2.734375,2.015625 0.796875,0 2,-0.328125 2.703125,-1.96875 0.515625,-1.1875 0.59375,-2.578125 0.59375,-3.84375 z M 3.9375,0 C 2.84375,0 2.1875,-0.953125 1.953125,-2.25 1.75,-3.265625 1.75,-4.75 1.75,-5.71875 c 0,-1.328125 0,-2.421875 0.234375,-3.46875 0.328125,-1.46875 1.28125,-1.921875 1.953125,-1.921875 0.71875,0 1.625,0.46875 1.953125,1.875 C 6.109375,-8.25 6.125,-7.09375 6.125,-5.71875 c 0,1.125 0,2.5 -0.203125,3.515625 C 5.5625,-0.328125 4.546875,0 3.9375,0 Z m 0,0"
             id="path13522" />
        </g>
        <g
           id="g13528"
           transform="translate(26.442982,20.656)">
          <path
             d="m 4.578125,-11 c 0,-0.359375 -0.015625,-0.375 -0.25,-0.375 -0.671875,0.796875 -1.6875,1.0625 -2.65625,1.09375 -0.046875,0 -0.140625,0 -0.15625,0.03125 C 1.5,-10.203125 1.5,-10.171875 1.5,-9.8125 c 0.53125,0 1.421875,-0.109375 2.109375,-0.515625 V -1.25 c 0,0.59375 -0.03125,0.796875 -1.515625,0.796875 H 1.578125 V 0 c 0.828125,-0.015625 1.6875,-0.03125 2.515625,-0.03125 0.828125,0 1.6875,0.015625 2.515625,0.03125 V -0.453125 H 6.09375 c -1.484375,0 -1.515625,-0.1875 -1.515625,-0.796875 z m 0,0"
             id="path13526" />
        </g>
      </g>
    </g>
  </g>
  <g
     inkscape:label=""
     transform="translate(367.93662,173.10653)"
     id="g13863">
    <g
       fill="#000000"
       fill-opacity="1"
       id="g17"
       transform="translate(-1.1875,0.515125)">
      <g
         id="use15"
         transform="translate(0,16.938)">
        <path
           d="m 17.984375,-10.859375 c 0,-4.078125 -2.671875,-6.59375 -6.140625,-6.59375 -5.296875,0 -10.65625,5.703125 -10.65625,11.4375 0,3.890625 2.578125,6.53125 6.171875,6.53125 5.203125,0 10.625,-5.421875 10.625,-11.375 z m -10.46875,10.8125 c -2.03125,0 -4.1875,-1.484375 -4.1875,-5.359375 0,-2.25 0.8125,-5.9375 2.84375,-8.421875 1.8125,-2.1875 3.890625,-3.078125 5.546875,-3.078125 2.1875,0 4.296875,1.59375 4.296875,5.15625 0,2.203125 -0.953125,5.65625 -2.609375,8.015625 -1.8125,2.515625 -4.0625,3.6875 -5.890625,3.6875 z m 0,0"
           id="path31" />
      </g>
    </g>
    <g
       clip-path="url(#clipPath8382)"
       id="g25"
       transform="translate(-1.1875,0.515125)">
      <g
         fill="#000000"
         fill-opacity="1"
         id="g23">
        <g
           id="use19"
           transform="translate(18.548,20.656)">
          <path
             d="m 4.578125,-11 c 0,-0.359375 -0.015625,-0.375 -0.25,-0.375 -0.671875,0.796875 -1.6875,1.0625 -2.65625,1.09375 -0.046875,0 -0.140625,0 -0.15625,0.03125 C 1.5,-10.203125 1.5,-10.171875 1.5,-9.8125 c 0.53125,0 1.421875,-0.109375 2.109375,-0.515625 V -1.25 c 0,0.59375 -0.03125,0.796875 -1.515625,0.796875 H 1.578125 V 0 c 0.828125,-0.015625 1.6875,-0.03125 2.515625,-0.03125 0.828125,0 1.6875,0.015625 2.515625,0.03125 V -0.453125 H 6.09375 c -1.484375,0 -1.515625,-0.1875 -1.515625,-0.796875 z m 0,0"
             id="path35" />
        </g>
        <g
           id="use21"
           transform="translate(26.442982,20.656)">
          <path
             d="m 4.578125,-11 c 0,-0.359375 -0.015625,-0.375 -0.25,-0.375 -0.671875,0.796875 -1.6875,1.0625 -2.65625,1.09375 -0.046875,0 -0.140625,0 -0.15625,0.03125 C 1.5,-10.203125 1.5,-10.171875 1.5,-9.8125 c 0.53125,0 1.421875,-0.109375 2.109375,-0.515625 V -1.25 c 0,0.59375 -0.03125,0.796875 -1.515625,0.796875 H 1.578125 V 0 c 0.828125,-0.015625 1.6875,-0.03125 2.515625,-0.03125 0.828125,0 1.6875,0.015625 2.515625,0.03125 V -0.453125 H 6.09375 c -1.484375,0 -1.515625,-0.1875 -1.515625,-0.796875 z m 0,0"
             id="path39" />
        </g>
      </g>
    </g>
  </g>
  <g
     inkscape:label=""
     transform="translate(275.76712,213.2797)"
     id="g14195">
    <g
       clip-path="url(#clipPath1599)"
       id="g14193"
       transform="translate(-1.17188,-0.0161247)">
      <g
         fill="#000000"
         fill-opacity="1"
         id="g14191">
        <g
           id="g14189"
           transform="translate(0,16.938)">
          <path
             d="M 7.328125,-7.875 H 11.5 c 3.421875,0 6.84375,-2.53125 6.84375,-5.359375 0,-1.9375 -1.640625,-3.6875 -4.765625,-3.6875 h -7.65625 c -0.46875,0 -0.6875,0 -0.6875,0.46875 0,0.25 0.21875,0.25 0.59375,0.25 1.5,0 1.5,0.1875 1.5,0.46875 0,0.04687 0,0.203125 -0.09375,0.5625 l -3.34375,13.34375 c -0.21875,0.859375 -0.265625,1.109375 -2,1.109375 -0.484375,0 -0.71875,0 -0.71875,0.453125 C 1.171875,0 1.390625,0 1.53125,0 2,0 2.5,-0.046875 2.96875,-0.046875 H 5.875 C 6.34375,-0.046875 6.859375,0 7.328125,0 7.53125,0 7.8125,0 7.8125,-0.46875 c 0,-0.25 -0.234375,-0.25 -0.59375,-0.25 -1.5,0 -1.515625,-0.171875 -1.515625,-0.421875 0,-0.125 0.015625,-0.296875 0.046875,-0.421875 z M 9.125,-15.234375 c 0.21875,-0.921875 0.3125,-0.96875 1.28125,-0.96875 h 2.453125 c 1.859375,0 3.390625,0.59375 3.390625,2.453125 0,0.640625 -0.3125,2.75 -1.453125,3.890625 -0.421875,0.4375 -1.609375,1.390625 -3.875,1.390625 H 7.4375 Z m 0,0"
             id="path14187" />
        </g>
      </g>
    </g>
  </g>
  <g
     inkscape:label=""
     transform="translate(145.89332,121.55383)"
     id="g17180"
     style="fill:#ff0000">
    <g
       fill="#000000"
       fill-opacity="1"
       id="g17160"
       transform="translate(-0.665444,0.00387573)"
       style="fill:#ff0000">
      <g
         id="g17158"
         transform="translate(-0.98799998,17.667999)"
         style="fill:#ff0000">
        <path
           d="m 13.265625,-14.796875 c -0.3125,0.28125 -1.21875,1.140625 -1.21875,1.484375 0,0.25 0.21875,0.46875 0.46875,0.46875 0.21875,0 0.328125,-0.140625 0.5,-0.390625 0.59375,-0.75 1.265625,-1.21875 1.828125,-1.53125 0.25,-0.15625 0.421875,-0.234375 0.421875,-0.5 0,-0.21875 -0.203125,-0.34375 -0.34375,-0.46875 -0.703125,-0.46875 -0.875,-1.140625 -0.9375,-1.4375 -0.07813,-0.203125 -0.15625,-0.5 -0.5,-0.5 -0.15625,0 -0.453125,0.109375 -0.453125,0.46875 0,0.234375 0.15625,0.828125 0.625,1.484375 H 5.328125 c -0.421875,0 -0.84375,0 -0.84375,0.484375 0,0.4375 0.453125,0.4375 0.84375,0.4375 z m 0,0"
           id="path17156"
           style="fill:#ff0000" />
      </g>
    </g>
    <g
       fill="#000000"
       fill-opacity="1"
       id="g17166"
       transform="translate(-0.665444,0.00387573)"
       style="fill:#ff0000">
      <g
         id="g17164"
         transform="translate(-0.00643084,17.667999)"
         style="fill:#ff0000">
        <path
           d="m 11.328125,-9.265625 c 0,-1.5625 -0.796875,-1.65625 -1,-1.65625 -0.59375,0 -1.140625,0.59375 -1.140625,1.078125 0,0.296875 0.1875,0.46875 0.28125,0.578125 0.25,0.21875 0.890625,0.890625 0.890625,2.171875 0,1.046875 -1.484375,6.84375 -4.46875,6.84375 -1.5,0 -1.796875,-1.265625 -1.796875,-2.171875 0,-1.25 0.5625,-2.984375 1.234375,-4.765625 0.390625,-1.015625 0.5,-1.265625 0.5,-1.765625 0,-1.03125 -0.75,-1.96875 -1.96875,-1.96875 -2.265625,0 -3.1875,3.59375 -3.1875,3.78125 0,0.109375 0.09375,0.234375 0.265625,0.234375 0.234375,0 0.25,-0.109375 0.34375,-0.453125 0.609375,-2.125 1.5625,-3.078125 2.515625,-3.078125 0.21875,0 0.640625,0 0.640625,0.828125 0,0.640625 -0.28125,1.359375 -0.640625,2.296875 -1.1875,3.171875 -1.1875,3.9375 -1.1875,4.53125 0,0.546875 0.0625,1.5625 0.828125,2.265625 C 4.34375,0.25 5.578125,0.25 5.796875,0.25 c 4.109375,0 5.53125,-8.109375 5.53125,-9.515625 z m 0,0"
           id="path17162"
           style="fill:#ff0000" />
      </g>
    </g>
    <g
       clip-path="url(#clipPath4383)"
       id="g17178"
       transform="translate(-0.665444,0.00387573)"
       style="fill:#ff0000">
      <g
         fill="#000000"
         fill-opacity="1"
         id="g17176"
         style="fill:#ff0000">
        <g
           id="g17170"
           transform="translate(11.734,21.386)"
           style="fill:#ff0000">
          <path
             d="m 4.578125,-11 c 0,-0.359375 -0.015625,-0.375 -0.25,-0.375 -0.671875,0.796875 -1.6875,1.0625 -2.65625,1.09375 -0.046875,0 -0.140625,0 -0.15625,0.03125 C 1.5,-10.203125 1.5,-10.171875 1.5,-9.8125 c 0.53125,0 1.421875,-0.109375 2.109375,-0.515625 V -1.25 c 0,0.59375 -0.03125,0.796875 -1.515625,0.796875 H 1.578125 V 0 c 0.828125,-0.015625 1.6875,-0.03125 2.515625,-0.03125 0.828125,0 1.6875,0.015625 2.515625,0.03125 V -0.453125 H 6.09375 c -1.484375,0 -1.515625,-0.1875 -1.515625,-0.796875 z m 0,0"
             id="path17168"
             style="fill:#ff0000" />
        </g>
        <g
           id="g17174"
           transform="translate(19.628983,21.386)"
           style="fill:#ff0000">
          <path
             d="m 7.234375,-5.53125 c 0,-1.046875 -0.015625,-2.84375 -0.75,-4.21875 -0.625,-1.203125 -1.640625,-1.625 -2.546875,-1.625 -0.828125,0 -1.875,0.375 -2.53125,1.609375 -0.6875,1.296875 -0.75,2.890625 -0.75,4.234375 0,0.984375 0.015625,2.484375 0.546875,3.796875 0.75,1.765625 2.0625,2.015625 2.734375,2.015625 0.796875,0 2,-0.328125 2.703125,-1.96875 0.515625,-1.1875 0.59375,-2.578125 0.59375,-3.84375 z M 3.9375,0 C 2.84375,0 2.1875,-0.953125 1.953125,-2.25 1.75,-3.265625 1.75,-4.75 1.75,-5.71875 c 0,-1.328125 0,-2.421875 0.234375,-3.46875 0.328125,-1.46875 1.28125,-1.921875 1.953125,-1.921875 0.71875,0 1.625,0.46875 1.953125,1.875 C 6.109375,-8.25 6.125,-7.09375 6.125,-5.71875 c 0,1.125 0,2.5 -0.203125,3.515625 C 5.5625,-0.328125 4.546875,0 3.9375,0 Z m 0,0"
             id="path17172"
             style="fill:#ff0000" />
        </g>
      </g>
    </g>
  </g>
  <path
     style="fill:#ffffff;fill-opacity:0.756596;stroke:#000000;stroke-width:0.999997;stroke-linejoin:bevel;stroke-miterlimit:1;paint-order:stroke markers fill"
     d="M 210.91102,330.26955 H 464.60321"
     id="path552" />
  <path
     style="fill:#ffffff;fill-opacity:0.756596;stroke:#000000;stroke-width:0.999997;stroke-linejoin:bevel;stroke-miterlimit:1;paint-order:stroke markers fill"
     d="M 211.6748,65.761067 V 330.8249"
     id="path1259" />
  <g
     inkscape:label=""
     transform="translate(466.58355,325.12651)"
     id="g2312">
    <g
       clip-path="url(#clipPath8723)"
       id="g16"
       transform="translate(-0.6875,0.249875)">
      <g
         fill="#000000"
         fill-opacity="1"
         id="g14">
        <g
           id="use12"
           transform="translate(0,10.672)">
          <path
             d="m 11.75,-10.109375 c -0.796875,0.140625 -1.09375,0.734375 -1.09375,1.21875 0,0.59375 0.46875,0.78125 0.8125,0.78125 0.75,0 1.265625,-0.640625 1.265625,-1.3125 0,-1.03125 -1.1875,-1.5 -2.234375,-1.5 -1.5,0 -2.34375,1.484375 -2.5625,1.953125 -0.578125,-1.859375 -2.109375,-1.953125 -2.5625,-1.953125 -2.53125,0 -3.859375,3.234375 -3.859375,3.78125 0,0.109375 0.09375,0.234375 0.265625,0.234375 0.203125,0 0.25,-0.15625 0.296875,-0.25 0.84375,-2.75 2.5,-3.28125 3.21875,-3.28125 1.125,0 1.34375,1.046875 1.34375,1.640625 C 6.640625,-8.25 6.5,-7.6875 6.1875,-6.5 l -0.828125,3.40625 c -0.375,1.484375 -1.09375,2.84375 -2.40625,2.84375 -0.125,0 -0.75,0 -1.265625,-0.3125 0.890625,-0.1875 1.09375,-0.921875 1.09375,-1.21875 0,-0.5 -0.375,-0.796875 -0.84375,-0.796875 -0.59375,0 -1.25,0.515625 -1.25,1.3125 0,1.046875 1.171875,1.515625 2.234375,1.515625 1.1875,0 2.03125,-0.9375 2.5625,-1.953125 C 5.875,-0.25 7.109375,0.25 8.03125,0.25 c 2.53125,0 3.859375,-3.25 3.859375,-3.796875 0,-0.125 -0.09375,-0.21875 -0.25,-0.21875 -0.21875,0 -0.234375,0.125 -0.3125,0.328125 -0.671875,2.171875 -2.109375,3.1875 -3.21875,3.1875 -0.875,0 -1.34375,-0.640625 -1.34375,-1.65625 0,-0.546875 0.09375,-0.9375 0.5,-2.578125 L 8.125,-7.859375 C 8.5,-9.34375 9.34375,-10.4375 10.484375,-10.4375 c 0.04687,0 0.734375,0 1.265625,0.328125 z m 0,0"
             id="path22" />
        </g>
      </g>
    </g>
  </g>
  <g
     inkscape:label=""
     transform="translate(208.16778,47.768269)"
     id="g5213">
    <g
       clip-path="url(#clipPath5592)"
       id="g5211"
       transform="translate(-0.671875,0.249875)">
      <g
         fill="#000000"
         fill-opacity="1"
         id="g5209">
        <g
           id="g5207"
           transform="translate(0,10.672)">
          <path
             d="M 6.515625,2.78125 C 5.84375,3.71875 4.875,4.5625 3.671875,4.5625 3.375,4.5625 2.1875,4.515625 1.8125,3.375 1.890625,3.390625 2,3.390625 2.0625,3.390625 2.796875,3.390625 3.296875,2.75 3.296875,2.1875 3.296875,1.609375 2.828125,1.40625 2.453125,1.40625 2.0625,1.40625 1.1875,1.703125 1.1875,2.921875 1.1875,4.1875 2.25,5.0625 3.671875,5.0625 c 2.46875,0 4.984375,-2.28125 5.671875,-5.03125 l 2.421875,-9.671875 c 0.03125,-0.125 0.07813,-0.265625 0.07813,-0.421875 0,-0.375 -0.296875,-0.625 -0.671875,-0.625 -0.21875,0 -0.734375,0.109375 -0.9375,0.84375 l -1.82813,7.296875 c -0.125,0.4375 -0.125,0.484375 -0.328125,0.765625 -0.5,0.6875 -1.3125,1.53125 -2.5,1.53125 C 4.1875,-0.25 4.0625,-1.609375 4.0625,-2.28125 c 0,-1.40625 0.671875,-3.3125 1.34375,-5.109375 0.265625,-0.71875 0.421875,-1.0625 0.421875,-1.5625 0,-1.03125 -0.75,-1.96875 -1.96875,-1.96875 -2.265625,0 -3.1875,3.59375 -3.1875,3.78125 0,0.109375 0.09375,0.234375 0.265625,0.234375 0.234375,0 0.25,-0.109375 0.34375,-0.453125 0.609375,-2.078125 1.546875,-3.078125 2.515625,-3.078125 0.21875,0 0.640625,0 0.640625,0.828125 0,0.640625 -0.28125,1.359375 -0.640625,2.296875 -1.21875,3.25 -1.21875,4.0625 -1.21875,4.65625 0,2.359375 1.6875,2.90625 2.921875,2.90625 0.71875,0 1.609375,-0.21875 2.484375,-1.140625 L 8,-0.875 C 7.625,0.59375 7.390625,1.5625 6.515625,2.78125 Z m 0,0"
             id="path5205" />
        </g>
      </g>
    </g>
  </g>
</svg>
