<?xml version="1.0" encoding="utf-8" standalone="no"?>
<!DOCTYPE svg PUBLIC "-//W3C//DTD SVG 1.1//EN"
  "http://www.w3.org/Graphics/SVG/1.1/DTD/svg11.dtd">
<svg xmlns:xlink="http://www.w3.org/1999/xlink" width="360pt" height="360pt" viewBox="0 0 360 360" xmlns="http://www.w3.org/2000/svg" version="1.1">
 <metadata>
  <rdf:RDF xmlns:dc="http://purl.org/dc/elements/1.1/" xmlns:cc="http://creativecommons.org/ns#" xmlns:rdf="http://www.w3.org/1999/02/22-rdf-syntax-ns#">
   <cc:Work>
    <dc:type rdf:resource="http://purl.org/dc/dcmitype/StillImage"/>
    <dc:date>2025-02-19T11:49:58.027348</dc:date>
    <dc:format>image/svg+xml</dc:format>
    <dc:creator>
     <cc:Agent>
      <dc:title>Matplotlib v3.6.3, https://matplotlib.org/</dc:title>
     </cc:Agent>
    </dc:creator>
   </cc:Work>
  </rdf:RDF>
 </metadata>
 <defs>
  <style type="text/css">*{stroke-linejoin: round; stroke-linecap: butt}</style>
 </defs>
 <g id="figure_1">
  <g id="patch_1">
   <path d="M 0 360 
L 360 360 
L 360 0 
L 0 0 
z
" style="fill: #ffffff"/>
  </g>
  <g id="axes_1">
   <g id="patch_2">
    <path d="M 72 289.8 
L 288 289.8 
L 288 73.8 
L 72 73.8 
z
" style="fill: #ffffff"/>
   </g>
   <g id="Quiver_1">
    <path d="M 72.572756 289.227244 
L 139.417948 356.072435 
L 139.990705 354.354166 
L 144 361.8 
L 136.554166 357.790705 
L 138.272435 357.217948 
L 71.427244 290.372756 
L 72.572756 289.227244 
" style="fill: #ff0000"/>
    <path d="M 72 216.99 
L 136.71 216.99 
L 135.9 215.37 
L 144 217.8 
L 135.9 220.23 
L 136.71 218.61 
L 72 218.61 
L 72 216.99 
" style="fill: #ff0000"/>
    <path d="M 71.427244 146.372756 
L 4.582052 79.527565 
L 4.009295 81.245834 
L 0 73.8 
L 7.445834 77.809295 
L 5.727565 78.382052 
L 72.572756 145.227244 
L 71.427244 146.372756 
" style="fill: #ff0000"/>
    <path d="M 72.572756 74.372756 
L 5.727565 141.217948 
L 7.445834 141.790705 
L 0 145.8 
L 4.009295 138.354166 
L 4.582052 140.072435 
L 71.427244 73.227244 
L 72.572756 74.372756 
" style="fill: #ff0000"/>
    <path d="M 144 290.61 
L 79.29 290.61 
L 80.1 292.23 
L 72 289.8 
L 80.1 287.37 
L 79.29 288.99 
L 144 288.99 
L 144 290.61 
" style="fill: #ff0000"/>
    <path d="M 143.427244 217.227244 
L 210.272435 150.382052 
L 208.554166 149.809295 
L 216 145.8 
L 211.990705 153.245834 
L 211.417948 151.527565 
L 144.572756 218.372756 
L 143.427244 217.227244 
" style="fill: #ff0000"/>
    <path d="M 143.427244 145.227244 
L 210.272435 78.382052 
L 208.554166 77.809295 
L 216 73.8 
L 211.990705 81.245834 
L 211.417948 79.527565 
L 144.572756 146.372756 
L 143.427244 145.227244 
" style="fill: #ff0000"/>
    <path d="M 143.19 73.8 
L 143.19 9.09 
L 141.57 9.9 
L 144 1.8 
L 146.43 9.9 
L 144.81 9.09 
L 144.81 73.8 
L 143.19 73.8 
" style="fill: #ff0000"/>
    <path d="M 216.81 289.8 
L 216.81 354.51 
L 218.43 353.7 
L 216 361.8 
L 213.57 353.7 
L 215.19 354.51 
L 215.19 289.8 
L 216.81 289.8 
" style="fill: #ff0000"/>
    <path d="M 216 216.99 
L 280.71 216.99 
L 279.9 215.37 
L 288 217.8 
L 279.9 220.23 
L 280.71 218.61 
L 216 218.61 
L 216 216.99 
" style="fill: #ff0000"/>
    <path d="M 216 144.99 
L 280.71 144.99 
L 279.9 143.37 
L 288 145.8 
L 279.9 148.23 
L 280.71 146.61 
L 216 146.61 
L 216 144.99 
" style="fill: #ff0000"/>
    <path d="M 216 74.61 
L 151.29 74.61 
L 152.1 76.23 
L 144 73.8 
L 152.1 71.37 
L 151.29 72.99 
L 216 72.99 
L 216 74.61 
" style="fill: #ff0000"/>
    <path d="M 287.427244 289.227244 
L 354.272435 222.382052 
L 352.554166 221.809295 
L 360 217.8 
L 355.990705 225.245834 
L 355.417948 223.527565 
L 288.572756 290.372756 
L 287.427244 289.227244 
" style="fill: #ff0000"/>
    <path d="M 288.572756 218.372756 
L 221.727565 285.217948 
L 223.445834 285.790705 
L 216 289.8 
L 220.009295 282.354166 
L 220.582052 284.072435 
L 287.427244 217.227244 
L 288.572756 218.372756 
" style="fill: #ff0000"/>
    <path d="M 288 144.99 
L 352.71 144.99 
L 351.9 143.37 
L 360 145.8 
L 351.9 148.23 
L 352.71 146.61 
L 288 146.61 
L 288 144.99 
" style="fill: #ff0000"/>
    <path d="M 288 74.61 
L 223.29 74.61 
L 224.1 76.23 
L 216 73.8 
L 224.1 71.37 
L 223.29 72.99 
L 288 72.99 
L 288 74.61 
" style="fill: #ff0000"/>
   </g>
   <g id="matplotlib.axis_1">
    <g id="xtick_1">
     <g id="line2d_1">
      <path d="M 72 289.8 
L 72 73.8 
" clip-path="url(#p0e32dc4afa)" style="fill: none; stroke: #b0b0b0; stroke-width: 0.8; stroke-linecap: square"/>
     </g>
     <g id="line2d_2">
      <defs>
       <path id="ma7ec637711" d="M 0 0 
L 0 3.5 
" style="stroke: #000000; stroke-width: 0.8"/>
      </defs>
      <g>
       <use xlink:href="#ma7ec637711" x="72" y="289.8" style="stroke: #000000; stroke-width: 0.8"/>
      </g>
     </g>
     <g id="text_1">
      <!-- 0 -->
      <g transform="translate(68.81875 304.398438) scale(0.1 -0.1)">
       <defs>
        <path id="DejaVuSans-30" d="M 2034 4250 
Q 1547 4250 1301 3770 
Q 1056 3291 1056 2328 
Q 1056 1369 1301 889 
Q 1547 409 2034 409 
Q 2525 409 2770 889 
Q 3016 1369 3016 2328 
Q 3016 3291 2770 3770 
Q 2525 4250 2034 4250 
z
M 2034 4750 
Q 2819 4750 3233 4129 
Q 3647 3509 3647 2328 
Q 3647 1150 3233 529 
Q 2819 -91 2034 -91 
Q 1250 -91 836 529 
Q 422 1150 422 2328 
Q 422 3509 836 4129 
Q 1250 4750 2034 4750 
z
" transform="scale(0.015625)"/>
       </defs>
       <use xlink:href="#DejaVuSans-30"/>
      </g>
     </g>
    </g>
    <g id="xtick_2">
     <g id="line2d_3">
      <path d="M 144 289.8 
L 144 73.8 
" clip-path="url(#p0e32dc4afa)" style="fill: none; stroke: #b0b0b0; stroke-width: 0.8; stroke-linecap: square"/>
     </g>
     <g id="line2d_4">
      <g>
       <use xlink:href="#ma7ec637711" x="144" y="289.8" style="stroke: #000000; stroke-width: 0.8"/>
      </g>
     </g>
     <g id="text_2">
      <!-- 1 -->
      <g transform="translate(140.81875 304.398438) scale(0.1 -0.1)">
       <defs>
        <path id="DejaVuSans-31" d="M 794 531 
L 1825 531 
L 1825 4091 
L 703 3866 
L 703 4441 
L 1819 4666 
L 2450 4666 
L 2450 531 
L 3481 531 
L 3481 0 
L 794 0 
L 794 531 
z
" transform="scale(0.015625)"/>
       </defs>
       <use xlink:href="#DejaVuSans-31"/>
      </g>
     </g>
    </g>
    <g id="xtick_3">
     <g id="line2d_5">
      <path d="M 216 289.8 
L 216 73.8 
" clip-path="url(#p0e32dc4afa)" style="fill: none; stroke: #b0b0b0; stroke-width: 0.8; stroke-linecap: square"/>
     </g>
     <g id="line2d_6">
      <g>
       <use xlink:href="#ma7ec637711" x="216" y="289.8" style="stroke: #000000; stroke-width: 0.8"/>
      </g>
     </g>
     <g id="text_3">
      <!-- 2 -->
      <g transform="translate(212.81875 304.398438) scale(0.1 -0.1)">
       <defs>
        <path id="DejaVuSans-32" d="M 1228 531 
L 3431 531 
L 3431 0 
L 469 0 
L 469 531 
Q 828 903 1448 1529 
Q 2069 2156 2228 2338 
Q 2531 2678 2651 2914 
Q 2772 3150 2772 3378 
Q 2772 3750 2511 3984 
Q 2250 4219 1831 4219 
Q 1534 4219 1204 4116 
Q 875 4013 500 3803 
L 500 4441 
Q 881 4594 1212 4672 
Q 1544 4750 1819 4750 
Q 2544 4750 2975 4387 
Q 3406 4025 3406 3419 
Q 3406 3131 3298 2873 
Q 3191 2616 2906 2266 
Q 2828 2175 2409 1742 
Q 1991 1309 1228 531 
z
" transform="scale(0.015625)"/>
       </defs>
       <use xlink:href="#DejaVuSans-32"/>
      </g>
     </g>
    </g>
    <g id="xtick_4">
     <g id="line2d_7">
      <path d="M 288 289.8 
L 288 73.8 
" clip-path="url(#p0e32dc4afa)" style="fill: none; stroke: #b0b0b0; stroke-width: 0.8; stroke-linecap: square"/>
     </g>
     <g id="line2d_8">
      <g>
       <use xlink:href="#ma7ec637711" x="288" y="289.8" style="stroke: #000000; stroke-width: 0.8"/>
      </g>
     </g>
     <g id="text_4">
      <!-- 3 -->
      <g transform="translate(284.81875 304.398438) scale(0.1 -0.1)">
       <defs>
        <path id="DejaVuSans-33" d="M 2597 2516 
Q 3050 2419 3304 2112 
Q 3559 1806 3559 1356 
Q 3559 666 3084 287 
Q 2609 -91 1734 -91 
Q 1441 -91 1130 -33 
Q 819 25 488 141 
L 488 750 
Q 750 597 1062 519 
Q 1375 441 1716 441 
Q 2309 441 2620 675 
Q 2931 909 2931 1356 
Q 2931 1769 2642 2001 
Q 2353 2234 1838 2234 
L 1294 2234 
L 1294 2753 
L 1863 2753 
Q 2328 2753 2575 2939 
Q 2822 3125 2822 3475 
Q 2822 3834 2567 4026 
Q 2313 4219 1838 4219 
Q 1578 4219 1281 4162 
Q 984 4106 628 3988 
L 628 4550 
Q 988 4650 1302 4700 
Q 1616 4750 1894 4750 
Q 2613 4750 3031 4423 
Q 3450 4097 3450 3541 
Q 3450 3153 3228 2886 
Q 3006 2619 2597 2516 
z
" transform="scale(0.015625)"/>
       </defs>
       <use xlink:href="#DejaVuSans-33"/>
      </g>
     </g>
    </g>
    <g id="text_5">
     <!-- x -->
     <g transform="translate(177.040625 318.076563) scale(0.1 -0.1)">
      <defs>
       <path id="DejaVuSans-78" d="M 3513 3500 
L 2247 1797 
L 3578 0 
L 2900 0 
L 1881 1375 
L 863 0 
L 184 0 
L 1544 1831 
L 300 3500 
L 978 3500 
L 1906 2253 
L 2834 3500 
L 3513 3500 
z
" transform="scale(0.015625)"/>
      </defs>
      <use xlink:href="#DejaVuSans-78"/>
     </g>
    </g>
   </g>
   <g id="matplotlib.axis_2">
    <g id="ytick_1">
     <g id="line2d_9">
      <path d="M 72 289.8 
L 288 289.8 
" clip-path="url(#p0e32dc4afa)" style="fill: none; stroke: #b0b0b0; stroke-width: 0.8; stroke-linecap: square"/>
     </g>
     <g id="line2d_10">
      <defs>
       <path id="m3c5dc65cd5" d="M 0 0 
L -3.5 0 
" style="stroke: #000000; stroke-width: 0.8"/>
      </defs>
      <g>
       <use xlink:href="#m3c5dc65cd5" x="72" y="289.8" style="stroke: #000000; stroke-width: 0.8"/>
      </g>
     </g>
     <g id="text_6">
      <!-- 0 -->
      <g transform="translate(58.6375 293.599219) scale(0.1 -0.1)">
       <use xlink:href="#DejaVuSans-30"/>
      </g>
     </g>
    </g>
    <g id="ytick_2">
     <g id="line2d_11">
      <path d="M 72 217.8 
L 288 217.8 
" clip-path="url(#p0e32dc4afa)" style="fill: none; stroke: #b0b0b0; stroke-width: 0.8; stroke-linecap: square"/>
     </g>
     <g id="line2d_12">
      <g>
       <use xlink:href="#m3c5dc65cd5" x="72" y="217.8" style="stroke: #000000; stroke-width: 0.8"/>
      </g>
     </g>
     <g id="text_7">
      <!-- 1 -->
      <g transform="translate(58.6375 221.599219) scale(0.1 -0.1)">
       <use xlink:href="#DejaVuSans-31"/>
      </g>
     </g>
    </g>
    <g id="ytick_3">
     <g id="line2d_13">
      <path d="M 72 145.8 
L 288 145.8 
" clip-path="url(#p0e32dc4afa)" style="fill: none; stroke: #b0b0b0; stroke-width: 0.8; stroke-linecap: square"/>
     </g>
     <g id="line2d_14">
      <g>
       <use xlink:href="#m3c5dc65cd5" x="72" y="145.8" style="stroke: #000000; stroke-width: 0.8"/>
      </g>
     </g>
     <g id="text_8">
      <!-- 2 -->
      <g transform="translate(58.6375 149.599219) scale(0.1 -0.1)">
       <use xlink:href="#DejaVuSans-32"/>
      </g>
     </g>
    </g>
    <g id="ytick_4">
     <g id="line2d_15">
      <path d="M 72 73.8 
L 288 73.8 
" clip-path="url(#p0e32dc4afa)" style="fill: none; stroke: #b0b0b0; stroke-width: 0.8; stroke-linecap: square"/>
     </g>
     <g id="line2d_16">
      <g>
       <use xlink:href="#m3c5dc65cd5" x="72" y="73.8" style="stroke: #000000; stroke-width: 0.8"/>
      </g>
     </g>
     <g id="text_9">
      <!-- 3 -->
      <g transform="translate(58.6375 77.599219) scale(0.1 -0.1)">
       <use xlink:href="#DejaVuSans-33"/>
      </g>
     </g>
    </g>
    <g id="text_10">
     <!-- y -->
     <g transform="translate(52.557813 184.759375) rotate(-90) scale(0.1 -0.1)">
      <defs>
       <path id="DejaVuSans-79" d="M 2059 -325 
Q 1816 -950 1584 -1140 
Q 1353 -1331 966 -1331 
L 506 -1331 
L 506 -850 
L 844 -850 
Q 1081 -850 1212 -737 
Q 1344 -625 1503 -206 
L 1606 56 
L 191 3500 
L 800 3500 
L 1894 763 
L 2988 3500 
L 3597 3500 
L 2059 -325 
z
" transform="scale(0.015625)"/>
      </defs>
      <use xlink:href="#DejaVuSans-79"/>
     </g>
    </g>
   </g>
   <g id="patch_3">
    <path d="M 72 289.8 
L 72 73.8 
" style="fill: none; stroke: #000000; stroke-width: 0.8; stroke-linejoin: miter; stroke-linecap: square"/>
   </g>
   <g id="patch_4">
    <path d="M 288 289.8 
L 288 73.8 
" style="fill: none; stroke: #000000; stroke-width: 0.8; stroke-linejoin: miter; stroke-linecap: square"/>
   </g>
   <g id="patch_5">
    <path d="M 72 289.8 
L 288 289.8 
" style="fill: none; stroke: #000000; stroke-width: 0.8; stroke-linejoin: miter; stroke-linecap: square"/>
   </g>
   <g id="patch_6">
    <path d="M 72 73.8 
L 288 73.8 
" style="fill: none; stroke: #000000; stroke-width: 0.8; stroke-linejoin: miter; stroke-linecap: square"/>
   </g>
  </g>
 </g>
 <defs>
  <clipPath id="p0e32dc4afa">
   <rect x="72" y="73.8" width="216" height="216"/>
  </clipPath>
 </defs>
</svg>
