<?xml version="1.0" encoding="UTF-8" standalone="no"?>
<svg
   width="560pt"
   height="500pt"
   viewBox="0 0 560 500"
   version="1.1"
   id="svg320"
   sodipodi:docname="nm-rxry.svg"
   inkscape:version="1.2.2 (b0a8486541, 2022-12-01)"
   xmlns:inkscape="http://www.inkscape.org/namespaces/inkscape"
   xmlns:sodipodi="http://sodipodi.sourceforge.net/DTD/sodipodi-0.dtd"
   xmlns="http://www.w3.org/2000/svg"
   xmlns:svg="http://www.w3.org/2000/svg"
   xmlns:rdf="http://www.w3.org/1999/02/22-rdf-syntax-ns#"
   xmlns:cc="http://creativecommons.org/ns#"
   xmlns:dc="http://purl.org/dc/elements/1.1/">
  <sodipodi:namedview
     id="namedview322"
     pagecolor="#ffffff"
     bordercolor="#000000"
     borderopacity="0.25"
     inkscape:showpageshadow="2"
     inkscape:pageopacity="0.0"
     inkscape:pagecheckerboard="0"
     inkscape:deskcolor="#d1d1d1"
     inkscape:document-units="pt"
     showgrid="false"
     inkscape:zoom="0.9465"
     inkscape:cx="375.06603"
     inkscape:cy="333.33333"
     inkscape:window-width="1415"
     inkscape:window-height="877"
     inkscape:window-x="25"
     inkscape:window-y="0"
     inkscape:window-maximized="1"
     inkscape:current-layer="svg320" />
  <metadata
     id="metadata2">
    <rdf:RDF>
      <cc:Work>
        <dc:type
           rdf:resource="http://purl.org/dc/dcmitype/StillImage" />
        <dc:date>2024-12-19T16:50:47.092842</dc:date>
        <dc:format>image/svg+xml</dc:format>
        <dc:creator>
          <cc:Agent>
            <dc:title>Matplotlib v3.9.2, https://matplotlib.org/</dc:title>
          </cc:Agent>
        </dc:creator>
      </cc:Work>
    </rdf:RDF>
  </metadata>
  <defs
     id="defs6">
    <style
       type="text/css"
       id="style4">*{stroke-linejoin: round; stroke-linecap: butt}</style>
    <clipPath
       id="clipPath6104">
      <path
         clip-rule="nonzero"
         d="m 11,5 h 10 v 6.953125 H 11 Z m 0,0"
         id="path5353" />
    </clipPath>
    <clipPath
       id="clipPath3015">
      <path
         clip-rule="nonzero"
         d="m 11,5 h 9 v 6.953125 h -9 z m 0,0"
         id="path249" />
    </clipPath>
    <clipPath
       id="clipPath5793">
      <path
         clip-rule="nonzero"
         d="m 11,5 h 9 v 6.953125 h -9 z m 0,0"
         id="path5264" />
    </clipPath>
    <clipPath
       id="clipPath1525">
      <path
         clip-rule="nonzero"
         d="m 11,5 h 10 v 6.953125 H 11 Z m 0,0"
         id="path4545" />
    </clipPath>
    <clipPath
       id="clipPath438">
      <path
         clip-rule="nonzero"
         d="M 0,0 H 11 V 9.804688 H 0 Z m 0,0"
         id="path490" />
    </clipPath>
    <clipPath
       id="clipPath9919">
      <path
         clip-rule="nonzero"
         d="m 7,5 h 10 v 7.378906 H 7 Z m 0,0"
         id="path8231" />
    </clipPath>
    <clipPath
       id="clipPath4999">
      <path
         clip-rule="nonzero"
         d="m 8,7 h 11 v 7.851562 H 8 Z m 0,0"
         id="path5227" />
    </clipPath>
    <clipPath
       id="clipPath44">
      <path
         clip-rule="nonzero"
         d="m 8,6 h 12 v 8.851562 H 8 Z m 0,0"
         id="path5615" />
    </clipPath>
    <clipPath
       id="clipPath4278">
      <path
         clip-rule="nonzero"
         d="m 10,8 h 14 v 9.828125 H 10 Z m 0,0"
         id="path7101" />
    </clipPath>
    <clipPath
       id="clipPath391">
      <path
         clip-rule="nonzero"
         d="m 10,8 h 14 v 9.828125 H 10 Z m 0,0"
         id="path1862" />
    </clipPath>
    <clipPath
       id="clipPath1757">
      <path
         clip-rule="nonzero"
         d="M 12,10 H 27 V 21.386719 H 12 Z m 0,0"
         id="path6154" />
    </clipPath>
    <clipPath
       id="clipPath2744">
      <path
         clip-rule="nonzero"
         d="M 12,10 H 27 V 21.386719 H 12 Z m 0,0"
         id="path3620" />
    </clipPath>
    <clipPath
       id="clipPath5365">
      <path
         clip-rule="nonzero"
         d="M 13,10 H 27 V 21.386719 H 13 Z m 0,0"
         id="path6230" />
    </clipPath>
    <clipPath
       id="clipPath7812">
      <path
         clip-rule="nonzero"
         d="M 13,10 H 27 V 21.386719 H 13 Z m 0,0"
         id="path110" />
    </clipPath>
    <clipPath
       id="clipPath1198">
      <path
         clip-rule="nonzero"
         d="M 20,9 H 34 V 20.65625 H 20 Z m 0,0"
         id="path3297" />
    </clipPath>
    <clipPath
       id="clipPath1606">
      <path
         clip-rule="nonzero"
         d="M 19,9 H 34 V 20.65625 H 19 Z m 0,0"
         id="path7152" />
    </clipPath>
    <clipPath
       id="clipPath5408">
      <path
         clip-rule="nonzero"
         d="M 19,9 H 34 V 20.65625 H 19 Z m 0,0"
         id="path5407" />
    </clipPath>
    <clipPath
       id="clipPath8382">
      <path
         clip-rule="nonzero"
         d="M 20,9 H 34 V 20.65625 H 20 Z m 0,0"
         id="path3738" />
    </clipPath>
    <clipPath
       id="clipPath1599">
      <path
         clip-rule="nonzero"
         d="M 1,0 H 19 V 16.9375 H 1 Z m 0,0"
         id="path4460" />
    </clipPath>
    <clipPath
       id="clipPath4383">
      <path
         clip-rule="nonzero"
         d="M 13,10 H 27 V 21.386719 H 13 Z m 0,0"
         id="path5208" />
    </clipPath>
    <clipPath
       id="clipPath8723">
      <path
         clip-rule="nonzero"
         d="M 0,0 H 13 V 10.671875 H 0 Z m 0,0"
         id="path8979" />
    </clipPath>
    <clipPath
       id="clipPath5592">
      <path
         clip-rule="nonzero"
         d="M 0,0 H 12 V 15.492188 H 0 Z m 0,0"
         id="path9786" />
    </clipPath>
    <clipPath
       id="clipPath8775">
      <path
         clip-rule="nonzero"
         d="m 11,6 h 9 v 11.738281 h -9 z m 0,0"
         id="path4547" />
    </clipPath>
    <clipPath
       id="clipPath2290">
      <path
         clip-rule="nonzero"
         d="m 11,6 h 9 v 8.390625 h -9 z m 0,0"
         id="path6170" />
    </clipPath>
    <clipPath
       id="clipPath4034">
      <path
         clip-rule="nonzero"
         d="m 52,14 h 8 v 11.632812 h -8 z m 0,0"
         id="path1069" />
    </clipPath>
    <clipPath
       id="clipPath6548">
      <path
         clip-rule="nonzero"
         d="m 52,14 h 8 v 11.632812 h -8 z m 0,0"
         id="path9522" />
    </clipPath>
    <clipPath
       id="clipPath7483">
      <path
         clip-rule="nonzero"
         d="m 47,14 h 9 v 11.632812 h -9 z m 0,0"
         id="path1664" />
    </clipPath>
    <clipPath
       id="clipPath2310">
      <path
         clip-rule="nonzero"
         d="m 338,22 h 9 v 11.097656 h -9 z m 0,0"
         id="path5389" />
    </clipPath>
    <clipPath
       id="clipPath4352">
      <path
         clip-rule="nonzero"
         d="m 359,22 h 8 v 11.097656 h -8 z m 0,0"
         id="path4376" />
    </clipPath>
    <clipPath
       id="clipPath5145">
      <path
         clip-rule="nonzero"
         d="m 297,22 h 9 v 11.097656 h -9 z m 0,0"
         id="path3585" />
    </clipPath>
    <clipPath
       id="clipPath4009">
      <path
         clip-rule="nonzero"
         d="m 318,22 h 8 v 11.097656 h -8 z m 0,0"
         id="path4989" />
    </clipPath>
    <clipPath
       id="clipPath1410">
      <path
         clip-rule="nonzero"
         d="M 11,18 H 27 V 29.75 H 11 Z m 0,0"
         id="path7108" />
    </clipPath>
    <clipPath
       id="clipPath1980">
      <path
         clip-rule="nonzero"
         d="M 63,18 H 78 V 29.75 H 63 Z m 0,0"
         id="path432" />
    </clipPath>
    <clipPath
       id="clipPath2714">
      <path
         clip-rule="nonzero"
         d="m 116,18 h 15 v 11.75 h -15 z m 0,0"
         id="path9351" />
    </clipPath>
    <clipPath
       id="clipPath1436">
      <path
         clip-rule="nonzero"
         d="m 132,9 h 18.69141 V 27 H 132 Z m 0,0"
         id="path8141" />
    </clipPath>
    <clipPath
       id="clipPath7888">
      <path
         clip-rule="nonzero"
         d="m 140,10 h 8 v 11.03125 h -8 z m 0,0"
         id="path1723" />
    </clipPath>
    <clipPath
       id="clipPath5037">
      <path
         clip-rule="nonzero"
         d="m 160,10 h 9 v 11.03125 h -9 z m 0,0"
         id="path9735" />
    </clipPath>
    <clipPath
       id="clipPath8490">
      <path
         clip-rule="nonzero"
         d="m 11,6 h 9 v 11.738281 h -9 z m 0,0"
         id="path4066" />
    </clipPath>
    <clipPath
       id="clipPath1860">
      <path
         clip-rule="nonzero"
         d="m 11,6 h 9 v 8.390625 h -9 z m 0,0"
         id="path4736" />
    </clipPath>
    <clipPath
       id="clipPath4855">
      <path
         clip-rule="nonzero"
         d="M 0,0 H 14 V 10.671875 H 0 Z m 0,0"
         id="path1682" />
    </clipPath>
    <clipPath
       id="clipPath3459">
      <path
         clip-rule="nonzero"
         d="M 17,2 H 33 V 17.550781 H 17 Z m 0,0"
         id="path1014" />
    </clipPath>
    <clipPath
       id="clipPath9887">
      <path
         clip-rule="nonzero"
         d="M 23,2 H 40 V 17.550781 H 23 Z m 0,0"
         id="path2291" />
    </clipPath>
    <clipPath
       id="clipPath9605">
      <path
         clip-rule="nonzero"
         d="M 2,0 H 8 V 24.742188 H 2 Z m 0,0"
         id="path9719" />
    </clipPath>
    <clipPath
       id="clipPath791">
      <path
         clip-rule="nonzero"
         d="m 39,0 h 6 v 24.742188 h -6 z m 0,0"
         id="path3652" />
    </clipPath>
    <clipPath
       id="clipPath5896">
      <path
         clip-rule="nonzero"
         d="M 2,0 H 8 V 24.742188 H 2 Z m 0,0"
         id="path6151" />
    </clipPath>
    <clipPath
       id="clipPath2185">
      <path
         clip-rule="nonzero"
         d="m 47,0 h 6 v 24.742188 h -6 z m 0,0"
         id="path8394" />
    </clipPath>
    <clipPath
       id="clipPath7566">
      <path
         clip-rule="nonzero"
         d="M 0,0 H 21 V 10.671875 H 0 Z m 0,0"
         id="path4111" />
    </clipPath>
    <clipPath
       id="clipPath1319">
      <path
         clip-rule="nonzero"
         d="M 0,0 H 13 V 10.671875 H 0 Z m 0,0"
         id="path4080" />
    </clipPath>
    <clipPath
       id="clipPath1806">
      <path
         clip-rule="nonzero"
         d="M 0,0 H 12 V 15.492188 H 0 Z m 0,0"
         id="path3116" />
    </clipPath>
    <clipPath
       id="clipPath1527">
      <path
         clip-rule="nonzero"
         d="m 78,0 h 6 v 24.742188 h -6 z m 0,0"
         id="path2010" />
    </clipPath>
    <clipPath
       id="clipPath7540">
      <path
         clip-rule="nonzero"
         d="m 98,0 h 7 v 24.742188 h -7 z m 0,0"
         id="path6441" />
    </clipPath>
    <clipPath
       id="clipPath8131">
      <path
         clip-rule="nonzero"
         d="m 71,0 h 6 v 24.742188 h -6 z m 0,0"
         id="path2761" />
    </clipPath>
    <clipPath
       id="clipPath9518">
      <path
         clip-rule="nonzero"
         d="m 93,0 h 6 v 24.742188 h -6 z m 0,0"
         id="path5292" />
    </clipPath>
    <clipPath
       id="clipPath5180">
      <path
         clip-rule="nonzero"
         d="m 122,0 h 6 v 24.742188 h -6 z m 0,0"
         id="path7967" />
    </clipPath>
    <clipPath
       id="clipPath8911">
      <path
         clip-rule="nonzero"
         d="m 143,0 h 7 v 24.742188 h -7 z m 0,0"
         id="path1112" />
    </clipPath>
    <clipPath
       id="clipPath190">
      <path
         clip-rule="nonzero"
         d="m 11,14 h 9 v 11.632812 h -9 z m 0,0"
         id="path4825" />
    </clipPath>
    <clipPath
       id="clipPath8196">
      <path
         clip-rule="nonzero"
         d="M 2,0 H 8 V 24.742188 H 2 Z m 0,0"
         id="path386" />
    </clipPath>
    <clipPath
       id="clipPath1934">
      <path
         clip-rule="nonzero"
         d="M 57,0 H 75 V 24.742188 H 57 Z m 0,0"
         id="path5249" />
    </clipPath>
    <clipPath
       id="clipPath9347">
      <path
         clip-rule="nonzero"
         d="M 2,0 H 8 V 24.742188 H 2 Z m 0,0"
         id="path3510" />
    </clipPath>
    <clipPath
       id="clipPath5847">
      <path
         clip-rule="nonzero"
         d="m 47,0 h 6 v 24.742188 h -6 z m 0,0"
         id="path3670" />
    </clipPath>
  </defs>
  <defs
     id="defs318">
    <clipPath
       id="pa21686b4ca">
      <rect
         x="176.39999"
         y="176.39999"
         width="151.2"
         height="151.2"
         id="rect315" />
    </clipPath>
  </defs>
  <rect
     style="fill:#ffffff;stroke:#ffffff;stroke-width:0;stroke-linejoin:bevel;stroke-miterlimit:1;paint-order:stroke markers fill"
     id="rect2611"
     width="560"
     height="500"
     x="5.6869612e-07"
     y="5.6869612e-07"
     sodipodi:insensitive="true" />
  <rect
     style="fill:#000000;fill-opacity:0.976491;stroke:none;stroke-width:3.41225;stroke-linejoin:bevel;stroke-miterlimit:1;stroke-dasharray:none;paint-order:stroke markers fill"
     id="rect15789"
     width="5.2137856"
     height="5.420095"
     x="292.19464"
     y="249.59692" />
  <rect
     style="display:inline;fill:none;fill-opacity:0.976491;stroke:#000000;stroke-width:1.58717;stroke-linejoin:bevel;stroke-miterlimit:1;stroke-dasharray:none;paint-order:stroke markers fill"
     id="rect15945"
     width="150.69653"
     height="151.18752"
     x="221.56958"
     y="189.87767" />
  <g
     inkscape:label=""
     transform="translate(285.7671,223.98014)"
     id="g14195">
    <g
       clip-path="url(#clipPath1599)"
       id="g14193"
       transform="translate(-1.17188,-0.0161247)">
      <g
         fill="#000000"
         fill-opacity="1"
         id="g14191">
        <g
           id="g14189"
           transform="translate(0,16.938)">
          <path
             d="M 7.328125,-7.875 H 11.5 c 3.421875,0 6.84375,-2.53125 6.84375,-5.359375 0,-1.9375 -1.640625,-3.6875 -4.765625,-3.6875 h -7.65625 c -0.46875,0 -0.6875,0 -0.6875,0.46875 0,0.25 0.21875,0.25 0.59375,0.25 1.5,0 1.5,0.1875 1.5,0.46875 0,0.04687 0,0.203125 -0.09375,0.5625 l -3.34375,13.34375 c -0.21875,0.859375 -0.265625,1.109375 -2,1.109375 -0.484375,0 -0.71875,0 -0.71875,0.453125 C 1.171875,0 1.390625,0 1.53125,0 2,0 2.5,-0.046875 2.96875,-0.046875 H 5.875 C 6.34375,-0.046875 6.859375,0 7.328125,0 7.53125,0 7.8125,0 7.8125,-0.46875 c 0,-0.25 -0.234375,-0.25 -0.59375,-0.25 -1.5,0 -1.515625,-0.171875 -1.515625,-0.421875 0,-0.125 0.015625,-0.296875 0.046875,-0.421875 z M 9.125,-15.234375 c 0.21875,-0.921875 0.3125,-0.96875 1.28125,-0.96875 h 2.453125 c 1.859375,0 3.390625,0.59375 3.390625,2.453125 0,0.640625 -0.3125,2.75 -1.453125,3.890625 -0.421875,0.4375 -1.609375,1.390625 -3.875,1.390625 H 7.4375 Z m 0,0"
             id="path14187" />
        </g>
      </g>
    </g>
  </g>
  <path
     style="fill:#ffffff;fill-opacity:0.756596;stroke:#000000;stroke-width:0.999997;stroke-linejoin:bevel;stroke-miterlimit:1;paint-order:stroke markers fill"
     d="M 78.410998,424.96999 H 502.18159"
     id="path552"
     sodipodi:nodetypes="cc" />
  <path
     style="fill:#ffffff;fill-opacity:0.756596;stroke:#000000;stroke-width:0.999997;stroke-linejoin:bevel;stroke-miterlimit:1;paint-order:stroke markers fill"
     d="M 79.174778,73.910053 V 425.52534"
     id="path1259"
     sodipodi:nodetypes="cc" />
  <g
     inkscape:label=""
     transform="translate(513.25456,418.82522)"
     id="g2312">
    <g
       clip-path="url(#clipPath8723)"
       id="g16"
       transform="translate(-0.6875,0.249875)">
      <g
         fill="#000000"
         fill-opacity="1"
         id="g14">
        <g
           id="use12"
           transform="translate(0,10.672)">
          <path
             d="m 11.75,-10.109375 c -0.796875,0.140625 -1.09375,0.734375 -1.09375,1.21875 0,0.59375 0.46875,0.78125 0.8125,0.78125 0.75,0 1.265625,-0.640625 1.265625,-1.3125 0,-1.03125 -1.1875,-1.5 -2.234375,-1.5 -1.5,0 -2.34375,1.484375 -2.5625,1.953125 -0.578125,-1.859375 -2.109375,-1.953125 -2.5625,-1.953125 -2.53125,0 -3.859375,3.234375 -3.859375,3.78125 0,0.109375 0.09375,0.234375 0.265625,0.234375 0.203125,0 0.25,-0.15625 0.296875,-0.25 0.84375,-2.75 2.5,-3.28125 3.21875,-3.28125 1.125,0 1.34375,1.046875 1.34375,1.640625 C 6.640625,-8.25 6.5,-7.6875 6.1875,-6.5 l -0.828125,3.40625 c -0.375,1.484375 -1.09375,2.84375 -2.40625,2.84375 -0.125,0 -0.75,0 -1.265625,-0.3125 0.890625,-0.1875 1.09375,-0.921875 1.09375,-1.21875 0,-0.5 -0.375,-0.796875 -0.84375,-0.796875 -0.59375,0 -1.25,0.515625 -1.25,1.3125 0,1.046875 1.171875,1.515625 2.234375,1.515625 1.1875,0 2.03125,-0.9375 2.5625,-1.953125 C 5.875,-0.25 7.109375,0.25 8.03125,0.25 c 2.53125,0 3.859375,-3.25 3.859375,-3.796875 0,-0.125 -0.09375,-0.21875 -0.25,-0.21875 -0.21875,0 -0.234375,0.125 -0.3125,0.328125 -0.671875,2.171875 -2.109375,3.1875 -3.21875,3.1875 -0.875,0 -1.34375,-0.640625 -1.34375,-1.65625 0,-0.546875 0.09375,-0.9375 0.5,-2.578125 L 8.125,-7.859375 C 8.5,-9.34375 9.34375,-10.4375 10.484375,-10.4375 c 0.04687,0 0.734375,0 1.265625,0.328125 z m 0,0"
             id="path22" />
        </g>
      </g>
    </g>
  </g>
  <g
     inkscape:label=""
     transform="translate(73.686045,54.715125)"
     id="g5213">
    <g
       clip-path="url(#clipPath5592)"
       id="g5211"
       transform="translate(-0.671875,0.249875)">
      <g
         fill="#000000"
         fill-opacity="1"
         id="g5209">
        <g
           id="g5207"
           transform="translate(0,10.672)">
          <path
             d="M 6.515625,2.78125 C 5.84375,3.71875 4.875,4.5625 3.671875,4.5625 3.375,4.5625 2.1875,4.515625 1.8125,3.375 1.890625,3.390625 2,3.390625 2.0625,3.390625 2.796875,3.390625 3.296875,2.75 3.296875,2.1875 3.296875,1.609375 2.828125,1.40625 2.453125,1.40625 2.0625,1.40625 1.1875,1.703125 1.1875,2.921875 1.1875,4.1875 2.25,5.0625 3.671875,5.0625 c 2.46875,0 4.984375,-2.28125 5.671875,-5.03125 l 2.421875,-9.671875 c 0.03125,-0.125 0.07813,-0.265625 0.07813,-0.421875 0,-0.375 -0.296875,-0.625 -0.671875,-0.625 -0.21875,0 -0.734375,0.109375 -0.9375,0.84375 l -1.82813,7.296875 c -0.125,0.4375 -0.125,0.484375 -0.328125,0.765625 -0.5,0.6875 -1.3125,1.53125 -2.5,1.53125 C 4.1875,-0.25 4.0625,-1.609375 4.0625,-2.28125 c 0,-1.40625 0.671875,-3.3125 1.34375,-5.109375 0.265625,-0.71875 0.421875,-1.0625 0.421875,-1.5625 0,-1.03125 -0.75,-1.96875 -1.96875,-1.96875 -2.265625,0 -3.1875,3.59375 -3.1875,3.78125 0,0.109375 0.09375,0.234375 0.265625,0.234375 0.234375,0 0.25,-0.109375 0.34375,-0.453125 0.609375,-2.078125 1.546875,-3.078125 2.515625,-3.078125 0.21875,0 0.640625,0 0.640625,0.828125 0,0.640625 -0.28125,1.359375 -0.640625,2.296875 -1.21875,3.25 -1.21875,4.0625 -1.21875,4.65625 0,2.359375 1.6875,2.90625 2.921875,2.90625 0.71875,0 1.609375,-0.21875 2.484375,-1.140625 L 8,-0.875 C 7.625,0.59375 7.390625,1.5625 6.515625,2.78125 Z m 0,0"
             id="path5205" />
        </g>
      </g>
    </g>
  </g>
  <g
     inkscape:label=""
     transform="translate(95.280054,291.72924)"
     id="g20968">
    <g
       fill="#000000"
       fill-opacity="1"
       id="g17"
       transform="translate(-0.671875,0.248875)">
      <g
         id="use15"
         transform="translate(0,10.673)">
        <path
           d="m 9.640625,-10.140625 c -0.765625,0.15625 -1.171875,0.703125 -1.171875,1.25 0,0.59375 0.484375,0.78125 0.828125,0.78125 0.6875,0 1.265625,-0.59375 1.265625,-1.328125 0,-0.796875 -0.78125,-1.484375 -2.015625,-1.484375 -0.984375,0 -2.125,0.4375 -3.171875,1.953125 -0.171875,-1.3125 -1.15625,-1.953125 -2.15625,-1.953125 -0.96875,0 -1.453125,0.734375 -1.75,1.28125 -0.421875,0.890625 -0.796875,2.375 -0.796875,2.5 0,0.109375 0.09375,0.234375 0.265625,0.234375 0.203125,0 0.234375,-0.03125 0.375,-0.609375 C 1.6875,-9 2.15625,-10.4375 3.140625,-10.4375 c 0.59375,0 0.78125,0.421875 0.78125,1.140625 0,0.546875 -0.25,1.515625 -0.421875,2.28125 L 2.796875,-4.34375 c -0.09375,0.484375 -0.375,1.59375 -0.5,2.046875 C 2.125,-1.65625 1.859375,-0.5 1.859375,-0.375 1.859375,-0.03125 2.125,0.25 2.5,0.25 2.78125,0.25 3.25,0.078125 3.390625,-0.421875 3.46875,-0.625 4.390625,-4.359375 4.53125,-4.9375 4.65625,-5.484375 4.8125,-6 4.9375,-6.546875 c 0.09375,-0.34375 0.1875,-0.734375 0.265625,-1.0625 0.078125,-0.21875 0.75,-1.4375 1.359375,-1.984375 0.296875,-0.265625 0.953125,-0.84375 1.96875,-0.84375 0.390625,0 0.78125,0.07813 1.109375,0.296875 z m 0,0"
           id="path29" />
      </g>
    </g>
    <g
       clip-path="url(#clipPath8490)"
       id="g23"
       transform="translate(-0.671875,0.248875)">
      <g
         fill="#000000"
         fill-opacity="1"
         id="g21">
        <g
           id="use19"
           transform="translate(10.937,14.391)">
          <path
             d="m 4.53125,1.921875 c -0.46875,0.65625 -1.140625,1.25 -1.984375,1.25 -0.203125,0 -1.03125,-0.03125 -1.296875,-0.828125 0.0625,0.015625 0.140625,0.015625 0.171875,0.015625 0.53125,0 0.875,-0.453125 0.875,-0.84375 0,-0.390625 -0.328125,-0.53125 -0.59375,-0.53125 -0.28125,0 -0.875,0.203125 -0.875,1.046875 0,0.875 0.734375,1.484375 1.71875,1.484375 1.71875,0 3.46875,-1.59375 3.9375,-3.5 l 1.6875,-6.71875 c 0.03125,-0.078125 0.0625,-0.1875 0.0625,-0.28125 0,-0.265625 -0.203125,-0.4375 -0.46875,-0.4375 -0.15625,0 -0.515625,0.0625 -0.65625,0.59375 L 5.84375,-1.78125 C 5.75,-1.46875 5.75,-1.421875 5.609375,-1.234375 5.265625,-0.75 4.703125,-0.171875 3.875,-0.171875 c -0.96875,0 -1.046875,-0.953125 -1.046875,-1.40625 0,-0.984375 0.453125,-2.3125 0.921875,-3.546875 0.1875,-0.5 0.296875,-0.75 0.296875,-1.09375 0,-0.71875 -0.515625,-1.375 -1.359375,-1.375 -1.578125,0 -2.21875,2.5 -2.21875,2.640625 0,0.0625 0.0625,0.15625 0.1875,0.15625 0.15625,0 0.171875,-0.078125 0.234375,-0.3125 C 1.3125,-6.5625 1.96875,-7.25 2.640625,-7.25 c 0.15625,0 0.4375,0 0.4375,0.5625 0,0.453125 -0.1875,0.953125 -0.4375,1.609375 -0.84375,2.25 -0.84375,2.828125 -0.84375,3.234375 0,1.640625 1.171875,2.015625 2.03125,2.015625 0.5,0 1.109375,-0.15625 1.71875,-0.796875 L 5.5625,-0.609375 C 5.296875,0.40625 5.125,1.078125 4.53125,1.921875 Z m 0,0"
             id="path33" />
        </g>
      </g>
    </g>
  </g>
  <g
     inkscape:label=""
     transform="translate(249.70235,399.50147)"
     id="g23042">
    <g
       fill="#000000"
       fill-opacity="1"
       id="g23032"
       transform="translate(-0.671875,0.249875)">
      <g
         id="g23030"
         transform="translate(0,10.672)">
        <path
           d="m 9.640625,-10.140625 c -0.765625,0.15625 -1.171875,0.703125 -1.171875,1.25 0,0.59375 0.484375,0.78125 0.828125,0.78125 0.6875,0 1.265625,-0.59375 1.265625,-1.328125 0,-0.796875 -0.78125,-1.484375 -2.015625,-1.484375 -0.984375,0 -2.125,0.4375 -3.171875,1.953125 -0.171875,-1.3125 -1.15625,-1.953125 -2.15625,-1.953125 -0.96875,0 -1.453125,0.734375 -1.75,1.28125 -0.421875,0.890625 -0.796875,2.375 -0.796875,2.5 0,0.109375 0.09375,0.234375 0.265625,0.234375 0.203125,0 0.234375,-0.03125 0.375,-0.609375 C 1.6875,-9 2.15625,-10.4375 3.140625,-10.4375 c 0.59375,0 0.78125,0.421875 0.78125,1.140625 0,0.546875 -0.25,1.515625 -0.421875,2.28125 L 2.796875,-4.34375 c -0.09375,0.484375 -0.375,1.59375 -0.5,2.046875 C 2.125,-1.65625 1.859375,-0.5 1.859375,-0.375 1.859375,-0.03125 2.125,0.25 2.5,0.25 2.78125,0.25 3.25,0.078125 3.390625,-0.421875 3.46875,-0.625 4.390625,-4.359375 4.53125,-4.9375 4.65625,-5.484375 4.8125,-6 4.9375,-6.546875 c 0.09375,-0.34375 0.1875,-0.734375 0.265625,-1.0625 0.078125,-0.21875 0.75,-1.4375 1.359375,-1.984375 0.296875,-0.265625 0.953125,-0.84375 1.96875,-0.84375 0.390625,0 0.78125,0.07813 1.109375,0.296875 z m 0,0"
           id="path23028" />
      </g>
    </g>
    <g
       clip-path="url(#clipPath1860)"
       id="g23040"
       transform="translate(-0.671875,0.249875)">
      <g
         fill="#000000"
         fill-opacity="1"
         id="g23038">
        <g
           id="g23036"
           transform="translate(10.937,14.39)">
          <path
             d="m 8.15625,-7.03125 c -0.546875,0.109375 -0.75,0.515625 -0.75,0.84375 0,0.421875 0.328125,0.5625 0.5625,0.5625 0.515625,0 0.875,-0.453125 0.875,-0.921875 0,-0.71875 -0.8125,-1.046875 -1.546875,-1.046875 -1.046875,0 -1.625,1.03125 -1.78125,1.359375 -0.40625,-1.296875 -1.46875,-1.359375 -1.78125,-1.359375 -1.75,0 -2.6875,2.25 -2.6875,2.640625 0,0.0625 0.078125,0.15625 0.1875,0.15625 0.140625,0 0.171875,-0.109375 0.21875,-0.171875 C 2.03125,-6.890625 3.1875,-7.25 3.6875,-7.25 c 0.765625,0 0.921875,0.71875 0.921875,1.140625 0,0.375 -0.09375,0.765625 -0.296875,1.59375 L 3.71875,-2.15625 c -0.25,1.03125 -0.75,1.984375 -1.671875,1.984375 -0.078125,0 -0.515625,0 -0.875,-0.21875 0.625,-0.125 0.75,-0.640625 0.75,-0.84375 0,-0.34375 -0.25,-0.5625 -0.578125,-0.5625 -0.40625,0 -0.859375,0.375 -0.859375,0.921875 0,0.71875 0.8125,1.046875 1.546875,1.046875 0.828125,0 1.40625,-0.65625 1.78125,-1.359375 0.265625,1.015625 1.125,1.359375 1.765625,1.359375 1.75,0 2.6875,-2.25 2.6875,-2.640625 0,-0.078125 -0.0625,-0.15625 -0.171875,-0.15625 -0.15625,0 -0.171875,0.09375 -0.21875,0.234375 -0.46875,1.515625 -1.46875,2.21875 -2.25,2.21875 -0.59375,0 -0.921875,-0.453125 -0.921875,-1.15625 0,-0.375 0.0625,-0.65625 0.34375,-1.78125 l 0.59375,-2.34375 C 5.90625,-6.484375 6.484375,-7.25 7.28125,-7.25 c 0.03125,0 0.515625,0 0.875,0.21875 z m 0,0"
             id="path23034" />
        </g>
      </g>
    </g>
  </g>
  <path
     style="fill:none;fill-opacity:0.756596;stroke:#000000;stroke-width:0.999997;stroke-linejoin:bevel;stroke-miterlimit:1;stroke-dasharray:6, 6;stroke-dashoffset:0;paint-order:stroke markers fill"
     d="M 79.297032,252.46956 H 294.64191"
     id="path23497"
     sodipodi:nodetypes="cc" />
  <path
     style="fill:none;fill-opacity:0.756596;stroke:#000000;stroke-width:1;stroke-linecap:butt;stroke-linejoin:bevel;stroke-miterlimit:1;stroke-dasharray:none;stroke-dashoffset:0;paint-order:stroke markers fill"
     d="M 79.198437,190.21117 H 222.11015"
     id="path23497-5"
     sodipodi:nodetypes="cc" />
  <path
     style="fill:none;fill-opacity:0.756596;stroke:#000000;stroke-width:0.999997;stroke-linecap:butt;stroke-linejoin:bevel;stroke-miterlimit:1;stroke-dasharray:none;stroke-dashoffset:0;paint-order:stroke markers fill"
     d="M 79.400319,340.87823 221.84907,340.77198"
     id="path23497-7"
     sodipodi:nodetypes="cc" />
  <path
     style="fill:none;fill-opacity:0.756596;stroke:#000000;stroke-width:0.999997;stroke-linejoin:bevel;stroke-miterlimit:1;stroke-dasharray:6, 6;stroke-dashoffset:0;paint-order:stroke markers fill"
     d="M 294.84111,424.63256 V 251.54003"
     id="path23511"
     sodipodi:nodetypes="cc" />
  <path
     style="fill:none;fill-opacity:0.756596;stroke:#000000;stroke-width:0.999997;stroke-linecap:butt;stroke-linejoin:bevel;stroke-miterlimit:1;stroke-dasharray:none;stroke-dashoffset:0;paint-order:stroke markers fill"
     d="M 221.45092,425.19701 V 340.92703"
     id="path23511-3"
     sodipodi:nodetypes="cc" />
  <path
     style="fill:none;fill-opacity:0.756596;stroke:#000000;stroke-width:0.999997;stroke-linecap:butt;stroke-linejoin:bevel;stroke-miterlimit:1;stroke-dasharray:none;stroke-dashoffset:0;paint-order:stroke markers fill"
     d="M 372.08884,424.89628 V 340.46802"
     id="path23511-3-6"
     sodipodi:nodetypes="cc" />
  <path
     style="fill:none;fill-opacity:0.756596;stroke:#000000;stroke-width:0.5;stroke-linejoin:bevel;stroke-miterlimit:1;stroke-dasharray:none;stroke-dashoffset:0;paint-order:stroke markers fill"
     d="m 221.39968,425.59891 c 41.21538,-22.85371 73.69767,0 73.69767,0"
     id="path4790"
     sodipodi:nodetypes="cc" />
  <g
     inkscape:label=""
     transform="translate(214.94072,431.55418)"
     id="g5422">
    <g
       clip-path="url(#clipPath4855)"
       id="g5420"
       transform="translate(-0.671875,0.249875)">
      <g
         fill="#000000"
         fill-opacity="1"
         id="g5418">
        <g
           id="g5416"
           transform="translate(0,10.672)">
          <path
             d="M 5.109375,-7.265625 C 5.15625,-7.40625 5.78125,-8.65625 6.6875,-9.4375 c 0.640625,-0.59375 1.484375,-1 2.453125,-1 1,0 1.34375,0.75 1.34375,1.734375 0,1.421875 -1.015625,4.25 -1.515625,5.578125 C 8.75,-2.53125 8.625,-2.203125 8.625,-1.765625 c 0,1.125 0.765625,2.015625 1.953125,2.015625 2.3125,0 3.171875,-3.640625 3.171875,-3.796875 0,-0.125 -0.09375,-0.21875 -0.25,-0.21875 -0.21875,0 -0.234375,0.078125 -0.359375,0.5 C 12.5625,-1.234375 11.625,-0.25 10.65625,-0.25 c -0.25,0 -0.640625,-0.015625 -0.640625,-0.8125 0,-0.625 0.265625,-1.359375 0.421875,-1.71875 0.484375,-1.359375 1.53125,-4.125 1.53125,-5.546875 0,-1.484375 -0.859375,-2.59375 -2.75,-2.59375 -2.203125,0 -3.375,1.546875 -3.8125,2.171875 -0.078125,-1.40625 -1.09375,-2.171875 -2.1875,-2.171875 -0.796875,0 -1.328125,0.46875 -1.75,1.3125 -0.453125,0.890625 -0.796875,2.375 -0.796875,2.46875 0,0.109375 0.09375,0.234375 0.265625,0.234375 0.203125,0 0.234375,-0.03125 0.375,-0.609375 0.390625,-1.5 0.84375,-2.921875 1.828125,-2.921875 0.578125,0 0.78125,0.40625 0.78125,1.140625 0,0.546875 -0.25,1.515625 -0.421875,2.28125 L 2.796875,-4.34375 c -0.09375,0.484375 -0.375,1.59375 -0.5,2.046875 C 2.125,-1.65625 1.859375,-0.5 1.859375,-0.375 1.859375,-0.03125 2.125,0.25 2.5,0.25 c 0.296875,0 0.640625,-0.15625 0.84375,-0.515625 0.046875,-0.125 0.28125,-1 0.390625,-1.5 l 0.546875,-2.21875 z m 0,0"
             id="path5414" />
        </g>
      </g>
    </g>
  </g>
  <g
     inkscape:label=""
     transform="translate(347.31265,430.06086)"
     id="g6441">
    <g
       fill="#000000"
       fill-opacity="1"
       id="g20"
       transform="translate(-0.671875,0.397)">
      <g
         id="use18"
         transform="translate(0,15.978)">
        <path
           d="M 5.109375,-7.265625 C 5.15625,-7.40625 5.78125,-8.65625 6.6875,-9.4375 c 0.640625,-0.59375 1.484375,-1 2.453125,-1 1,0 1.34375,0.75 1.34375,1.734375 0,1.421875 -1.015625,4.25 -1.515625,5.578125 C 8.75,-2.53125 8.625,-2.203125 8.625,-1.765625 c 0,1.125 0.765625,2.015625 1.953125,2.015625 2.3125,0 3.171875,-3.640625 3.171875,-3.796875 0,-0.125 -0.09375,-0.21875 -0.25,-0.21875 -0.21875,0 -0.234375,0.078125 -0.359375,0.5 C 12.5625,-1.234375 11.625,-0.25 10.65625,-0.25 c -0.25,0 -0.640625,-0.015625 -0.640625,-0.8125 0,-0.625 0.265625,-1.359375 0.421875,-1.71875 0.484375,-1.359375 1.53125,-4.125 1.53125,-5.546875 0,-1.484375 -0.859375,-2.59375 -2.75,-2.59375 -2.203125,0 -3.375,1.546875 -3.8125,2.171875 -0.078125,-1.40625 -1.09375,-2.171875 -2.1875,-2.171875 -0.796875,0 -1.328125,0.46875 -1.75,1.3125 -0.453125,0.890625 -0.796875,2.375 -0.796875,2.46875 0,0.109375 0.09375,0.234375 0.265625,0.234375 0.203125,0 0.234375,-0.03125 0.375,-0.609375 0.390625,-1.5 0.84375,-2.921875 1.828125,-2.921875 0.578125,0 0.78125,0.40625 0.78125,1.140625 0,0.546875 -0.25,1.515625 -0.421875,2.28125 L 2.796875,-4.34375 c -0.09375,0.484375 -0.375,1.59375 -0.5,2.046875 C 2.125,-1.65625 1.859375,-0.5 1.859375,-0.375 1.859375,-0.03125 2.125,0.25 2.5,0.25 c 0.296875,0 0.640625,-0.15625 0.84375,-0.515625 0.046875,-0.125 0.28125,-1 0.390625,-1.5 l 0.546875,-2.21875 z m 0,0"
           id="path36" />
      </g>
    </g>
    <g
       clip-path="url(#clipPath3459)"
       id="g26"
       transform="translate(-0.671875,0.397)">
      <g
         fill="#000000"
         fill-opacity="1"
         id="g24">
        <g
           id="use22"
           transform="translate(15.865,15.978)">
          <path
             d="m 9.34375,-5.75 h 6.5625 c 0.34375,0 0.765625,0 0.765625,-0.421875 0,-0.4375 -0.390625,-0.4375 -0.765625,-0.4375 H 9.34375 V -13.1875 c 0,-0.34375 0,-0.765625 -0.421875,-0.765625 -0.453125,0 -0.453125,0.390625 -0.453125,0.765625 v 6.578125 h -6.5625 c -0.34375,0 -0.765625,0 -0.765625,0.421875 0,0.4375 0.390625,0.4375 0.765625,0.4375 h 6.5625 v 6.5625 c 0,0.359375 0,0.78125 0.421875,0.78125 0.453125,0 0.453125,-0.40625 0.453125,-0.78125 z m 0,0"
             id="path40" />
        </g>
      </g>
    </g>
    <g
       fill="#000000"
       fill-opacity="1"
       id="g30"
       transform="translate(-0.671875,0.397)">
      <g
         id="use28"
         transform="translate(35.094833,15.978)">
        <path
           d="m 6.59375,-15.828125 c 0,-0.53125 -0.03125,-0.546875 -0.375,-0.546875 -0.96875,1.15625 -2.421875,1.53125 -3.8125,1.578125 -0.078125,0 -0.203125,0 -0.21875,0.04687 -0.03125,0.0625 -0.03125,0.109375 -0.03125,0.625 0.765625,0 2.0625,-0.15625 3.046875,-0.75 v 13.0625 c 0,0.875 -0.046875,1.171875 -2.1875,1.171875 H 2.28125 V 0 c 1.1875,-0.03125 2.421875,-0.046875 3.609375,-0.046875 1.203125,0 2.4375,0.015625 3.625,0.046875 v -0.640625 h -0.75 c -2.125,0 -2.171875,-0.28125 -2.171875,-1.171875 z m 0,0"
           id="path44" />
      </g>
    </g>
  </g>
  <g
     inkscape:label=""
     transform="translate(23.766312,184.15046)"
     id="g8228">
    <g
       fill="#000000"
       fill-opacity="1"
       id="g8212"
       transform="translate(-0.671875,0.397)">
      <g
         id="g8210"
         transform="translate(0,15.978)">
        <path
           d="M 5.109375,-7.265625 C 5.15625,-7.40625 5.78125,-8.65625 6.6875,-9.4375 c 0.640625,-0.59375 1.484375,-1 2.453125,-1 1,0 1.34375,0.75 1.34375,1.734375 0,0.15625 0,0.65625 -0.296875,1.8125 l -0.625,2.546875 c -0.1875,0.75 -0.671875,2.578125 -0.71875,2.859375 -0.09375,0.375 -0.25,1.015625 -0.25,1.109375 0,0.34375 0.28125,0.625 0.65625,0.625 0.734375,0 0.859375,-0.578125 1.078125,-1.46875 l 1.5,-5.921875 c 0.04687,-0.1875 1.328125,-3.296875 4.0625,-3.296875 0.984375,0 1.328125,0.75 1.328125,1.734375 0,1.390625 -0.96875,4.09375 -1.5,5.578125 -0.234375,0.59375 -0.359375,0.921875 -0.359375,1.359375 0,1.125 0.765625,2.015625 1.96875,2.015625 C 19.625,0.25 20.5,-3.390625 20.5,-3.546875 c 0,-0.125 -0.109375,-0.21875 -0.25,-0.21875 -0.234375,0 -0.25,0.078125 -0.375,0.5 C 19.296875,-1.28125 18.390625,-0.25 17.390625,-0.25 17.15625,-0.25 16.75,-0.265625 16.75,-1.0625 c 0,-0.640625 0.296875,-1.4375 0.40625,-1.71875 0.4375,-1.1875 1.546875,-4.109375 1.546875,-5.546875 0,-1.484375 -0.859375,-2.59375 -2.75,-2.59375 -1.65625,0 -3,0.9375 -3.984375,2.390625 -0.07813,-1.328125 -0.890625,-2.390625 -2.75,-2.390625 -2.203125,0 -3.375,1.546875 -3.8125,2.171875 -0.078125,-1.40625 -1.09375,-2.171875 -2.1875,-2.171875 -0.71875,0 -1.28125,0.34375 -1.75,1.28125 -0.453125,0.890625 -0.796875,2.40625 -0.796875,2.5 0,0.109375 0.09375,0.234375 0.265625,0.234375 0.203125,0 0.234375,-0.03125 0.375,-0.609375 0.375,-1.453125 0.84375,-2.921875 1.828125,-2.921875 0.578125,0 0.78125,0.40625 0.78125,1.140625 0,0.546875 -0.25,1.515625 -0.421875,2.28125 L 2.796875,-4.34375 c -0.09375,0.484375 -0.375,1.59375 -0.5,2.046875 C 2.125,-1.65625 1.859375,-0.5 1.859375,-0.375 1.859375,-0.03125 2.125,0.25 2.5,0.25 c 0.296875,0 0.640625,-0.15625 0.84375,-0.515625 0.046875,-0.125 0.28125,-1 0.390625,-1.5 l 0.546875,-2.21875 z m 0,0"
           id="path8208" />
      </g>
    </g>
    <g
       clip-path="url(#clipPath9887)"
       id="g8220"
       transform="translate(-0.671875,0.397)">
      <g
         fill="#000000"
         fill-opacity="1"
         id="g8218">
        <g
           id="g8216"
           transform="translate(22.606001,15.978)">
          <path
             d="m 9.34375,-5.75 h 6.5625 c 0.34375,0 0.765625,0 0.765625,-0.421875 0,-0.4375 -0.390625,-0.4375 -0.765625,-0.4375 H 9.34375 V -13.1875 c 0,-0.34375 0,-0.765625 -0.421875,-0.765625 -0.453125,0 -0.453125,0.390625 -0.453125,0.765625 v 6.578125 h -6.5625 c -0.34375,0 -0.765625,0 -0.765625,0.421875 0,0.4375 0.390625,0.4375 0.765625,0.4375 h 6.5625 v 6.5625 c 0,0.359375 0,0.78125 0.421875,0.78125 0.453125,0 0.453125,-0.40625 0.453125,-0.78125 z m 0,0"
             id="path8214" />
        </g>
      </g>
    </g>
    <g
       fill="#000000"
       fill-opacity="1"
       id="g8226"
       transform="translate(-0.671875,0.397)">
      <g
         id="g8224"
         transform="translate(41.835831,15.978)">
        <path
           d="m 6.59375,-15.828125 c 0,-0.53125 -0.03125,-0.546875 -0.375,-0.546875 -0.96875,1.15625 -2.421875,1.53125 -3.8125,1.578125 -0.078125,0 -0.203125,0 -0.21875,0.04687 -0.03125,0.0625 -0.03125,0.109375 -0.03125,0.625 0.765625,0 2.0625,-0.15625 3.046875,-0.75 v 13.0625 c 0,0.875 -0.046875,1.171875 -2.1875,1.171875 H 2.28125 V 0 c 1.1875,-0.03125 2.421875,-0.046875 3.609375,-0.046875 1.203125,0 2.4375,0.015625 3.625,0.046875 v -0.640625 h -0.75 c -2.125,0 -2.171875,-0.28125 -2.171875,-1.171875 z m 0,0"
           id="path8222" />
      </g>
    </g>
  </g>
  <g
     inkscape:label=""
     transform="translate(55.285082,334.1769)"
     id="g11595">
    <g
       clip-path="url(#clipPath7566)"
       id="g11593"
       transform="translate(-0.671875,0.249875)">
      <g
         fill="#000000"
         fill-opacity="1"
         id="g11591">
        <g
           id="g11589"
           transform="translate(0,10.672)">
          <path
             d="M 5.109375,-7.265625 C 5.15625,-7.40625 5.78125,-8.65625 6.6875,-9.4375 c 0.640625,-0.59375 1.484375,-1 2.453125,-1 1,0 1.34375,0.75 1.34375,1.734375 0,0.15625 0,0.65625 -0.296875,1.8125 l -0.625,2.546875 c -0.1875,0.75 -0.671875,2.578125 -0.71875,2.859375 -0.09375,0.375 -0.25,1.015625 -0.25,1.109375 0,0.34375 0.28125,0.625 0.65625,0.625 0.734375,0 0.859375,-0.578125 1.078125,-1.46875 l 1.5,-5.921875 c 0.04687,-0.1875 1.328125,-3.296875 4.0625,-3.296875 0.984375,0 1.328125,0.75 1.328125,1.734375 0,1.390625 -0.96875,4.09375 -1.5,5.578125 -0.234375,0.59375 -0.359375,0.921875 -0.359375,1.359375 0,1.125 0.765625,2.015625 1.96875,2.015625 C 19.625,0.25 20.5,-3.390625 20.5,-3.546875 c 0,-0.125 -0.109375,-0.21875 -0.25,-0.21875 -0.234375,0 -0.25,0.078125 -0.375,0.5 C 19.296875,-1.28125 18.390625,-0.25 17.390625,-0.25 17.15625,-0.25 16.75,-0.265625 16.75,-1.0625 c 0,-0.640625 0.296875,-1.4375 0.40625,-1.71875 0.4375,-1.1875 1.546875,-4.109375 1.546875,-5.546875 0,-1.484375 -0.859375,-2.59375 -2.75,-2.59375 -1.65625,0 -3,0.9375 -3.984375,2.390625 -0.07813,-1.328125 -0.890625,-2.390625 -2.75,-2.390625 -2.203125,0 -3.375,1.546875 -3.8125,2.171875 -0.078125,-1.40625 -1.09375,-2.171875 -2.1875,-2.171875 -0.71875,0 -1.28125,0.34375 -1.75,1.28125 -0.453125,0.890625 -0.796875,2.40625 -0.796875,2.5 0,0.109375 0.09375,0.234375 0.265625,0.234375 0.203125,0 0.234375,-0.03125 0.375,-0.609375 0.375,-1.453125 0.84375,-2.921875 1.828125,-2.921875 0.578125,0 0.78125,0.40625 0.78125,1.140625 0,0.546875 -0.25,1.515625 -0.421875,2.28125 L 2.796875,-4.34375 c -0.09375,0.484375 -0.375,1.59375 -0.5,2.046875 C 2.125,-1.65625 1.859375,-0.5 1.859375,-0.375 1.859375,-0.03125 2.125,0.25 2.5,0.25 c 0.296875,0 0.640625,-0.15625 0.84375,-0.515625 0.046875,-0.125 0.28125,-1 0.390625,-1.5 l 0.546875,-2.21875 z m 0,0"
             id="path11587" />
        </g>
      </g>
    </g>
  </g>
  <g
     inkscape:label=""
     transform="translate(287.71126,432.29842)"
     id="g12728">
    <g
       clip-path="url(#clipPath1319)"
       id="g12726"
       transform="translate(-0.6875,0.249875)">
      <g
         fill="#000000"
         fill-opacity="1"
         id="g12724">
        <g
           id="g12722"
           transform="translate(0,10.672)">
          <path
             d="m 11.75,-10.109375 c -0.796875,0.140625 -1.09375,0.734375 -1.09375,1.21875 0,0.59375 0.46875,0.78125 0.8125,0.78125 0.75,0 1.265625,-0.640625 1.265625,-1.3125 0,-1.03125 -1.1875,-1.5 -2.234375,-1.5 -1.5,0 -2.34375,1.484375 -2.5625,1.953125 -0.578125,-1.859375 -2.109375,-1.953125 -2.5625,-1.953125 -2.53125,0 -3.859375,3.234375 -3.859375,3.78125 0,0.109375 0.09375,0.234375 0.265625,0.234375 0.203125,0 0.25,-0.15625 0.296875,-0.25 0.84375,-2.75 2.5,-3.28125 3.21875,-3.28125 1.125,0 1.34375,1.046875 1.34375,1.640625 C 6.640625,-8.25 6.5,-7.6875 6.1875,-6.5 l -0.828125,3.40625 c -0.375,1.484375 -1.09375,2.84375 -2.40625,2.84375 -0.125,0 -0.75,0 -1.265625,-0.3125 0.890625,-0.1875 1.09375,-0.921875 1.09375,-1.21875 0,-0.5 -0.375,-0.796875 -0.84375,-0.796875 -0.59375,0 -1.25,0.515625 -1.25,1.3125 0,1.046875 1.171875,1.515625 2.234375,1.515625 1.1875,0 2.03125,-0.9375 2.5625,-1.953125 C 5.875,-0.25 7.109375,0.25 8.03125,0.25 c 2.53125,0 3.859375,-3.25 3.859375,-3.796875 0,-0.125 -0.09375,-0.21875 -0.25,-0.21875 -0.21875,0 -0.234375,0.125 -0.3125,0.328125 -0.671875,2.171875 -2.109375,3.1875 -3.21875,3.1875 -0.875,0 -1.34375,-0.640625 -1.34375,-1.65625 0,-0.546875 0.09375,-0.9375 0.5,-2.578125 L 8.125,-7.859375 C 8.5,-9.34375 9.34375,-10.4375 10.484375,-10.4375 c 0.04687,0 0.734375,0 1.265625,0.328125 z m 0,0"
             id="path12720" />
        </g>
      </g>
    </g>
  </g>
  <g
     inkscape:label=""
     transform="translate(64.397535,243.85296)"
     id="g13875">
    <g
       clip-path="url(#clipPath1806)"
       id="g13873"
       transform="translate(-0.671875,0.249875)">
      <g
         fill="#000000"
         fill-opacity="1"
         id="g13871">
        <g
           id="g13869"
           transform="translate(0,10.672)">
          <path
             d="M 6.515625,2.78125 C 5.84375,3.71875 4.875,4.5625 3.671875,4.5625 3.375,4.5625 2.1875,4.515625 1.8125,3.375 1.890625,3.390625 2,3.390625 2.0625,3.390625 2.796875,3.390625 3.296875,2.75 3.296875,2.1875 3.296875,1.609375 2.828125,1.40625 2.453125,1.40625 2.0625,1.40625 1.1875,1.703125 1.1875,2.921875 1.1875,4.1875 2.25,5.0625 3.671875,5.0625 c 2.46875,0 4.984375,-2.28125 5.671875,-5.03125 l 2.421875,-9.671875 c 0.03125,-0.125 0.07813,-0.265625 0.07813,-0.421875 0,-0.375 -0.296875,-0.625 -0.671875,-0.625 -0.21875,0 -0.734375,0.109375 -0.9375,0.84375 l -1.82813,7.296875 c -0.125,0.4375 -0.125,0.484375 -0.328125,0.765625 -0.5,0.6875 -1.3125,1.53125 -2.5,1.53125 C 4.1875,-0.25 4.0625,-1.609375 4.0625,-2.28125 c 0,-1.40625 0.671875,-3.3125 1.34375,-5.109375 0.265625,-0.71875 0.421875,-1.0625 0.421875,-1.5625 0,-1.03125 -0.75,-1.96875 -1.96875,-1.96875 -2.265625,0 -3.1875,3.59375 -3.1875,3.78125 0,0.109375 0.09375,0.234375 0.265625,0.234375 0.234375,0 0.25,-0.109375 0.34375,-0.453125 0.609375,-2.078125 1.546875,-3.078125 2.515625,-3.078125 0.21875,0 0.640625,0 0.640625,0.828125 0,0.640625 -0.28125,1.359375 -0.640625,2.296875 -1.21875,3.25 -1.21875,4.0625 -1.21875,4.65625 0,2.359375 1.6875,2.90625 2.921875,2.90625 0.71875,0 1.609375,-0.21875 2.484375,-1.140625 L 8,-0.875 C 7.625,0.59375 7.390625,1.5625 6.515625,2.78125 Z m 0,0"
             id="path13867" />
        </g>
      </g>
    </g>
  </g>
  <g
     inkscape:label=""
     transform="translate(232.53535,94.604364)"
     id="g15054">
    <g
       fill="#000000"
       fill-opacity="1"
       id="g38"
       transform="translate(-0.671875,-0.00550079)">
      <g
         id="use36"
         transform="translate(0,18.568001)">
        <path
           d="M 5.109375,-7.265625 C 5.15625,-7.40625 5.78125,-8.65625 6.6875,-9.4375 c 0.640625,-0.59375 1.484375,-1 2.453125,-1 1,0 1.34375,0.75 1.34375,1.734375 0,0.15625 0,0.65625 -0.296875,1.8125 l -0.625,2.546875 c -0.1875,0.75 -0.671875,2.578125 -0.71875,2.859375 -0.09375,0.375 -0.25,1.015625 -0.25,1.109375 0,0.34375 0.28125,0.625 0.65625,0.625 0.734375,0 0.859375,-0.578125 1.078125,-1.46875 l 1.5,-5.921875 c 0.04687,-0.1875 1.328125,-3.296875 4.0625,-3.296875 0.984375,0 1.328125,0.75 1.328125,1.734375 0,1.390625 -0.96875,4.09375 -1.5,5.578125 -0.234375,0.59375 -0.359375,0.921875 -0.359375,1.359375 0,1.125 0.765625,2.015625 1.96875,2.015625 C 19.625,0.25 20.5,-3.390625 20.5,-3.546875 c 0,-0.125 -0.109375,-0.21875 -0.25,-0.21875 -0.234375,0 -0.25,0.078125 -0.375,0.5 C 19.296875,-1.28125 18.390625,-0.25 17.390625,-0.25 17.15625,-0.25 16.75,-0.265625 16.75,-1.0625 c 0,-0.640625 0.296875,-1.4375 0.40625,-1.71875 0.4375,-1.1875 1.546875,-4.109375 1.546875,-5.546875 0,-1.484375 -0.859375,-2.59375 -2.75,-2.59375 -1.65625,0 -3,0.9375 -3.984375,2.390625 -0.07813,-1.328125 -0.890625,-2.390625 -2.75,-2.390625 -2.203125,0 -3.375,1.546875 -3.8125,2.171875 -0.078125,-1.40625 -1.09375,-2.171875 -2.1875,-2.171875 -0.71875,0 -1.28125,0.34375 -1.75,1.28125 -0.453125,0.890625 -0.796875,2.40625 -0.796875,2.5 0,0.109375 0.09375,0.234375 0.265625,0.234375 0.203125,0 0.234375,-0.03125 0.375,-0.609375 0.375,-1.453125 0.84375,-2.921875 1.828125,-2.921875 0.578125,0 0.78125,0.40625 0.78125,1.140625 0,0.546875 -0.25,1.515625 -0.421875,2.28125 L 2.796875,-4.34375 c -0.09375,0.484375 -0.375,1.59375 -0.5,2.046875 C 2.125,-1.65625 1.859375,-0.5 1.859375,-0.375 1.859375,-0.03125 2.125,0.25 2.5,0.25 c 0.296875,0 0.640625,-0.15625 0.84375,-0.515625 0.046875,-0.125 0.28125,-1 0.390625,-1.5 l 0.546875,-2.21875 z m 0,0"
           id="path72" />
      </g>
    </g>
    <g
       fill="#000000"
       fill-opacity="1"
       id="g42"
       transform="translate(-0.671875,-0.00550079)">
      <g
         id="use40"
         transform="translate(23.983999,18.568001)">
        <path
           d="m 15.9375,-7.953125 c 0.375,0 0.734375,0 0.734375,-0.421875 0,-0.453125 -0.421875,-0.453125 -0.84375,-0.453125 H 1.984375 c -0.421875,0 -0.84375,0 -0.84375,0.453125 0,0.421875 0.375,0.421875 0.75,0.421875 z m -0.109375,4.40625 c 0.421875,0 0.84375,0 0.84375,-0.4375 0,-0.421875 -0.359375,-0.421875 -0.734375,-0.421875 H 1.890625 c -0.375,0 -0.75,0 -0.75,0.421875 0,0.4375 0.421875,0.4375 0.84375,0.4375 z m 0,0"
           id="path76" />
      </g>
    </g>
    <g
       fill="#000000"
       fill-opacity="1"
       id="g50"
       transform="translate(-0.671875,-0.00550079)">
      <g
         id="use44"
         transform="translate(44.580002,18.568001)">
        <path
           d="m 7.015625,-3.546875 c 0,-0.125 -0.109375,-0.21875 -0.25,-0.21875 -0.21875,0 -0.25,0.078125 -0.375,0.5 C 5.75,-1.015625 4.734375,-0.25 3.921875,-0.25 c -0.296875,0 -0.65625,-0.078125 -0.65625,-0.8125 0,-0.671875 0.296875,-1.421875 0.578125,-2.15625 l 1.734375,-4.609375 c 0.078125,-0.203125 0.25,-0.640625 0.25,-1.125 0,-1.03125 -0.75,-1.96875 -1.96875,-1.96875 -2.265625,0 -3.1875,3.59375 -3.1875,3.78125 0,0.109375 0.09375,0.234375 0.265625,0.234375 0.234375,0 0.25,-0.109375 0.34375,-0.453125 0.609375,-2.078125 1.546875,-3.078125 2.515625,-3.078125 0.21875,0 0.640625,0.03125 0.640625,0.828125 0,0.640625 -0.328125,1.453125 -0.515625,2 L 2.1875,-3 c -0.15625,0.390625 -0.296875,0.796875 -0.296875,1.234375 0,1.125 0.765625,2.015625 1.953125,2.015625 2.28125,0 3.171875,-3.625 3.171875,-3.796875 z M 6.8125,-15.46875 c 0,-0.359375 -0.296875,-0.8125 -0.84375,-0.8125 -0.5625,0 -1.203125,0.546875 -1.203125,1.1875 0,0.625 0.515625,0.8125 0.8125,0.8125 0.671875,0 1.234375,-0.640625 1.234375,-1.1875 z m 0,0"
           id="path80" />
      </g>
      <g
         id="use46"
         transform="translate(52.858891,18.568001)">
        <path
           d="M 5.109375,-7.265625 C 5.15625,-7.40625 5.78125,-8.65625 6.6875,-9.4375 c 0.640625,-0.59375 1.484375,-1 2.453125,-1 1,0 1.34375,0.75 1.34375,1.734375 0,1.421875 -1.015625,4.25 -1.515625,5.578125 C 8.75,-2.53125 8.625,-2.203125 8.625,-1.765625 c 0,1.125 0.765625,2.015625 1.953125,2.015625 2.3125,0 3.171875,-3.640625 3.171875,-3.796875 0,-0.125 -0.09375,-0.21875 -0.25,-0.21875 -0.21875,0 -0.234375,0.078125 -0.359375,0.5 C 12.5625,-1.234375 11.625,-0.25 10.65625,-0.25 c -0.25,0 -0.640625,-0.015625 -0.640625,-0.8125 0,-0.625 0.265625,-1.359375 0.421875,-1.71875 0.484375,-1.359375 1.53125,-4.125 1.53125,-5.546875 0,-1.484375 -0.859375,-2.59375 -2.75,-2.59375 -2.203125,0 -3.375,1.546875 -3.8125,2.171875 -0.078125,-1.40625 -1.09375,-2.171875 -2.1875,-2.171875 -0.796875,0 -1.328125,0.46875 -1.75,1.3125 -0.453125,0.890625 -0.796875,2.375 -0.796875,2.46875 0,0.109375 0.09375,0.234375 0.265625,0.234375 0.203125,0 0.234375,-0.03125 0.375,-0.609375 0.390625,-1.5 0.84375,-2.921875 1.828125,-2.921875 0.578125,0 0.78125,0.40625 0.78125,1.140625 0,0.546875 -0.25,1.515625 -0.421875,2.28125 L 2.796875,-4.34375 c -0.09375,0.484375 -0.375,1.59375 -0.5,2.046875 C 2.125,-1.65625 1.859375,-0.5 1.859375,-0.375 1.859375,-0.03125 2.125,0.25 2.5,0.25 c 0.296875,0 0.640625,-0.15625 0.84375,-0.515625 0.046875,-0.125 0.28125,-1 0.390625,-1.5 l 0.546875,-2.21875 z m 0,0"
           id="path84" />
      </g>
      <g
         id="use48"
         transform="translate(67.346954,18.568001)">
        <path
           d="m 4.984375,-9.96875 h 2.28125 c 0.46875,0 0.71875,0 0.71875,-0.4375 0,-0.28125 -0.15625,-0.28125 -0.65625,-0.28125 H 5.15625 l 0.921875,-3.609375 c 0.09375,-0.34375 0.09375,-0.390625 0.09375,-0.578125 0,-0.390625 -0.328125,-0.609375 -0.640625,-0.609375 -0.203125,0 -0.765625,0.07813 -0.96875,0.859375 l -0.96875,3.9375 H 1.265625 c -0.5,0 -0.71875,0 -0.71875,0.484375 0,0.234375 0.171875,0.234375 0.640625,0.234375 h 2.203125 l -1.625,6.546875 c -0.203125,0.875 -0.28125,1.125 -0.28125,1.4375 0,1.171875 0.8125,2.234375 2.203125,2.234375 2.5,0 3.84375,-3.625 3.84375,-3.796875 0,-0.140625 -0.09375,-0.21875 -0.25,-0.21875 -0.046875,0 -0.140625,0 -0.1875,0.09375 C 7.0625,-3.640625 7.03125,-3.625 6.859375,-3.21875 6.34375,-1.984375 5.203125,-0.25 3.765625,-0.25 c -0.75,0 -0.796875,-0.625 -0.796875,-1.15625 0,-0.03125 0,-0.5 0.078125,-0.796875 z m 0,0"
           id="path88" />
      </g>
    </g>
    <g
       clip-path="url(#clipPath1527)"
       id="g56"
       transform="translate(-0.671875,-0.00550079)">
      <g
         fill="#000000"
         fill-opacity="1"
         id="g54">
        <g
           id="use52"
           transform="translate(76.112,18.568001)">
          <path
             d="m 7.578125,6.046875 c 0,-0.03125 0,-0.078125 -0.0625,-0.15625 -1.140625,-1.15625 -4.1875,-4.328125 -4.1875,-12.0625 0,-7.734375 2.984375,-10.875 4.203125,-12.109375 0,-0.03125 0.046875,-0.07813 0.046875,-0.15625 0,-0.07813 -0.0625,-0.125 -0.171875,-0.125 -0.265625,0 -2.375,1.828125 -3.59375,4.5625 -1.234375,2.75 -1.578125,5.421875 -1.578125,7.8125 0,1.78125 0.171875,4.796875 1.65625,8 1.1875,2.578125 3.21875,4.375 3.515625,4.375 0.125,0 0.171875,-0.046875 0.171875,-0.140625 z m 0,0"
             id="path92" />
        </g>
      </g>
    </g>
    <g
       fill="#000000"
       fill-opacity="1"
       id="g60"
       transform="translate(-0.671875,-0.00550079)">
      <g
         id="use58"
         transform="translate(84.889999,18.568001)">
        <path
           d="M 6.515625,2.78125 C 5.84375,3.71875 4.875,4.5625 3.671875,4.5625 3.375,4.5625 2.1875,4.515625 1.8125,3.375 1.890625,3.390625 2,3.390625 2.0625,3.390625 2.796875,3.390625 3.296875,2.75 3.296875,2.1875 3.296875,1.609375 2.828125,1.40625 2.453125,1.40625 2.0625,1.40625 1.1875,1.703125 1.1875,2.921875 1.1875,4.1875 2.25,5.0625 3.671875,5.0625 c 2.46875,0 4.984375,-2.28125 5.671875,-5.03125 l 2.421875,-9.671875 c 0.03125,-0.125 0.07813,-0.265625 0.07813,-0.421875 0,-0.375 -0.296875,-0.625 -0.671875,-0.625 -0.21875,0 -0.734375,0.109375 -0.9375,0.84375 l -1.82813,7.296875 c -0.125,0.4375 -0.125,0.484375 -0.328125,0.765625 -0.5,0.6875 -1.3125,1.53125 -2.5,1.53125 C 4.1875,-0.25 4.0625,-1.609375 4.0625,-2.28125 c 0,-1.40625 0.671875,-3.3125 1.34375,-5.109375 0.265625,-0.71875 0.421875,-1.0625 0.421875,-1.5625 0,-1.03125 -0.75,-1.96875 -1.96875,-1.96875 -2.265625,0 -3.1875,3.59375 -3.1875,3.78125 0,0.109375 0.09375,0.234375 0.265625,0.234375 0.234375,0 0.25,-0.109375 0.34375,-0.453125 0.609375,-2.078125 1.546875,-3.078125 2.515625,-3.078125 0.21875,0 0.640625,0 0.640625,0.828125 0,0.640625 -0.28125,1.359375 -0.640625,2.296875 -1.21875,3.25 -1.21875,4.0625 -1.21875,4.65625 0,2.359375 1.6875,2.90625 2.921875,2.90625 0.71875,0 1.609375,-0.21875 2.484375,-1.140625 L 8,-0.875 C 7.625,0.59375 7.390625,1.5625 6.515625,2.78125 Z m 0,0"
           id="path96" />
      </g>
    </g>
    <g
       clip-path="url(#clipPath7540)"
       id="g66"
       transform="translate(-0.671875,-0.00550079)">
      <g
         fill="#000000"
         fill-opacity="1"
         id="g64">
        <g
           id="use62"
           transform="translate(97.612999,18.568001)">
          <path
             d="m 6.515625,-6.171875 c 0,-1.78125 -0.171875,-4.8125 -1.65625,-8 C 3.671875,-16.75 1.640625,-18.5625 1.34375,-18.5625 c -0.078125,0 -0.171875,0.03125 -0.171875,0.15625 0,0.04687 0.015625,0.0625 0.046875,0.125 1.1875,1.234375 4.203125,4.375 4.203125,12.09375 0,7.71875 -3,10.875 -4.203125,12.109375 C 1.1875,5.96875 1.171875,6 1.171875,6.046875 c 0,0.125 0.09375,0.140625 0.171875,0.140625 0.265625,0 2.375,-1.828125 3.59375,-4.546875 1.234375,-2.75 1.578125,-5.4375 1.578125,-7.8125 z m 0,0"
             id="path100" />
        </g>
      </g>
    </g>
  </g>
  <g
     inkscape:label=""
     transform="translate(232.53535,38.768673)"
     id="g16313">
    <g
       fill="#000000"
       fill-opacity="1"
       id="g35"
       transform="translate(-0.671875,-0.00550079)">
      <g
         id="use33"
         transform="translate(0,18.568001)">
        <path
           d="M 5.109375,-7.265625 C 5.15625,-7.40625 5.78125,-8.65625 6.6875,-9.4375 c 0.640625,-0.59375 1.484375,-1 2.453125,-1 1,0 1.34375,0.75 1.34375,1.734375 0,1.421875 -1.015625,4.25 -1.515625,5.578125 C 8.75,-2.53125 8.625,-2.203125 8.625,-1.765625 c 0,1.125 0.765625,2.015625 1.953125,2.015625 2.3125,0 3.171875,-3.640625 3.171875,-3.796875 0,-0.125 -0.09375,-0.21875 -0.25,-0.21875 -0.21875,0 -0.234375,0.078125 -0.359375,0.5 C 12.5625,-1.234375 11.625,-0.25 10.65625,-0.25 c -0.25,0 -0.640625,-0.015625 -0.640625,-0.8125 0,-0.625 0.265625,-1.359375 0.421875,-1.71875 0.484375,-1.359375 1.53125,-4.125 1.53125,-5.546875 0,-1.484375 -0.859375,-2.59375 -2.75,-2.59375 -2.203125,0 -3.375,1.546875 -3.8125,2.171875 -0.078125,-1.40625 -1.09375,-2.171875 -2.1875,-2.171875 -0.796875,0 -1.328125,0.46875 -1.75,1.3125 -0.453125,0.890625 -0.796875,2.375 -0.796875,2.46875 0,0.109375 0.09375,0.234375 0.265625,0.234375 0.203125,0 0.234375,-0.03125 0.375,-0.609375 0.390625,-1.5 0.84375,-2.921875 1.828125,-2.921875 0.578125,0 0.78125,0.40625 0.78125,1.140625 0,0.546875 -0.25,1.515625 -0.421875,2.28125 L 2.796875,-4.34375 c -0.09375,0.484375 -0.375,1.59375 -0.5,2.046875 C 2.125,-1.65625 1.859375,-0.5 1.859375,-0.375 1.859375,-0.03125 2.125,0.25 2.5,0.25 c 0.296875,0 0.640625,-0.15625 0.84375,-0.515625 0.046875,-0.125 0.28125,-1 0.390625,-1.5 l 0.546875,-2.21875 z m 0,0"
           id="path69" />
      </g>
    </g>
    <g
       fill="#000000"
       fill-opacity="1"
       id="g39"
       transform="translate(-0.671875,-0.00550079)">
      <g
         id="use37"
         transform="translate(17.242001,18.568001)">
        <path
           d="m 15.9375,-7.953125 c 0.375,0 0.734375,0 0.734375,-0.421875 0,-0.453125 -0.421875,-0.453125 -0.84375,-0.453125 H 1.984375 c -0.421875,0 -0.84375,0 -0.84375,0.453125 0,0.421875 0.375,0.421875 0.75,0.421875 z m -0.109375,4.40625 c 0.421875,0 0.84375,0 0.84375,-0.4375 0,-0.421875 -0.359375,-0.421875 -0.734375,-0.421875 H 1.890625 c -0.375,0 -0.75,0 -0.75,0.421875 0,0.4375 0.421875,0.4375 0.84375,0.4375 z m 0,0"
           id="path73" />
      </g>
    </g>
    <g
       fill="#000000"
       fill-opacity="1"
       id="g47"
       transform="translate(-0.671875,-0.00550079)">
      <g
         id="use41"
         transform="translate(37.838001,18.568001)">
        <path
           d="m 7.015625,-3.546875 c 0,-0.125 -0.109375,-0.21875 -0.25,-0.21875 -0.21875,0 -0.25,0.078125 -0.375,0.5 C 5.75,-1.015625 4.734375,-0.25 3.921875,-0.25 c -0.296875,0 -0.65625,-0.078125 -0.65625,-0.8125 0,-0.671875 0.296875,-1.421875 0.578125,-2.15625 l 1.734375,-4.609375 c 0.078125,-0.203125 0.25,-0.640625 0.25,-1.125 0,-1.03125 -0.75,-1.96875 -1.96875,-1.96875 -2.265625,0 -3.1875,3.59375 -3.1875,3.78125 0,0.109375 0.09375,0.234375 0.265625,0.234375 0.234375,0 0.25,-0.109375 0.34375,-0.453125 0.609375,-2.078125 1.546875,-3.078125 2.515625,-3.078125 0.21875,0 0.640625,0.03125 0.640625,0.828125 0,0.640625 -0.328125,1.453125 -0.515625,2 L 2.1875,-3 c -0.15625,0.390625 -0.296875,0.796875 -0.296875,1.234375 0,1.125 0.765625,2.015625 1.953125,2.015625 2.28125,0 3.171875,-3.625 3.171875,-3.796875 z M 6.8125,-15.46875 c 0,-0.359375 -0.296875,-0.8125 -0.84375,-0.8125 -0.5625,0 -1.203125,0.546875 -1.203125,1.1875 0,0.625 0.515625,0.8125 0.8125,0.8125 0.671875,0 1.234375,-0.640625 1.234375,-1.1875 z m 0,0"
           id="path77" />
      </g>
      <g
         id="use43"
         transform="translate(46.11689,18.568001)">
        <path
           d="M 5.109375,-7.265625 C 5.15625,-7.40625 5.78125,-8.65625 6.6875,-9.4375 c 0.640625,-0.59375 1.484375,-1 2.453125,-1 1,0 1.34375,0.75 1.34375,1.734375 0,1.421875 -1.015625,4.25 -1.515625,5.578125 C 8.75,-2.53125 8.625,-2.203125 8.625,-1.765625 c 0,1.125 0.765625,2.015625 1.953125,2.015625 2.3125,0 3.171875,-3.640625 3.171875,-3.796875 0,-0.125 -0.09375,-0.21875 -0.25,-0.21875 -0.21875,0 -0.234375,0.078125 -0.359375,0.5 C 12.5625,-1.234375 11.625,-0.25 10.65625,-0.25 c -0.25,0 -0.640625,-0.015625 -0.640625,-0.8125 0,-0.625 0.265625,-1.359375 0.421875,-1.71875 0.484375,-1.359375 1.53125,-4.125 1.53125,-5.546875 0,-1.484375 -0.859375,-2.59375 -2.75,-2.59375 -2.203125,0 -3.375,1.546875 -3.8125,2.171875 -0.078125,-1.40625 -1.09375,-2.171875 -2.1875,-2.171875 -0.796875,0 -1.328125,0.46875 -1.75,1.3125 -0.453125,0.890625 -0.796875,2.375 -0.796875,2.46875 0,0.109375 0.09375,0.234375 0.265625,0.234375 0.203125,0 0.234375,-0.03125 0.375,-0.609375 0.390625,-1.5 0.84375,-2.921875 1.828125,-2.921875 0.578125,0 0.78125,0.40625 0.78125,1.140625 0,0.546875 -0.25,1.515625 -0.421875,2.28125 L 2.796875,-4.34375 c -0.09375,0.484375 -0.375,1.59375 -0.5,2.046875 C 2.125,-1.65625 1.859375,-0.5 1.859375,-0.375 1.859375,-0.03125 2.125,0.25 2.5,0.25 c 0.296875,0 0.640625,-0.15625 0.84375,-0.515625 0.046875,-0.125 0.28125,-1 0.390625,-1.5 l 0.546875,-2.21875 z m 0,0"
           id="path81" />
      </g>
      <g
         id="use45"
         transform="translate(60.60495,18.568001)">
        <path
           d="m 4.984375,-9.96875 h 2.28125 c 0.46875,0 0.71875,0 0.71875,-0.4375 0,-0.28125 -0.15625,-0.28125 -0.65625,-0.28125 H 5.15625 l 0.921875,-3.609375 c 0.09375,-0.34375 0.09375,-0.390625 0.09375,-0.578125 0,-0.390625 -0.328125,-0.609375 -0.640625,-0.609375 -0.203125,0 -0.765625,0.07813 -0.96875,0.859375 l -0.96875,3.9375 H 1.265625 c -0.5,0 -0.71875,0 -0.71875,0.484375 0,0.234375 0.171875,0.234375 0.640625,0.234375 h 2.203125 l -1.625,6.546875 c -0.203125,0.875 -0.28125,1.125 -0.28125,1.4375 0,1.171875 0.8125,2.234375 2.203125,2.234375 2.5,0 3.84375,-3.625 3.84375,-3.796875 0,-0.140625 -0.09375,-0.21875 -0.25,-0.21875 -0.046875,0 -0.140625,0 -0.1875,0.09375 C 7.0625,-3.640625 7.03125,-3.625 6.859375,-3.21875 6.34375,-1.984375 5.203125,-0.25 3.765625,-0.25 c -0.75,0 -0.796875,-0.625 -0.796875,-1.15625 0,-0.03125 0,-0.5 0.078125,-0.796875 z m 0,0"
           id="path85" />
      </g>
    </g>
    <g
       clip-path="url(#clipPath8131)"
       id="g53"
       transform="translate(-0.671875,-0.00550079)">
      <g
         fill="#000000"
         fill-opacity="1"
         id="g51">
        <g
           id="use49"
           transform="translate(69.370003,18.568001)">
          <path
             d="m 7.578125,6.046875 c 0,-0.03125 0,-0.078125 -0.0625,-0.15625 -1.140625,-1.15625 -4.1875,-4.328125 -4.1875,-12.0625 0,-7.734375 2.984375,-10.875 4.203125,-12.109375 0,-0.03125 0.046875,-0.07813 0.046875,-0.15625 0,-0.07813 -0.0625,-0.125 -0.171875,-0.125 -0.265625,0 -2.375,1.828125 -3.59375,4.5625 -1.234375,2.75 -1.578125,5.421875 -1.578125,7.8125 0,1.78125 0.171875,4.796875 1.65625,8 1.1875,2.578125 3.21875,4.375 3.515625,4.375 0.125,0 0.171875,-0.046875 0.171875,-0.140625 z m 0,0"
             id="path89" />
        </g>
      </g>
    </g>
    <g
       fill="#000000"
       fill-opacity="1"
       id="g57"
       transform="translate(-0.671875,-0.00550079)">
      <g
         id="use55"
         transform="translate(78.148003,18.568001)">
        <path
           d="m 11.75,-10.109375 c -0.796875,0.140625 -1.09375,0.734375 -1.09375,1.21875 0,0.59375 0.46875,0.78125 0.8125,0.78125 0.75,0 1.265625,-0.640625 1.265625,-1.3125 0,-1.03125 -1.1875,-1.5 -2.234375,-1.5 -1.5,0 -2.34375,1.484375 -2.5625,1.953125 -0.578125,-1.859375 -2.109375,-1.953125 -2.5625,-1.953125 -2.53125,0 -3.859375,3.234375 -3.859375,3.78125 0,0.109375 0.09375,0.234375 0.265625,0.234375 0.203125,0 0.25,-0.15625 0.296875,-0.25 0.84375,-2.75 2.5,-3.28125 3.21875,-3.28125 1.125,0 1.34375,1.046875 1.34375,1.640625 C 6.640625,-8.25 6.5,-7.6875 6.1875,-6.5 l -0.828125,3.40625 c -0.375,1.484375 -1.09375,2.84375 -2.40625,2.84375 -0.125,0 -0.75,0 -1.265625,-0.3125 0.890625,-0.1875 1.09375,-0.921875 1.09375,-1.21875 0,-0.5 -0.375,-0.796875 -0.84375,-0.796875 -0.59375,0 -1.25,0.515625 -1.25,1.3125 0,1.046875 1.171875,1.515625 2.234375,1.515625 1.1875,0 2.03125,-0.9375 2.5625,-1.953125 C 5.875,-0.25 7.109375,0.25 8.03125,0.25 c 2.53125,0 3.859375,-3.25 3.859375,-3.796875 0,-0.125 -0.09375,-0.21875 -0.25,-0.21875 -0.21875,0 -0.234375,0.125 -0.3125,0.328125 -0.671875,2.171875 -2.109375,3.1875 -3.21875,3.1875 -0.875,0 -1.34375,-0.640625 -1.34375,-1.65625 0,-0.546875 0.09375,-0.9375 0.5,-2.578125 L 8.125,-7.859375 C 8.5,-9.34375 9.34375,-10.4375 10.484375,-10.4375 c 0.04687,0 0.734375,0 1.265625,0.328125 z m 0,0"
           id="path93" />
      </g>
    </g>
    <g
       clip-path="url(#clipPath9518)"
       id="g63"
       transform="translate(-0.671875,-0.00550079)">
      <g
         fill="#000000"
         fill-opacity="1"
         id="g61">
        <g
           id="use59"
           transform="translate(91.940002,18.568001)">
          <path
             d="m 6.515625,-6.171875 c 0,-1.78125 -0.171875,-4.8125 -1.65625,-8 C 3.671875,-16.75 1.640625,-18.5625 1.34375,-18.5625 c -0.078125,0 -0.171875,0.03125 -0.171875,0.15625 0,0.04687 0.015625,0.0625 0.046875,0.125 1.1875,1.234375 4.203125,4.375 4.203125,12.09375 0,7.71875 -3,10.875 -4.203125,12.109375 C 1.1875,5.96875 1.171875,6 1.171875,6.046875 c 0,0.125 0.09375,0.140625 0.171875,0.140625 0.265625,0 2.375,-1.828125 3.59375,-4.546875 1.234375,-2.75 1.578125,-5.4375 1.578125,-7.8125 z m 0,0"
             id="path97" />
        </g>
      </g>
    </g>
  </g>
  <g
     inkscape:label=""
     transform="translate(232.53535,66.686519)"
     id="g17645">
    <g
       fill="#000000"
       fill-opacity="1"
       id="g44"
       transform="translate(-0.671875,-0.00550079)">
      <g
         id="use42"
         transform="translate(0,18.568001)">
        <path
           d="m 9.640625,-10.140625 c -0.765625,0.15625 -1.171875,0.703125 -1.171875,1.25 0,0.59375 0.484375,0.78125 0.828125,0.78125 0.6875,0 1.265625,-0.59375 1.265625,-1.328125 0,-0.796875 -0.78125,-1.484375 -2.015625,-1.484375 -0.984375,0 -2.125,0.4375 -3.171875,1.953125 -0.171875,-1.3125 -1.15625,-1.953125 -2.15625,-1.953125 -0.96875,0 -1.453125,0.734375 -1.75,1.28125 -0.421875,0.890625 -0.796875,2.375 -0.796875,2.5 0,0.109375 0.09375,0.234375 0.265625,0.234375 0.203125,0 0.234375,-0.03125 0.375,-0.609375 C 1.6875,-9 2.15625,-10.4375 3.140625,-10.4375 c 0.59375,0 0.78125,0.421875 0.78125,1.140625 0,0.546875 -0.25,1.515625 -0.421875,2.28125 L 2.796875,-4.34375 c -0.09375,0.484375 -0.375,1.59375 -0.5,2.046875 C 2.125,-1.65625 1.859375,-0.5 1.859375,-0.375 1.859375,-0.03125 2.125,0.25 2.5,0.25 2.78125,0.25 3.25,0.078125 3.390625,-0.421875 3.46875,-0.625 4.390625,-4.359375 4.53125,-4.9375 4.65625,-5.484375 4.8125,-6 4.9375,-6.546875 c 0.09375,-0.34375 0.1875,-0.734375 0.265625,-1.0625 0.078125,-0.21875 0.75,-1.4375 1.359375,-1.984375 0.296875,-0.265625 0.953125,-0.84375 1.96875,-0.84375 0.390625,0 0.78125,0.07813 1.109375,0.296875 z m 0,0"
           id="path90" />
      </g>
    </g>
    <g
       fill="#000000"
       fill-opacity="1"
       id="g48"
       transform="translate(-0.671875,-0.00550079)">
      <g
         id="g17610"
         transform="translate(10.937,22.285999)">
        <path
           d="m 8.15625,-7.03125 c -0.546875,0.109375 -0.75,0.515625 -0.75,0.84375 0,0.421875 0.328125,0.5625 0.5625,0.5625 0.515625,0 0.875,-0.453125 0.875,-0.921875 0,-0.71875 -0.8125,-1.046875 -1.546875,-1.046875 -1.046875,0 -1.625,1.03125 -1.78125,1.359375 -0.40625,-1.296875 -1.46875,-1.359375 -1.78125,-1.359375 -1.75,0 -2.6875,2.25 -2.6875,2.640625 0,0.0625 0.078125,0.15625 0.1875,0.15625 0.140625,0 0.171875,-0.109375 0.21875,-0.171875 C 2.03125,-6.890625 3.1875,-7.25 3.6875,-7.25 c 0.765625,0 0.921875,0.71875 0.921875,1.140625 0,0.375 -0.09375,0.765625 -0.296875,1.59375 L 3.71875,-2.15625 c -0.25,1.03125 -0.75,1.984375 -1.671875,1.984375 -0.078125,0 -0.515625,0 -0.875,-0.21875 0.625,-0.125 0.75,-0.640625 0.75,-0.84375 0,-0.34375 -0.25,-0.5625 -0.578125,-0.5625 -0.40625,0 -0.859375,0.375 -0.859375,0.921875 0,0.71875 0.8125,1.046875 1.546875,1.046875 0.828125,0 1.40625,-0.65625 1.78125,-1.359375 0.265625,1.015625 1.125,1.359375 1.765625,1.359375 1.75,0 2.6875,-2.25 2.6875,-2.640625 0,-0.078125 -0.0625,-0.15625 -0.171875,-0.15625 -0.15625,0 -0.171875,0.09375 -0.21875,0.234375 -0.46875,1.515625 -1.46875,2.21875 -2.25,2.21875 -0.59375,0 -0.921875,-0.453125 -0.921875,-1.15625 0,-0.375 0.0625,-0.65625 0.34375,-1.78125 l 0.59375,-2.34375 C 5.90625,-6.484375 6.484375,-7.25 7.28125,-7.25 c 0.03125,0 0.515625,0 0.875,0.21875 z m 0,0"
           id="path94" />
      </g>
    </g>
    <g
       fill="#000000"
       fill-opacity="1"
       id="g52"
       transform="translate(-0.671875,-0.00550079)">
      <g
         id="use50"
         transform="translate(23.768999,18.568001)">
        <path
           d="m 15.9375,-7.953125 c 0.375,0 0.734375,0 0.734375,-0.421875 0,-0.453125 -0.421875,-0.453125 -0.84375,-0.453125 H 1.984375 c -0.421875,0 -0.84375,0 -0.84375,0.453125 0,0.421875 0.375,0.421875 0.75,0.421875 z m -0.109375,4.40625 c 0.421875,0 0.84375,0 0.84375,-0.4375 0,-0.421875 -0.359375,-0.421875 -0.734375,-0.421875 H 1.890625 c -0.375,0 -0.75,0 -0.75,0.421875 0,0.4375 0.421875,0.4375 0.84375,0.4375 z m 0,0"
           id="path98" />
      </g>
    </g>
    <g
       fill="#000000"
       fill-opacity="1"
       id="g17618"
       transform="translate(-0.671875,-0.00550079)">
      <g
         id="use54"
         transform="translate(44.365002,18.568001)">
        <path
           d="m 11.75,-10.109375 c -0.796875,0.140625 -1.09375,0.734375 -1.09375,1.21875 0,0.59375 0.46875,0.78125 0.8125,0.78125 0.75,0 1.265625,-0.640625 1.265625,-1.3125 0,-1.03125 -1.1875,-1.5 -2.234375,-1.5 -1.5,0 -2.34375,1.484375 -2.5625,1.953125 -0.578125,-1.859375 -2.109375,-1.953125 -2.5625,-1.953125 -2.53125,0 -3.859375,3.234375 -3.859375,3.78125 0,0.109375 0.09375,0.234375 0.265625,0.234375 0.203125,0 0.25,-0.15625 0.296875,-0.25 0.84375,-2.75 2.5,-3.28125 3.21875,-3.28125 1.125,0 1.34375,1.046875 1.34375,1.640625 C 6.640625,-8.25 6.5,-7.6875 6.1875,-6.5 l -0.828125,3.40625 c -0.375,1.484375 -1.09375,2.84375 -2.40625,2.84375 -0.125,0 -0.75,0 -1.265625,-0.3125 0.890625,-0.1875 1.09375,-0.921875 1.09375,-1.21875 0,-0.5 -0.375,-0.796875 -0.84375,-0.796875 -0.59375,0 -1.25,0.515625 -1.25,1.3125 0,1.046875 1.171875,1.515625 2.234375,1.515625 1.1875,0 2.03125,-0.9375 2.5625,-1.953125 C 5.875,-0.25 7.109375,0.25 8.03125,0.25 c 2.53125,0 3.859375,-3.25 3.859375,-3.796875 0,-0.125 -0.09375,-0.21875 -0.25,-0.21875 -0.21875,0 -0.234375,0.125 -0.3125,0.328125 -0.671875,2.171875 -2.109375,3.1875 -3.21875,3.1875 -0.875,0 -1.34375,-0.640625 -1.34375,-1.65625 0,-0.546875 0.09375,-0.9375 0.5,-2.578125 L 8.125,-7.859375 C 8.5,-9.34375 9.34375,-10.4375 10.484375,-10.4375 c 0.04687,0 0.734375,0 1.265625,0.328125 z m 0,0"
           id="path102" />
      </g>
    </g>
    <g
       fill="#000000"
       fill-opacity="1"
       id="g17623"
       transform="translate(-0.671875,-0.00550079)">
      <g
         id="g17621"
         transform="translate(63.666,18.568001)">
        <path
           d="m 16.328125,-5.703125 c 0.421875,0 0.875,0 0.875,-0.484375 0,-0.5 -0.453125,-0.5 -0.875,-0.5 H 2.921875 c -0.421875,0 -0.859375,0 -0.859375,0.5 0,0.484375 0.4375,0.484375 0.859375,0.484375 z m 0,0"
           id="path106" />
      </g>
    </g>
    <g
       fill="#000000"
       fill-opacity="1"
       id="g68"
       transform="translate(-0.671875,-0.00550079)">
      <g
         id="g17627"
         transform="translate(88.453003,18.568001)">
        <path
           d="m 7.015625,-3.546875 c 0,-0.125 -0.109375,-0.21875 -0.25,-0.21875 -0.21875,0 -0.25,0.078125 -0.375,0.5 C 5.75,-1.015625 4.734375,-0.25 3.921875,-0.25 c -0.296875,0 -0.65625,-0.078125 -0.65625,-0.8125 0,-0.671875 0.296875,-1.421875 0.578125,-2.15625 l 1.734375,-4.609375 c 0.078125,-0.203125 0.25,-0.640625 0.25,-1.125 0,-1.03125 -0.75,-1.96875 -1.96875,-1.96875 -2.265625,0 -3.1875,3.59375 -3.1875,3.78125 0,0.109375 0.09375,0.234375 0.265625,0.234375 0.234375,0 0.25,-0.109375 0.34375,-0.453125 0.609375,-2.078125 1.546875,-3.078125 2.515625,-3.078125 0.21875,0 0.640625,0.03125 0.640625,0.828125 0,0.640625 -0.328125,1.453125 -0.515625,2 L 2.1875,-3 c -0.15625,0.390625 -0.296875,0.796875 -0.296875,1.234375 0,1.125 0.765625,2.015625 1.953125,2.015625 2.28125,0 3.171875,-3.625 3.171875,-3.796875 z M 6.8125,-15.46875 c 0,-0.359375 -0.296875,-0.8125 -0.84375,-0.8125 -0.5625,0 -1.203125,0.546875 -1.203125,1.1875 0,0.625 0.515625,0.8125 0.8125,0.8125 0.671875,0 1.234375,-0.640625 1.234375,-1.1875 z m 0,0"
           id="path17625" />
      </g>
      <g
         id="use64"
         transform="translate(96.731888,18.568001)">
        <path
           d="M 5.109375,-7.265625 C 5.15625,-7.40625 5.78125,-8.65625 6.6875,-9.4375 c 0.640625,-0.59375 1.484375,-1 2.453125,-1 1,0 1.34375,0.75 1.34375,1.734375 0,1.421875 -1.015625,4.25 -1.515625,5.578125 C 8.75,-2.53125 8.625,-2.203125 8.625,-1.765625 c 0,1.125 0.765625,2.015625 1.953125,2.015625 2.3125,0 3.171875,-3.640625 3.171875,-3.796875 0,-0.125 -0.09375,-0.21875 -0.25,-0.21875 -0.21875,0 -0.234375,0.078125 -0.359375,0.5 C 12.5625,-1.234375 11.625,-0.25 10.65625,-0.25 c -0.25,0 -0.640625,-0.015625 -0.640625,-0.8125 0,-0.625 0.265625,-1.359375 0.421875,-1.71875 0.484375,-1.359375 1.53125,-4.125 1.53125,-5.546875 0,-1.484375 -0.859375,-2.59375 -2.75,-2.59375 -2.203125,0 -3.375,1.546875 -3.8125,2.171875 -0.078125,-1.40625 -1.09375,-2.171875 -2.1875,-2.171875 -0.796875,0 -1.328125,0.46875 -1.75,1.3125 -0.453125,0.890625 -0.796875,2.375 -0.796875,2.46875 0,0.109375 0.09375,0.234375 0.265625,0.234375 0.203125,0 0.234375,-0.03125 0.375,-0.609375 0.390625,-1.5 0.84375,-2.921875 1.828125,-2.921875 0.578125,0 0.78125,0.40625 0.78125,1.140625 0,0.546875 -0.25,1.515625 -0.421875,2.28125 L 2.796875,-4.34375 c -0.09375,0.484375 -0.375,1.59375 -0.5,2.046875 C 2.125,-1.65625 1.859375,-0.5 1.859375,-0.375 1.859375,-0.03125 2.125,0.25 2.5,0.25 c 0.296875,0 0.640625,-0.15625 0.84375,-0.515625 0.046875,-0.125 0.28125,-1 0.390625,-1.5 l 0.546875,-2.21875 z m 0,0"
           id="path114" />
      </g>
      <g
         id="use66"
         transform="translate(111.21995,18.568001)">
        <path
           d="m 4.984375,-9.96875 h 2.28125 c 0.46875,0 0.71875,0 0.71875,-0.4375 0,-0.28125 -0.15625,-0.28125 -0.65625,-0.28125 H 5.15625 l 0.921875,-3.609375 c 0.09375,-0.34375 0.09375,-0.390625 0.09375,-0.578125 0,-0.390625 -0.328125,-0.609375 -0.640625,-0.609375 -0.203125,0 -0.765625,0.07813 -0.96875,0.859375 l -0.96875,3.9375 H 1.265625 c -0.5,0 -0.71875,0 -0.71875,0.484375 0,0.234375 0.171875,0.234375 0.640625,0.234375 h 2.203125 l -1.625,6.546875 c -0.203125,0.875 -0.28125,1.125 -0.28125,1.4375 0,1.171875 0.8125,2.234375 2.203125,2.234375 2.5,0 3.84375,-3.625 3.84375,-3.796875 0,-0.140625 -0.09375,-0.21875 -0.25,-0.21875 -0.046875,0 -0.140625,0 -0.1875,0.09375 C 7.0625,-3.640625 7.03125,-3.625 6.859375,-3.21875 6.34375,-1.984375 5.203125,-0.25 3.765625,-0.25 c -0.75,0 -0.796875,-0.625 -0.796875,-1.15625 0,-0.03125 0,-0.5 0.078125,-0.796875 z m 0,0"
           id="path118" />
      </g>
    </g>
    <g
       clip-path="url(#clipPath5180)"
       id="g74"
       transform="translate(-0.671875,-0.00550079)">
      <g
         fill="#000000"
         fill-opacity="1"
         id="g72">
        <g
           id="use70"
           transform="translate(119.984,18.568001)">
          <path
             d="m 7.578125,6.046875 c 0,-0.03125 0,-0.078125 -0.0625,-0.15625 -1.140625,-1.15625 -4.1875,-4.328125 -4.1875,-12.0625 0,-7.734375 2.984375,-10.875 4.203125,-12.109375 0,-0.03125 0.046875,-0.07813 0.046875,-0.15625 0,-0.07813 -0.0625,-0.125 -0.171875,-0.125 -0.265625,0 -2.375,1.828125 -3.59375,4.5625 -1.234375,2.75 -1.578125,5.421875 -1.578125,7.8125 0,1.78125 0.171875,4.796875 1.65625,8 1.1875,2.578125 3.21875,4.375 3.515625,4.375 0.125,0 0.171875,-0.046875 0.171875,-0.140625 z m 0,0"
             id="path122" />
        </g>
      </g>
    </g>
    <g
       fill="#000000"
       fill-opacity="1"
       id="g78"
       transform="translate(-0.671875,-0.00550079)">
      <g
         id="use76"
         transform="translate(128.76199,18.568001)">
        <path
           d="m 11.75,-10.109375 c -0.796875,0.140625 -1.09375,0.734375 -1.09375,1.21875 0,0.59375 0.46875,0.78125 0.8125,0.78125 0.75,0 1.265625,-0.640625 1.265625,-1.3125 0,-1.03125 -1.1875,-1.5 -2.234375,-1.5 -1.5,0 -2.34375,1.484375 -2.5625,1.953125 -0.578125,-1.859375 -2.109375,-1.953125 -2.5625,-1.953125 -2.53125,0 -3.859375,3.234375 -3.859375,3.78125 0,0.109375 0.09375,0.234375 0.265625,0.234375 0.203125,0 0.25,-0.15625 0.296875,-0.25 0.84375,-2.75 2.5,-3.28125 3.21875,-3.28125 1.125,0 1.34375,1.046875 1.34375,1.640625 C 6.640625,-8.25 6.5,-7.6875 6.1875,-6.5 l -0.828125,3.40625 c -0.375,1.484375 -1.09375,2.84375 -2.40625,2.84375 -0.125,0 -0.75,0 -1.265625,-0.3125 0.890625,-0.1875 1.09375,-0.921875 1.09375,-1.21875 0,-0.5 -0.375,-0.796875 -0.84375,-0.796875 -0.59375,0 -1.25,0.515625 -1.25,1.3125 0,1.046875 1.171875,1.515625 2.234375,1.515625 1.1875,0 2.03125,-0.9375 2.5625,-1.953125 C 5.875,-0.25 7.109375,0.25 8.03125,0.25 c 2.53125,0 3.859375,-3.25 3.859375,-3.796875 0,-0.125 -0.09375,-0.21875 -0.25,-0.21875 -0.21875,0 -0.234375,0.125 -0.3125,0.328125 -0.671875,2.171875 -2.109375,3.1875 -3.21875,3.1875 -0.875,0 -1.34375,-0.640625 -1.34375,-1.65625 0,-0.546875 0.09375,-0.9375 0.5,-2.578125 L 8.125,-7.859375 C 8.5,-9.34375 9.34375,-10.4375 10.484375,-10.4375 c 0.04687,0 0.734375,0 1.265625,0.328125 z m 0,0"
           id="path126" />
      </g>
    </g>
    <g
       clip-path="url(#clipPath8911)"
       id="g84"
       transform="translate(-0.671875,-0.00550079)">
      <g
         fill="#000000"
         fill-opacity="1"
         id="g82">
        <g
           id="use80"
           transform="translate(142.554,18.568001)">
          <path
             d="m 6.515625,-6.171875 c 0,-1.78125 -0.171875,-4.8125 -1.65625,-8 C 3.671875,-16.75 1.640625,-18.5625 1.34375,-18.5625 c -0.078125,0 -0.171875,0.03125 -0.171875,0.15625 0,0.04687 0.015625,0.0625 0.046875,0.125 1.1875,1.234375 4.203125,4.375 4.203125,12.09375 0,7.71875 -3,10.875 -4.203125,12.109375 C 1.1875,5.96875 1.171875,6 1.171875,6.046875 c 0,0.125 0.09375,0.140625 0.171875,0.140625 0.265625,0 2.375,-1.828125 3.59375,-4.546875 1.234375,-2.75 1.578125,-5.4375 1.578125,-7.8125 z m 0,0"
             id="path130" />
        </g>
      </g>
    </g>
  </g>
  <g
     inkscape:label=""
     transform="translate(232.53535,122.52221)"
     id="g19061">
    <g
       fill="#000000"
       fill-opacity="1"
       id="g41"
       transform="translate(-0.671875,-0.00550079)">
      <g
         id="use39"
         transform="translate(0,18.568001)">
        <path
           d="m 9.640625,-10.140625 c -0.765625,0.15625 -1.171875,0.703125 -1.171875,1.25 0,0.59375 0.484375,0.78125 0.828125,0.78125 0.6875,0 1.265625,-0.59375 1.265625,-1.328125 0,-0.796875 -0.78125,-1.484375 -2.015625,-1.484375 -0.984375,0 -2.125,0.4375 -3.171875,1.953125 -0.171875,-1.3125 -1.15625,-1.953125 -2.15625,-1.953125 -0.96875,0 -1.453125,0.734375 -1.75,1.28125 -0.421875,0.890625 -0.796875,2.375 -0.796875,2.5 0,0.109375 0.09375,0.234375 0.265625,0.234375 0.203125,0 0.234375,-0.03125 0.375,-0.609375 C 1.6875,-9 2.15625,-10.4375 3.140625,-10.4375 c 0.59375,0 0.78125,0.421875 0.78125,1.140625 0,0.546875 -0.25,1.515625 -0.421875,2.28125 L 2.796875,-4.34375 c -0.09375,0.484375 -0.375,1.59375 -0.5,2.046875 C 2.125,-1.65625 1.859375,-0.5 1.859375,-0.375 1.859375,-0.03125 2.125,0.25 2.5,0.25 2.78125,0.25 3.25,0.078125 3.390625,-0.421875 3.46875,-0.625 4.390625,-4.359375 4.53125,-4.9375 4.65625,-5.484375 4.8125,-6 4.9375,-6.546875 c 0.09375,-0.34375 0.1875,-0.734375 0.265625,-1.0625 0.078125,-0.21875 0.75,-1.4375 1.359375,-1.984375 0.296875,-0.265625 0.953125,-0.84375 1.96875,-0.84375 0.390625,0 0.78125,0.07813 1.109375,0.296875 z m 0,0"
           id="path19021" />
      </g>
    </g>
    <g
       clip-path="url(#clipPath190)"
       id="g19030"
       transform="translate(-0.671875,-0.00550079)">
      <g
         fill="#000000"
         fill-opacity="1"
         id="g45">
        <g
           id="g19027"
           transform="translate(10.937,22.285999)">
          <path
             d="m 4.53125,1.921875 c -0.46875,0.65625 -1.140625,1.25 -1.984375,1.25 -0.203125,0 -1.03125,-0.03125 -1.296875,-0.828125 0.0625,0.015625 0.140625,0.015625 0.171875,0.015625 0.53125,0 0.875,-0.453125 0.875,-0.84375 0,-0.390625 -0.328125,-0.53125 -0.59375,-0.53125 -0.28125,0 -0.875,0.203125 -0.875,1.046875 0,0.875 0.734375,1.484375 1.71875,1.484375 1.71875,0 3.46875,-1.59375 3.9375,-3.5 l 1.6875,-6.71875 c 0.03125,-0.078125 0.0625,-0.1875 0.0625,-0.28125 0,-0.265625 -0.203125,-0.4375 -0.46875,-0.4375 -0.15625,0 -0.515625,0.0625 -0.65625,0.59375 L 5.84375,-1.78125 C 5.75,-1.46875 5.75,-1.421875 5.609375,-1.234375 5.265625,-0.75 4.703125,-0.171875 3.875,-0.171875 c -0.96875,0 -1.046875,-0.953125 -1.046875,-1.40625 0,-0.984375 0.453125,-2.3125 0.921875,-3.546875 0.1875,-0.5 0.296875,-0.75 0.296875,-1.09375 0,-0.71875 -0.515625,-1.375 -1.359375,-1.375 -1.578125,0 -2.21875,2.5 -2.21875,2.640625 0,0.0625 0.0625,0.15625 0.1875,0.15625 0.15625,0 0.171875,-0.078125 0.234375,-0.3125 C 1.3125,-6.5625 1.96875,-7.25 2.640625,-7.25 c 0.15625,0 0.4375,0 0.4375,0.5625 0,0.453125 -0.1875,0.953125 -0.4375,1.609375 -0.84375,2.25 -0.84375,2.828125 -0.84375,3.234375 0,1.640625 1.171875,2.015625 2.03125,2.015625 0.5,0 1.109375,-0.15625 1.71875,-0.796875 L 5.5625,-0.609375 C 5.296875,0.40625 5.125,1.078125 4.53125,1.921875 Z m 0,0"
             id="path19025" />
        </g>
      </g>
    </g>
    <g
       fill="#000000"
       fill-opacity="1"
       id="g19036"
       transform="translate(-0.671875,-0.00550079)">
      <g
         id="g19034"
         transform="translate(23.025999,18.568001)">
        <path
           d="m 15.9375,-7.953125 c 0.375,0 0.734375,0 0.734375,-0.421875 0,-0.453125 -0.421875,-0.453125 -0.84375,-0.453125 H 1.984375 c -0.421875,0 -0.84375,0 -0.84375,0.453125 0,0.421875 0.375,0.421875 0.75,0.421875 z m -0.109375,4.40625 c 0.421875,0 0.84375,0 0.84375,-0.4375 0,-0.421875 -0.359375,-0.421875 -0.734375,-0.421875 H 1.890625 c -0.375,0 -0.75,0 -0.75,0.421875 0,0.4375 0.421875,0.4375 0.84375,0.4375 z m 0,0"
           id="path19032" />
      </g>
    </g>
    <g
       fill="#000000"
       fill-opacity="1"
       id="g55"
       transform="translate(-0.671875,-0.00550079)">
      <g
         id="use53"
         transform="translate(43.623001,18.568001)">
        <path
           d="M 6.515625,2.78125 C 5.84375,3.71875 4.875,4.5625 3.671875,4.5625 3.375,4.5625 2.1875,4.515625 1.8125,3.375 1.890625,3.390625 2,3.390625 2.0625,3.390625 2.796875,3.390625 3.296875,2.75 3.296875,2.1875 3.296875,1.609375 2.828125,1.40625 2.453125,1.40625 2.0625,1.40625 1.1875,1.703125 1.1875,2.921875 1.1875,4.1875 2.25,5.0625 3.671875,5.0625 c 2.46875,0 4.984375,-2.28125 5.671875,-5.03125 l 2.421875,-9.671875 c 0.03125,-0.125 0.07813,-0.265625 0.07813,-0.421875 0,-0.375 -0.296875,-0.625 -0.671875,-0.625 -0.21875,0 -0.734375,0.109375 -0.9375,0.84375 l -1.82813,7.296875 c -0.125,0.4375 -0.125,0.484375 -0.328125,0.765625 -0.5,0.6875 -1.3125,1.53125 -2.5,1.53125 C 4.1875,-0.25 4.0625,-1.609375 4.0625,-2.28125 c 0,-1.40625 0.671875,-3.3125 1.34375,-5.109375 0.265625,-0.71875 0.421875,-1.0625 0.421875,-1.5625 0,-1.03125 -0.75,-1.96875 -1.96875,-1.96875 -2.265625,0 -3.1875,3.59375 -3.1875,3.78125 0,0.109375 0.09375,0.234375 0.265625,0.234375 0.234375,0 0.25,-0.109375 0.34375,-0.453125 0.609375,-2.078125 1.546875,-3.078125 2.515625,-3.078125 0.21875,0 0.640625,0 0.640625,0.828125 0,0.640625 -0.28125,1.359375 -0.640625,2.296875 -1.21875,3.25 -1.21875,4.0625 -1.21875,4.65625 0,2.359375 1.6875,2.90625 2.921875,2.90625 0.71875,0 1.609375,-0.21875 2.484375,-1.140625 L 8,-0.875 C 7.625,0.59375 7.390625,1.5625 6.515625,2.78125 Z m 0,0"
           id="path19038" />
      </g>
    </g>
    <g
       fill="#000000"
       fill-opacity="1"
       id="g59"
       transform="translate(-0.671875,-0.00550079)">
      <g
         id="use57"
         transform="translate(61.855,18.568001)">
        <path
           d="m 16.328125,-5.703125 c 0.421875,0 0.875,0 0.875,-0.484375 0,-0.5 -0.453125,-0.5 -0.875,-0.5 H 2.921875 c -0.421875,0 -0.859375,0 -0.859375,0.5 0,0.484375 0.4375,0.484375 0.859375,0.484375 z m 0,0"
           id="path101" />
      </g>
    </g>
    <g
       fill="#000000"
       fill-opacity="1"
       id="g67"
       transform="translate(-0.671875,-0.00550079)">
      <g
         id="use61"
         transform="translate(86.641998,18.568001)">
        <path
           d="m 7.015625,-3.546875 c 0,-0.125 -0.109375,-0.21875 -0.25,-0.21875 -0.21875,0 -0.25,0.078125 -0.375,0.5 C 5.75,-1.015625 4.734375,-0.25 3.921875,-0.25 c -0.296875,0 -0.65625,-0.078125 -0.65625,-0.8125 0,-0.671875 0.296875,-1.421875 0.578125,-2.15625 l 1.734375,-4.609375 c 0.078125,-0.203125 0.25,-0.640625 0.25,-1.125 0,-1.03125 -0.75,-1.96875 -1.96875,-1.96875 -2.265625,0 -3.1875,3.59375 -3.1875,3.78125 0,0.109375 0.09375,0.234375 0.265625,0.234375 0.234375,0 0.25,-0.109375 0.34375,-0.453125 0.609375,-2.078125 1.546875,-3.078125 2.515625,-3.078125 0.21875,0 0.640625,0.03125 0.640625,0.828125 0,0.640625 -0.328125,1.453125 -0.515625,2 L 2.1875,-3 c -0.15625,0.390625 -0.296875,0.796875 -0.296875,1.234375 0,1.125 0.765625,2.015625 1.953125,2.015625 2.28125,0 3.171875,-3.625 3.171875,-3.796875 z M 6.8125,-15.46875 c 0,-0.359375 -0.296875,-0.8125 -0.84375,-0.8125 -0.5625,0 -1.203125,0.546875 -1.203125,1.1875 0,0.625 0.515625,0.8125 0.8125,0.8125 0.671875,0 1.234375,-0.640625 1.234375,-1.1875 z m 0,0"
           id="path105" />
      </g>
      <g
         id="use63"
         transform="translate(94.920891,18.568001)">
        <path
           d="M 5.109375,-7.265625 C 5.15625,-7.40625 5.78125,-8.65625 6.6875,-9.4375 c 0.640625,-0.59375 1.484375,-1 2.453125,-1 1,0 1.34375,0.75 1.34375,1.734375 0,1.421875 -1.015625,4.25 -1.515625,5.578125 C 8.75,-2.53125 8.625,-2.203125 8.625,-1.765625 c 0,1.125 0.765625,2.015625 1.953125,2.015625 2.3125,0 3.171875,-3.640625 3.171875,-3.796875 0,-0.125 -0.09375,-0.21875 -0.25,-0.21875 -0.21875,0 -0.234375,0.078125 -0.359375,0.5 C 12.5625,-1.234375 11.625,-0.25 10.65625,-0.25 c -0.25,0 -0.640625,-0.015625 -0.640625,-0.8125 0,-0.625 0.265625,-1.359375 0.421875,-1.71875 0.484375,-1.359375 1.53125,-4.125 1.53125,-5.546875 0,-1.484375 -0.859375,-2.59375 -2.75,-2.59375 -2.203125,0 -3.375,1.546875 -3.8125,2.171875 -0.078125,-1.40625 -1.09375,-2.171875 -2.1875,-2.171875 -0.796875,0 -1.328125,0.46875 -1.75,1.3125 -0.453125,0.890625 -0.796875,2.375 -0.796875,2.46875 0,0.109375 0.09375,0.234375 0.265625,0.234375 0.203125,0 0.234375,-0.03125 0.375,-0.609375 0.390625,-1.5 0.84375,-2.921875 1.828125,-2.921875 0.578125,0 0.78125,0.40625 0.78125,1.140625 0,0.546875 -0.25,1.515625 -0.421875,2.28125 L 2.796875,-4.34375 c -0.09375,0.484375 -0.375,1.59375 -0.5,2.046875 C 2.125,-1.65625 1.859375,-0.5 1.859375,-0.375 1.859375,-0.03125 2.125,0.25 2.5,0.25 c 0.296875,0 0.640625,-0.15625 0.84375,-0.515625 0.046875,-0.125 0.28125,-1 0.390625,-1.5 l 0.546875,-2.21875 z m 0,0"
           id="path109" />
      </g>
      <g
         id="use65"
         transform="translate(109.40895,18.568001)">
        <path
           d="m 4.984375,-9.96875 h 2.28125 c 0.46875,0 0.71875,0 0.71875,-0.4375 0,-0.28125 -0.15625,-0.28125 -0.65625,-0.28125 H 5.15625 l 0.921875,-3.609375 c 0.09375,-0.34375 0.09375,-0.390625 0.09375,-0.578125 0,-0.390625 -0.328125,-0.609375 -0.640625,-0.609375 -0.203125,0 -0.765625,0.07813 -0.96875,0.859375 l -0.96875,3.9375 H 1.265625 c -0.5,0 -0.71875,0 -0.71875,0.484375 0,0.234375 0.171875,0.234375 0.640625,0.234375 h 2.203125 l -1.625,6.546875 c -0.203125,0.875 -0.28125,1.125 -0.28125,1.4375 0,1.171875 0.8125,2.234375 2.203125,2.234375 2.5,0 3.84375,-3.625 3.84375,-3.796875 0,-0.140625 -0.09375,-0.21875 -0.25,-0.21875 -0.046875,0 -0.140625,0 -0.1875,0.09375 C 7.0625,-3.640625 7.03125,-3.625 6.859375,-3.21875 6.34375,-1.984375 5.203125,-0.25 3.765625,-0.25 c -0.75,0 -0.796875,-0.625 -0.796875,-1.15625 0,-0.03125 0,-0.5 0.078125,-0.796875 z m 0,0"
           id="path113" />
      </g>
    </g>
    <g
       fill="#000000"
       fill-opacity="1"
       id="g71"
       transform="translate(-0.671875,-0.00550079)">
      <g
         id="use69"
         transform="translate(118.173,18.568001)">
        <path
           d="m 7.578125,6.046875 c 0,-0.03125 0,-0.078125 -0.0625,-0.15625 -1.140625,-1.15625 -4.1875,-4.328125 -4.1875,-12.0625 0,-7.734375 2.984375,-10.875 4.203125,-12.109375 0,-0.03125 0.046875,-0.07813 0.046875,-0.15625 0,-0.07813 -0.0625,-0.125 -0.171875,-0.125 -0.265625,0 -2.375,1.828125 -3.59375,4.5625 -1.234375,2.75 -1.578125,5.421875 -1.578125,7.8125 0,1.78125 0.171875,4.796875 1.65625,8 1.1875,2.578125 3.21875,4.375 3.515625,4.375 0.125,0 0.171875,-0.046875 0.171875,-0.140625 z m 0,0"
           id="path117" />
      </g>
    </g>
    <g
       fill="#000000"
       fill-opacity="1"
       id="g75"
       transform="translate(-0.671875,-0.00550079)">
      <g
         id="use73"
         transform="translate(126.951,18.568001)">
        <path
           d="M 6.515625,2.78125 C 5.84375,3.71875 4.875,4.5625 3.671875,4.5625 3.375,4.5625 2.1875,4.515625 1.8125,3.375 1.890625,3.390625 2,3.390625 2.0625,3.390625 2.796875,3.390625 3.296875,2.75 3.296875,2.1875 3.296875,1.609375 2.828125,1.40625 2.453125,1.40625 2.0625,1.40625 1.1875,1.703125 1.1875,2.921875 1.1875,4.1875 2.25,5.0625 3.671875,5.0625 c 2.46875,0 4.984375,-2.28125 5.671875,-5.03125 l 2.421875,-9.671875 c 0.03125,-0.125 0.07813,-0.265625 0.07813,-0.421875 0,-0.375 -0.296875,-0.625 -0.671875,-0.625 -0.21875,0 -0.734375,0.109375 -0.9375,0.84375 l -1.82813,7.296875 c -0.125,0.4375 -0.125,0.484375 -0.328125,0.765625 -0.5,0.6875 -1.3125,1.53125 -2.5,1.53125 C 4.1875,-0.25 4.0625,-1.609375 4.0625,-2.28125 c 0,-1.40625 0.671875,-3.3125 1.34375,-5.109375 0.265625,-0.71875 0.421875,-1.0625 0.421875,-1.5625 0,-1.03125 -0.75,-1.96875 -1.96875,-1.96875 -2.265625,0 -3.1875,3.59375 -3.1875,3.78125 0,0.109375 0.09375,0.234375 0.265625,0.234375 0.234375,0 0.25,-0.109375 0.34375,-0.453125 0.609375,-2.078125 1.546875,-3.078125 2.515625,-3.078125 0.21875,0 0.640625,0 0.640625,0.828125 0,0.640625 -0.28125,1.359375 -0.640625,2.296875 -1.21875,3.25 -1.21875,4.0625 -1.21875,4.65625 0,2.359375 1.6875,2.90625 2.921875,2.90625 0.71875,0 1.609375,-0.21875 2.484375,-1.140625 L 8,-0.875 C 7.625,0.59375 7.390625,1.5625 6.515625,2.78125 Z m 0,0"
           id="path121" />
      </g>
    </g>
    <g
       fill="#000000"
       fill-opacity="1"
       id="g79"
       transform="translate(-0.671875,-0.00550079)">
      <g
         id="use77"
         transform="translate(139.675,18.568001)">
        <path
           d="m 6.515625,-6.171875 c 0,-1.78125 -0.171875,-4.8125 -1.65625,-8 C 3.671875,-16.75 1.640625,-18.5625 1.34375,-18.5625 c -0.078125,0 -0.171875,0.03125 -0.171875,0.15625 0,0.04687 0.015625,0.0625 0.046875,0.125 1.1875,1.234375 4.203125,4.375 4.203125,12.09375 0,7.71875 -3,10.875 -4.203125,12.109375 C 1.1875,5.96875 1.171875,6 1.171875,6.046875 c 0,0.125 0.09375,0.140625 0.171875,0.140625 0.265625,0 2.375,-1.828125 3.59375,-4.546875 1.234375,-2.75 1.578125,-5.4375 1.578125,-7.8125 z m 0,0"
           id="path125" />
      </g>
    </g>
  </g>
  <path
     style="fill:none;fill-opacity:0.756596;stroke:#000000;stroke-width:0.5;stroke-linejoin:bevel;stroke-miterlimit:1;stroke-dasharray:none;stroke-dashoffset:0;paint-order:stroke markers fill"
     d="m 79.00503,252.5539 c 26.1597,44.48494 0.355642,88.08698 0.355642,88.08698"
     id="path20242"
     sodipodi:nodetypes="cc" />
  <g
     inkscape:label=""
     transform="translate(303.54194,242.79643)"
     id="g1302">
    <g
       clip-path="url(#clipPath9347)"
       id="g31"
       transform="translate(-2.23438,-0.00550079)">
      <g
         fill="#000000"
         fill-opacity="1"
         id="g29">
        <g
           id="use27"
           transform="translate(0,18.568001)">
          <path
             d="m 7.578125,6.046875 c 0,-0.03125 0,-0.078125 -0.0625,-0.15625 -1.140625,-1.15625 -4.1875,-4.328125 -4.1875,-12.0625 0,-7.734375 2.984375,-10.875 4.203125,-12.109375 0,-0.03125 0.046875,-0.07813 0.046875,-0.15625 0,-0.07813 -0.0625,-0.125 -0.171875,-0.125 -0.265625,0 -2.375,1.828125 -3.59375,4.5625 -1.234375,2.75 -1.578125,5.421875 -1.578125,7.8125 0,1.78125 0.171875,4.796875 1.65625,8 1.1875,2.578125 3.21875,4.375 3.515625,4.375 0.125,0 0.171875,-0.046875 0.171875,-0.140625 z m 0,0"
             id="path53" />
        </g>
      </g>
    </g>
    <g
       fill="#000000"
       fill-opacity="1"
       id="g37"
       transform="translate(-2.23438,-0.00550079)">
      <g
         id="g1284"
         transform="translate(8.7779999,18.568001)">
        <path
           d="m 11.75,-10.109375 c -0.796875,0.140625 -1.09375,0.734375 -1.09375,1.21875 0,0.59375 0.46875,0.78125 0.8125,0.78125 0.75,0 1.265625,-0.640625 1.265625,-1.3125 0,-1.03125 -1.1875,-1.5 -2.234375,-1.5 -1.5,0 -2.34375,1.484375 -2.5625,1.953125 -0.578125,-1.859375 -2.109375,-1.953125 -2.5625,-1.953125 -2.53125,0 -3.859375,3.234375 -3.859375,3.78125 0,0.109375 0.09375,0.234375 0.265625,0.234375 0.203125,0 0.25,-0.15625 0.296875,-0.25 0.84375,-2.75 2.5,-3.28125 3.21875,-3.28125 1.125,0 1.34375,1.046875 1.34375,1.640625 C 6.640625,-8.25 6.5,-7.6875 6.1875,-6.5 l -0.828125,3.40625 c -0.375,1.484375 -1.09375,2.84375 -2.40625,2.84375 -0.125,0 -0.75,0 -1.265625,-0.3125 0.890625,-0.1875 1.09375,-0.921875 1.09375,-1.21875 0,-0.5 -0.375,-0.796875 -0.84375,-0.796875 -0.59375,0 -1.25,0.515625 -1.25,1.3125 0,1.046875 1.171875,1.515625 2.234375,1.515625 1.1875,0 2.03125,-0.9375 2.5625,-1.953125 C 5.875,-0.25 7.109375,0.25 8.03125,0.25 c 2.53125,0 3.859375,-3.25 3.859375,-3.796875 0,-0.125 -0.09375,-0.21875 -0.25,-0.21875 -0.21875,0 -0.234375,0.125 -0.3125,0.328125 -0.671875,2.171875 -2.109375,3.1875 -3.21875,3.1875 -0.875,0 -1.34375,-0.640625 -1.34375,-1.65625 0,-0.546875 0.09375,-0.9375 0.5,-2.578125 L 8.125,-7.859375 C 8.5,-9.34375 9.34375,-10.4375 10.484375,-10.4375 c 0.04687,0 0.734375,0 1.265625,0.328125 z m 0,0"
           id="path57" />
      </g>
      <g
         id="use35"
         transform="translate(22.569542,18.568001)">
        <path
           d="m 4.828125,0.09375 c 0,-1.4375 -0.46875,-2.5 -1.484375,-2.5 -0.796875,0 -1.1875,0.640625 -1.1875,1.1875 C 2.15625,-0.671875 2.53125,0 3.375,0 3.6875,0 3.96875,-0.09375 4.1875,-0.328125 4.234375,-0.375 4.265625,-0.375 4.28125,-0.375 c 0.0625,0 0.0625,0.34375 0.0625,0.46875 0,0.828125 -0.15625,2.4375 -1.59375,4.046875 C 2.484375,4.4375 2.484375,4.484375 2.484375,4.53125 c 0,0.125 0.125,0.25 0.234375,0.25 0.203125,0 2.109375,-1.828125 2.109375,-4.6875 z m 0,0"
           id="path61" />
      </g>
    </g>
    <g
       fill="#000000"
       fill-opacity="1"
       id="g1292"
       transform="translate(-2.23438,-0.00550079)">
      <g
         id="g1290"
         transform="translate(33.45108,18.568001)">
        <path
           d="M 6.515625,2.78125 C 5.84375,3.71875 4.875,4.5625 3.671875,4.5625 3.375,4.5625 2.1875,4.515625 1.8125,3.375 1.890625,3.390625 2,3.390625 2.0625,3.390625 2.796875,3.390625 3.296875,2.75 3.296875,2.1875 3.296875,1.609375 2.828125,1.40625 2.453125,1.40625 2.0625,1.40625 1.1875,1.703125 1.1875,2.921875 1.1875,4.1875 2.25,5.0625 3.671875,5.0625 c 2.46875,0 4.984375,-2.28125 5.671875,-5.03125 l 2.421875,-9.671875 c 0.03125,-0.125 0.07813,-0.265625 0.07813,-0.421875 0,-0.375 -0.296875,-0.625 -0.671875,-0.625 -0.21875,0 -0.734375,0.109375 -0.9375,0.84375 l -1.82813,7.296875 c -0.125,0.4375 -0.125,0.484375 -0.328125,0.765625 -0.5,0.6875 -1.3125,1.53125 -2.5,1.53125 C 4.1875,-0.25 4.0625,-1.609375 4.0625,-2.28125 c 0,-1.40625 0.671875,-3.3125 1.34375,-5.109375 0.265625,-0.71875 0.421875,-1.0625 0.421875,-1.5625 0,-1.03125 -0.75,-1.96875 -1.96875,-1.96875 -2.265625,0 -3.1875,3.59375 -3.1875,3.78125 0,0.109375 0.09375,0.234375 0.265625,0.234375 0.234375,0 0.25,-0.109375 0.34375,-0.453125 0.609375,-2.078125 1.546875,-3.078125 2.515625,-3.078125 0.21875,0 0.640625,0 0.640625,0.828125 0,0.640625 -0.28125,1.359375 -0.640625,2.296875 -1.21875,3.25 -1.21875,4.0625 -1.21875,4.65625 0,2.359375 1.6875,2.90625 2.921875,2.90625 0.71875,0 1.609375,-0.21875 2.484375,-1.140625 L 8,-0.875 C 7.625,0.59375 7.390625,1.5625 6.515625,2.78125 Z m 0,0"
           id="path65" />
      </g>
    </g>
    <g
       clip-path="url(#clipPath5847)"
       id="g1300"
       transform="translate(-2.23438,-0.00550079)">
      <g
         fill="#000000"
         fill-opacity="1"
         id="g1298">
        <g
           id="g1296"
           transform="translate(46.166,18.568001)">
          <path
             d="m 6.515625,-6.171875 c 0,-1.78125 -0.171875,-4.8125 -1.65625,-8 C 3.671875,-16.75 1.640625,-18.5625 1.34375,-18.5625 c -0.078125,0 -0.171875,0.03125 -0.171875,0.15625 0,0.04687 0.015625,0.0625 0.046875,0.125 1.1875,1.234375 4.203125,4.375 4.203125,12.09375 0,7.71875 -3,10.875 -4.203125,12.109375 C 1.1875,5.96875 1.171875,6 1.171875,6.046875 c 0,0.125 0.09375,0.140625 0.171875,0.140625 0.265625,0 2.375,-1.828125 3.59375,-4.546875 1.234375,-2.75 1.578125,-5.4375 1.578125,-7.8125 z m 0,0"
             id="path1294" />
        </g>
      </g>
    </g>
  </g>
</svg>
