<?xml version="1.0" encoding="utf-8" standalone="no"?>
<!DOCTYPE svg PUBLIC "-//W3C//DTD SVG 1.1//EN"
  "http://www.w3.org/Graphics/SVG/1.1/DTD/svg11.dtd">
<svg xmlns:xlink="http://www.w3.org/1999/xlink" width="576pt" height="144pt" viewBox="0 0 576 144" xmlns="http://www.w3.org/2000/svg" version="1.1">
 <metadata>
  <rdf:RDF xmlns:dc="http://purl.org/dc/elements/1.1/" xmlns:cc="http://creativecommons.org/ns#" xmlns:rdf="http://www.w3.org/1999/02/22-rdf-syntax-ns#">
   <cc:Work>
    <dc:type rdf:resource="http://purl.org/dc/dcmitype/StillImage"/>
    <dc:date>2024-12-16T23:28:40.867084</dc:date>
    <dc:format>image/svg+xml</dc:format>
    <dc:creator>
     <cc:Agent>
      <dc:title>Matplotlib v3.9.2, https://matplotlib.org/</dc:title>
     </cc:Agent>
    </dc:creator>
   </cc:Work>
  </rdf:RDF>
 </metadata>
 <defs>
  <style type="text/css">*{stroke-linejoin: round; stroke-linecap: butt}</style>
 </defs>
 <g id="figure_1">
  <g id="patch_1">
   <path d="M 0 144 
L 576 144 
L 576 0 
L 0 0 
z
" style="fill: #ffffff"/>
  </g>
  <g id="axes_1">
   <g id="patch_2">
    <path d="M 47.961178 110.64351 
L 572.99976 110.64351 
L 572.99976 6.799459 
L 47.961178 6.799459 
z
" style="fill: #ffffff"/>
   </g>
   <g id="matplotlib.axis_1">
    <g id="xtick_1">
     <g id="line2d_1">
      <path d="M 71.826568 110.64351 
L 71.826568 6.799459 
" clip-path="url(#p9aa47636ac)" style="fill: none; stroke: #b0b0b0; stroke-width: 0.8; stroke-linecap: square"/>
     </g>
     <g id="line2d_2">
      <defs>
       <path id="m5cf7a5afb7" d="M 0 0 
L 0 3.5 
" style="stroke: #000000; stroke-width: 0.8"/>
      </defs>
      <g>
       <use xlink:href="#m5cf7a5afb7" x="71.826568" y="110.64351" style="stroke: #000000; stroke-width: 0.8"/>
      </g>
     </g>
     <g id="text_1">
      <!-- 0 -->
      <g transform="translate(68.645318 125.241948) scale(0.1 -0.1)">
       <defs>
        <path id="DejaVuSans-30" d="M 2034 4250 
Q 1547 4250 1301 3770 
Q 1056 3291 1056 2328 
Q 1056 1369 1301 889 
Q 1547 409 2034 409 
Q 2525 409 2770 889 
Q 3016 1369 3016 2328 
Q 3016 3291 2770 3770 
Q 2525 4250 2034 4250 
z
M 2034 4750 
Q 2819 4750 3233 4129 
Q 3647 3509 3647 2328 
Q 3647 1150 3233 529 
Q 2819 -91 2034 -91 
Q 1250 -91 836 529 
Q 422 1150 422 2328 
Q 422 3509 836 4129 
Q 1250 4750 2034 4750 
z
" transform="scale(0.015625)"/>
       </defs>
       <use xlink:href="#DejaVuSans-30"/>
      </g>
     </g>
    </g>
    <g id="xtick_2">
     <g id="line2d_3">
      <path d="M 119.566896 110.64351 
L 119.566896 6.799459 
" clip-path="url(#p9aa47636ac)" style="fill: none; stroke: #b0b0b0; stroke-width: 0.8; stroke-linecap: square"/>
     </g>
     <g id="line2d_4">
      <g>
       <use xlink:href="#m5cf7a5afb7" x="119.566896" y="110.64351" style="stroke: #000000; stroke-width: 0.8"/>
      </g>
     </g>
     <g id="text_2">
      <!-- 5 -->
      <g transform="translate(116.385646 125.241948) scale(0.1 -0.1)">
       <defs>
        <path id="DejaVuSans-35" d="M 691 4666 
L 3169 4666 
L 3169 4134 
L 1269 4134 
L 1269 2991 
Q 1406 3038 1543 3061 
Q 1681 3084 1819 3084 
Q 2600 3084 3056 2656 
Q 3513 2228 3513 1497 
Q 3513 744 3044 326 
Q 2575 -91 1722 -91 
Q 1428 -91 1123 -41 
Q 819 9 494 109 
L 494 744 
Q 775 591 1075 516 
Q 1375 441 1709 441 
Q 2250 441 2565 725 
Q 2881 1009 2881 1497 
Q 2881 1984 2565 2268 
Q 2250 2553 1709 2553 
Q 1456 2553 1204 2497 
Q 953 2441 691 2322 
L 691 4666 
z
" transform="scale(0.015625)"/>
       </defs>
       <use xlink:href="#DejaVuSans-35"/>
      </g>
     </g>
    </g>
    <g id="xtick_3">
     <g id="line2d_5">
      <path d="M 167.307224 110.64351 
L 167.307224 6.799459 
" clip-path="url(#p9aa47636ac)" style="fill: none; stroke: #b0b0b0; stroke-width: 0.8; stroke-linecap: square"/>
     </g>
     <g id="line2d_6">
      <g>
       <use xlink:href="#m5cf7a5afb7" x="167.307224" y="110.64351" style="stroke: #000000; stroke-width: 0.8"/>
      </g>
     </g>
     <g id="text_3">
      <!-- 10 -->
      <g transform="translate(160.944724 125.241948) scale(0.1 -0.1)">
       <defs>
        <path id="DejaVuSans-31" d="M 794 531 
L 1825 531 
L 1825 4091 
L 703 3866 
L 703 4441 
L 1819 4666 
L 2450 4666 
L 2450 531 
L 3481 531 
L 3481 0 
L 794 0 
L 794 531 
z
" transform="scale(0.015625)"/>
       </defs>
       <use xlink:href="#DejaVuSans-31"/>
       <use xlink:href="#DejaVuSans-30" x="63.623047"/>
      </g>
     </g>
    </g>
    <g id="xtick_4">
     <g id="line2d_7">
      <path d="M 215.047552 110.64351 
L 215.047552 6.799459 
" clip-path="url(#p9aa47636ac)" style="fill: none; stroke: #b0b0b0; stroke-width: 0.8; stroke-linecap: square"/>
     </g>
     <g id="line2d_8">
      <g>
       <use xlink:href="#m5cf7a5afb7" x="215.047552" y="110.64351" style="stroke: #000000; stroke-width: 0.8"/>
      </g>
     </g>
     <g id="text_4">
      <!-- 15 -->
      <g transform="translate(208.685052 125.241948) scale(0.1 -0.1)">
       <use xlink:href="#DejaVuSans-31"/>
       <use xlink:href="#DejaVuSans-35" x="63.623047"/>
      </g>
     </g>
    </g>
    <g id="xtick_5">
     <g id="line2d_9">
      <path d="M 262.787881 110.64351 
L 262.787881 6.799459 
" clip-path="url(#p9aa47636ac)" style="fill: none; stroke: #b0b0b0; stroke-width: 0.8; stroke-linecap: square"/>
     </g>
     <g id="line2d_10">
      <g>
       <use xlink:href="#m5cf7a5afb7" x="262.787881" y="110.64351" style="stroke: #000000; stroke-width: 0.8"/>
      </g>
     </g>
     <g id="text_5">
      <!-- 20 -->
      <g transform="translate(256.425381 125.241948) scale(0.1 -0.1)">
       <defs>
        <path id="DejaVuSans-32" d="M 1228 531 
L 3431 531 
L 3431 0 
L 469 0 
L 469 531 
Q 828 903 1448 1529 
Q 2069 2156 2228 2338 
Q 2531 2678 2651 2914 
Q 2772 3150 2772 3378 
Q 2772 3750 2511 3984 
Q 2250 4219 1831 4219 
Q 1534 4219 1204 4116 
Q 875 4013 500 3803 
L 500 4441 
Q 881 4594 1212 4672 
Q 1544 4750 1819 4750 
Q 2544 4750 2975 4387 
Q 3406 4025 3406 3419 
Q 3406 3131 3298 2873 
Q 3191 2616 2906 2266 
Q 2828 2175 2409 1742 
Q 1991 1309 1228 531 
z
" transform="scale(0.015625)"/>
       </defs>
       <use xlink:href="#DejaVuSans-32"/>
       <use xlink:href="#DejaVuSans-30" x="63.623047"/>
      </g>
     </g>
    </g>
    <g id="xtick_6">
     <g id="line2d_11">
      <path d="M 310.528209 110.64351 
L 310.528209 6.799459 
" clip-path="url(#p9aa47636ac)" style="fill: none; stroke: #b0b0b0; stroke-width: 0.8; stroke-linecap: square"/>
     </g>
     <g id="line2d_12">
      <g>
       <use xlink:href="#m5cf7a5afb7" x="310.528209" y="110.64351" style="stroke: #000000; stroke-width: 0.8"/>
      </g>
     </g>
     <g id="text_6">
      <!-- 25 -->
      <g transform="translate(304.165709 125.241948) scale(0.1 -0.1)">
       <use xlink:href="#DejaVuSans-32"/>
       <use xlink:href="#DejaVuSans-35" x="63.623047"/>
      </g>
     </g>
    </g>
    <g id="xtick_7">
     <g id="line2d_13">
      <path d="M 358.268537 110.64351 
L 358.268537 6.799459 
" clip-path="url(#p9aa47636ac)" style="fill: none; stroke: #b0b0b0; stroke-width: 0.8; stroke-linecap: square"/>
     </g>
     <g id="line2d_14">
      <g>
       <use xlink:href="#m5cf7a5afb7" x="358.268537" y="110.64351" style="stroke: #000000; stroke-width: 0.8"/>
      </g>
     </g>
     <g id="text_7">
      <!-- 30 -->
      <g transform="translate(351.906037 125.241948) scale(0.1 -0.1)">
       <defs>
        <path id="DejaVuSans-33" d="M 2597 2516 
Q 3050 2419 3304 2112 
Q 3559 1806 3559 1356 
Q 3559 666 3084 287 
Q 2609 -91 1734 -91 
Q 1441 -91 1130 -33 
Q 819 25 488 141 
L 488 750 
Q 750 597 1062 519 
Q 1375 441 1716 441 
Q 2309 441 2620 675 
Q 2931 909 2931 1356 
Q 2931 1769 2642 2001 
Q 2353 2234 1838 2234 
L 1294 2234 
L 1294 2753 
L 1863 2753 
Q 2328 2753 2575 2939 
Q 2822 3125 2822 3475 
Q 2822 3834 2567 4026 
Q 2313 4219 1838 4219 
Q 1578 4219 1281 4162 
Q 984 4106 628 3988 
L 628 4550 
Q 988 4650 1302 4700 
Q 1616 4750 1894 4750 
Q 2613 4750 3031 4423 
Q 3450 4097 3450 3541 
Q 3450 3153 3228 2886 
Q 3006 2619 2597 2516 
z
" transform="scale(0.015625)"/>
       </defs>
       <use xlink:href="#DejaVuSans-33"/>
       <use xlink:href="#DejaVuSans-30" x="63.623047"/>
      </g>
     </g>
    </g>
    <g id="xtick_8">
     <g id="line2d_15">
      <path d="M 406.008866 110.64351 
L 406.008866 6.799459 
" clip-path="url(#p9aa47636ac)" style="fill: none; stroke: #b0b0b0; stroke-width: 0.8; stroke-linecap: square"/>
     </g>
     <g id="line2d_16">
      <g>
       <use xlink:href="#m5cf7a5afb7" x="406.008866" y="110.64351" style="stroke: #000000; stroke-width: 0.8"/>
      </g>
     </g>
     <g id="text_8">
      <!-- 35 -->
      <g transform="translate(399.646366 125.241948) scale(0.1 -0.1)">
       <use xlink:href="#DejaVuSans-33"/>
       <use xlink:href="#DejaVuSans-35" x="63.623047"/>
      </g>
     </g>
    </g>
    <g id="xtick_9">
     <g id="line2d_17">
      <path d="M 453.749194 110.64351 
L 453.749194 6.799459 
" clip-path="url(#p9aa47636ac)" style="fill: none; stroke: #b0b0b0; stroke-width: 0.8; stroke-linecap: square"/>
     </g>
     <g id="line2d_18">
      <g>
       <use xlink:href="#m5cf7a5afb7" x="453.749194" y="110.64351" style="stroke: #000000; stroke-width: 0.8"/>
      </g>
     </g>
     <g id="text_9">
      <!-- 40 -->
      <g transform="translate(447.386694 125.241948) scale(0.1 -0.1)">
       <defs>
        <path id="DejaVuSans-34" d="M 2419 4116 
L 825 1625 
L 2419 1625 
L 2419 4116 
z
M 2253 4666 
L 3047 4666 
L 3047 1625 
L 3713 1625 
L 3713 1100 
L 3047 1100 
L 3047 0 
L 2419 0 
L 2419 1100 
L 313 1100 
L 313 1709 
L 2253 4666 
z
" transform="scale(0.015625)"/>
       </defs>
       <use xlink:href="#DejaVuSans-34"/>
       <use xlink:href="#DejaVuSans-30" x="63.623047"/>
      </g>
     </g>
    </g>
    <g id="xtick_10">
     <g id="line2d_19">
      <path d="M 501.489522 110.64351 
L 501.489522 6.799459 
" clip-path="url(#p9aa47636ac)" style="fill: none; stroke: #b0b0b0; stroke-width: 0.8; stroke-linecap: square"/>
     </g>
     <g id="line2d_20">
      <g>
       <use xlink:href="#m5cf7a5afb7" x="501.489522" y="110.64351" style="stroke: #000000; stroke-width: 0.8"/>
      </g>
     </g>
     <g id="text_10">
      <!-- 45 -->
      <g transform="translate(495.127022 125.241948) scale(0.1 -0.1)">
       <use xlink:href="#DejaVuSans-34"/>
       <use xlink:href="#DejaVuSans-35" x="63.623047"/>
      </g>
     </g>
    </g>
    <g id="xtick_11">
     <g id="line2d_21">
      <path d="M 549.229851 110.64351 
L 549.229851 6.799459 
" clip-path="url(#p9aa47636ac)" style="fill: none; stroke: #b0b0b0; stroke-width: 0.8; stroke-linecap: square"/>
     </g>
     <g id="line2d_22">
      <g>
       <use xlink:href="#m5cf7a5afb7" x="549.229851" y="110.64351" style="stroke: #000000; stroke-width: 0.8"/>
      </g>
     </g>
     <g id="text_11">
      <!-- 50 -->
      <g transform="translate(542.867351 125.241948) scale(0.1 -0.1)">
       <use xlink:href="#DejaVuSans-35"/>
       <use xlink:href="#DejaVuSans-30" x="63.623047"/>
      </g>
     </g>
    </g>
    <g id="text_12">
     <!-- x -->
     <g transform="translate(307.521094 138.920073) scale(0.1 -0.1)">
      <defs>
       <path id="DejaVuSans-78" d="M 3513 3500 
L 2247 1797 
L 3578 0 
L 2900 0 
L 1881 1375 
L 863 0 
L 184 0 
L 1544 1831 
L 300 3500 
L 978 3500 
L 1906 2253 
L 2834 3500 
L 3513 3500 
z
" transform="scale(0.015625)"/>
      </defs>
      <use xlink:href="#DejaVuSans-78"/>
     </g>
    </g>
   </g>
   <g id="matplotlib.axis_2">
    <g id="ytick_1">
     <g id="line2d_23">
      <path d="M 47.961178 110.64351 
L 572.99976 110.64351 
" clip-path="url(#p9aa47636ac)" style="fill: none; stroke: #b0b0b0; stroke-width: 0.8; stroke-linecap: square"/>
     </g>
     <g id="line2d_24">
      <defs>
       <path id="ma085d630db" d="M 0 0 
L -3.5 0 
" style="stroke: #000000; stroke-width: 0.8"/>
      </defs>
      <g>
       <use xlink:href="#ma085d630db" x="47.961178" y="110.64351" style="stroke: #000000; stroke-width: 0.8"/>
      </g>
     </g>
     <g id="text_13">
      <!-- −0.5 -->
      <g transform="translate(16.678365 114.442729) scale(0.1 -0.1)">
       <defs>
        <path id="DejaVuSans-2212" d="M 678 2272 
L 4684 2272 
L 4684 1741 
L 678 1741 
L 678 2272 
z
" transform="scale(0.015625)"/>
        <path id="DejaVuSans-2e" d="M 684 794 
L 1344 794 
L 1344 0 
L 684 0 
L 684 794 
z
" transform="scale(0.015625)"/>
       </defs>
       <use xlink:href="#DejaVuSans-2212"/>
       <use xlink:href="#DejaVuSans-30" x="83.789062"/>
       <use xlink:href="#DejaVuSans-2e" x="147.412109"/>
       <use xlink:href="#DejaVuSans-35" x="179.199219"/>
      </g>
     </g>
    </g>
    <g id="ytick_2">
     <g id="line2d_25">
      <path d="M 47.961178 58.721484 
L 572.99976 58.721484 
" clip-path="url(#p9aa47636ac)" style="fill: none; stroke: #b0b0b0; stroke-width: 0.8; stroke-linecap: square"/>
     </g>
     <g id="line2d_26">
      <g>
       <use xlink:href="#ma085d630db" x="47.961178" y="58.721484" style="stroke: #000000; stroke-width: 0.8"/>
      </g>
     </g>
     <g id="text_14">
      <!-- 0.0 -->
      <g transform="translate(25.058053 62.520703) scale(0.1 -0.1)">
       <use xlink:href="#DejaVuSans-30"/>
       <use xlink:href="#DejaVuSans-2e" x="63.623047"/>
       <use xlink:href="#DejaVuSans-30" x="95.410156"/>
      </g>
     </g>
    </g>
    <g id="ytick_3">
     <g id="line2d_27">
      <path d="M 47.961178 6.799459 
L 572.99976 6.799459 
" clip-path="url(#p9aa47636ac)" style="fill: none; stroke: #b0b0b0; stroke-width: 0.8; stroke-linecap: square"/>
     </g>
     <g id="line2d_28">
      <g>
       <use xlink:href="#ma085d630db" x="47.961178" y="6.799459" style="stroke: #000000; stroke-width: 0.8"/>
      </g>
     </g>
     <g id="text_15">
      <!-- 0.5 -->
      <g transform="translate(25.058053 10.598678) scale(0.1 -0.1)">
       <use xlink:href="#DejaVuSans-30"/>
       <use xlink:href="#DejaVuSans-2e" x="63.623047"/>
       <use xlink:href="#DejaVuSans-35" x="95.410156"/>
      </g>
     </g>
    </g>
    <g id="text_16">
     <!-- y -->
     <g transform="translate(10.598678 61.680859) rotate(-90) scale(0.1 -0.1)">
      <defs>
       <path id="DejaVuSans-79" d="M 2059 -325 
Q 1816 -950 1584 -1140 
Q 1353 -1331 966 -1331 
L 506 -1331 
L 506 -850 
L 844 -850 
Q 1081 -850 1212 -737 
Q 1344 -625 1503 -206 
L 1606 56 
L 191 3500 
L 800 3500 
L 1894 763 
L 2988 3500 
L 3597 3500 
L 2059 -325 
z
" transform="scale(0.015625)"/>
      </defs>
      <use xlink:href="#DejaVuSans-79"/>
     </g>
    </g>
   </g>
   <g id="line2d_29">
    <path d="M 71.826568 58.721484 
L 72.590413 50.16508 
L 74.595507 26.630433 
L 75.263871 21.271113 
L 75.836755 18.360555 
L 76.218678 17.375415 
L 76.50512 17.156882 
L 76.696081 17.260684 
L 76.982523 17.788133 
L 77.364446 19.17004 
L 77.841849 21.930227 
L 78.510214 27.493501 
L 79.369539 36.792654 
L 81.183672 57.160946 
L 81.852037 61.972063 
L 82.520401 65.281743 
L 83.093285 67.044866 
L 83.570688 67.821979 
L 83.952611 68.030996 
L 84.239053 67.967759 
L 84.620976 67.617487 
L 85.098379 66.803809 
L 85.766743 65.102102 
L 86.817031 61.624051 
L 88.249241 56.976346 
L 88.822124 55.73919 
L 89.204047 55.273437 
L 89.490489 55.159893 
L 89.776931 55.280814 
L 90.063373 55.66621 
L 90.445296 56.644863 
L 90.922699 58.721484 
L 91.877505 64.553366 
L 93.405196 73.822862 
L 94.169041 77.154777 
L 94.741925 78.759233 
L 95.123848 79.350888 
L 95.41029 79.533483 
L 95.696732 79.490295 
L 95.983174 79.223072 
L 96.365096 78.52735 
L 96.8425 77.143147 
L 97.510864 74.364234 
L 98.465671 69.186296 
L 100.088842 60.194668 
L 100.661726 58.195552 
L 100.948168 57.747297 
L 101.23461 57.663704 
L 101.521052 57.896995 
L 101.902974 58.622184 
L 102.475858 60.390851 
L 103.335184 63.955225 
L 104.958355 70.778351 
L 105.62672 72.712618 
L 106.104123 73.564819 
L 106.486046 73.876891 
L 106.772488 73.877499 
L 107.05893 73.668102 
L 107.440853 73.050895 
L 107.918256 71.722693 
L 108.49114 69.306201 
L 109.159504 65.379914 
L 109.92335 59.542798 
L 111.260079 48.840146 
L 112.119405 43.713071 
L 112.787769 41.033433 
L 113.265173 39.889251 
L 113.647095 39.44646 
L 113.933537 39.387721 
L 114.219979 39.557714 
L 114.601902 40.125816 
L 115.079305 41.345214 
L 115.652189 43.457141 
L 116.511515 47.589562 
L 118.325647 56.662158 
L 118.898531 58.355485 
L 119.280454 58.81897 
L 119.471415 58.800789 
L 119.662377 58.590099 
L 119.948819 57.888871 
L 120.426222 55.865563 
L 121.094586 51.787825 
L 123.577083 35.367838 
L 124.149967 33.237456 
L 124.627371 32.279672 
L 124.913813 32.090353 
L 125.200255 32.199919 
L 125.486697 32.611734 
L 125.868619 33.629239 
L 126.346023 35.633751 
L 126.918906 39.03967 
L 127.682752 45.017964 
L 128.924 56.842455 
L 129.974287 68.235835 
L 131.692939 87.587029 
L 132.456785 93.626715 
L 133.029668 96.469122 
L 133.411591 97.466349 
L 133.698033 97.725111 
L 133.888994 97.663004 
L 134.175436 97.220164 
L 134.557359 95.991107 
L 135.034762 93.482292 
L 135.607646 89.199597 
L 136.466972 80.795939 
L 138.472066 60.074581 
L 140.190718 48.239489 
L 141.145524 42.661086 
L 141.813889 39.853941 
L 142.386773 38.349166 
L 142.768695 37.846627 
L 143.055137 37.738912 
L 143.341579 37.861331 
L 143.723502 38.375102 
L 144.200905 39.552876 
L 144.773789 41.671095 
L 145.537634 45.436996 
L 147.82917 57.615161 
L 148.974938 61.741967 
L 149.738783 66.604195 
L 151.839358 80.721004 
L 152.507722 83.523338 
L 152.985126 84.682497 
L 153.367048 85.05288 
L 153.65349 84.993221 
L 153.939932 84.64096 
L 154.321855 83.719024 
L 154.799258 81.862199 
L 155.372142 78.679013 
L 156.135987 73.083763 
L 157.568197 60.40512 
L 158.427523 53.724585 
L 159.095888 50.303211 
L 159.668772 48.538437 
L 160.050694 47.914592 
L 160.432617 47.697443 
L 160.719059 47.781117 
L 161.100982 48.191797 
L 161.578385 49.129395 
L 162.246749 51.07984 
L 163.297037 55.060771 
L 164.633766 60.081775 
L 165.30213 61.776559 
L 165.684053 62.293561 
L 165.970495 62.40608 
L 166.256937 62.244466 
L 166.543379 61.773206 
L 166.925302 60.599871 
L 167.402705 58.183441 
L 167.880108 56.26211 
L 168.262031 55.547309 
L 168.548473 55.422917 
L 168.834915 55.604804 
L 169.216837 56.254037 
L 169.694241 57.590536 
L 170.458086 60.545985 
L 172.654141 69.623122 
L 173.227025 71.065655 
L 173.704428 71.721211 
L 173.99087 71.83925 
L 174.277312 71.731527 
L 174.563754 71.383875 
L 174.945677 70.525217 
L 175.42308 68.780407 
L 175.995964 65.647609 
L 176.664329 60.496085 
L 177.332693 53.530187 
L 178.573942 37.257447 
L 179.71971 23.472198 
L 180.388074 17.672581 
L 180.960958 14.522674 
L 181.342881 13.461534 
L 181.629323 13.233273 
L 181.820284 13.353796 
L 182.106726 13.941606 
L 182.488649 15.469885 
L 182.966052 18.516614 
L 183.538936 23.664191 
L 184.398262 33.722753 
L 186.498836 59.627758 
L 188.885853 81.612745 
L 189.554217 85.560521 
L 190.03162 87.393827 
L 190.413543 88.221606 
L 190.699985 88.460494 
L 190.986427 88.37173 
L 191.272869 87.960025 
L 191.654792 86.925438 
L 192.132195 84.902981 
L 192.80056 80.898041 
L 193.755366 73.552908 
L 195.283057 61.811783 
L 195.855941 59.026015 
L 197.479112 54.187742 
L 198.433918 51.864905 
L 199.102283 50.729342 
L 199.675167 50.146338 
L 200.15257 49.954586 
L 200.629973 50.032696 
L 201.107377 50.372133 
L 201.680261 51.097064 
L 202.444106 52.512194 
L 203.685354 55.428898 
L 204.735642 57.725907 
L 205.308526 58.554289 
L 205.594967 58.761984 
L 205.785929 58.688481 
L 206.072371 58.229836 
L 206.454293 57.069739 
L 207.027177 54.449184 
L 208.077465 48.22669 
L 209.318713 41.126755 
L 209.987078 38.360009 
L 210.464481 37.070528 
L 210.846404 36.512542 
L 211.132846 36.389115 
L 211.419288 36.527446 
L 211.70573 36.931922 
L 212.087652 37.886632 
L 212.565055 39.736612 
L 213.137939 42.869126 
L 213.901785 48.40284 
L 215.047552 58.721484 
L 216.09784 70.021708 
L 217.53005 85.022872 
L 218.293895 90.755917 
L 218.866779 93.492811 
L 219.248701 94.485549 
L 219.535143 94.776643 
L 219.726105 94.753139 
L 220.012547 94.393497 
L 220.394469 93.321274 
L 220.871873 91.077666 
L 221.444756 87.201947 
L 222.304082 79.540094 
L 224.309176 60.519082 
L 224.977541 56.685574 
L 226.027828 51.861401 
L 226.791673 49.320752 
L 227.364557 48.050995 
L 227.84196 47.432608 
L 228.223883 47.227288 
L 228.605806 47.273672 
L 228.987728 47.561094 
L 229.465132 48.234607 
L 230.038016 49.445844 
L 230.897341 51.874059 
L 232.902435 57.811632 
L 233.379839 58.604654 
L 233.761761 58.870674 
L 234.048203 58.802351 
L 234.334645 58.447282 
L 234.716568 57.462375 
L 235.289452 55.145355 
L 236.244258 50.049889 
L 237.676468 42.515011 
L 238.344833 40.014756 
L 238.917717 38.683819 
L 239.299639 38.270765 
L 239.586081 38.224384 
L 239.872523 38.408684 
L 240.254446 39.014592 
L 240.731849 40.340432 
L 241.304733 42.717538 
L 242.068578 47.040151 
L 243.214346 55.154698 
L 244.264633 62.202937 
L 244.742037 64.049376 
L 245.21944 65.056397 
L 245.601363 65.33251 
L 245.887805 65.267994 
L 246.269727 64.865207 
L 246.74713 63.931852 
L 247.415495 62.018913 
L 248.656744 57.531445 
L 249.802511 53.687573 
L 250.470876 52.181781 
L 250.948279 51.640839 
L 251.234721 51.580349 
L 251.521163 51.745401 
L 251.807605 52.158399 
L 252.189528 53.133339 
L 252.666931 55.107985 
L 253.239815 58.721484 
L 254.576544 67.991881 
L 255.43587 72.399024 
L 256.104235 74.671196 
L 256.581638 75.614277 
L 256.963561 75.951789 
L 257.250003 75.964004 
L 257.536445 75.774887 
L 257.918367 75.222706 
L 258.395771 74.08624 
L 259.064135 71.78499 
L 260.018942 67.528763 
L 261.546632 60.748955 
L 262.119516 59.169745 
L 262.501439 58.692481 
L 262.6924 58.671049 
L 263.265284 59.090395 
L 265.079417 60.3935 
L 266.034223 60.826984 
L 266.893549 60.99358 
L 267.752875 60.934529 
L 268.707681 60.62431 
L 269.94893 59.942601 
L 271.858543 58.860237 
L 272.622388 58.523357 
L 273.004311 57.864556 
L 273.577195 56.233382 
L 274.436521 52.940914 
L 276.059692 46.67595 
L 276.728057 44.895264 
L 277.300941 43.978622 
L 277.682863 43.722707 
L 277.969305 43.727981 
L 278.351228 44.003999 
L 278.73315 44.588206 
L 279.210554 45.742284 
L 279.783438 47.710752 
L 280.547283 51.187144 
L 281.693051 57.596226 
L 282.552377 62.047083 
L 283.125261 63.976719 
L 283.602664 64.989481 
L 284.080067 65.5098 
L 284.46199 65.604936 
L 284.843912 65.444273 
L 285.321316 64.928286 
L 285.8942 63.927405 
L 286.753526 61.882663 
L 288.758619 56.822828 
L 289.331503 55.947578 
L 289.713426 55.655524 
L 289.999868 55.625181 
L 290.28631 55.780896 
L 290.668233 56.316835 
L 291.050155 57.278238 
L 291.527558 59.154182 
L 292.768807 65.45016 
L 293.914575 70.872265 
L 294.67842 73.504763 
L 295.251304 74.755959 
L 295.728707 75.268745 
L 296.11063 75.319472 
L 296.492553 75.051352 
L 296.874475 74.473685 
L 297.351878 73.343652 
L 298.020243 71.098539 
L 298.97505 66.952083 
L 300.598221 59.854379 
L 301.171105 58.282358 
L 301.743989 57.345642 
L 302.221392 56.950542 
L 302.698795 56.850686 
L 303.176199 56.99595 
L 303.749082 57.425556 
L 304.512928 58.299305 
L 307.186386 61.640853 
L 307.75927 61.966168 
L 308.236673 62.030203 
L 308.714077 61.871721 
L 309.19148 61.460216 
L 309.668883 60.766741 
L 310.241767 59.523914 
L 310.71917 58.050063 
L 311.196574 55.661738 
L 311.960419 50.422974 
L 313.965513 35.898043 
L 314.633877 32.731209 
L 315.111281 31.341711 
L 315.493203 30.811059 
L 315.779645 30.766466 
L 316.066087 31.029164 
L 316.44801 31.855558 
L 316.925413 33.63218 
L 317.498297 36.775718 
L 318.262142 42.405281 
L 319.598871 54.452604 
L 322.36781 78.879419 
L 323.131656 83.587607 
L 323.70454 85.864634 
L 324.086462 86.719299 
L 324.372904 86.999821 
L 324.659346 86.969772 
L 324.945788 86.632448 
L 325.327711 85.718566 
L 325.805114 83.875234 
L 326.473479 80.155205 
L 327.428285 73.223917 
L 329.051456 61.31565 
L 329.62434 58.721484 
L 330.197224 57.331775 
L 330.674628 56.753036 
L 331.05655 56.609871 
L 331.438473 56.707039 
L 331.915876 57.107048 
L 332.48876 57.899312 
L 333.443567 59.669026 
L 335.066738 62.709985 
L 335.735102 63.55212 
L 336.307986 63.932005 
L 336.689909 63.971108 
L 337.071832 63.815465 
L 337.549235 63.31899 
L 338.026638 62.45633 
L 338.599522 60.896234 
L 339.267887 58.281914 
L 339.840771 54.798847 
L 340.795577 47.043316 
L 342.323268 34.709416 
L 342.991632 30.889245 
L 343.564516 28.821054 
L 343.946439 28.139045 
L 344.232881 28.011387 
L 344.519323 28.217588 
L 344.805765 28.756857 
L 345.187687 29.983714 
L 345.665091 32.293815 
L 346.333455 36.816369 
L 347.288262 45.198425 
L 349.675278 69.008664 
L 351.871333 95.10133 
L 352.539698 100.091225 
L 353.017101 102.241652 
L 353.399024 103.036993 
L 353.589985 103.117182 
L 353.780947 102.984235 
L 354.067388 102.386856 
L 354.449311 100.861345 
L 354.926714 97.839368 
L 355.595079 91.758449 
L 356.454405 81.557405 
L 358.459499 56.755653 
L 360.560073 35.784729 
L 361.323918 30.646878 
L 361.896802 28.240382 
L 362.278725 27.39039 
L 362.565167 27.159399 
L 362.756128 27.199065 
L 363.04257 27.545579 
L 363.424493 28.528516 
L 363.901896 30.543721 
L 364.47478 33.978234 
L 365.334106 40.672615 
L 367.243719 56.120553 
L 367.721122 58.413843 
L 368.103045 59.297772 
L 368.294006 59.41217 
L 368.484968 59.333074 
L 368.77141 58.891982 
L 369.153332 57.794756 
L 369.726216 55.328147 
L 370.776503 49.470539 
L 372.017752 42.769094 
L 372.686117 40.161154 
L 373.16352 38.959805 
L 373.545442 38.460561 
L 373.831884 38.376961 
L 374.118326 38.554009 
L 374.404768 38.998859 
L 374.786691 40.015623 
L 375.264094 41.969181 
L 375.836978 45.291829 
L 376.600823 51.261898 
L 377.55563 60.780666 
L 379.942646 85.965553 
L 380.611011 90.433349 
L 381.088414 92.472302 
L 381.470337 93.357948 
L 381.756779 93.576856 
L 381.94774 93.510489 
L 382.234182 93.096133 
L 382.616105 91.972049 
L 383.093508 89.703537 
L 383.761873 85.124023 
L 384.716679 76.589139 
L 386.33985 61.919961 
L 386.912734 58.721484 
L 387.485618 55.917563 
L 388.440425 49.679859 
L 389.968115 39.738681 
L 390.63648 36.638651 
L 391.209364 34.939674 
L 391.591287 34.36065 
L 391.877728 34.231355 
L 392.16417 34.367276 
L 392.450612 34.767727 
L 392.832535 35.70485 
L 393.309938 37.492393 
L 393.978303 41.01591 
L 394.93311 47.566219 
L 398.943297 76.810975 
L 399.707142 80.908045 
L 400.280026 82.916956 
L 400.661949 83.68273 
L 400.948391 83.942174 
L 401.234833 83.928425 
L 401.521275 83.642767 
L 401.903197 82.848484 
L 402.380601 81.226 
L 402.953485 78.45525 
L 403.812811 73.016692 
L 405.817904 59.598598 
L 407.250114 52.308793 
L 408.682324 44.773237 
L 409.446169 41.884102 
L 410.019053 40.516511 
L 410.400976 40.03341 
L 410.687418 39.905692 
L 410.97386 39.981051 
L 411.355782 40.394608 
L 411.833186 41.397097 
L 412.40607 43.253084 
L 413.169915 46.635098 
L 416.511738 63.860825 
L 419.280677 82.040239 
L 419.853561 83.991596 
L 420.235483 84.708126 
L 420.521925 84.920722 
L 420.808367 84.849056 
L 421.094809 84.49225 
L 421.476732 83.579034 
L 421.954135 81.763058 
L 422.527019 78.684361 
L 423.386345 72.606191 
L 427.110091 44.0787 
L 427.873936 39.922059 
L 428.44682 37.769308 
L 428.924223 36.692983 
L 429.306146 36.324086 
L 429.592588 36.33695 
L 429.87903 36.594953 
L 430.260952 37.308625 
L 430.738356 38.757998 
L 431.40672 41.690526 
L 432.361527 47.155208 
L 433.889217 56.066468 
L 434.462101 58.261173 
L 435.225947 60.550005 
L 435.894311 63.971347 
L 438.56777 79.187312 
L 439.140653 80.911685 
L 439.522576 81.547232 
L 439.809018 81.736133 
L 440.09546 81.67182 
L 440.381902 81.352209 
L 440.763825 80.531946 
L 441.241228 78.893745 
L 441.814112 76.099027 
L 442.577957 71.20554 
L 444.105648 59.445113 
L 444.774012 53.704293 
L 446.206222 38.414876 
L 447.161029 29.364119 
L 447.829393 24.773194 
L 448.306797 22.644308 
L 448.688719 21.704899 
L 448.975161 21.463714 
L 449.166122 21.526208 
L 449.452564 21.954091 
L 449.834487 23.137671 
L 450.31189 25.557059 
L 450.884774 29.702552 
L 451.7441 37.89682 
L 453.940155 60.163098 
L 454.513039 63.334454 
L 454.990442 64.797079 
L 455.372365 65.299829 
L 455.658807 65.335793 
L 455.945249 65.113291 
L 456.327172 64.46655 
L 456.804575 63.194215 
L 457.56842 60.402733 
L 459.955437 51.042093 
L 460.528321 49.830408 
L 460.910243 49.461083 
L 461.196685 49.454397 
L 461.483127 49.705301 
L 461.86505 50.480066 
L 462.246972 51.806698 
L 462.724376 54.320282 
L 463.29726 58.721484 
L 464.061105 66.751188 
L 466.161679 90.097774 
L 466.830044 95.031453 
L 467.307447 97.307852 
L 467.68937 98.30603 
L 467.975812 98.557341 
L 468.166773 98.485908 
L 468.453215 98.022012 
L 468.835138 96.750794 
L 469.312541 94.165252 
L 469.885425 89.753968 
L 470.744751 81.08382 
L 472.845325 58.721484 
L 473.609171 53.705133 
L 474.277535 50.601709 
L 474.850419 48.874851 
L 475.327822 48.064099 
L 475.709745 47.802937 
L 475.996187 47.819062 
L 476.37811 48.102958 
L 476.855513 48.838478 
L 477.428397 50.192742 
L 478.287723 52.911159 
L 480.292816 59.533672 
L 480.8657 60.588718 
L 481.247623 60.860443 
L 481.534065 60.782175 
L 481.820507 60.423736 
L 482.20243 59.44776 
L 483.061756 56.698856 
L 483.443678 56.194716 
L 483.73012 56.079318 
L 484.016562 56.16069 
L 484.398485 56.532578 
L 484.875888 57.341496 
L 485.639733 59.184948 
L 488.02675 65.442931 
L 488.599634 66.285722 
L 489.077037 66.615877 
L 489.45896 66.596293 
L 489.840882 66.296644 
L 490.222805 65.693684 
L 490.700208 64.481836 
L 491.273092 62.309336 
L 491.941457 58.721484 
L 492.514341 54.356903 
L 493.469147 44.966269 
L 494.901357 31.133289 
L 495.665202 25.920306 
L 496.142605 23.83916 
L 496.524528 22.908303 
L 496.81097 22.657687 
L 497.001931 22.706986 
L 497.288373 23.105711 
L 497.670296 24.235319 
L 498.147699 26.568844 
L 498.720583 30.596827 
L 499.484428 37.643771 
L 502.348848 65.979465 
L 503.303655 72.626888 
L 503.972019 75.989458 
L 504.544903 77.879587 
L 505.022307 78.716836 
L 505.308749 78.894977 
L 505.59519 78.833783 
L 505.881632 78.539844 
L 506.263555 77.80282 
L 506.740958 76.371953 
L 507.409323 73.568599 
L 508.45961 67.976934 
L 509.700859 61.516599 
L 510.273743 59.495517 
L 510.655665 58.776799 
L 510.942107 58.66518 
L 511.32403 58.991829 
L 512.278836 60.15664 
L 514.092969 62.438462 
L 514.856814 63.070601 
L 515.525179 63.364041 
L 516.098063 63.401369 
L 516.670947 63.237051 
L 517.339311 62.802377 
L 518.103156 62.028042 
L 519.248924 60.501734 
L 521.158538 57.635059 
L 521.731421 55.862084 
L 522.877189 51.383839 
L 524.022957 47.184493 
L 524.691322 45.414874 
L 525.264206 44.474746 
L 525.646128 44.183134 
L 526.028051 44.174796 
L 526.409974 44.454795 
L 526.791896 45.021144 
L 527.2693 46.117318 
L 527.937664 48.312644 
L 528.79699 52.036981 
L 530.706603 60.819543 
L 531.088526 61.512233 
L 531.374968 61.714206 
L 531.66141 61.677701 
L 532.043332 61.308699 
L 532.520736 60.426583 
L 533.1891 58.628168 
L 535.958039 50.369486 
L 536.435443 49.676142 
L 536.817365 49.417245 
L 537.103807 49.416875 
L 537.390249 49.596573 
L 537.772172 50.136192 
L 538.249575 51.327596 
L 538.726978 53.132852 
L 539.299862 56.159447 
L 541.018514 66.412915 
L 541.686879 68.667471 
L 542.164282 69.632607 
L 542.546205 70.031591 
L 542.928127 70.115056 
L 543.31005 69.902619 
L 543.691972 69.418342 
L 544.264856 68.245778 
L 545.028702 66.034122 
L 547.606679 57.907232 
L 548.084083 57.296802 
L 548.370525 57.222956 
L 548.656967 57.411153 
L 548.943409 57.897993 
L 549.13437 58.407178 
L 549.13437 58.407178 
" clip-path="url(#p9aa47636ac)" style="fill: none; stroke: #1f77b4; stroke-width: 1.5; stroke-linecap: square"/>
   </g>
   <g id="patch_3">
    <path d="M 47.961178 110.64351 
L 47.961178 6.799459 
" style="fill: none; stroke: #000000; stroke-width: 0.8; stroke-linejoin: miter; stroke-linecap: square"/>
   </g>
   <g id="patch_4">
    <path d="M 572.99976 110.64351 
L 572.99976 6.799459 
" style="fill: none; stroke: #000000; stroke-width: 0.8; stroke-linejoin: miter; stroke-linecap: square"/>
   </g>
   <g id="patch_5">
    <path d="M 47.961178 110.64351 
L 572.99976 110.64351 
" style="fill: none; stroke: #000000; stroke-width: 0.8; stroke-linejoin: miter; stroke-linecap: square"/>
   </g>
   <g id="patch_6">
    <path d="M 47.961178 6.799459 
L 572.99976 6.799459 
" style="fill: none; stroke: #000000; stroke-width: 0.8; stroke-linejoin: miter; stroke-linecap: square"/>
   </g>
  </g>
 </g>
 <defs>
  <clipPath id="p9aa47636ac">
   <rect x="47.961178" y="6.799459" width="525.038582" height="103.844051"/>
  </clipPath>
 </defs>
</svg>
