<?xml version="1.0" encoding="utf-8" standalone="no"?>
<!DOCTYPE svg PUBLIC "-//W3C//DTD SVG 1.1//EN"
  "http://www.w3.org/Graphics/SVG/1.1/DTD/svg11.dtd">
<svg xmlns:xlink="http://www.w3.org/1999/xlink" width="576pt" height="144pt" viewBox="0 0 576 144" xmlns="http://www.w3.org/2000/svg" version="1.1">
 <metadata>
  <rdf:RDF xmlns:dc="http://purl.org/dc/elements/1.1/" xmlns:cc="http://creativecommons.org/ns#" xmlns:rdf="http://www.w3.org/1999/02/22-rdf-syntax-ns#">
   <cc:Work>
    <dc:type rdf:resource="http://purl.org/dc/dcmitype/StillImage"/>
    <dc:date>2025-02-17T17:22:47.125185</dc:date>
    <dc:format>image/svg+xml</dc:format>
    <dc:creator>
     <cc:Agent>
      <dc:title>Matplotlib v3.6.3, https://matplotlib.org/</dc:title>
     </cc:Agent>
    </dc:creator>
   </cc:Work>
  </rdf:RDF>
 </metadata>
 <defs>
  <style type="text/css">*{stroke-linejoin: round; stroke-linecap: butt}</style>
 </defs>
 <g id="figure_1">
  <g id="patch_1">
   <path d="M 0 144 
L 576 144 
L 576 0 
L 0 0 
z
" style="fill: #ffffff"/>
  </g>
  <g id="axes_1">
   <g id="patch_2">
    <path d="M 47.961178 110.64351 
L 572.99976 110.64351 
L 572.99976 6.799459 
L 47.961178 6.799459 
z
" style="fill: #ffffff"/>
   </g>
   <g id="matplotlib.axis_1">
    <g id="xtick_1">
     <g id="line2d_1">
      <path d="M 71.826568 110.64351 
L 71.826568 6.799459 
" clip-path="url(#pba5254c5be)" style="fill: none; stroke: #b0b0b0; stroke-width: 0.8; stroke-linecap: square"/>
     </g>
     <g id="line2d_2">
      <defs>
       <path id="m7167c551a2" d="M 0 0 
L 0 3.5 
" style="stroke: #000000; stroke-width: 0.8"/>
      </defs>
      <g>
       <use xlink:href="#m7167c551a2" x="71.826568" y="110.64351" style="stroke: #000000; stroke-width: 0.8"/>
      </g>
     </g>
     <g id="text_1">
      <!-- 0 -->
      <g transform="translate(68.645318 125.241948) scale(0.1 -0.1)">
       <defs>
        <path id="DejaVuSans-30" d="M 2034 4250 
Q 1547 4250 1301 3770 
Q 1056 3291 1056 2328 
Q 1056 1369 1301 889 
Q 1547 409 2034 409 
Q 2525 409 2770 889 
Q 3016 1369 3016 2328 
Q 3016 3291 2770 3770 
Q 2525 4250 2034 4250 
z
M 2034 4750 
Q 2819 4750 3233 4129 
Q 3647 3509 3647 2328 
Q 3647 1150 3233 529 
Q 2819 -91 2034 -91 
Q 1250 -91 836 529 
Q 422 1150 422 2328 
Q 422 3509 836 4129 
Q 1250 4750 2034 4750 
z
" transform="scale(0.015625)"/>
       </defs>
       <use xlink:href="#DejaVuSans-30"/>
      </g>
     </g>
    </g>
    <g id="xtick_2">
     <g id="line2d_3">
      <path d="M 119.557348 110.64351 
L 119.557348 6.799459 
" clip-path="url(#pba5254c5be)" style="fill: none; stroke: #b0b0b0; stroke-width: 0.8; stroke-linecap: square"/>
     </g>
     <g id="line2d_4">
      <g>
       <use xlink:href="#m7167c551a2" x="119.557348" y="110.64351" style="stroke: #000000; stroke-width: 0.8"/>
      </g>
     </g>
     <g id="text_2">
      <!-- 5 -->
      <g transform="translate(116.376098 125.241948) scale(0.1 -0.1)">
       <defs>
        <path id="DejaVuSans-35" d="M 691 4666 
L 3169 4666 
L 3169 4134 
L 1269 4134 
L 1269 2991 
Q 1406 3038 1543 3061 
Q 1681 3084 1819 3084 
Q 2600 3084 3056 2656 
Q 3513 2228 3513 1497 
Q 3513 744 3044 326 
Q 2575 -91 1722 -91 
Q 1428 -91 1123 -41 
Q 819 9 494 109 
L 494 744 
Q 775 591 1075 516 
Q 1375 441 1709 441 
Q 2250 441 2565 725 
Q 2881 1009 2881 1497 
Q 2881 1984 2565 2268 
Q 2250 2553 1709 2553 
Q 1456 2553 1204 2497 
Q 953 2441 691 2322 
L 691 4666 
z
" transform="scale(0.015625)"/>
       </defs>
       <use xlink:href="#DejaVuSans-35"/>
      </g>
     </g>
    </g>
    <g id="xtick_3">
     <g id="line2d_5">
      <path d="M 167.288128 110.64351 
L 167.288128 6.799459 
" clip-path="url(#pba5254c5be)" style="fill: none; stroke: #b0b0b0; stroke-width: 0.8; stroke-linecap: square"/>
     </g>
     <g id="line2d_6">
      <g>
       <use xlink:href="#m7167c551a2" x="167.288128" y="110.64351" style="stroke: #000000; stroke-width: 0.8"/>
      </g>
     </g>
     <g id="text_3">
      <!-- 10 -->
      <g transform="translate(160.925628 125.241948) scale(0.1 -0.1)">
       <defs>
        <path id="DejaVuSans-31" d="M 794 531 
L 1825 531 
L 1825 4091 
L 703 3866 
L 703 4441 
L 1819 4666 
L 2450 4666 
L 2450 531 
L 3481 531 
L 3481 0 
L 794 0 
L 794 531 
z
" transform="scale(0.015625)"/>
       </defs>
       <use xlink:href="#DejaVuSans-31"/>
       <use xlink:href="#DejaVuSans-30" x="63.623047"/>
      </g>
     </g>
    </g>
    <g id="xtick_4">
     <g id="line2d_7">
      <path d="M 215.018908 110.64351 
L 215.018908 6.799459 
" clip-path="url(#pba5254c5be)" style="fill: none; stroke: #b0b0b0; stroke-width: 0.8; stroke-linecap: square"/>
     </g>
     <g id="line2d_8">
      <g>
       <use xlink:href="#m7167c551a2" x="215.018908" y="110.64351" style="stroke: #000000; stroke-width: 0.8"/>
      </g>
     </g>
     <g id="text_4">
      <!-- 15 -->
      <g transform="translate(208.656408 125.241948) scale(0.1 -0.1)">
       <use xlink:href="#DejaVuSans-31"/>
       <use xlink:href="#DejaVuSans-35" x="63.623047"/>
      </g>
     </g>
    </g>
    <g id="xtick_5">
     <g id="line2d_9">
      <path d="M 262.749689 110.64351 
L 262.749689 6.799459 
" clip-path="url(#pba5254c5be)" style="fill: none; stroke: #b0b0b0; stroke-width: 0.8; stroke-linecap: square"/>
     </g>
     <g id="line2d_10">
      <g>
       <use xlink:href="#m7167c551a2" x="262.749689" y="110.64351" style="stroke: #000000; stroke-width: 0.8"/>
      </g>
     </g>
     <g id="text_5">
      <!-- 20 -->
      <g transform="translate(256.387189 125.241948) scale(0.1 -0.1)">
       <defs>
        <path id="DejaVuSans-32" d="M 1228 531 
L 3431 531 
L 3431 0 
L 469 0 
L 469 531 
Q 828 903 1448 1529 
Q 2069 2156 2228 2338 
Q 2531 2678 2651 2914 
Q 2772 3150 2772 3378 
Q 2772 3750 2511 3984 
Q 2250 4219 1831 4219 
Q 1534 4219 1204 4116 
Q 875 4013 500 3803 
L 500 4441 
Q 881 4594 1212 4672 
Q 1544 4750 1819 4750 
Q 2544 4750 2975 4387 
Q 3406 4025 3406 3419 
Q 3406 3131 3298 2873 
Q 3191 2616 2906 2266 
Q 2828 2175 2409 1742 
Q 1991 1309 1228 531 
z
" transform="scale(0.015625)"/>
       </defs>
       <use xlink:href="#DejaVuSans-32"/>
       <use xlink:href="#DejaVuSans-30" x="63.623047"/>
      </g>
     </g>
    </g>
    <g id="xtick_6">
     <g id="line2d_11">
      <path d="M 310.480469 110.64351 
L 310.480469 6.799459 
" clip-path="url(#pba5254c5be)" style="fill: none; stroke: #b0b0b0; stroke-width: 0.8; stroke-linecap: square"/>
     </g>
     <g id="line2d_12">
      <g>
       <use xlink:href="#m7167c551a2" x="310.480469" y="110.64351" style="stroke: #000000; stroke-width: 0.8"/>
      </g>
     </g>
     <g id="text_6">
      <!-- 25 -->
      <g transform="translate(304.117969 125.241948) scale(0.1 -0.1)">
       <use xlink:href="#DejaVuSans-32"/>
       <use xlink:href="#DejaVuSans-35" x="63.623047"/>
      </g>
     </g>
    </g>
    <g id="xtick_7">
     <g id="line2d_13">
      <path d="M 358.211249 110.64351 
L 358.211249 6.799459 
" clip-path="url(#pba5254c5be)" style="fill: none; stroke: #b0b0b0; stroke-width: 0.8; stroke-linecap: square"/>
     </g>
     <g id="line2d_14">
      <g>
       <use xlink:href="#m7167c551a2" x="358.211249" y="110.64351" style="stroke: #000000; stroke-width: 0.8"/>
      </g>
     </g>
     <g id="text_7">
      <!-- 30 -->
      <g transform="translate(351.848749 125.241948) scale(0.1 -0.1)">
       <defs>
        <path id="DejaVuSans-33" d="M 2597 2516 
Q 3050 2419 3304 2112 
Q 3559 1806 3559 1356 
Q 3559 666 3084 287 
Q 2609 -91 1734 -91 
Q 1441 -91 1130 -33 
Q 819 25 488 141 
L 488 750 
Q 750 597 1062 519 
Q 1375 441 1716 441 
Q 2309 441 2620 675 
Q 2931 909 2931 1356 
Q 2931 1769 2642 2001 
Q 2353 2234 1838 2234 
L 1294 2234 
L 1294 2753 
L 1863 2753 
Q 2328 2753 2575 2939 
Q 2822 3125 2822 3475 
Q 2822 3834 2567 4026 
Q 2313 4219 1838 4219 
Q 1578 4219 1281 4162 
Q 984 4106 628 3988 
L 628 4550 
Q 988 4650 1302 4700 
Q 1616 4750 1894 4750 
Q 2613 4750 3031 4423 
Q 3450 4097 3450 3541 
Q 3450 3153 3228 2886 
Q 3006 2619 2597 2516 
z
" transform="scale(0.015625)"/>
       </defs>
       <use xlink:href="#DejaVuSans-33"/>
       <use xlink:href="#DejaVuSans-30" x="63.623047"/>
      </g>
     </g>
    </g>
    <g id="xtick_8">
     <g id="line2d_15">
      <path d="M 405.942029 110.64351 
L 405.942029 6.799459 
" clip-path="url(#pba5254c5be)" style="fill: none; stroke: #b0b0b0; stroke-width: 0.8; stroke-linecap: square"/>
     </g>
     <g id="line2d_16">
      <g>
       <use xlink:href="#m7167c551a2" x="405.942029" y="110.64351" style="stroke: #000000; stroke-width: 0.8"/>
      </g>
     </g>
     <g id="text_8">
      <!-- 35 -->
      <g transform="translate(399.579529 125.241948) scale(0.1 -0.1)">
       <use xlink:href="#DejaVuSans-33"/>
       <use xlink:href="#DejaVuSans-35" x="63.623047"/>
      </g>
     </g>
    </g>
    <g id="xtick_9">
     <g id="line2d_17">
      <path d="M 453.672809 110.64351 
L 453.672809 6.799459 
" clip-path="url(#pba5254c5be)" style="fill: none; stroke: #b0b0b0; stroke-width: 0.8; stroke-linecap: square"/>
     </g>
     <g id="line2d_18">
      <g>
       <use xlink:href="#m7167c551a2" x="453.672809" y="110.64351" style="stroke: #000000; stroke-width: 0.8"/>
      </g>
     </g>
     <g id="text_9">
      <!-- 40 -->
      <g transform="translate(447.310309 125.241948) scale(0.1 -0.1)">
       <defs>
        <path id="DejaVuSans-34" d="M 2419 4116 
L 825 1625 
L 2419 1625 
L 2419 4116 
z
M 2253 4666 
L 3047 4666 
L 3047 1625 
L 3713 1625 
L 3713 1100 
L 3047 1100 
L 3047 0 
L 2419 0 
L 2419 1100 
L 313 1100 
L 313 1709 
L 2253 4666 
z
" transform="scale(0.015625)"/>
       </defs>
       <use xlink:href="#DejaVuSans-34"/>
       <use xlink:href="#DejaVuSans-30" x="63.623047"/>
      </g>
     </g>
    </g>
    <g id="xtick_10">
     <g id="line2d_19">
      <path d="M 501.40359 110.64351 
L 501.40359 6.799459 
" clip-path="url(#pba5254c5be)" style="fill: none; stroke: #b0b0b0; stroke-width: 0.8; stroke-linecap: square"/>
     </g>
     <g id="line2d_20">
      <g>
       <use xlink:href="#m7167c551a2" x="501.40359" y="110.64351" style="stroke: #000000; stroke-width: 0.8"/>
      </g>
     </g>
     <g id="text_10">
      <!-- 45 -->
      <g transform="translate(495.04109 125.241948) scale(0.1 -0.1)">
       <use xlink:href="#DejaVuSans-34"/>
       <use xlink:href="#DejaVuSans-35" x="63.623047"/>
      </g>
     </g>
    </g>
    <g id="xtick_11">
     <g id="line2d_21">
      <path d="M 549.13437 110.64351 
L 549.13437 6.799459 
" clip-path="url(#pba5254c5be)" style="fill: none; stroke: #b0b0b0; stroke-width: 0.8; stroke-linecap: square"/>
     </g>
     <g id="line2d_22">
      <g>
       <use xlink:href="#m7167c551a2" x="549.13437" y="110.64351" style="stroke: #000000; stroke-width: 0.8"/>
      </g>
     </g>
     <g id="text_11">
      <!-- 50 -->
      <g transform="translate(542.77187 125.241948) scale(0.1 -0.1)">
       <use xlink:href="#DejaVuSans-35"/>
       <use xlink:href="#DejaVuSans-30" x="63.623047"/>
      </g>
     </g>
    </g>
    <g id="text_12">
     <!-- x -->
     <g transform="translate(307.521094 138.920073) scale(0.1 -0.1)">
      <defs>
       <path id="DejaVuSans-78" d="M 3513 3500 
L 2247 1797 
L 3578 0 
L 2900 0 
L 1881 1375 
L 863 0 
L 184 0 
L 1544 1831 
L 300 3500 
L 978 3500 
L 1906 2253 
L 2834 3500 
L 3513 3500 
z
" transform="scale(0.015625)"/>
      </defs>
      <use xlink:href="#DejaVuSans-78"/>
     </g>
    </g>
   </g>
   <g id="matplotlib.axis_2">
    <g id="ytick_1">
     <g id="line2d_23">
      <path d="M 47.961178 110.64351 
L 572.99976 110.64351 
" clip-path="url(#pba5254c5be)" style="fill: none; stroke: #b0b0b0; stroke-width: 0.8; stroke-linecap: square"/>
     </g>
     <g id="line2d_24">
      <defs>
       <path id="m0d4762c816" d="M 0 0 
L -3.5 0 
" style="stroke: #000000; stroke-width: 0.8"/>
      </defs>
      <g>
       <use xlink:href="#m0d4762c816" x="47.961178" y="110.64351" style="stroke: #000000; stroke-width: 0.8"/>
      </g>
     </g>
     <g id="text_13">
      <!-- −0.5 -->
      <g transform="translate(16.678365 114.442729) scale(0.1 -0.1)">
       <defs>
        <path id="DejaVuSans-2212" d="M 678 2272 
L 4684 2272 
L 4684 1741 
L 678 1741 
L 678 2272 
z
" transform="scale(0.015625)"/>
        <path id="DejaVuSans-2e" d="M 684 794 
L 1344 794 
L 1344 0 
L 684 0 
L 684 794 
z
" transform="scale(0.015625)"/>
       </defs>
       <use xlink:href="#DejaVuSans-2212"/>
       <use xlink:href="#DejaVuSans-30" x="83.789062"/>
       <use xlink:href="#DejaVuSans-2e" x="147.412109"/>
       <use xlink:href="#DejaVuSans-35" x="179.199219"/>
      </g>
     </g>
    </g>
    <g id="ytick_2">
     <g id="line2d_25">
      <path d="M 47.961178 58.721484 
L 572.99976 58.721484 
" clip-path="url(#pba5254c5be)" style="fill: none; stroke: #b0b0b0; stroke-width: 0.8; stroke-linecap: square"/>
     </g>
     <g id="line2d_26">
      <g>
       <use xlink:href="#m0d4762c816" x="47.961178" y="58.721484" style="stroke: #000000; stroke-width: 0.8"/>
      </g>
     </g>
     <g id="text_14">
      <!-- 0.0 -->
      <g transform="translate(25.058053 62.520703) scale(0.1 -0.1)">
       <use xlink:href="#DejaVuSans-30"/>
       <use xlink:href="#DejaVuSans-2e" x="63.623047"/>
       <use xlink:href="#DejaVuSans-30" x="95.410156"/>
      </g>
     </g>
    </g>
    <g id="ytick_3">
     <g id="line2d_27">
      <path d="M 47.961178 6.799459 
L 572.99976 6.799459 
" clip-path="url(#pba5254c5be)" style="fill: none; stroke: #b0b0b0; stroke-width: 0.8; stroke-linecap: square"/>
     </g>
     <g id="line2d_28">
      <g>
       <use xlink:href="#m0d4762c816" x="47.961178" y="6.799459" style="stroke: #000000; stroke-width: 0.8"/>
      </g>
     </g>
     <g id="text_15">
      <!-- 0.5 -->
      <g transform="translate(25.058053 10.598677) scale(0.1 -0.1)">
       <use xlink:href="#DejaVuSans-30"/>
       <use xlink:href="#DejaVuSans-2e" x="63.623047"/>
       <use xlink:href="#DejaVuSans-35" x="95.410156"/>
      </g>
     </g>
    </g>
    <g id="text_16">
     <!-- y -->
     <g transform="translate(10.598678 61.680859) rotate(-90) scale(0.1 -0.1)">
      <defs>
       <path id="DejaVuSans-79" d="M 2059 -325 
Q 1816 -950 1584 -1140 
Q 1353 -1331 966 -1331 
L 506 -1331 
L 506 -850 
L 844 -850 
Q 1081 -850 1212 -737 
Q 1344 -625 1503 -206 
L 1606 56 
L 191 3500 
L 800 3500 
L 1894 763 
L 2988 3500 
L 3597 3500 
L 2059 -325 
z
" transform="scale(0.015625)"/>
      </defs>
      <use xlink:href="#DejaVuSans-79"/>
     </g>
    </g>
   </g>
   <g id="line2d_29">
    <path d="M 71.826568 58.721484 
L 74.308568 84.830404 
L 74.881338 88.983828 
L 75.454107 91.558489 
L 75.835953 92.268451 
L 76.026876 92.307496 
L 76.217799 92.135509 
L 76.599646 91.17275 
L 76.981492 89.434478 
L 77.554261 85.588017 
L 78.508877 77.094093 
L 79.654416 66.911996 
L 80.418108 62.095378 
L 80.990877 59.819334 
L 81.945493 57.263055 
L 82.518262 56.305021 
L 82.900109 56.084782 
L 83.281955 56.235873 
L 83.663801 56.751616 
L 84.23657 58.130508 
L 85.000263 60.779023 
L 86.718571 67.04073 
L 87.29134 68.29546 
L 87.673187 68.726855 
L 88.055033 68.794254 
L 88.436879 68.48097 
L 88.818725 67.786831 
L 89.391495 66.072601 
L 90.155187 62.748368 
L 91.873495 54.373742 
L 92.255342 53.577079 
L 92.446265 53.448081 
L 92.637188 53.50578 
L 92.828111 53.750262 
L 93.209957 54.781748 
L 93.782727 57.539531 
L 94.546419 62.836561 
L 96.264727 75.359976 
L 96.837496 77.869436 
L 97.219343 78.732226 
L 97.410266 78.893468 
L 97.601189 78.867023 
L 97.792112 78.649718 
L 98.173958 77.640237 
L 98.555805 75.881506 
L 99.128574 71.95743 
L 99.892266 64.843689 
L 101.801498 45.976728 
L 102.374267 42.764392 
L 102.756113 41.642612 
L 102.947036 41.399162 
L 103.137959 41.366154 
L 103.328883 41.539551 
L 103.710729 42.477727 
L 104.092575 44.13655 
L 104.665344 47.732166 
L 105.810883 57.07742 
L 106.765499 64.312081 
L 107.338268 67.235401 
L 107.720114 68.310849 
L 107.911037 68.55137 
L 108.101961 68.584177 
L 108.292884 68.405928 
L 108.67473 67.420471 
L 109.056576 65.643106 
L 109.629346 61.774895 
L 110.774884 52.086709 
L 111.7295 41.593496 
L 113.638731 19.263924 
L 114.2115 15.172163 
L 114.593347 13.652502 
L 114.78427 13.289712 
L 114.975193 13.199222 
L 115.166116 13.3824 
L 115.547962 14.557845 
L 115.929809 16.758445 
L 116.502578 21.732234 
L 117.26627 30.603331 
L 119.557348 58.721484 
L 120.702887 72.312839 
L 123.184887 105.247541 
L 123.757657 109.255015 
L 124.139503 110.48791 
L 124.330426 110.64351 
L 124.521349 110.48791 
L 124.712272 110.023099 
L 125.094118 108.193461 
L 125.666888 103.400517 
L 126.43058 94.087138 
L 128.912581 60.806103 
L 131.012735 36.749745 
L 131.967351 26.721525 
L 132.54012 22.379794 
L 132.921966 20.480289 
L 133.303813 19.4863 
L 133.494736 19.34493 
L 133.685659 19.443385 
L 133.876582 19.779965 
L 134.258428 21.145617 
L 134.831198 24.766972 
L 135.59489 31.818226 
L 137.504121 51.271557 
L 138.267814 56.585819 
L 139.986122 66.813024 
L 142.086276 81.061001 
L 142.659045 83.457473 
L 143.040892 84.372292 
L 143.422738 84.682497 
L 143.613661 84.604697 
L 143.995507 83.98825 
L 144.377354 82.78672 
L 144.950123 80.027806 
L 145.713815 75.070918 
L 147.623047 61.92683 
L 149.150432 52.773712 
L 149.914124 46.062234 
L 152.205202 23.368823 
L 152.777971 20.349945 
L 153.159817 19.443385 
L 153.35074 19.34493 
L 153.541663 19.4863 
L 153.92351 20.480289 
L 154.305356 22.379794 
L 154.878125 26.721525 
L 155.641818 34.561777 
L 159.651203 79.490295 
L 160.414896 86.368428 
L 160.987665 90.033176 
L 161.369511 91.558489 
L 161.751358 92.268451 
L 161.942281 92.307496 
L 162.133204 92.135509 
L 162.51505 91.17275 
L 162.896896 89.434478 
L 163.469666 85.588017 
L 164.424281 77.094093 
L 165.56982 66.911996 
L 166.333512 62.095378 
L 166.906282 59.819334 
L 168.433667 54.996521 
L 169.197359 51.424155 
L 171.10659 41.744228 
L 171.67936 39.933551 
L 172.061206 39.250725 
L 172.443052 39.033207 
L 172.633975 39.103892 
L 173.015822 39.600887 
L 173.397668 40.550639 
L 173.970437 42.721504 
L 174.73413 46.641631 
L 177.979823 65.844287 
L 178.934438 73.815845 
L 180.2709 85.229671 
L 180.84367 88.765809 
L 181.225516 90.334822 
L 181.607362 91.17275 
L 181.798285 91.30214 
L 181.989208 91.235165 
L 182.180131 90.972459 
L 182.561978 89.8747 
L 182.943824 88.062088 
L 183.516593 84.203257 
L 184.471209 75.801754 
L 186.38044 58.721484 
L 187.525979 50.163594 
L 188.098748 47.176155 
L 188.480594 45.877091 
L 188.862441 45.18058 
L 189.053364 45.061761 
L 189.244287 45.094133 
L 189.626133 45.59692 
L 190.007979 46.642029 
L 190.580749 49.067202 
L 191.535364 54.559642 
L 192.680903 61.192888 
L 193.253673 63.539795 
L 193.635519 64.501101 
L 194.017365 64.895636 
L 194.208288 64.867632 
L 194.590134 64.357079 
L 194.971981 63.269231 
L 195.54475 60.752088 
L 196.499366 55.419977 
L 197.263058 49.647567 
L 198.217674 40.062707 
L 199.554136 26.332421 
L 200.126905 22.156373 
L 200.508751 20.349945 
L 200.890597 19.443385 
L 201.08152 19.34493 
L 201.272444 19.4863 
L 201.65429 20.480289 
L 202.036136 22.379794 
L 202.608905 26.721525 
L 203.372598 34.561777 
L 208.336599 90.721444 
L 208.909368 95.063175 
L 209.291215 96.962679 
L 209.673061 97.956669 
L 209.863984 98.098039 
L 210.054907 97.999583 
L 210.24583 97.663004 
L 210.627677 96.297351 
L 211.200446 92.675997 
L 211.964138 85.624742 
L 213.87337 66.171412 
L 214.637062 60.85715 
L 217.882755 42.721504 
L 218.455524 40.550639 
L 218.837371 39.600887 
L 219.219217 39.103892 
L 219.41014 39.033207 
L 219.601063 39.082435 
L 219.982909 39.535715 
L 220.364756 40.438928 
L 220.937525 42.526953 
L 221.892141 47.307168 
L 223.228602 54.184526 
L 223.992295 57.07073 
L 225.137834 60.227995 
L 225.901526 61.784876 
L 226.474296 62.410025 
L 226.856142 62.531233 
L 227.237988 62.417091 
L 227.619834 62.082754 
L 228.192604 61.226964 
L 228.956296 59.621828 
L 230.483681 56.216005 
L 231.05645 55.360215 
L 231.438297 55.025878 
L 231.820143 54.911736 
L 232.201989 55.032944 
L 232.583835 55.392212 
L 233.156605 56.347609 
L 233.920297 58.204279 
L 234.68399 60.083752 
L 235.065836 60.495348 
L 235.256759 60.483697 
L 235.447682 60.311309 
L 235.829528 59.46845 
L 236.211375 57.97877 
L 236.784144 54.698381 
L 237.73876 47.537911 
L 238.884298 39.250725 
L 239.457068 36.433819 
L 239.838914 35.314204 
L 240.22076 34.885806 
L 240.411683 34.94376 
L 240.602606 35.186047 
L 240.984453 36.220347 
L 241.366299 37.962851 
L 241.939068 41.776973 
L 242.702761 48.625973 
L 245.184761 72.731147 
L 245.757531 75.344924 
L 246.139377 76.043806 
L 246.3303 76.076815 
L 246.521223 75.903417 
L 246.903069 74.965242 
L 247.284916 73.306419 
L 247.857685 69.710803 
L 249.003224 60.365548 
L 249.957839 53.130887 
L 250.530609 50.207567 
L 250.912455 49.13212 
L 251.103378 48.891598 
L 251.294301 48.858792 
L 251.485224 49.037041 
L 251.867071 50.022498 
L 252.248917 51.799863 
L 252.821686 55.668074 
L 254.539994 68.402849 
L 255.112764 70.990036 
L 255.49461 71.990609 
L 255.876456 72.381208 
L 256.067379 72.348835 
L 256.449226 71.846048 
L 256.831072 70.800939 
L 257.403841 68.375767 
L 258.358457 62.883327 
L 259.503995 56.250081 
L 260.076765 53.903174 
L 260.458611 52.941868 
L 260.840457 52.547332 
L 261.03138 52.575337 
L 261.413227 53.08589 
L 261.795073 54.173738 
L 262.367842 56.69088 
L 263.704304 63.269231 
L 264.08615 64.357079 
L 264.467997 64.867632 
L 264.65892 64.895636 
L 264.849843 64.772324 
L 265.231689 64.087671 
L 265.613535 62.867043 
L 266.186305 60.217646 
L 267.331843 53.383881 
L 268.286459 48.159185 
L 268.859228 46.055564 
L 269.241075 45.274223 
L 269.622921 45.061761 
L 269.813844 45.18058 
L 270.19569 45.877091 
L 270.577536 47.176155 
L 271.150306 50.163594 
L 271.913998 55.638056 
L 275.159691 81.239652 
L 275.732461 83.893417 
L 276.114307 84.930061 
L 276.496153 85.323286 
L 276.687076 85.272636 
L 277.068923 84.682497 
L 277.450769 83.471948 
L 278.023538 80.643379 
L 278.787231 75.536566 
L 280.314616 64.821041 
L 281.078308 61.113213 
L 281.842001 58.721484 
L 282.41477 57.359217 
L 282.796616 56.94762 
L 282.987539 56.959271 
L 283.178462 57.131659 
L 283.560309 57.974519 
L 283.942155 59.464198 
L 284.514924 62.744588 
L 285.46954 69.905058 
L 286.615079 78.192244 
L 287.187848 81.009149 
L 287.569694 82.128764 
L 287.95154 82.557163 
L 288.142464 82.499209 
L 288.333387 82.256922 
L 288.715233 81.222621 
L 289.097079 79.480117 
L 289.669849 75.665996 
L 290.433541 68.816995 
L 291.960926 52.406955 
L 294.442927 25.095688 
L 295.015696 21.321463 
L 295.397542 19.866181 
L 295.779388 19.34493 
L 295.970312 19.443385 
L 296.161235 19.779965 
L 296.543081 21.145617 
L 297.11585 24.766972 
L 297.879543 31.818226 
L 299.788774 51.271557 
L 300.552466 56.585819 
L 303.79816 74.721464 
L 304.370929 76.89233 
L 304.752775 77.842082 
L 305.134621 78.339077 
L 305.325544 78.409762 
L 305.516468 78.360534 
L 305.898314 77.907254 
L 306.28016 77.00404 
L 306.852929 74.916016 
L 307.807545 70.135801 
L 309.144007 63.258443 
L 309.907699 60.372238 
L 311.626007 54.996521 
L 312.3897 51.424155 
L 314.298931 41.744228 
L 314.871701 39.933551 
L 315.253547 39.250725 
L 315.635393 39.033207 
L 315.826316 39.103892 
L 316.208162 39.600887 
L 316.590009 40.550639 
L 317.162778 42.721504 
L 317.92647 46.641631 
L 321.172164 65.844287 
L 322.126779 73.815845 
L 323.463241 85.229671 
L 324.03601 88.765809 
L 324.417857 90.334822 
L 324.799703 91.17275 
L 324.990626 91.30214 
L 325.181549 91.235165 
L 325.372472 90.972459 
L 325.754318 89.8747 
L 326.136165 88.062088 
L 326.708934 84.203257 
L 327.66355 75.801754 
L 329.572781 58.721484 
L 330.527396 50.199834 
L 331.482012 39.235356 
L 333.009397 21.043539 
L 333.582166 16.309166 
L 333.964013 14.282744 
L 334.345859 13.289712 
L 334.536782 13.199222 
L 334.727705 13.3824 
L 335.109551 14.557845 
L 335.491398 16.758445 
L 336.064167 21.732234 
L 336.827859 30.603331 
L 339.118937 58.721484 
L 340.264476 70.022963 
L 340.837245 73.805109 
L 341.219091 75.344924 
L 341.600937 76.043806 
L 341.791861 76.076815 
L 341.982784 75.903417 
L 342.36463 74.965242 
L 342.746476 73.306419 
L 343.319246 69.710803 
L 344.464784 60.365548 
L 345.4194 53.130887 
L 345.992169 50.207567 
L 346.374015 49.13212 
L 346.564939 48.891598 
L 346.755862 48.858792 
L 346.946785 49.037041 
L 347.328631 50.022498 
L 347.710477 51.799863 
L 348.283247 55.668074 
L 349.810632 66.95225 
L 350.383401 69.336371 
L 350.765247 70.058624 
L 350.95617 70.150729 
L 351.147094 70.065739 
L 351.52894 69.38523 
L 351.910786 68.079065 
L 352.483555 65.151508 
L 353.438171 58.721484 
L 354.58371 51.205047 
L 355.156479 48.637676 
L 355.538325 47.634664 
L 355.920172 47.29224 
L 356.111095 47.384345 
L 356.492941 48.106598 
L 356.874787 49.531309 
L 357.447556 52.843282 
L 358.402172 60.277049 
L 359.547711 68.894038 
L 360.311403 73.073131 
L 360.884173 74.954111 
L 361.266019 75.532199 
L 361.456942 75.613032 
L 361.647865 75.556075 
L 362.029711 75.040785 
L 362.411558 74.02494 
L 362.984327 71.701991 
L 363.938943 66.46742 
L 365.084481 60.171684 
L 365.657251 57.956945 
L 366.039097 57.044075 
L 366.420943 56.64047 
L 366.611866 56.632146 
L 366.993713 56.978248 
L 367.375559 57.728695 
L 368.521098 60.356639 
L 368.712021 60.495348 
L 368.902944 60.483697 
L 369.093867 60.311309 
L 369.475713 59.46845 
L 369.857559 57.97877 
L 370.430329 54.698381 
L 371.384944 47.537911 
L 372.530483 39.250725 
L 373.103252 36.433819 
L 373.485099 35.314204 
L 373.866945 34.885806 
L 374.057868 34.94376 
L 374.248791 35.186047 
L 374.630637 36.220347 
L 375.012484 37.962851 
L 375.585253 41.776973 
L 376.348945 48.625973 
L 378.067254 67.099497 
L 379.594639 83.159878 
L 380.358331 88.983828 
L 380.9311 91.558489 
L 381.312947 92.268451 
L 381.50387 92.307496 
L 381.694793 92.135509 
L 382.076639 91.17275 
L 382.458485 89.434478 
L 383.031255 85.588017 
L 383.98587 77.094093 
L 385.131409 66.911996 
L 385.895102 62.095378 
L 386.467871 59.819334 
L 387.422486 57.311136 
L 387.804333 56.747617 
L 388.186179 56.64047 
L 388.568025 57.044075 
L 388.949871 57.956945 
L 389.522641 60.171684 
L 390.286333 64.22641 
L 391.813718 72.56965 
L 392.386488 74.592121 
L 392.768334 75.363957 
L 393.15018 75.613032 
L 393.341103 75.532199 
L 393.722949 74.954111 
L 394.104796 73.830489 
L 394.677565 71.197257 
L 395.441258 66.243117 
L 397.541412 50.817844 
L 397.923258 49.426237 
L 398.305104 48.858792 
L 398.496027 48.891598 
L 398.686951 49.13212 
L 399.068797 50.207567 
L 399.641566 53.130887 
L 400.405259 58.775857 
L 402.123567 72.239488 
L 402.696336 74.965242 
L 403.078182 75.903417 
L 403.269106 76.076815 
L 403.460029 76.043806 
L 403.650952 75.800357 
L 404.032798 74.678577 
L 404.414644 72.731147 
L 404.987414 68.416988 
L 405.942029 58.721484 
L 407.469414 43.32668 
L 408.233107 37.962851 
L 408.805876 35.612341 
L 409.187722 34.94376 
L 409.378645 34.885806 
L 409.569569 35.010515 
L 409.951415 35.79119 
L 410.333261 37.232519 
L 410.90603 40.442274 
L 411.860646 47.537911 
L 413.006185 55.912954 
L 413.578954 58.801237 
L 413.9608 59.973044 
L 414.342647 60.483697 
L 414.53357 60.495348 
L 414.915416 60.083752 
L 415.488185 58.721484 
L 416.251878 56.978248 
L 416.633724 56.632146 
L 416.824647 56.64047 
L 417.206493 57.044075 
L 417.58834 57.956945 
L 418.161109 60.171684 
L 418.924801 64.22641 
L 420.452186 72.56965 
L 421.024956 74.592121 
L 421.406802 75.363957 
L 421.788648 75.613032 
L 421.979571 75.532199 
L 422.361418 74.954111 
L 422.743264 73.830489 
L 423.316033 71.197257 
L 424.079726 66.243117 
L 425.416188 55.578021 
L 426.752649 43.454382 
L 428.089111 31.82041 
L 428.661881 28.389959 
L 429.043727 26.925839 
L 429.425573 26.207803 
L 429.616496 26.140828 
L 429.807419 26.270218 
L 430.189266 27.108147 
L 430.571112 28.67716 
L 431.143881 32.213297 
L 432.098497 40.175401 
L 433.434959 51.598682 
L 434.389574 57.6772 
L 435.34419 62.532204 
L 435.916959 64.357079 
L 436.298805 64.867632 
L 436.489729 64.895636 
L 436.680652 64.772324 
L 437.062498 64.087671 
L 437.444344 62.867043 
L 438.017114 60.217646 
L 439.162652 53.383881 
L 440.117268 48.159185 
L 440.690037 46.055564 
L 441.071883 45.274223 
L 441.45373 45.061761 
L 441.644653 45.18058 
L 442.026499 45.877091 
L 442.408345 47.176155 
L 442.981115 50.163594 
L 443.744807 55.638056 
L 445.081269 65.843109 
L 445.654038 68.709303 
L 446.035885 69.787106 
L 446.417731 70.150729 
L 446.608654 70.065739 
L 446.9905 69.38523 
L 447.372346 68.079065 
L 447.945116 65.151508 
L 448.899731 58.721484 
L 450.04527 51.205047 
L 450.618039 48.637676 
L 450.999886 47.634664 
L 451.381732 47.29224 
L 451.572655 47.384345 
L 451.954501 48.106598 
L 452.336348 49.531309 
L 452.909117 52.843282 
L 453.863733 60.277049 
L 455.009271 68.894038 
L 455.772964 73.073131 
L 456.345733 74.954111 
L 456.727579 75.532199 
L 456.918502 75.613032 
L 457.109426 75.556075 
L 457.491272 75.040785 
L 457.873118 74.02494 
L 458.445887 71.701991 
L 459.400503 66.46742 
L 460.546042 60.171684 
L 461.118811 57.956945 
L 461.500657 57.044075 
L 461.882504 56.64047 
L 462.073427 56.632146 
L 462.455273 56.978248 
L 462.837119 57.728695 
L 463.600812 59.819334 
L 464.173581 62.095378 
L 464.74635 65.513612 
L 465.510043 71.730633 
L 467.419274 88.302387 
L 467.992043 91.17275 
L 468.37389 92.135509 
L 468.564813 92.307496 
L 468.755736 92.268451 
L 468.946659 92.018041 
L 469.328505 90.894504 
L 469.710352 88.983828 
L 470.283121 84.830404 
L 471.237737 75.50143 
L 473.719737 49.225984 
L 474.292506 45.404393 
L 474.674353 43.967322 
L 474.865276 43.605298 
L 475.056199 43.482492 
L 475.247122 43.595812 
L 475.628968 44.503157 
L 476.010815 46.24471 
L 476.583584 50.14812 
L 477.5382 58.721484 
L 478.683738 68.743401 
L 479.256508 72.166562 
L 479.638354 73.503911 
L 479.829277 73.847157 
L 480.0202 73.960477 
L 480.211123 73.83767 
L 480.402046 73.475647 
L 480.783893 72.038576 
L 481.165739 69.695838 
L 481.738508 64.747527 
L 483.07497 50.23539 
L 485.175124 26.721525 
L 485.747894 22.379794 
L 486.12974 20.480289 
L 486.511586 19.4863 
L 486.702509 19.34493 
L 486.893432 19.443385 
L 487.084356 19.779965 
L 487.466202 21.145617 
L 488.038971 24.766972 
L 488.802664 31.818226 
L 490.711895 51.271557 
L 491.475587 56.585819 
L 492.812049 64.669256 
L 493.575742 71.380735 
L 495.866819 94.074145 
L 496.439589 97.093024 
L 496.821435 97.999583 
L 497.012358 98.098039 
L 497.203281 97.956669 
L 497.585127 96.962679 
L 497.966973 95.063175 
L 498.539743 90.721444 
L 499.303435 82.881192 
L 502.167282 50.883882 
L 502.740052 46.467917 
L 503.121898 44.568302 
L 503.503744 43.605298 
L 503.694667 43.482492 
L 503.88559 43.595812 
L 504.267436 44.503157 
L 504.649283 46.24471 
L 505.222052 50.14812 
L 506.176668 58.721484 
L 507.322206 68.743401 
L 507.894976 72.166562 
L 508.276822 73.503911 
L 508.467745 73.847157 
L 508.658668 73.960477 
L 508.849591 73.83767 
L 509.040514 73.475647 
L 509.422361 72.038576 
L 509.804207 69.695838 
L 510.376976 64.747527 
L 512.858977 40.358533 
L 513.431746 37.005863 
L 513.813593 35.612341 
L 514.195439 34.94376 
L 514.386362 34.885806 
L 514.577285 35.010515 
L 514.959131 35.79119 
L 515.340977 37.232519 
L 515.913747 40.442274 
L 516.868362 47.537911 
L 518.013901 55.912954 
L 518.586671 58.801237 
L 518.968517 59.973044 
L 519.350363 60.483697 
L 519.541286 60.495348 
L 519.923132 60.083752 
L 520.495902 58.721484 
L 521.259594 56.870166 
L 521.64144 56.305021 
L 522.023287 56.084782 
L 522.405133 56.235873 
L 522.786979 56.751616 
L 523.359749 58.130508 
L 524.123441 60.779023 
L 525.841749 67.04073 
L 526.414518 68.29546 
L 526.796365 68.726855 
L 527.178211 68.794254 
L 527.560057 68.48097 
L 527.941903 67.786831 
L 528.514673 66.072601 
L 529.278365 62.748368 
L 531.37852 52.594701 
L 531.760366 51.644893 
L 532.142212 51.163391 
L 532.333135 51.101988 
L 532.714981 51.330271 
L 533.096828 51.998945 
L 533.669597 53.710526 
L 534.43329 56.920797 
L 535.960675 63.732443 
L 536.533444 65.444023 
L 536.91529 66.112698 
L 537.297136 66.340981 
L 537.48806 66.279577 
L 537.869906 65.798075 
L 538.251752 64.848268 
L 538.824521 62.640286 
L 539.97006 56.675872 
L 540.733753 53.234308 
L 541.306522 51.644893 
L 541.688368 51.163391 
L 541.879291 51.101988 
L 542.261138 51.330271 
L 542.642984 51.998945 
L 543.215753 53.710526 
L 543.979446 56.920797 
L 545.506831 63.732443 
L 546.0796 65.444023 
L 546.461446 66.112698 
L 546.843292 66.340981 
L 547.034216 66.279577 
L 547.416062 65.798075 
L 547.797908 64.848268 
L 548.370677 62.640286 
L 549.13437 58.721484 
L 549.13437 58.721484 
" clip-path="url(#pba5254c5be)" style="fill: none; stroke: #1f77b4; stroke-width: 1.5; stroke-linecap: square"/>
   </g>
   <g id="patch_3">
    <path d="M 47.961178 110.64351 
L 47.961178 6.799459 
" style="fill: none; stroke: #000000; stroke-width: 0.8; stroke-linejoin: miter; stroke-linecap: square"/>
   </g>
   <g id="patch_4">
    <path d="M 572.99976 110.64351 
L 572.99976 6.799459 
" style="fill: none; stroke: #000000; stroke-width: 0.8; stroke-linejoin: miter; stroke-linecap: square"/>
   </g>
   <g id="patch_5">
    <path d="M 47.961178 110.64351 
L 572.99976 110.64351 
" style="fill: none; stroke: #000000; stroke-width: 0.8; stroke-linejoin: miter; stroke-linecap: square"/>
   </g>
   <g id="patch_6">
    <path d="M 47.961178 6.799459 
L 572.99976 6.799459 
" style="fill: none; stroke: #000000; stroke-width: 0.8; stroke-linejoin: miter; stroke-linecap: square"/>
   </g>
  </g>
 </g>
 <defs>
  <clipPath id="pba5254c5be">
   <rect x="47.961178" y="6.799459" width="525.038582" height="103.844051"/>
  </clipPath>
 </defs>
</svg>
