<?xml version="1.0" encoding="utf-8" standalone="no"?>
<!DOCTYPE svg PUBLIC "-//W3C//DTD SVG 1.1//EN"
  "http://www.w3.org/Graphics/SVG/1.1/DTD/svg11.dtd">
<svg xmlns:xlink="http://www.w3.org/1999/xlink" width="576pt" height="216pt" viewBox="0 0 576 216" xmlns="http://www.w3.org/2000/svg" version="1.1">
 <metadata>
  <rdf:RDF xmlns:dc="http://purl.org/dc/elements/1.1/" xmlns:cc="http://creativecommons.org/ns#" xmlns:rdf="http://www.w3.org/1999/02/22-rdf-syntax-ns#">
   <cc:Work>
    <dc:type rdf:resource="http://purl.org/dc/dcmitype/StillImage"/>
    <dc:date>2025-02-17T17:24:52.480348</dc:date>
    <dc:format>image/svg+xml</dc:format>
    <dc:creator>
     <cc:Agent>
      <dc:title>Matplotlib v3.6.3, https://matplotlib.org/</dc:title>
     </cc:Agent>
    </dc:creator>
   </cc:Work>
  </rdf:RDF>
 </metadata>
 <defs>
  <style type="text/css">*{stroke-linejoin: round; stroke-linecap: butt}</style>
 </defs>
 <g id="figure_1">
  <g id="patch_1">
   <path d="M 0 216 
L 576 216 
L 576 0 
L 0 0 
z
" style="fill: #ffffff"/>
  </g>
  <g id="axes_1">
   <g id="patch_2">
    <path d="M 47.961178 182.64351 
L 572.99976 182.64351 
L 572.99976 6.799459 
L 47.961178 6.799459 
z
" style="fill: #ffffff"/>
   </g>
   <g id="matplotlib.axis_1">
    <g id="xtick_1">
     <g id="line2d_1">
      <path d="M 71.826568 182.64351 
L 71.826568 6.799459 
" clip-path="url(#p642de9c863)" style="fill: none; stroke: #b0b0b0; stroke-width: 0.8; stroke-linecap: square"/>
     </g>
     <g id="line2d_2">
      <defs>
       <path id="m0e5ea5283c" d="M 0 0 
L 0 3.5 
" style="stroke: #000000; stroke-width: 0.8"/>
      </defs>
      <g>
       <use xlink:href="#m0e5ea5283c" x="71.826568" y="182.64351" style="stroke: #000000; stroke-width: 0.8"/>
      </g>
     </g>
     <g id="text_1">
      <!-- 0 -->
      <g transform="translate(68.645318 197.241948) scale(0.1 -0.1)">
       <defs>
        <path id="DejaVuSans-30" d="M 2034 4250 
Q 1547 4250 1301 3770 
Q 1056 3291 1056 2328 
Q 1056 1369 1301 889 
Q 1547 409 2034 409 
Q 2525 409 2770 889 
Q 3016 1369 3016 2328 
Q 3016 3291 2770 3770 
Q 2525 4250 2034 4250 
z
M 2034 4750 
Q 2819 4750 3233 4129 
Q 3647 3509 3647 2328 
Q 3647 1150 3233 529 
Q 2819 -91 2034 -91 
Q 1250 -91 836 529 
Q 422 1150 422 2328 
Q 422 3509 836 4129 
Q 1250 4750 2034 4750 
z
" transform="scale(0.015625)"/>
       </defs>
       <use xlink:href="#DejaVuSans-30"/>
      </g>
     </g>
    </g>
    <g id="xtick_2">
     <g id="line2d_3">
      <path d="M 191.153518 182.64351 
L 191.153518 6.799459 
" clip-path="url(#p642de9c863)" style="fill: none; stroke: #b0b0b0; stroke-width: 0.8; stroke-linecap: square"/>
     </g>
     <g id="line2d_4">
      <g>
       <use xlink:href="#m0e5ea5283c" x="191.153518" y="182.64351" style="stroke: #000000; stroke-width: 0.8"/>
      </g>
     </g>
     <g id="text_2">
      <!-- 1 -->
      <g transform="translate(187.972268 197.241948) scale(0.1 -0.1)">
       <defs>
        <path id="DejaVuSans-31" d="M 794 531 
L 1825 531 
L 1825 4091 
L 703 3866 
L 703 4441 
L 1819 4666 
L 2450 4666 
L 2450 531 
L 3481 531 
L 3481 0 
L 794 0 
L 794 531 
z
" transform="scale(0.015625)"/>
       </defs>
       <use xlink:href="#DejaVuSans-31"/>
      </g>
     </g>
    </g>
    <g id="xtick_3">
     <g id="line2d_5">
      <path d="M 310.480469 182.64351 
L 310.480469 6.799459 
" clip-path="url(#p642de9c863)" style="fill: none; stroke: #b0b0b0; stroke-width: 0.8; stroke-linecap: square"/>
     </g>
     <g id="line2d_6">
      <g>
       <use xlink:href="#m0e5ea5283c" x="310.480469" y="182.64351" style="stroke: #000000; stroke-width: 0.8"/>
      </g>
     </g>
     <g id="text_3">
      <!-- 2 -->
      <g transform="translate(307.299219 197.241948) scale(0.1 -0.1)">
       <defs>
        <path id="DejaVuSans-32" d="M 1228 531 
L 3431 531 
L 3431 0 
L 469 0 
L 469 531 
Q 828 903 1448 1529 
Q 2069 2156 2228 2338 
Q 2531 2678 2651 2914 
Q 2772 3150 2772 3378 
Q 2772 3750 2511 3984 
Q 2250 4219 1831 4219 
Q 1534 4219 1204 4116 
Q 875 4013 500 3803 
L 500 4441 
Q 881 4594 1212 4672 
Q 1544 4750 1819 4750 
Q 2544 4750 2975 4387 
Q 3406 4025 3406 3419 
Q 3406 3131 3298 2873 
Q 3191 2616 2906 2266 
Q 2828 2175 2409 1742 
Q 1991 1309 1228 531 
z
" transform="scale(0.015625)"/>
       </defs>
       <use xlink:href="#DejaVuSans-32"/>
      </g>
     </g>
    </g>
    <g id="xtick_4">
     <g id="line2d_7">
      <path d="M 429.807419 182.64351 
L 429.807419 6.799459 
" clip-path="url(#p642de9c863)" style="fill: none; stroke: #b0b0b0; stroke-width: 0.8; stroke-linecap: square"/>
     </g>
     <g id="line2d_8">
      <g>
       <use xlink:href="#m0e5ea5283c" x="429.807419" y="182.64351" style="stroke: #000000; stroke-width: 0.8"/>
      </g>
     </g>
     <g id="text_4">
      <!-- 3 -->
      <g transform="translate(426.626169 197.241948) scale(0.1 -0.1)">
       <defs>
        <path id="DejaVuSans-33" d="M 2597 2516 
Q 3050 2419 3304 2112 
Q 3559 1806 3559 1356 
Q 3559 666 3084 287 
Q 2609 -91 1734 -91 
Q 1441 -91 1130 -33 
Q 819 25 488 141 
L 488 750 
Q 750 597 1062 519 
Q 1375 441 1716 441 
Q 2309 441 2620 675 
Q 2931 909 2931 1356 
Q 2931 1769 2642 2001 
Q 2353 2234 1838 2234 
L 1294 2234 
L 1294 2753 
L 1863 2753 
Q 2328 2753 2575 2939 
Q 2822 3125 2822 3475 
Q 2822 3834 2567 4026 
Q 2313 4219 1838 4219 
Q 1578 4219 1281 4162 
Q 984 4106 628 3988 
L 628 4550 
Q 988 4650 1302 4700 
Q 1616 4750 1894 4750 
Q 2613 4750 3031 4423 
Q 3450 4097 3450 3541 
Q 3450 3153 3228 2886 
Q 3006 2619 2597 2516 
z
" transform="scale(0.015625)"/>
       </defs>
       <use xlink:href="#DejaVuSans-33"/>
      </g>
     </g>
    </g>
    <g id="xtick_5">
     <g id="line2d_9">
      <path d="M 549.13437 182.64351 
L 549.13437 6.799459 
" clip-path="url(#p642de9c863)" style="fill: none; stroke: #b0b0b0; stroke-width: 0.8; stroke-linecap: square"/>
     </g>
     <g id="line2d_10">
      <g>
       <use xlink:href="#m0e5ea5283c" x="549.13437" y="182.64351" style="stroke: #000000; stroke-width: 0.8"/>
      </g>
     </g>
     <g id="text_5">
      <!-- 4 -->
      <g transform="translate(545.95312 197.241948) scale(0.1 -0.1)">
       <defs>
        <path id="DejaVuSans-34" d="M 2419 4116 
L 825 1625 
L 2419 1625 
L 2419 4116 
z
M 2253 4666 
L 3047 4666 
L 3047 1625 
L 3713 1625 
L 3713 1100 
L 3047 1100 
L 3047 0 
L 2419 0 
L 2419 1100 
L 313 1100 
L 313 1709 
L 2253 4666 
z
" transform="scale(0.015625)"/>
       </defs>
       <use xlink:href="#DejaVuSans-34"/>
      </g>
     </g>
    </g>
    <g id="text_6">
     <!-- x -->
     <g transform="translate(307.521094 210.920073) scale(0.1 -0.1)">
      <defs>
       <path id="DejaVuSans-78" d="M 3513 3500 
L 2247 1797 
L 3578 0 
L 2900 0 
L 1881 1375 
L 863 0 
L 184 0 
L 1544 1831 
L 300 3500 
L 978 3500 
L 1906 2253 
L 2834 3500 
L 3513 3500 
z
" transform="scale(0.015625)"/>
      </defs>
      <use xlink:href="#DejaVuSans-78"/>
     </g>
    </g>
   </g>
   <g id="matplotlib.axis_2">
    <g id="ytick_1">
     <g id="line2d_11">
      <path d="M 47.961178 182.64351 
L 572.99976 182.64351 
" clip-path="url(#p642de9c863)" style="fill: none; stroke: #b0b0b0; stroke-width: 0.8; stroke-linecap: square"/>
     </g>
     <g id="line2d_12">
      <defs>
       <path id="mee56ac7de1" d="M 0 0 
L -3.5 0 
" style="stroke: #000000; stroke-width: 0.8"/>
      </defs>
      <g>
       <use xlink:href="#mee56ac7de1" x="47.961178" y="182.64351" style="stroke: #000000; stroke-width: 0.8"/>
      </g>
     </g>
     <g id="text_7">
      <!-- −0.5 -->
      <g transform="translate(16.678365 186.442729) scale(0.1 -0.1)">
       <defs>
        <path id="DejaVuSans-2212" d="M 678 2272 
L 4684 2272 
L 4684 1741 
L 678 1741 
L 678 2272 
z
" transform="scale(0.015625)"/>
        <path id="DejaVuSans-2e" d="M 684 794 
L 1344 794 
L 1344 0 
L 684 0 
L 684 794 
z
" transform="scale(0.015625)"/>
        <path id="DejaVuSans-35" d="M 691 4666 
L 3169 4666 
L 3169 4134 
L 1269 4134 
L 1269 2991 
Q 1406 3038 1543 3061 
Q 1681 3084 1819 3084 
Q 2600 3084 3056 2656 
Q 3513 2228 3513 1497 
Q 3513 744 3044 326 
Q 2575 -91 1722 -91 
Q 1428 -91 1123 -41 
Q 819 9 494 109 
L 494 744 
Q 775 591 1075 516 
Q 1375 441 1709 441 
Q 2250 441 2565 725 
Q 2881 1009 2881 1497 
Q 2881 1984 2565 2268 
Q 2250 2553 1709 2553 
Q 1456 2553 1204 2497 
Q 953 2441 691 2322 
L 691 4666 
z
" transform="scale(0.015625)"/>
       </defs>
       <use xlink:href="#DejaVuSans-2212"/>
       <use xlink:href="#DejaVuSans-30" x="83.789062"/>
       <use xlink:href="#DejaVuSans-2e" x="147.412109"/>
       <use xlink:href="#DejaVuSans-35" x="179.199219"/>
      </g>
     </g>
    </g>
    <g id="ytick_2">
     <g id="line2d_13">
      <path d="M 47.961178 94.721484 
L 572.99976 94.721484 
" clip-path="url(#p642de9c863)" style="fill: none; stroke: #b0b0b0; stroke-width: 0.8; stroke-linecap: square"/>
     </g>
     <g id="line2d_14">
      <g>
       <use xlink:href="#mee56ac7de1" x="47.961178" y="94.721484" style="stroke: #000000; stroke-width: 0.8"/>
      </g>
     </g>
     <g id="text_8">
      <!-- 0.0 -->
      <g transform="translate(25.058053 98.520703) scale(0.1 -0.1)">
       <use xlink:href="#DejaVuSans-30"/>
       <use xlink:href="#DejaVuSans-2e" x="63.623047"/>
       <use xlink:href="#DejaVuSans-30" x="95.410156"/>
      </g>
     </g>
    </g>
    <g id="ytick_3">
     <g id="line2d_15">
      <path d="M 47.961178 6.799459 
L 572.99976 6.799459 
" clip-path="url(#p642de9c863)" style="fill: none; stroke: #b0b0b0; stroke-width: 0.8; stroke-linecap: square"/>
     </g>
     <g id="line2d_16">
      <g>
       <use xlink:href="#mee56ac7de1" x="47.961178" y="6.799459" style="stroke: #000000; stroke-width: 0.8"/>
      </g>
     </g>
     <g id="text_9">
      <!-- 0.5 -->
      <g transform="translate(25.058053 10.598677) scale(0.1 -0.1)">
       <use xlink:href="#DejaVuSans-30"/>
       <use xlink:href="#DejaVuSans-2e" x="63.623047"/>
       <use xlink:href="#DejaVuSans-35" x="95.410156"/>
      </g>
     </g>
    </g>
    <g id="text_10">
     <!-- y -->
     <g transform="translate(10.598678 97.680859) rotate(-90) scale(0.1 -0.1)">
      <defs>
       <path id="DejaVuSans-79" d="M 2059 -325 
Q 1816 -950 1584 -1140 
Q 1353 -1331 966 -1331 
L 506 -1331 
L 506 -850 
L 844 -850 
Q 1081 -850 1212 -737 
Q 1344 -625 1503 -206 
L 1606 56 
L 191 3500 
L 800 3500 
L 1894 763 
L 2988 3500 
L 3597 3500 
L 2059 -325 
z
" transform="scale(0.015625)"/>
      </defs>
      <use xlink:href="#DejaVuSans-79"/>
     </g>
    </g>
   </g>
   <g id="line2d_17">
    <path d="M 71.826568 94.721484 
L 83.759263 112.494043 
L 90.91888 123.135762 
L 95.691958 129.890295 
L 100.465036 136.104173 
L 102.851575 138.932955 
L 105.238114 141.537364 
L 107.624653 143.890119 
L 110.011192 145.966144 
L 112.397731 147.743055 
L 114.78427 149.201583 
L 117.170809 150.325939 
L 119.557348 151.104121 
L 121.943887 151.528152 
L 124.330426 151.594269 
L 126.716965 151.303036 
L 129.103504 150.659413 
L 131.490043 149.67275 
L 133.876582 148.356732 
L 136.263121 146.729251 
L 138.64966 144.812227 
L 141.036199 142.631367 
L 143.422738 140.215857 
L 145.809277 137.598 
L 150.582355 131.897421 
L 164.901589 113.882242 
L 169.674667 108.590865 
L 172.061206 106.222916 
L 174.447745 104.067638 
L 176.834284 102.137015 
L 179.220823 100.434658 
L 181.607362 98.954532 
L 183.993901 97.67962 
L 186.38044 96.580526 
L 191.153518 94.721484 
L 195.926596 93.014933 
L 200.699674 91.586559 
L 203.086213 91.040365 
L 205.472752 90.629573 
L 207.859291 90.365851 
L 210.24583 90.256632 
L 212.632369 90.305485 
L 215.018908 90.512481 
L 217.405447 90.87455 
L 219.791986 91.385814 
L 222.178525 92.03792 
L 224.565064 92.820357 
L 229.338142 94.725182 
L 234.11122 96.984227 
L 241.270837 100.744747 
L 248.430454 104.527462 
L 253.203532 106.830142 
L 257.97661 108.808858 
L 260.36315 109.641532 
L 262.749689 110.353317 
L 265.136228 110.933551 
L 267.522767 111.373022 
L 269.909306 111.664052 
L 272.295845 111.800573 
L 274.682384 111.778182 
L 277.068923 111.594195 
L 279.455462 111.247684 
L 281.842001 110.739495 
L 284.22854 110.072265 
L 286.615079 109.250423 
L 289.001618 108.280175 
L 291.388157 107.169478 
L 296.161235 104.567117 
L 300.934313 101.540397 
L 305.707391 98.210832 
L 315.253547 91.308381 
L 317.640086 89.782229 
L 320.026625 88.451633 
L 322.413164 87.359246 
L 324.799703 86.537661 
L 327.186242 86.010218 
L 329.572781 85.79178 
L 331.95932 85.889485 
L 334.345859 86.303478 
L 336.732398 87.027615 
L 339.118937 88.050143 
L 341.505476 89.354356 
L 343.892015 90.919231 
L 346.278554 92.720027 
L 348.665093 94.72888 
L 353.438171 99.24697 
L 358.211249 104.208623 
L 367.757405 114.333439 
L 372.530483 118.9388 
L 374.917022 121.013133 
L 377.303561 122.896231 
L 379.6901 124.56158 
L 382.076639 125.98515 
L 384.463178 127.145618 
L 386.849717 128.02456 
L 389.236256 128.60662 
L 391.622795 128.879661 
L 394.009334 128.834879 
L 396.395873 128.466906 
L 398.782412 127.773883 
L 401.168951 126.757505 
L 403.55549 125.423046 
L 405.942029 123.779362 
L 408.328568 121.838865 
L 410.715107 119.617472 
L 413.101646 117.134538 
L 415.488185 114.41275 
L 417.874724 111.478016 
L 422.647802 105.088504 
L 427.42088 98.231404 
L 434.580497 87.768203 
L 439.353575 81.26668 
L 441.740114 78.303629 
L 444.126653 75.584155 
L 446.513192 73.140185 
L 448.899731 70.99826 
L 451.28627 69.179667 
L 453.672809 67.700584 
L 456.059348 66.572227 
L 458.445887 65.80102 
L 460.832426 65.388776 
L 463.218965 65.332881 
L 465.605504 65.626503 
L 467.992043 66.258803 
L 470.378583 67.21516 
L 472.765122 68.477417 
L 475.151661 70.024124 
L 477.5382 71.830809 
L 479.924739 73.870247 
L 482.311278 76.11275 
L 487.084356 81.077706 
L 494.243973 89.198635 
L 499.017051 94.629412 
L 503.790129 99.72265 
L 506.176668 102.051271 
L 508.563207 104.188307 
L 510.949746 106.10138 
L 513.336285 107.760497 
L 515.722824 109.138503 
L 518.109363 110.211557 
L 520.495902 110.959609 
L 522.882441 111.366896 
L 525.26898 111.422449 
L 527.655519 111.120611 
L 530.042058 110.461567 
L 532.428597 109.451891 
L 534.815136 108.105093 
L 537.201675 106.442194 
L 539.588214 104.492302 
L 541.974753 102.293204 
L 546.747831 97.345565 
L 549.13437 94.721484 
L 549.13437 94.721484 
" clip-path="url(#p642de9c863)" style="fill: none; stroke: #1f77b4; stroke-width: 1.5; stroke-linecap: square"/>
   </g>
   <g id="patch_3">
    <path d="M 47.961178 182.64351 
L 47.961178 6.799459 
" style="fill: none; stroke: #000000; stroke-width: 0.8; stroke-linejoin: miter; stroke-linecap: square"/>
   </g>
   <g id="patch_4">
    <path d="M 572.99976 182.64351 
L 572.99976 6.799459 
" style="fill: none; stroke: #000000; stroke-width: 0.8; stroke-linejoin: miter; stroke-linecap: square"/>
   </g>
   <g id="patch_5">
    <path d="M 47.961178 182.64351 
L 572.99976 182.64351 
" style="fill: none; stroke: #000000; stroke-width: 0.8; stroke-linejoin: miter; stroke-linecap: square"/>
   </g>
   <g id="patch_6">
    <path d="M 47.961178 6.799459 
L 572.99976 6.799459 
" style="fill: none; stroke: #000000; stroke-width: 0.8; stroke-linejoin: miter; stroke-linecap: square"/>
   </g>
  </g>
 </g>
 <defs>
  <clipPath id="p642de9c863">
   <rect x="47.961178" y="6.799459" width="525.038582" height="175.844051"/>
  </clipPath>
 </defs>
</svg>
