<?xml version="1.0" encoding="utf-8" standalone="no"?>
<!DOCTYPE svg PUBLIC "-//W3C//DTD SVG 1.1//EN"
  "http://www.w3.org/Graphics/SVG/1.1/DTD/svg11.dtd">
<svg xmlns:xlink="http://www.w3.org/1999/xlink" width="360pt" height="360pt" viewBox="0 0 360 360" xmlns="http://www.w3.org/2000/svg" version="1.1">
 <metadata>
  <rdf:RDF xmlns:dc="http://purl.org/dc/elements/1.1/" xmlns:cc="http://creativecommons.org/ns#" xmlns:rdf="http://www.w3.org/1999/02/22-rdf-syntax-ns#">
   <cc:Work>
    <dc:type rdf:resource="http://purl.org/dc/dcmitype/StillImage"/>
    <dc:date>2025-02-18T18:44:16.835679</dc:date>
    <dc:format>image/svg+xml</dc:format>
    <dc:creator>
     <cc:Agent>
      <dc:title>Matplotlib v3.6.3, https://matplotlib.org/</dc:title>
     </cc:Agent>
    </dc:creator>
   </cc:Work>
  </rdf:RDF>
 </metadata>
 <defs>
  <style type="text/css">*{stroke-linejoin: round; stroke-linecap: butt}</style>
 </defs>
 <g id="figure_1">
  <g id="patch_1">
   <path d="M 0 360 
L 360 360 
L 360 0 
L 0 0 
z
" style="fill: #ffffff"/>
  </g>
  <g id="axes_1">
   <g id="patch_2">
    <path d="M 57.681818 307.8 
L 311.318182 307.8 
L 57.681818 307.8 
z
" clip-path="url(#p662ff57165)" style="fill: none; stroke: #000000; stroke-width: 2; stroke-linejoin: miter"/>
   </g>
   <g id="patch_3">
    <path d="M 57.681818 307.8 
L 57.681818 55.8 
L 57.681818 307.8 
z
" clip-path="url(#p662ff57165)" style="fill: none; stroke: #000000; stroke-width: 2; stroke-linejoin: miter"/>
   </g>
   <g id="patch_4">
    <path d="M 142.227273 223.8 
L 226.772727 223.8 
L 226.772727 139.8 
L 142.227273 139.8 
L 142.227273 223.8 
z
" clip-path="url(#p662ff57165)" style="fill: none; stroke: #000000; stroke-width: 2; stroke-linejoin: miter"/>
   </g>
   <g id="patch_5">
    <path d="M 192.954545 181.8 
L 185.647714 192.7702 
L 184.998217 190.02765 
L 143.039143 224.767959 
L 141.415403 222.832041 
L 183.374477 188.091732 
L 180.776492 186.962447 
z
" clip-path="url(#p662ff57165)" style="fill-opacity: 0.3; stroke: #000000; stroke-opacity: 0.3; stroke-linejoin: miter"/>
   </g>
   <g id="patch_6">
    <path d="M 192.954545 181.8 
L 203.847665 189.2776 
L 201.074871 189.867937 
L 227.763011 223.012884 
L 225.782444 224.587116 
L 199.094304 191.442168 
L 197.905964 194.000294 
z
" clip-path="url(#p662ff57165)" style="fill-opacity: 0.3; stroke: #000000; stroke-opacity: 0.3; stroke-linejoin: miter"/>
   </g>
   <g id="patch_7">
    <path d="M 192.954545 181.8 
L 180.776492 176.637553 
L 183.374477 175.508268 
L 141.415403 140.767959 
L 143.039143 138.832041 
L 184.998217 173.57235 
L 185.647714 170.8298 
z
" clip-path="url(#p662ff57165)" style="fill-opacity: 0.3; stroke: #000000; stroke-opacity: 0.3; stroke-linejoin: miter"/>
   </g>
   <g id="patch_8">
    <path d="M 192.954545 181.8 
L 197.905964 169.599706 
L 199.094304 172.157832 
L 225.782444 139.012884 
L 227.763011 140.587116 
L 201.074871 173.732063 
L 203.847665 174.3224 
z
" clip-path="url(#p662ff57165)" style="fill-opacity: 0.3; stroke: #000000; stroke-opacity: 0.3; stroke-linejoin: miter"/>
   </g>
   <g id="patch_9">
    <path d="M 192.954545 307.8 
L 192.954545 181.8 
L 192.954545 307.8 
z
" clip-path="url(#p662ff57165)" style="fill: none; stroke: #000000; stroke-opacity: 0.3; stroke-linejoin: miter"/>
   </g>
   <g id="patch_10">
    <path d="M 57.681818 181.8 
L 192.954545 181.8 
L 57.681818 181.8 
z
" clip-path="url(#p662ff57165)" style="fill: none; stroke: #000000; stroke-opacity: 0.3; stroke-linejoin: miter"/>
   </g>
   <g id="patch_11">
    <path d="M 142.227273 307.8 
L 142.227273 223.8 
L 142.227273 307.8 
z
" clip-path="url(#p662ff57165)" style="fill: none; stroke: #000000; stroke-linejoin: miter"/>
   </g>
   <g id="patch_12">
    <path d="M 226.772727 307.8 
L 226.772727 223.8 
L 226.772727 307.8 
z
" clip-path="url(#p662ff57165)" style="fill: none; stroke: #000000; stroke-linejoin: miter"/>
   </g>
   <g id="patch_13">
    <path d="M 57.681818 223.8 
L 142.227273 223.8 
L 57.681818 223.8 
z
" clip-path="url(#p662ff57165)" style="fill: none; stroke: #000000; stroke-linejoin: miter"/>
   </g>
   <g id="patch_14">
    <path d="M 57.681818 139.8 
L 142.227273 139.8 
L 57.681818 139.8 
z
" clip-path="url(#p662ff57165)" style="fill: none; stroke: #000000; stroke-linejoin: miter"/>
   </g>
   <g id="patch_15">
    <path d="M 142.227273 307.8 
Q 167.590909 282.6 192.954545 307.8 
" clip-path="url(#p662ff57165)" style="fill: none; stroke: #000000; stroke-linejoin: miter"/>
   </g>
   <g id="patch_16">
    <path d="M 57.681818 223.8 
Q 74.590909 202.8 57.681818 181.8 
" clip-path="url(#p662ff57165)" style="fill: none; stroke: #000000; stroke-linejoin: miter"/>
   </g>
   <g id="line2d_1">
    <path d="M 192.954545 181.8 
" clip-path="url(#p662ff57165)" style="fill: none; stroke: #008000; stroke-width: 1.5; stroke-linecap: square"/>
    <defs>
     <path id="m9ed0223821" d="M 0 3 
C 0.795609 3 1.55874 2.683901 2.12132 2.12132 
C 2.683901 1.55874 3 0.795609 3 0 
C 3 -0.795609 2.683901 -1.55874 2.12132 -2.12132 
C 1.55874 -2.683901 0.795609 -3 0 -3 
C -0.795609 -3 -1.55874 -2.683901 -2.12132 -2.12132 
C -2.683901 -1.55874 -3 -0.795609 -3 0 
C -3 0.795609 -2.683901 1.55874 -2.12132 2.12132 
C -1.55874 2.683901 -0.795609 3 0 3 
z
" style="stroke: #008000"/>
    </defs>
    <g clip-path="url(#p662ff57165)">
     <use xlink:href="#m9ed0223821" x="192.954545" y="181.8" style="fill: #008000; stroke: #008000"/>
    </g>
   </g>
   <g id="line2d_2">
    <path d="M 142.227273 223.8 
" clip-path="url(#p662ff57165)" style="fill: none; stroke: #008000; stroke-width: 1.5; stroke-linecap: square"/>
    <g clip-path="url(#p662ff57165)">
     <use xlink:href="#m9ed0223821" x="142.227273" y="223.8" style="fill: #008000; stroke: #008000"/>
    </g>
   </g>
   <g id="line2d_3">
    <path d="M 226.772727 223.8 
" clip-path="url(#p662ff57165)" style="fill: none; stroke: #008000; stroke-width: 1.5; stroke-linecap: square"/>
    <g clip-path="url(#p662ff57165)">
     <use xlink:href="#m9ed0223821" x="226.772727" y="223.8" style="fill: #008000; stroke: #008000"/>
    </g>
   </g>
   <g id="line2d_4">
    <path d="M 142.227273 139.8 
" clip-path="url(#p662ff57165)" style="fill: none; stroke: #008000; stroke-width: 1.5; stroke-linecap: square"/>
    <g clip-path="url(#p662ff57165)">
     <use xlink:href="#m9ed0223821" x="142.227273" y="139.8" style="fill: #008000; stroke: #008000"/>
    </g>
   </g>
   <g id="line2d_5">
    <path d="M 226.772727 139.8 
" clip-path="url(#p662ff57165)" style="fill: none; stroke: #008000; stroke-width: 1.5; stroke-linecap: square"/>
    <g clip-path="url(#p662ff57165)">
     <use xlink:href="#m9ed0223821" x="226.772727" y="139.8" style="fill: #008000; stroke: #008000"/>
    </g>
   </g>
   <g id="text_1">
    <!-- $P$ -->
    <g transform="translate(186.666822 177.924366) scale(0.2 -0.2)">
     <defs>
      <path id="CMMI12-50" d="M 1894 2022 
L 2970 2022 
C 3853 2022 4736 2673 4736 3400 
C 4736 3898 4314 4352 3507 4352 
L 1530 4352 
C 1408 4352 1350 4352 1350 4230 
C 1350 4166 1408 4166 1504 4166 
C 1894 4166 1894 4115 1894 4045 
C 1894 4032 1894 3994 1869 3898 
L 1005 471 
C 947 249 934 185 486 185 
C 365 185 301 185 301 70 
C 301 0 358 0 397 0 
C 518 0 646 12 768 12 
L 1517 12 
C 1638 12 1773 0 1894 0 
C 1946 0 2016 0 2016 121 
C 2016 185 1958 185 1862 185 
C 1478 185 1472 230 1472 293 
C 1472 325 1478 369 1485 401 
L 1894 2022 
z
M 2355 3917 
C 2413 4153 2438 4166 2688 4166 
L 3322 4166 
C 3802 4166 4198 4013 4198 3534 
C 4198 3369 4115 2826 3821 2533 
C 3712 2418 3405 2176 2822 2176 
L 1920 2176 
L 2355 3917 
z
" transform="scale(0.015625)"/>
     </defs>
     <use xlink:href="#CMMI12-50" transform="scale(0.996264)"/>
    </g>
   </g>
   <g id="text_2">
    <!-- $O_0$ -->
    <g transform="translate(120.488678 237.636997) scale(0.2 -0.2)">
     <defs>
      <path id="CMMI12-4f" d="M 4646 2788 
C 4646 3837 3955 4480 3059 4480 
C 1690 4480 307 3017 307 1550 
C 307 552 973 -128 1901 -128 
C 3245 -128 4646 1264 4646 2788 
z
M 1939 19 
C 1414 19 858 400 858 1391 
C 858 1969 1069 2915 1594 3551 
C 2061 4110 2598 4339 3027 4339 
C 3590 4339 4134 3932 4134 3017 
C 4134 2452 3891 1569 3462 965 
C 2995 317 2413 19 1939 19 
z
" transform="scale(0.015625)"/>
      <path id="CMR17-30" d="M 2688 2038 
C 2688 2430 2682 3099 2413 3613 
C 2176 4063 1798 4224 1466 4224 
C 1158 4224 768 4082 525 3620 
C 269 3137 243 2539 243 2038 
C 243 1671 250 1112 448 623 
C 723 -39 1216 -128 1466 -128 
C 1760 -128 2208 -7 2470 604 
C 2662 1048 2688 1568 2688 2038 
z
M 1466 -26 
C 1056 -26 813 328 723 816 
C 653 1196 653 1749 653 2109 
C 653 2604 653 3015 736 3407 
C 858 3954 1216 4121 1466 4121 
C 1728 4121 2067 3947 2189 3420 
C 2272 3054 2278 2623 2278 2109 
C 2278 1691 2278 1176 2202 797 
C 2067 96 1690 -26 1466 -26 
z
" transform="scale(0.015625)"/>
     </defs>
     <use xlink:href="#CMMI12-4f" transform="scale(0.996264)"/>
     <use xlink:href="#CMR17-30" transform="translate(74.550681 -14.943915) scale(0.697382)"/>
    </g>
   </g>
   <g id="text_3">
    <!-- $O_1$ -->
    <g transform="translate(226.772727 237.636997) scale(0.2 -0.2)">
     <defs>
      <path id="CMR17-31" d="M 1702 4083 
C 1702 4217 1696 4224 1606 4224 
C 1357 3927 979 3833 621 3820 
C 602 3820 570 3820 563 3808 
C 557 3795 557 3782 557 3648 
C 755 3648 1088 3686 1344 3839 
L 1344 467 
C 1344 243 1331 166 781 166 
L 589 166 
L 589 0 
C 896 6 1216 12 1523 12 
C 1830 12 2150 6 2458 0 
L 2458 166 
L 2266 166 
C 1715 166 1702 236 1702 467 
L 1702 4083 
z
" transform="scale(0.015625)"/>
     </defs>
     <use xlink:href="#CMMI12-4f" transform="scale(0.996264)"/>
     <use xlink:href="#CMR17-31" transform="translate(74.550681 -14.943915) scale(0.697382)"/>
    </g>
   </g>
   <g id="text_4">
    <!-- $O_2$ -->
    <g transform="translate(120.488678 135.924366) scale(0.2 -0.2)">
     <defs>
      <path id="CMR17-32" d="M 2669 990 
L 2554 990 
C 2490 537 2438 460 2413 422 
C 2381 371 1920 371 1830 371 
L 602 371 
C 832 620 1280 1073 1824 1596 
C 2214 1966 2669 2400 2669 3033 
C 2669 3788 2067 4224 1395 4224 
C 691 4224 262 3603 262 3027 
C 262 2777 448 2745 525 2745 
C 589 2745 781 2783 781 3007 
C 781 3206 614 3264 525 3264 
C 486 3264 448 3257 422 3244 
C 544 3788 915 4057 1306 4057 
C 1862 4057 2227 3616 2227 3033 
C 2227 2477 1901 1998 1536 1583 
L 262 147 
L 262 0 
L 2515 0 
L 2669 990 
z
" transform="scale(0.015625)"/>
     </defs>
     <use xlink:href="#CMMI12-4f" transform="scale(0.996264)"/>
     <use xlink:href="#CMR17-32" transform="translate(74.550681 -14.943915) scale(0.697382)"/>
    </g>
   </g>
   <g id="text_5">
    <!-- $O_3$ -->
    <g transform="translate(226.772727 135.924366) scale(0.2 -0.2)">
     <defs>
      <path id="CMR17-33" d="M 1414 2176 
C 1984 2176 2234 1673 2234 1094 
C 2234 322 1824 25 1453 25 
C 1114 25 563 193 390 691 
C 422 678 454 678 486 678 
C 640 678 755 780 755 947 
C 755 1132 614 1216 486 1216 
C 378 1216 211 1164 211 927 
C 211 335 787 -128 1466 -128 
C 2176 -128 2720 432 2720 1087 
C 2720 1718 2208 2176 1600 2246 
C 2086 2347 2554 2776 2554 3353 
C 2554 3856 2048 4224 1472 4224 
C 890 4224 378 3862 378 3347 
C 378 3123 544 3084 627 3084 
C 762 3084 877 3167 877 3334 
C 877 3500 762 3584 627 3584 
C 602 3584 570 3584 544 3571 
C 730 3999 1235 4076 1459 4076 
C 1683 4076 2106 3966 2106 3347 
C 2106 3167 2080 2851 1862 2574 
C 1670 2329 1453 2316 1242 2297 
C 1210 2297 1062 2284 1037 2284 
C 992 2278 966 2272 966 2227 
C 966 2182 973 2176 1101 2176 
L 1414 2176 
z
" transform="scale(0.015625)"/>
     </defs>
     <use xlink:href="#CMMI12-4f" transform="scale(0.996264)"/>
     <use xlink:href="#CMR17-33" transform="translate(74.550681 -14.943915) scale(0.697382)"/>
    </g>
   </g>
   <g id="text_6">
    <!-- $x$ -->
    <g transform="translate(187.41114 325.836997) scale(0.2 -0.2)">
     <defs>
      <path id="CMMI12-78" d="M 3034 2624 
C 2829 2585 2752 2431 2752 2310 
C 2752 2156 2874 2105 2963 2105 
C 3155 2105 3290 2271 3290 2444 
C 3290 2694 2982 2816 2714 2816 
C 2323 2816 2106 2451 2048 2329 
C 1901 2790 1504 2816 1389 2816 
C 736 2816 390 1993 390 1849 
C 390 1823 416 1790 461 1790 
C 512 1790 525 1829 538 1855 
C 755 2572 1184 2687 1370 2687 
C 1658 2687 1715 2438 1715 2284 
C 1715 2143 1677 1993 1600 1678 
L 1382 778 
C 1286 390 1101 64 762 64 
C 730 64 570 64 435 126 
C 666 166 717 358 717 435 
C 717 563 621 640 499 640 
C 346 640 179 505 179 300 
C 179 57 480 -64 755 -64 
C 1062 -64 1280 153 1414 415 
C 1517 64 1837 -64 2074 -64 
C 2726 -64 3072 751 3072 896 
C 3072 929 3046 955 3008 955 
C 2950 955 2944 922 2925 870 
C 2752 300 2381 64 2093 64 
C 1869 64 1747 204 1747 467 
C 1747 607 1773 712 1875 1146 
L 2099 2039 
C 2195 2425 2413 2687 2707 2687 
C 2720 2687 2899 2687 3034 2624 
z
" transform="scale(0.015625)"/>
     </defs>
     <use xlink:href="#CMMI12-78" transform="scale(0.996264)"/>
    </g>
   </g>
   <g id="text_7">
    <!-- $n$ -->
    <g transform="translate(136.404268 325.836997) scale(0.2 -0.2)">
     <defs>
      <path id="CMMI12-6e" d="M 1318 1870 
C 1331 1909 1491 2228 1728 2432 
C 1894 2585 2112 2687 2362 2687 
C 2618 2687 2707 2496 2707 2241 
C 2707 1877 2445 1149 2317 804 
C 2259 651 2227 568 2227 453 
C 2227 166 2426 -64 2733 -64 
C 3328 -64 3552 874 3552 913 
C 3552 945 3526 970 3488 970 
C 3430 970 3424 951 3392 842 
C 3245 319 3002 64 2752 64 
C 2688 64 2586 70 2586 274 
C 2586 434 2656 625 2694 715 
C 2822 1066 3091 1781 3091 2145 
C 3091 2528 2867 2816 2381 2816 
C 1811 2816 1510 2413 1395 2253 
C 1376 2617 1114 2816 832 2816 
C 627 2816 486 2694 378 2477 
C 262 2247 173 1864 173 1838 
C 173 1813 198 1781 243 1781 
C 294 1781 301 1787 339 1934 
C 442 2324 557 2687 813 2687 
C 960 2687 1011 2585 1011 2394 
C 1011 2253 947 2004 902 1807 
L 723 1117 
C 698 996 627 708 595 593 
C 550 427 480 127 480 95 
C 480 6 550 -64 646 -64 
C 723 -64 813 -26 864 70 
C 877 102 934 325 966 453 
L 1107 1028 
L 1318 1870 
z
" transform="scale(0.015625)"/>
     </defs>
     <use xlink:href="#CMMI12-6e" transform="scale(0.996264)"/>
    </g>
   </g>
   <g id="text_8">
    <!-- $n\!+\!1$ -->
    <g transform="translate(208.102248 325.836997) scale(0.2 -0.2)">
     <defs>
      <path id="CMR17-2b" d="M 2413 1472 
L 4109 1472 
C 4198 1472 4307 1472 4307 1580 
C 4307 1696 4205 1696 4109 1696 
L 2413 1696 
L 2413 3385 
C 2413 3475 2413 3584 2304 3584 
C 2189 3584 2189 3481 2189 3385 
L 2189 1696 
L 493 1696 
C 403 1696 294 1696 294 1587 
C 294 1472 397 1472 493 1472 
L 2189 1472 
L 2189 -194 
C 2189 -282 2189 -391 2298 -391 
C 2413 -391 2413 -289 2413 -194 
L 2413 1472 
z
" transform="scale(0.015625)"/>
     </defs>
     <use xlink:href="#CMMI12-6e" transform="scale(0.996264)"/>
     <use xlink:href="#CMR17-2b" transform="translate(63.764849 0) scale(0.996264)"/>
     <use xlink:href="#CMR17-31" transform="translate(141.014439 0) scale(0.996264)"/>
    </g>
   </g>
   <g id="text_9">
    <!-- $r_x$ -->
    <g transform="translate(159.314458 291.324366) scale(0.2 -0.2)">
     <defs>
      <path id="CMMI12-72" d="M 2490 2633 
C 2291 2598 2189 2457 2189 2316 
C 2189 2163 2310 2111 2400 2111 
C 2579 2111 2726 2265 2726 2457 
C 2726 2651 2528 2816 2208 2816 
C 1952 2816 1658 2700 1389 2335 
C 1344 2660 1088 2816 832 2816 
C 582 2816 454 2642 378 2508 
C 269 2278 173 1892 173 1860 
C 173 1834 198 1801 243 1801 
C 294 1801 301 1808 339 1957 
C 435 2342 557 2687 813 2687 
C 966 2687 1011 2604 1011 2419 
C 1011 2278 947 2028 902 1827 
L 723 1130 
C 698 1007 627 716 595 600 
C 550 432 480 128 480 96 
C 480 6 550 -64 646 -64 
C 717 -64 838 -20 877 109 
C 896 160 1133 1136 1171 1285 
C 1203 1427 1242 1562 1274 1705 
C 1299 1795 1325 1898 1344 1982 
C 1363 2040 1536 2355 1696 2495 
C 1773 2566 1939 2687 2202 2687 
C 2304 2687 2406 2674 2490 2633 
z
" transform="scale(0.015625)"/>
     </defs>
     <use xlink:href="#CMMI12-72" transform="scale(0.996264)"/>
     <use xlink:href="#CMMI12-78" transform="translate(43.960894 -14.943915) scale(0.697382)"/>
    </g>
   </g>
   <g id="text_10">
    <!-- $y$ -->
    <g transform="translate(43.941711 186.780682) scale(0.2 -0.2)">
     <defs>
      <path id="CMMI12-79" d="M 1683 -673 
C 1510 -921 1261 -1152 947 -1152 
C 870 -1152 563 -1139 467 -826 
C 486 -833 518 -833 531 -833 
C 723 -833 851 -666 851 -519 
C 851 -372 730 -320 634 -320 
C 531 -320 307 -397 307 -711 
C 307 -1050 582 -1280 947 -1280 
C 1587 -1280 2234 -673 2413 -7 
L 3040 2483 
C 3046 2515 3059 2553 3059 2591 
C 3059 2687 2982 2752 2886 2752 
C 2829 2752 2694 2726 2643 2534 
L 2170 657 
C 2138 542 2138 530 2086 459 
C 1958 281 1747 64 1440 64 
C 1082 64 1050 415 1050 587 
C 1050 951 1222 1443 1395 1902 
C 1466 2087 1504 2177 1504 2305 
C 1504 2573 1312 2816 998 2816 
C 410 2816 173 1890 173 1838 
C 173 1813 198 1781 243 1781 
C 301 1781 307 1807 333 1896 
C 486 2432 730 2687 979 2687 
C 1037 2687 1146 2687 1146 2477 
C 1146 2311 1075 2126 979 1883 
C 666 1047 666 836 666 683 
C 666 76 1101 -64 1421 -64 
C 1606 -64 1837 -7 2061 230 
L 2067 223 
C 1971 -141 1907 -359 1683 -673 
z
" transform="scale(0.015625)"/>
     </defs>
     <use xlink:href="#CMMI12-79" transform="scale(0.996264)"/>
    </g>
   </g>
   <g id="text_11">
    <!-- $m$ -->
    <g transform="translate(36.389101 228.780682) scale(0.2 -0.2)">
     <defs>
      <path id="CMMI12-6d" d="M 1318 1870 
C 1331 1909 1491 2228 1728 2432 
C 1894 2585 2112 2687 2362 2687 
C 2618 2687 2707 2496 2707 2241 
C 2707 2202 2707 2075 2630 1775 
L 2470 1117 
C 2419 925 2298 453 2285 383 
C 2259 287 2221 121 2221 95 
C 2221 6 2291 -64 2387 -64 
C 2579 -64 2611 83 2669 313 
L 3053 1838 
C 3066 1890 3398 2687 4102 2687 
C 4358 2687 4448 2496 4448 2241 
C 4448 1883 4198 1187 4058 804 
C 4000 651 3968 568 3968 453 
C 3968 166 4166 -64 4474 -64 
C 5069 -64 5293 874 5293 913 
C 5293 945 5267 970 5229 970 
C 5171 970 5165 951 5133 842 
C 4986 332 4749 64 4493 64 
C 4429 64 4326 70 4326 274 
C 4326 440 4403 645 4429 715 
C 4544 1021 4832 1775 4832 2145 
C 4832 2528 4608 2816 4122 2816 
C 3693 2816 3347 2573 3091 2196 
C 3072 2541 2861 2816 2381 2816 
C 1811 2816 1510 2413 1395 2253 
C 1376 2617 1114 2816 832 2816 
C 646 2816 499 2726 378 2483 
C 262 2253 173 1864 173 1838 
C 173 1813 198 1781 243 1781 
C 294 1781 301 1787 339 1934 
C 435 2311 557 2687 813 2687 
C 960 2687 1011 2585 1011 2394 
C 1011 2253 947 2004 902 1807 
L 723 1117 
C 698 996 627 708 595 593 
C 550 427 480 127 480 95 
C 480 6 550 -64 646 -64 
C 723 -64 813 -26 864 70 
C 877 102 934 325 966 453 
L 1107 1028 
L 1318 1870 
z
" transform="scale(0.015625)"/>
     </defs>
     <use xlink:href="#CMMI12-6d" transform="scale(0.996264)"/>
    </g>
   </g>
   <g id="text_12">
    <!-- $m\!+\!1$ -->
    <g transform="translate(10.694151 144.780682) scale(0.2 -0.2)">
     <use xlink:href="#CMMI12-6d" transform="scale(0.996264)"/>
     <use xlink:href="#CMR17-2b" transform="translate(90.862026 0) scale(0.996264)"/>
     <use xlink:href="#CMR17-31" transform="translate(168.111616 0) scale(0.996264)"/>
    </g>
   </g>
   <g id="text_13">
    <!-- $r_y$ -->
    <g transform="translate(74.590909 205.95551) scale(0.2 -0.2)">
     <use xlink:href="#CMMI12-72" transform="scale(0.996264)"/>
     <use xlink:href="#CMMI12-79" transform="translate(43.960894 -14.943915) scale(0.697382)"/>
    </g>
   </g>
  </g>
 </g>
 <defs>
  <clipPath id="p662ff57165">
   <rect x="45" y="43.2" width="279" height="277.2"/>
  </clipPath>
 </defs>
</svg>
