<?xml version="1.0" encoding="UTF-8" standalone="no"?>
<svg
   width="576pt"
   height="216pt"
   viewBox="0 0 576 216"
   version="1.1"
   id="svg206"
   sodipodi:docname="perlinfrom0to4.svg"
   inkscape:version="1.2.2 (b0a8486541, 2022-12-01)"
   xmlns:inkscape="http://www.inkscape.org/namespaces/inkscape"
   xmlns:sodipodi="http://sodipodi.sourceforge.net/DTD/sodipodi-0.dtd"
   xmlns:xlink="http://www.w3.org/1999/xlink"
   xmlns="http://www.w3.org/2000/svg"
   xmlns:svg="http://www.w3.org/2000/svg"
   xmlns:rdf="http://www.w3.org/1999/02/22-rdf-syntax-ns#"
   xmlns:cc="http://creativecommons.org/ns#"
   xmlns:dc="http://purl.org/dc/elements/1.1/">
  <sodipodi:namedview
     id="namedview208"
     pagecolor="#ffffff"
     bordercolor="#000000"
     borderopacity="0.25"
     inkscape:showpageshadow="2"
     inkscape:pageopacity="0.0"
     inkscape:pagecheckerboard="0"
     inkscape:deskcolor="#d1d1d1"
     inkscape:document-units="pt"
     showgrid="false"
     inkscape:zoom="1.6388889"
     inkscape:cx="496.67797"
     inkscape:cy="136.37288"
     inkscape:window-width="1415"
     inkscape:window-height="877"
     inkscape:window-x="25"
     inkscape:window-y="0"
     inkscape:window-maximized="1"
     inkscape:current-layer="svg206" />
  <metadata
     id="metadata2">
    <rdf:RDF>
      <cc:Work>
        <dc:type
           rdf:resource="http://purl.org/dc/dcmitype/StillImage" />
        <dc:date>2024-12-17T12:22:51.296051</dc:date>
        <dc:format>image/svg+xml</dc:format>
        <dc:creator>
          <cc:Agent>
            <dc:title>Matplotlib v3.9.2, https://matplotlib.org/</dc:title>
          </cc:Agent>
        </dc:creator>
      </cc:Work>
    </rdf:RDF>
  </metadata>
  <defs
     id="defs6">
    <style
       type="text/css"
       id="style4">*{stroke-linejoin: round; stroke-linecap: butt}</style>
    <clipPath
       id="clipPath3802">
      <path
         clip-rule="nonzero"
         d="m 82,0 h 5 v 14.347656 h -5 z m 0,0"
         id="path6295" />
    </clipPath>
    <clipPath
       id="clipPath7485">
      <path
         clip-rule="nonzero"
         d="m 94,0 h 4 v 14.347656 h -4 z m 0,0"
         id="path9860" />
    </clipPath>
    <clipPath
       id="clipPath5228">
      <path
         clip-rule="nonzero"
         d="m 82,0 h 5 v 14.347656 h -5 z m 0,0"
         id="path9830" />
    </clipPath>
    <clipPath
       id="clipPath4500">
      <path
         clip-rule="nonzero"
         d="m 94,0 h 4 v 14.347656 h -4 z m 0,0"
         id="path2693" />
    </clipPath>
    <clipPath
       id="clipPath5449">
      <path
         clip-rule="nonzero"
         d="m 82,0 h 5 v 14.347656 h -5 z m 0,0"
         id="path3953" />
    </clipPath>
    <clipPath
       id="clipPath3940">
      <path
         clip-rule="nonzero"
         d="m 94,0 h 4 v 14.347656 h -4 z m 0,0"
         id="path8406" />
    </clipPath>
    <clipPath
       id="clipPath3736">
      <path
         clip-rule="nonzero"
         d="m 82,0 h 5 v 14.347656 h -5 z m 0,0"
         id="path8807" />
    </clipPath>
    <clipPath
       id="clipPath4849">
      <path
         clip-rule="nonzero"
         d="m 94,0 h 4 v 14.347656 h -4 z m 0,0"
         id="path8557" />
    </clipPath>
  </defs>
  <g
     id="figure_1">
    <g
       id="patch_1">
      <path
         d="M 0 216  L 576 216  L 576 0  L 0 0  z "
         style="fill: #ffffff"
         id="path8" />
    </g>
    <g
       id="axes_1">
      <g
         id="patch_2">
        <path
           d="M 47.961178 182.64351  L 572.99976 182.64351  L 572.99976 6.799459  L 47.961178 6.799459  z "
           style="fill: #ffffff"
           id="path11" />
      </g>
      <g
         id="matplotlib.axis_1">
        <g
           id="xtick_1">
          <g
             id="line2d_1">
            <path
               d="M 71.826568 182.64351  L 71.826568 6.799459  "
               clip-path="url(#p4773b15194)"
               style="fill: none; stroke: #b0b0b0; stroke-width: 0.8; stroke-linecap: square"
               id="path14" />
          </g>
          <g
             id="line2d_2">
            <defs
               id="defs18">
              <path
                 id="m25b2550f6c"
                 d="M 0 0  L 0 3.5  "
                 style="stroke: #000000; stroke-width: 0.8" />
            </defs>
            <g
               id="g22">
              <use
                 xlink:href="#m25b2550f6c"
                 x="71.826568"
                 y="182.64351"
                 style="stroke: #000000; stroke-width: 0.8"
                 id="use20" />
            </g>
          </g>
          <g
             id="text_1">
            <!-- 0 -->
            <g
               transform="translate(68.645318 197.241948) scale(0.1 -0.1)"
               id="g30">
              <defs
                 id="defs26">
                <path
                   id="DejaVuSans-30"
                   d="M 2034 4250  Q 1547 4250 1301 3770  Q 1056 3291 1056 2328  Q 1056 1369 1301 889  Q 1547 409 2034 409  Q 2525 409 2770 889  Q 3016 1369 3016 2328  Q 3016 3291 2770 3770  Q 2525 4250 2034 4250  z M 2034 4750  Q 2819 4750 3233 4129  Q 3647 3509 3647 2328  Q 3647 1150 3233 529  Q 2819 -91 2034 -91  Q 1250 -91 836 529  Q 422 1150 422 2328  Q 422 3509 836 4129  Q 1250 4750 2034 4750  z "
                   transform="scale(0.015625)" />
              </defs>
              <use
                 xlink:href="#DejaVuSans-30"
                 id="use28" />
            </g>
          </g>
        </g>
        <g
           id="xtick_2">
          <g
             id="line2d_3">
            <path
               d="M 191.452583 182.64351  L 191.452583 6.799459  "
               clip-path="url(#p4773b15194)"
               style="fill: none; stroke: #b0b0b0; stroke-width: 0.8; stroke-linecap: square"
               id="path34" />
          </g>
          <g
             id="line2d_4">
            <g
               id="g39">
              <use
                 xlink:href="#m25b2550f6c"
                 x="191.452583"
                 y="182.64351"
                 style="stroke: #000000; stroke-width: 0.8"
                 id="use37" />
            </g>
          </g>
          <g
             id="text_2">
            <!-- 1 -->
            <g
               transform="translate(188.271333 197.241948) scale(0.1 -0.1)"
               id="g47">
              <defs
                 id="defs43">
                <path
                   id="DejaVuSans-31"
                   d="M 794 531  L 1825 531  L 1825 4091  L 703 3866  L 703 4441  L 1819 4666  L 2450 4666  L 2450 531  L 3481 531  L 3481 0  L 794 0  L 794 531  z "
                   transform="scale(0.015625)" />
              </defs>
              <use
                 xlink:href="#DejaVuSans-31"
                 id="use45" />
            </g>
          </g>
        </g>
        <g
           id="xtick_3">
          <g
             id="line2d_5">
            <path
               d="M 311.078599 182.64351  L 311.078599 6.799459  "
               clip-path="url(#p4773b15194)"
               style="fill: none; stroke: #b0b0b0; stroke-width: 0.8; stroke-linecap: square"
               id="path51" />
          </g>
          <g
             id="line2d_6">
            <g
               id="g56">
              <use
                 xlink:href="#m25b2550f6c"
                 x="311.078599"
                 y="182.64351"
                 style="stroke: #000000; stroke-width: 0.8"
                 id="use54" />
            </g>
          </g>
          <g
             id="text_3">
            <!-- 2 -->
            <g
               transform="translate(307.897349 197.241948) scale(0.1 -0.1)"
               id="g64">
              <defs
                 id="defs60">
                <path
                   id="DejaVuSans-32"
                   d="M 1228 531  L 3431 531  L 3431 0  L 469 0  L 469 531  Q 828 903 1448 1529  Q 2069 2156 2228 2338  Q 2531 2678 2651 2914  Q 2772 3150 2772 3378  Q 2772 3750 2511 3984  Q 2250 4219 1831 4219  Q 1534 4219 1204 4116  Q 875 4013 500 3803  L 500 4441  Q 881 4594 1212 4672  Q 1544 4750 1819 4750  Q 2544 4750 2975 4387  Q 3406 4025 3406 3419  Q 3406 3131 3298 2873  Q 3191 2616 2906 2266  Q 2828 2175 2409 1742  Q 1991 1309 1228 531  z "
                   transform="scale(0.015625)" />
              </defs>
              <use
                 xlink:href="#DejaVuSans-32"
                 id="use62" />
            </g>
          </g>
        </g>
        <g
           id="xtick_4">
          <g
             id="line2d_7">
            <path
               d="M 430.704614 182.64351  L 430.704614 6.799459  "
               clip-path="url(#p4773b15194)"
               style="fill: none; stroke: #b0b0b0; stroke-width: 0.8; stroke-linecap: square"
               id="path68" />
          </g>
          <g
             id="line2d_8">
            <g
               id="g73">
              <use
                 xlink:href="#m25b2550f6c"
                 x="430.704614"
                 y="182.64351"
                 style="stroke: #000000; stroke-width: 0.8"
                 id="use71" />
            </g>
          </g>
          <g
             id="text_4">
            <!-- 3 -->
            <g
               transform="translate(427.523364 197.241948) scale(0.1 -0.1)"
               id="g81">
              <defs
                 id="defs77">
                <path
                   id="DejaVuSans-33"
                   d="M 2597 2516  Q 3050 2419 3304 2112  Q 3559 1806 3559 1356  Q 3559 666 3084 287  Q 2609 -91 1734 -91  Q 1441 -91 1130 -33  Q 819 25 488 141  L 488 750  Q 750 597 1062 519  Q 1375 441 1716 441  Q 2309 441 2620 675  Q 2931 909 2931 1356  Q 2931 1769 2642 2001  Q 2353 2234 1838 2234  L 1294 2234  L 1294 2753  L 1863 2753  Q 2328 2753 2575 2939  Q 2822 3125 2822 3475  Q 2822 3834 2567 4026  Q 2313 4219 1838 4219  Q 1578 4219 1281 4162  Q 984 4106 628 3988  L 628 4550  Q 988 4650 1302 4700  Q 1616 4750 1894 4750  Q 2613 4750 3031 4423  Q 3450 4097 3450 3541  Q 3450 3153 3228 2886  Q 3006 2619 2597 2516  z "
                   transform="scale(0.015625)" />
              </defs>
              <use
                 xlink:href="#DejaVuSans-33"
                 id="use79" />
            </g>
          </g>
        </g>
        <g
           id="xtick_5">
          <g
             id="line2d_9">
            <path
               d="M 550.33063 182.64351  L 550.33063 6.799459  "
               clip-path="url(#p4773b15194)"
               style="fill: none; stroke: #b0b0b0; stroke-width: 0.8; stroke-linecap: square"
               id="path85" />
          </g>
          <g
             id="line2d_10">
            <g
               id="g90">
              <use
                 xlink:href="#m25b2550f6c"
                 x="550.33063"
                 y="182.64351"
                 style="stroke: #000000; stroke-width: 0.8"
                 id="use88" />
            </g>
          </g>
          <g
             id="text_5">
            <!-- 4 -->
            <g
               transform="translate(547.14938 197.241948) scale(0.1 -0.1)"
               id="g98">
              <defs
                 id="defs94">
                <path
                   id="DejaVuSans-34"
                   d="M 2419 4116  L 825 1625  L 2419 1625  L 2419 4116  z M 2253 4666  L 3047 4666  L 3047 1625  L 3713 1625  L 3713 1100  L 3047 1100  L 3047 0  L 2419 0  L 2419 1100  L 313 1100  L 313 1709  L 2253 4666  z "
                   transform="scale(0.015625)" />
              </defs>
              <use
                 xlink:href="#DejaVuSans-34"
                 id="use96" />
            </g>
          </g>
        </g>
        <g
           id="text_6">
          <!-- x -->
          <g
             transform="translate(307.521094 210.920073) scale(0.1 -0.1)"
             id="g107">
            <defs
               id="defs103">
              <path
                 id="DejaVuSans-78"
                 d="M 3513 3500  L 2247 1797  L 3578 0  L 2900 0  L 1881 1375  L 863 0  L 184 0  L 1544 1831  L 300 3500  L 978 3500  L 1906 2253  L 2834 3500  L 3513 3500  z "
                 transform="scale(0.015625)" />
            </defs>
            <use
               xlink:href="#DejaVuSans-78"
               id="use105" />
          </g>
        </g>
      </g>
      <g
         id="matplotlib.axis_2">
        <g
           id="ytick_1">
          <g
             id="line2d_11">
            <path
               d="M 47.961178 182.64351  L 572.99976 182.64351  "
               clip-path="url(#p4773b15194)"
               style="fill: none; stroke: #b0b0b0; stroke-width: 0.8; stroke-linecap: square"
               id="path111" />
          </g>
          <g
             id="line2d_12">
            <defs
               id="defs115">
              <path
                 id="me32fde1c6c"
                 d="M 0 0  L -3.5 0  "
                 style="stroke: #000000; stroke-width: 0.8" />
            </defs>
            <g
               id="g119">
              <use
                 xlink:href="#me32fde1c6c"
                 x="47.961178"
                 y="182.64351"
                 style="stroke: #000000; stroke-width: 0.8"
                 id="use117" />
            </g>
          </g>
          <g
             id="text_7">
            <!-- &#8722;0.5 -->
            <g
               transform="translate(16.678365 186.442729) scale(0.1 -0.1)"
               id="g135">
              <defs
                 id="defs125">
                <path
                   id="DejaVuSans-2212"
                   d="M 678 2272  L 4684 2272  L 4684 1741  L 678 1741  L 678 2272  z "
                   transform="scale(0.015625)" />
                <path
                   id="DejaVuSans-2e"
                   d="M 684 794  L 1344 794  L 1344 0  L 684 0  L 684 794  z "
                   transform="scale(0.015625)" />
                <path
                   id="DejaVuSans-35"
                   d="M 691 4666  L 3169 4666  L 3169 4134  L 1269 4134  L 1269 2991  Q 1406 3038 1543 3061  Q 1681 3084 1819 3084  Q 2600 3084 3056 2656  Q 3513 2228 3513 1497  Q 3513 744 3044 326  Q 2575 -91 1722 -91  Q 1428 -91 1123 -41  Q 819 9 494 109  L 494 744  Q 775 591 1075 516  Q 1375 441 1709 441  Q 2250 441 2565 725  Q 2881 1009 2881 1497  Q 2881 1984 2565 2268  Q 2250 2553 1709 2553  Q 1456 2553 1204 2497  Q 953 2441 691 2322  L 691 4666  z "
                   transform="scale(0.015625)" />
              </defs>
              <use
                 xlink:href="#DejaVuSans-2212"
                 id="use127" />
              <use
                 xlink:href="#DejaVuSans-30"
                 x="83.789062"
                 id="use129" />
              <use
                 xlink:href="#DejaVuSans-2e"
                 x="147.412109"
                 id="use131" />
              <use
                 xlink:href="#DejaVuSans-35"
                 x="179.199219"
                 id="use133" />
            </g>
          </g>
        </g>
        <g
           id="ytick_2">
          <g
             id="line2d_13">
            <path
               d="M 47.961178 94.721484  L 572.99976 94.721484  "
               clip-path="url(#p4773b15194)"
               style="fill: none; stroke: #b0b0b0; stroke-width: 0.8; stroke-linecap: square"
               id="path139" />
          </g>
          <g
             id="line2d_14">
            <g
               id="g144">
              <use
                 xlink:href="#me32fde1c6c"
                 x="47.961178"
                 y="94.721484"
                 style="stroke: #000000; stroke-width: 0.8"
                 id="use142" />
            </g>
          </g>
          <g
             id="text_8">
            <!-- 0.0 -->
            <g
               transform="translate(25.058053 98.520703) scale(0.1 -0.1)"
               id="g153">
              <use
                 xlink:href="#DejaVuSans-30"
                 id="use147" />
              <use
                 xlink:href="#DejaVuSans-2e"
                 x="63.623047"
                 id="use149" />
              <use
                 xlink:href="#DejaVuSans-30"
                 x="95.410156"
                 id="use151" />
            </g>
          </g>
        </g>
        <g
           id="ytick_3">
          <g
             id="line2d_15">
            <path
               d="M 47.961178 6.799459  L 572.99976 6.799459  "
               clip-path="url(#p4773b15194)"
               style="fill: none; stroke: #b0b0b0; stroke-width: 0.8; stroke-linecap: square"
               id="path157" />
          </g>
          <g
             id="line2d_16">
            <g
               id="g162">
              <use
                 xlink:href="#me32fde1c6c"
                 x="47.961178"
                 y="6.799459"
                 style="stroke: #000000; stroke-width: 0.8"
                 id="use160" />
            </g>
          </g>
          <g
             id="text_9">
            <!-- 0.5 -->
            <g
               transform="translate(25.058053 10.598677) scale(0.1 -0.1)"
               id="g171">
              <use
                 xlink:href="#DejaVuSans-30"
                 id="use165" />
              <use
                 xlink:href="#DejaVuSans-2e"
                 x="63.623047"
                 id="use167" />
              <use
                 xlink:href="#DejaVuSans-35"
                 x="95.410156"
                 id="use169" />
            </g>
          </g>
        </g>
        <g
           id="text_10">
          <!-- y -->
          <g
             transform="translate(10.598678 97.680859) rotate(-90) scale(0.1 -0.1)"
             id="g180">
            <defs
               id="defs176">
              <path
                 id="DejaVuSans-79"
                 d="M 2059 -325  Q 1816 -950 1584 -1140  Q 1353 -1331 966 -1331  L 506 -1331  L 506 -850  L 844 -850  Q 1081 -850 1212 -737  Q 1344 -625 1503 -206  L 1606 56  L 191 3500  L 800 3500  L 1894 763  L 2988 3500  L 3597 3500  L 2059 -325  z "
                 transform="scale(0.015625)" />
            </defs>
            <use
               xlink:href="#DejaVuSans-79"
               id="use178" />
          </g>
        </g>
      </g>
      <g
         id="line2d_17">
        <path
           d="M 71.826568 94.721484  L 74.219088 91.417214  L 77.807868 86.018083  L 82.592909 78.24487  L 98.144291 52.322214  L 101.733072 46.913883  L 105.321852 41.931941  L 108.910632 37.456379  L 111.303153 34.788544  L 113.695673 32.39444  L 116.088193 30.289665  L 118.480714 28.487657  L 120.873234 26.999693  L 123.265754 25.834888  L 125.658275 25.000197  L 128.050795 24.500415  L 130.443315 24.338174  L 132.835836 24.513948  L 135.228356 25.026048  L 137.620876 25.870625  L 140.013397 27.041671  L 142.405917 28.531014  L 144.798437 30.328323  L 147.190957 32.421106  L 149.583478 34.794711  L 151.975998 37.432324  L 154.368518 40.314971  L 157.957299 45.051555  L 161.546079 50.210959  L 166.33112 57.588357  L 174.704941 71.151539  L 179.489982 78.768912  L 183.078762 84.163274  L 186.667543 89.111041  L 189.060063 92.078951  L 191.452583 94.721484  L 195.041364 98.178776  L 197.433884 100.225843  L 199.826404 102.071204  L 202.218925 103.719045  L 204.611445 105.173824  L 207.003965 106.440267  L 209.396486 107.523371  L 211.789006 108.428402  L 214.181526 109.160898  L 216.574046 109.726666  L 218.966567 110.131782  L 221.359087 110.382595  L 224.947868 110.484044  L 228.536648 110.276734  L 232.125429 109.785507  L 235.714209 109.036569  L 239.302989 108.057497  L 242.89177 106.877233  L 247.676811 105.043165  L 253.658111 102.439221  L 263.228193 97.92888  L 270.405754 94.633095  L 275.190794 92.653558  L 278.779575 91.354029  L 282.368355 90.261922  L 285.957136 89.422586  L 289.545916 88.882742  L 291.938436 88.712918  L 294.330957 88.712131  L 296.723477 88.895234  L 299.115997 89.277353  L 301.508518 89.873883  L 303.901038 90.700491  L 306.293558 91.773111  L 308.686079 93.107951  L 311.078599 94.721484  L 314.667379 97.487563  L 319.45242 101.47731  L 336.200062 115.826058  L 340.985103 119.449554  L 344.573883 121.89616  L 348.162664 124.068685  L 351.751444 125.935452  L 355.340225 127.470254  L 357.732745 128.298564  L 360.125265 128.96521  L 362.517786 129.466478  L 364.910306 129.799735  L 367.302826 129.963427  L 369.695346 129.957083  L 372.087867 129.781309  L 374.480387 129.437794  L 376.872907 128.929307  L 379.265428 128.259696  L 382.854208 126.96425  L 386.442989 125.338813  L 390.031769 123.41005  L 393.62055 121.210093  L 397.20933 118.776545  L 401.994371 115.243684  L 409.171932 109.571658  L 417.545753 102.961335  L 422.330793 99.508349  L 425.919574 97.216095  L 428.312094 95.877317  L 430.704614 94.721484  L 433.097135 93.830898  L 435.489655 93.25216  L 437.882175 92.960118  L 440.274696 92.930295  L 442.667216 93.138888  L 445.059736 93.562771  L 447.452257 94.179491  L 449.844777 94.967272  L 453.433557 96.423709  L 457.022338 98.149346  L 461.807378 100.757184  L 467.788679 104.309049  L 478.555021 110.758462  L 483.340061 113.369844  L 486.928842 115.137948  L 490.517622 116.701991  L 494.106403 118.028929  L 497.695183 119.089137  L 501.283964 119.856406  L 504.872744 120.307947  L 507.265264 120.423864  L 509.657785 120.385881  L 512.050305 120.18978  L 514.442825 119.832015  L 516.835346 119.309716  L 519.227866 118.620689  L 521.620386 117.763414  L 524.012907 116.737047  L 526.405427 115.54142  L 529.994207 113.431909  L 533.582988 110.947417  L 537.171768 108.095921  L 540.760549 104.888816  L 544.349329 101.340914  L 547.93811 97.470447  L 549.13437 96.112254  L 549.13437 96.112254  "
           clip-path="url(#p4773b15194)"
           style="fill: none; stroke: #1f77b4; stroke-width: 1.5; stroke-linecap: square"
           id="path184" />
      </g>
      <g
         id="patch_3">
        <path
           d="M 47.961178 182.64351  L 47.961178 6.799459  "
           style="fill: none; stroke: #000000; stroke-width: 0.8; stroke-linejoin: miter; stroke-linecap: square"
           id="path187" />
      </g>
      <g
         id="patch_4">
        <path
           d="M 572.99976 182.64351  L 572.99976 6.799459  "
           style="fill: none; stroke: #000000; stroke-width: 0.8; stroke-linejoin: miter; stroke-linecap: square"
           id="path190" />
      </g>
      <g
         id="patch_5">
        <path
           d="M 47.961178 182.64351  L 572.99976 182.64351  "
           style="fill: none; stroke: #000000; stroke-width: 0.8; stroke-linejoin: miter; stroke-linecap: square"
           id="path193" />
      </g>
      <g
         id="patch_6">
        <path
           d="M 47.961178 6.799459  L 572.99976 6.799459  "
           style="fill: none; stroke: #000000; stroke-width: 0.8; stroke-linejoin: miter; stroke-linecap: square"
           id="path196" />
      </g>
    </g>
  </g>
  <defs
     id="defs204">
    <clipPath
       id="p4773b15194">
      <rect
         x="47.961178"
         y="6.799459"
         width="525.038583"
         height="175.844051"
         id="rect201" />
    </clipPath>
  </defs>
  <g
     inkscape:label=""
     transform="translate(83.258337,13.623323)"
     id="g656">
    <g
       fill="#000000"
       fill-opacity="1"
       id="g51"
       transform="translate(0.4375,-0.00899982)">
      <g
         id="g613"
         transform="translate(0,10.759)">
        <path
           d="M 0.609375,1.828125 C 0.515625,2.25 0.453125,2.359375 -0.125,2.359375 c -0.171875,0 -0.3125,0 -0.3125,0.28125 0,0.03125 0,0.140625 0.171875,0.140625 0.171875,0 0.375,-0.03125 0.5625,-0.03125 h 0.625 c 0.296875,0 1.03125,0.03125 1.328125,0.03125 0.09375,0 0.265625,0 0.265625,-0.25 0,-0.171875 -0.109375,-0.171875 -0.34375,-0.171875 C 1.5,2.359375 1.46875,2.265625 1.46875,2.15625 c 0,-0.171875 0.640625,-2.640625 0.71875,-2.96875 0.171875,0.390625 0.546875,0.953125 1.296875,0.953125 1.625,0 3.375,-2.109375 3.375,-4.21875 0,-1.3125 -0.75,-2.25 -1.828125,-2.25 -0.921875,0 -1.6875,0.890625 -1.84375,1.09375 -0.125,-0.71875 -0.671875,-1.09375 -1.25,-1.09375 -0.421875,0 -0.75,0.203125 -1.015625,0.75 C 0.65625,-5.0625 0.453125,-4.1875 0.453125,-4.125 c 0,0.046875 0.0625,0.125 0.15625,0.125 0.125,0 0.140625,-0.015625 0.21875,-0.34375 0.21875,-0.84375 0.484375,-1.6875 1.0625,-1.6875 0.328125,0 0.453125,0.21875 0.453125,0.65625 0,0.34375 -0.046875,0.484375 -0.109375,0.734375 z M 3.09375,-4.46875 C 3.203125,-4.875 3.59375,-5.296875 3.828125,-5.5 3.984375,-5.640625 4.453125,-6.03125 5,-6.03125 c 0.640625,0 0.921875,0.625 0.921875,1.375 0,0.6875 -0.40625,2.296875 -0.765625,3.046875 -0.34375,0.78125 -1.015625,1.46875 -1.671875,1.46875 -0.96875,0 -1.125,-1.234375 -1.125,-1.296875 0,-0.046875 0.015625,-0.15625 0.03125,-0.21875 z m 0,0"
           id="path101" />
      </g>
      <g
         id="use47"
         transform="translate(7.0497231,10.759)">
        <path
           d="m 2.5625,-3.328125 c 0.390625,0 1.375,-0.03125 2.0625,-0.28125 1.078125,-0.421875 1.1875,-1.25 1.1875,-1.515625 0,-0.625 -0.546875,-1.203125 -1.5,-1.203125 -1.5,0 -3.671875,1.359375 -3.671875,3.921875 0,1.5 0.859375,2.546875 2.171875,2.546875 C 4.765625,0.140625 6,-1.375 6,-1.5625 6,-1.65625 5.90625,-1.71875 5.859375,-1.71875 c -0.046875,0 -0.0625,0.015625 -0.1875,0.140625 -0.921875,1.21875 -2.28125,1.4375 -2.828125,1.4375 -0.828125,0 -1.25,-0.640625 -1.25,-1.703125 0,-0.203125 0,-0.5625 0.21875,-1.484375 z M 1.875,-3.609375 C 2.5,-5.828125 3.859375,-6.03125 4.3125,-6.03125 c 0.640625,0 1.0625,0.359375 1.0625,0.90625 0,1.515625 -2.296875,1.515625 -2.890625,1.515625 z m 0,0"
           id="path105" />
      </g>
      <g
         id="use49"
         transform="translate(13.560028,10.759)">
        <path
           d="M 5.578125,-5.859375 C 5.140625,-5.78125 4.90625,-5.46875 4.90625,-5.15625 c 0,0.34375 0.265625,0.46875 0.46875,0.46875 0.40625,0 0.734375,-0.34375 0.734375,-0.78125 0,-0.453125 -0.4375,-0.859375 -1.15625,-0.859375 -0.578125,0 -1.234375,0.265625 -1.84375,1.140625 -0.09375,-0.765625 -0.671875,-1.140625 -1.25,-1.140625 -0.546875,0 -0.84375,0.4375 -1.015625,0.75 -0.234375,0.515625 -0.453125,1.375 -0.453125,1.453125 0,0.046875 0.046875,0.125 0.15625,0.125 0.109375,0 0.125,-0.015625 0.21875,-0.34375 0.203125,-0.859375 0.484375,-1.6875 1.0625,-1.6875 0.34375,0 0.4375,0.234375 0.4375,0.65625 0,0.3125 -0.140625,0.875 -0.25,1.3125 L 1.625,-2.515625 c -0.0625,0.28125 -0.21875,0.921875 -0.296875,1.1875 -0.09375,0.359375 -0.25,1.046875 -0.25,1.109375 0,0.203125 0.15625,0.359375 0.375,0.359375 0.15625,0 0.421875,-0.09375 0.515625,-0.390625 0.046875,-0.109375 0.5625,-2.28125 0.65625,-2.609375 0.078125,-0.3125 0.15625,-0.609375 0.234375,-0.921875 0.046875,-0.203125 0.109375,-0.4375 0.15625,-0.625 C 3.0625,-4.53125 3.4375,-5.234375 3.796875,-5.546875 3.96875,-5.703125 4.34375,-6.03125 4.9375,-6.03125 c 0.21875,0 0.453125,0.03125 0.640625,0.171875 z m 0,0"
           id="path109" />
      </g>
    </g>
    <g
       fill="#000000"
       fill-opacity="1"
       id="g55"
       transform="translate(0.4375,-0.00899982)">
      <g
         id="use53"
         transform="translate(20.278355,10.759)">
        <path
           d="M 3.640625,-9.59375 C 3.65625,-9.65625 3.6875,-9.734375 3.6875,-9.8125 c 0,-0.140625 -0.140625,-0.140625 -0.171875,-0.140625 -0.015625,0 -0.53125,0.046875 -0.796875,0.0625 C 2.484375,-9.875 2.265625,-9.84375 2.015625,-9.828125 1.65625,-9.796875 1.5625,-9.78125 1.5625,-9.53125 c 0,0.15625 0.140625,0.15625 0.28125,0.15625 0.734375,0 0.734375,0.125 0.734375,0.265625 0,0.0625 0,0.09375 -0.0625,0.34375 L 0.734375,-1.65625 C 0.6875,-1.484375 0.65625,-1.375 0.65625,-1.140625 c 0,0.703125 0.53125,1.28125 1.265625,1.28125 0.46875,0 0.796875,-0.3125 1.015625,-0.75 0.25,-0.484375 0.453125,-1.390625 0.453125,-1.4375 0,-0.078125 -0.0625,-0.140625 -0.15625,-0.140625 -0.125,0 -0.140625,0.078125 -0.1875,0.296875 -0.265625,0.984375 -0.515625,1.75 -1.09375,1.75 -0.4375,0 -0.4375,-0.46875 -0.4375,-0.65625 0,-0.0625 0,-0.359375 0.109375,-0.765625 z m 0,0"
           id="path113" />
      </g>
    </g>
    <g
       fill="#000000"
       fill-opacity="1"
       id="g61"
       transform="translate(0.4375,-0.00899982)">
      <g
         id="use57"
         transform="translate(24.778757,10.759)">
        <path
           d="M 4.0625,-2.046875 C 4.0625,-2.125 4,-2.1875 3.921875,-2.1875 c -0.140625,0 -0.15625,0.046875 -0.21875,0.296875 -0.375,1.296875 -0.96875,1.75 -1.4375,1.75 -0.171875,0 -0.375,-0.046875 -0.375,-0.46875 0,-0.390625 0.171875,-0.828125 0.328125,-1.25 L 3.234375,-4.53125 C 3.265625,-4.640625 3.375,-4.90625 3.375,-5.171875 c 0,-0.609375 -0.4375,-1.15625 -1.140625,-1.15625 -1.3125,0 -1.84375,2.078125 -1.84375,2.203125 0,0.046875 0.046875,0.125 0.15625,0.125 C 0.671875,-4 0.6875,-4.0625 0.75,-4.265625 1.09375,-5.46875 1.640625,-6.03125 2.1875,-6.03125 c 0.140625,0 0.375,0 0.375,0.46875 0,0.375 -0.1875,0.84375 -0.296875,1.15625 l -1,2.671875 C 1.171875,-1.5 1.09375,-1.28125 1.09375,-1.015625 c 0,0.640625 0.4375,1.15625 1.125,1.15625 1.328125,0 1.84375,-2.09375 1.84375,-2.1875 z m -0.125,-6.90625 c 0,-0.21875 -0.171875,-0.46875 -0.484375,-0.46875 -0.328125,0 -0.703125,0.3125 -0.703125,0.6875 0,0.359375 0.3125,0.46875 0.484375,0.46875 0.375,0 0.703125,-0.375 0.703125,-0.6875 z m 0,0"
           id="path117" />
      </g>
      <g
         id="use59"
         transform="translate(29.570387,10.759)">
        <path
           d="M 2.953125,-4.203125 C 2.984375,-4.28125 3.34375,-5 3.875,-5.46875 c 0.375,-0.34375 0.859375,-0.5625 1.421875,-0.5625 0.5625,0 0.765625,0.421875 0.765625,1 0,0.8125 -0.578125,2.453125 -0.875,3.21875 -0.125,0.34375 -0.203125,0.53125 -0.203125,0.796875 0,0.640625 0.453125,1.15625 1.140625,1.15625 1.328125,0 1.828125,-2.109375 1.828125,-2.1875 C 7.953125,-2.125 7.90625,-2.1875 7.8125,-2.1875 c -0.125,0 -0.140625,0.046875 -0.203125,0.296875 -0.34375,1.171875 -0.875,1.75 -1.4375,1.75 -0.140625,0 -0.375,-0.015625 -0.375,-0.46875 0,-0.359375 0.15625,-0.796875 0.234375,-1 C 6.328125,-2.390625 6.921875,-4 6.921875,-4.8125 c 0,-0.875 -0.5,-1.515625 -1.59375,-1.515625 -1.265625,0 -1.9375,0.90625 -2.203125,1.265625 C 3.078125,-5.875 2.5,-6.328125 1.859375,-6.328125 c -0.453125,0 -0.765625,0.28125 -1.015625,0.765625 -0.25,0.515625 -0.453125,1.375 -0.453125,1.4375 0,0.046875 0.046875,0.125 0.15625,0.125 0.109375,0 0.125,-0.015625 0.21875,-0.34375 0.21875,-0.875 0.484375,-1.6875 1.0625,-1.6875 0.328125,0 0.4375,0.21875 0.4375,0.65625 0,0.3125 -0.140625,0.875 -0.25,1.3125 L 1.625,-2.515625 c -0.0625,0.28125 -0.21875,0.921875 -0.296875,1.1875 -0.09375,0.359375 -0.25,1.046875 -0.25,1.109375 0,0.203125 0.15625,0.359375 0.375,0.359375 0.171875,0 0.375,-0.078125 0.484375,-0.296875 0.03125,-0.078125 0.15625,-0.578125 0.234375,-0.859375 l 0.3125,-1.296875 z m 0,0"
           id="path121" />
      </g>
    </g>
    <path
       fill="none"
       stroke-width="0.398"
       stroke-linecap="butt"
       stroke-linejoin="miter"
       stroke="#000000"
       stroke-opacity="1"
       stroke-miterlimit="10"
       d="m 39.238281,10.549594 h 4.214844"
       id="path63" />
    <g
       fill="#000000"
       fill-opacity="1"
       id="g75"
       transform="translate(0.4375,-0.00899982)">
      <g
         id="use65"
         transform="translate(43.014999,10.759)">
        <path
           d="M 2.953125,-4.203125 C 2.984375,-4.28125 3.34375,-5 3.875,-5.46875 c 0.375,-0.34375 0.859375,-0.5625 1.421875,-0.5625 0.5625,0 0.765625,0.421875 0.765625,1 0,0.8125 -0.578125,2.453125 -0.875,3.21875 -0.125,0.34375 -0.203125,0.53125 -0.203125,0.796875 0,0.640625 0.453125,1.15625 1.140625,1.15625 1.328125,0 1.828125,-2.109375 1.828125,-2.1875 C 7.953125,-2.125 7.90625,-2.1875 7.8125,-2.1875 c -0.125,0 -0.140625,0.046875 -0.203125,0.296875 -0.34375,1.171875 -0.875,1.75 -1.4375,1.75 -0.140625,0 -0.375,-0.015625 -0.375,-0.46875 0,-0.359375 0.15625,-0.796875 0.234375,-1 C 6.328125,-2.390625 6.921875,-4 6.921875,-4.8125 c 0,-0.875 -0.5,-1.515625 -1.59375,-1.515625 -1.265625,0 -1.9375,0.90625 -2.203125,1.265625 C 3.078125,-5.875 2.5,-6.328125 1.859375,-6.328125 c -0.453125,0 -0.765625,0.28125 -1.015625,0.765625 -0.25,0.515625 -0.453125,1.375 -0.453125,1.4375 0,0.046875 0.046875,0.125 0.15625,0.125 0.109375,0 0.125,-0.015625 0.21875,-0.34375 0.21875,-0.875 0.484375,-1.6875 1.0625,-1.6875 0.328125,0 0.4375,0.21875 0.4375,0.65625 0,0.3125 -0.140625,0.875 -0.25,1.3125 L 1.625,-2.515625 c -0.0625,0.28125 -0.21875,0.921875 -0.296875,1.1875 -0.09375,0.359375 -0.25,1.046875 -0.25,1.109375 0,0.203125 0.15625,0.359375 0.375,0.359375 0.171875,0 0.375,-0.078125 0.484375,-0.296875 0.03125,-0.078125 0.15625,-0.578125 0.234375,-0.859375 l 0.3125,-1.296875 z m 0,0"
           id="path125" />
      </g>
      <g
         id="use67"
         transform="translate(51.400352,10.759)">
        <path
           d="m 6.546875,-3.9375 c 0,-1.375 -0.890625,-2.390625 -2.203125,-2.390625 -1.890625,0 -3.75,2.0625 -3.75,4.09375 0,1.359375 0.890625,2.375 2.1875,2.375 1.90625,0 3.765625,-2.0625 3.765625,-4.078125 z m -3.75,3.796875 c -0.71875,0 -1.25,-0.578125 -1.25,-1.578125 0,-0.65625 0.34375,-2.125 0.75,-2.84375 C 2.9375,-5.671875 3.75,-6.03125 4.328125,-6.03125 c 0.703125,0 1.25,0.5625 1.25,1.578125 0,0.5625 -0.296875,2.09375 -0.84375,2.96875 -0.59375,0.96875 -1.375,1.34375 -1.9375,1.34375 z m 0,0"
           id="path129" />
      </g>
      <g
         id="use69"
         transform="translate(58.153111,10.759)">
        <path
           d="M 4.0625,-2.046875 C 4.0625,-2.125 4,-2.1875 3.921875,-2.1875 c -0.140625,0 -0.15625,0.046875 -0.21875,0.296875 -0.375,1.296875 -0.96875,1.75 -1.4375,1.75 -0.171875,0 -0.375,-0.046875 -0.375,-0.46875 0,-0.390625 0.171875,-0.828125 0.328125,-1.25 L 3.234375,-4.53125 C 3.265625,-4.640625 3.375,-4.90625 3.375,-5.171875 c 0,-0.609375 -0.4375,-1.15625 -1.140625,-1.15625 -1.3125,0 -1.84375,2.078125 -1.84375,2.203125 0,0.046875 0.046875,0.125 0.15625,0.125 C 0.671875,-4 0.6875,-4.0625 0.75,-4.265625 1.09375,-5.46875 1.640625,-6.03125 2.1875,-6.03125 c 0.140625,0 0.375,0 0.375,0.46875 0,0.375 -0.1875,0.84375 -0.296875,1.15625 l -1,2.671875 C 1.171875,-1.5 1.09375,-1.28125 1.09375,-1.015625 c 0,0.640625 0.4375,1.15625 1.125,1.15625 1.328125,0 1.84375,-2.09375 1.84375,-2.1875 z m -0.125,-6.90625 c 0,-0.21875 -0.171875,-0.46875 -0.484375,-0.46875 -0.328125,0 -0.703125,0.3125 -0.703125,0.6875 0,0.359375 0.3125,0.46875 0.484375,0.46875 0.375,0 0.703125,-0.375 0.703125,-0.6875 z m 0,0"
           id="path133" />
      </g>
      <g
         id="g636"
         transform="translate(62.94474,10.759)">
        <path
           d="m 3.265625,-2.875 c 0.25,0.046875 0.640625,0.140625 0.71875,0.15625 0.1875,0.046875 0.828125,0.28125 0.828125,0.96875 0,0.4375 -0.390625,1.609375 -2.0625,1.609375 -0.296875,0 -1.375,-0.046875 -1.65625,-0.828125 0.5625,0.0625 0.859375,-0.375 0.859375,-0.6875 0,-0.3125 -0.203125,-0.46875 -0.484375,-0.46875 -0.328125,0 -0.734375,0.25 -0.734375,0.890625 0,0.84375 0.859375,1.375 2,1.375 2.1875,0 2.828125,-1.609375 2.828125,-2.34375 0,-0.21875 0,-0.625 -0.453125,-1.078125 C 4.75,-3.625 4.40625,-3.703125 3.625,-3.859375 c -0.390625,-0.078125 -1,-0.21875 -1,-0.859375 0,-0.28125 0.265625,-1.3125 1.625,-1.3125 0.59375,0 1.1875,0.21875 1.328125,0.734375 -0.625,0 -0.65625,0.546875 -0.65625,0.5625 0,0.296875 0.265625,0.390625 0.40625,0.390625 0.1875,0 0.59375,-0.15625 0.59375,-0.765625 0,-0.59375 -0.546875,-1.21875 -1.65625,-1.21875 -1.890625,0 -2.390625,1.484375 -2.390625,2.0625 0,1.09375 1.0625,1.328125 1.390625,1.390625 z m 0,0"
           id="path137" />
      </g>
      <g
         id="use73"
         transform="translate(69.561211,10.759)">
        <path
           d="m 2.5625,-3.328125 c 0.390625,0 1.375,-0.03125 2.0625,-0.28125 1.078125,-0.421875 1.1875,-1.25 1.1875,-1.515625 0,-0.625 -0.546875,-1.203125 -1.5,-1.203125 -1.5,0 -3.671875,1.359375 -3.671875,3.921875 0,1.5 0.859375,2.546875 2.171875,2.546875 C 4.765625,0.140625 6,-1.375 6,-1.5625 6,-1.65625 5.90625,-1.71875 5.859375,-1.71875 c -0.046875,0 -0.0625,0.015625 -0.1875,0.140625 -0.921875,1.21875 -2.28125,1.4375 -2.828125,1.4375 -0.828125,0 -1.25,-0.640625 -1.25,-1.703125 0,-0.203125 0,-0.5625 0.21875,-1.484375 z M 1.875,-3.609375 C 2.5,-5.828125 3.859375,-6.03125 4.3125,-6.03125 c 0.640625,0 1.0625,0.359375 1.0625,0.90625 0,1.515625 -2.296875,1.515625 -2.890625,1.515625 z m 0,0"
           id="path141" />
      </g>
    </g>
    <g
       fill="#000000"
       fill-opacity="1"
       id="g79"
       transform="translate(0.4375,-0.00899982)">
      <g
         id="use77"
         transform="translate(76.072998,12.911)">
        <path
           d="m 4.578125,-3.1875 c 0,-0.796875 -0.046875,-1.59375 -0.390625,-2.328125 -0.453125,-0.96875 -1.28125,-1.125 -1.6875,-1.125 -0.609375,0 -1.328125,0.265625 -1.75,1.1875 -0.3125,0.6875 -0.359375,1.46875 -0.359375,2.265625 0,0.75 0.03125,1.640625 0.453125,2.40625 0.421875,0.796875 1.15625,1 1.640625,1 0.53125,0 1.296875,-0.203125 1.734375,-1.15625 0.3125,-0.6875 0.359375,-1.46875 0.359375,-2.25 z M 2.484375,0 C 2.09375,0 1.5,-0.25 1.328125,-1.203125 1.21875,-1.796875 1.21875,-2.71875 1.21875,-3.3125 c 0,-0.640625 0,-1.296875 0.078125,-1.828125 0.1875,-1.1875 0.9375,-1.28125 1.1875,-1.28125 0.328125,0 0.984375,0.1875 1.171875,1.171875 0.109375,0.5625 0.109375,1.3125 0.109375,1.9375 0,0.75 0,1.421875 -0.109375,2.0625 C 3.5,-0.296875 2.9375,0 2.484375,0 Z m 0,0"
           id="path145" />
      </g>
    </g>
    <g
       clip-path="url(#clipPath3802)"
       id="g85"
       transform="translate(0.4375,-0.00899982)">
      <g
         fill="#000000"
         fill-opacity="1"
         id="g83">
        <g
           id="use81"
           transform="translate(81.552002,10.759)">
          <path
             d="m 4.65625,3.484375 c 0,-0.046875 0,-0.078125 -0.234375,-0.3125 -1.4375,-1.453125 -2.234375,-3.8125 -2.234375,-6.75 0,-2.78125 0.671875,-5.171875 2.328125,-6.859375 0.140625,-0.140625 0.140625,-0.15625 0.140625,-0.203125 0,-0.09375 -0.0625,-0.109375 -0.125,-0.109375 -0.1875,0 -1.359375,1.03125 -2.0625,2.4375 -0.734375,1.4375 -1.0625,2.984375 -1.0625,4.734375 0,1.28125 0.203125,2.984375 0.953125,4.53125 0.84375,1.71875 2.015625,2.640625 2.171875,2.640625 0.0625,0 0.125,-0.015625 0.125,-0.109375 z m 0,0"
             id="path149" />
        </g>
      </g>
    </g>
    <g
       fill="#000000"
       fill-opacity="1"
       id="g89"
       transform="translate(0.4375,-0.00899982)">
      <g
         id="use87"
         transform="translate(87.014999,10.759)">
        <path
           d="M 5.578125,-5.859375 C 5.140625,-5.78125 4.90625,-5.46875 4.90625,-5.15625 c 0,0.34375 0.265625,0.46875 0.46875,0.46875 0.40625,0 0.734375,-0.34375 0.734375,-0.78125 0,-0.453125 -0.4375,-0.859375 -1.15625,-0.859375 -0.578125,0 -1.234375,0.265625 -1.84375,1.140625 -0.09375,-0.765625 -0.671875,-1.140625 -1.25,-1.140625 -0.546875,0 -0.84375,0.4375 -1.015625,0.75 -0.234375,0.515625 -0.453125,1.375 -0.453125,1.453125 0,0.046875 0.046875,0.125 0.15625,0.125 0.109375,0 0.125,-0.015625 0.21875,-0.34375 0.203125,-0.859375 0.484375,-1.6875 1.0625,-1.6875 0.34375,0 0.4375,0.234375 0.4375,0.65625 0,0.3125 -0.140625,0.875 -0.25,1.3125 L 1.625,-2.515625 c -0.0625,0.28125 -0.21875,0.921875 -0.296875,1.1875 -0.09375,0.359375 -0.25,1.046875 -0.25,1.109375 0,0.203125 0.15625,0.359375 0.375,0.359375 0.15625,0 0.421875,-0.09375 0.515625,-0.390625 0.046875,-0.109375 0.5625,-2.28125 0.65625,-2.609375 0.078125,-0.3125 0.15625,-0.609375 0.234375,-0.921875 0.046875,-0.203125 0.109375,-0.4375 0.15625,-0.625 C 3.0625,-4.53125 3.4375,-5.234375 3.796875,-5.546875 3.96875,-5.703125 4.34375,-6.03125 4.9375,-6.03125 c 0.21875,0 0.453125,0.03125 0.640625,0.171875 z m 0,0"
           id="path153" />
      </g>
    </g>
    <g
       clip-path="url(#clipPath7485)"
       id="g95"
       transform="translate(0.4375,-0.00899982)">
      <g
         fill="#000000"
         fill-opacity="1"
         id="g93">
        <g
           id="use91"
           transform="translate(93.735001,10.759)">
          <path
             d="M 4.046875,-3.578125 C 4.046875,-4.65625 3.90625,-6.4375 3.09375,-8.109375 2.25,-9.828125 1.078125,-10.75 0.921875,-10.75 c -0.0625,0 -0.140625,0.01563 -0.140625,0.109375 0,0.04687 0,0.0625 0.25,0.3125 1.4375,1.453125 2.234375,3.8125 2.234375,6.75 0,2.78125 -0.671875,5.171875 -2.328125,6.859375 -0.15625,0.125 -0.15625,0.15625 -0.15625,0.203125 0,0.09375 0.078125,0.109375 0.140625,0.109375 0.1875,0 1.359375,-1.03125 2.0625,-2.4375 0.734375,-1.453125 1.0625,-3 1.0625,-4.734375 z m 0,0"
             id="path651" />
        </g>
      </g>
    </g>
  </g>
  <g
     inkscape:label=""
     transform="translate(202.1559,73.823911)"
     id="g1202">
    <g
       fill="#000000"
       fill-opacity="1"
       id="g1132"
       transform="translate(0.4375,-0.00899982)">
      <g
         id="g1122"
         transform="translate(0,10.759)">
        <path
           d="M 0.609375,1.828125 C 0.515625,2.25 0.453125,2.359375 -0.125,2.359375 c -0.171875,0 -0.3125,0 -0.3125,0.28125 0,0.03125 0,0.140625 0.171875,0.140625 0.171875,0 0.375,-0.03125 0.5625,-0.03125 h 0.625 c 0.296875,0 1.03125,0.03125 1.328125,0.03125 0.09375,0 0.265625,0 0.265625,-0.25 0,-0.171875 -0.109375,-0.171875 -0.34375,-0.171875 C 1.5,2.359375 1.46875,2.265625 1.46875,2.15625 c 0,-0.171875 0.640625,-2.640625 0.71875,-2.96875 0.171875,0.390625 0.546875,0.953125 1.296875,0.953125 1.625,0 3.375,-2.109375 3.375,-4.21875 0,-1.3125 -0.75,-2.25 -1.828125,-2.25 -0.921875,0 -1.6875,0.890625 -1.84375,1.09375 -0.125,-0.71875 -0.671875,-1.09375 -1.25,-1.09375 -0.421875,0 -0.75,0.203125 -1.015625,0.75 C 0.65625,-5.0625 0.453125,-4.1875 0.453125,-4.125 c 0,0.046875 0.0625,0.125 0.15625,0.125 0.125,0 0.140625,-0.015625 0.21875,-0.34375 0.21875,-0.84375 0.484375,-1.6875 1.0625,-1.6875 0.328125,0 0.453125,0.21875 0.453125,0.65625 0,0.34375 -0.046875,0.484375 -0.109375,0.734375 z M 3.09375,-4.46875 C 3.203125,-4.875 3.59375,-5.296875 3.828125,-5.5 3.984375,-5.640625 4.453125,-6.03125 5,-6.03125 c 0.640625,0 0.921875,0.625 0.921875,1.375 0,0.6875 -0.40625,2.296875 -0.765625,3.046875 -0.34375,0.78125 -1.015625,1.46875 -1.671875,1.46875 -0.96875,0 -1.125,-1.234375 -1.125,-1.296875 0,-0.046875 0.015625,-0.15625 0.03125,-0.21875 z m 0,0"
           id="path1120" />
      </g>
      <g
         id="g1126"
         transform="translate(7.0497231,10.759)">
        <path
           d="m 2.5625,-3.328125 c 0.390625,0 1.375,-0.03125 2.0625,-0.28125 1.078125,-0.421875 1.1875,-1.25 1.1875,-1.515625 0,-0.625 -0.546875,-1.203125 -1.5,-1.203125 -1.5,0 -3.671875,1.359375 -3.671875,3.921875 0,1.5 0.859375,2.546875 2.171875,2.546875 C 4.765625,0.140625 6,-1.375 6,-1.5625 6,-1.65625 5.90625,-1.71875 5.859375,-1.71875 c -0.046875,0 -0.0625,0.015625 -0.1875,0.140625 -0.921875,1.21875 -2.28125,1.4375 -2.828125,1.4375 -0.828125,0 -1.25,-0.640625 -1.25,-1.703125 0,-0.203125 0,-0.5625 0.21875,-1.484375 z M 1.875,-3.609375 C 2.5,-5.828125 3.859375,-6.03125 4.3125,-6.03125 c 0.640625,0 1.0625,0.359375 1.0625,0.90625 0,1.515625 -2.296875,1.515625 -2.890625,1.515625 z m 0,0"
           id="path1124" />
      </g>
      <g
         id="g1130"
         transform="translate(13.560028,10.759)">
        <path
           d="M 5.578125,-5.859375 C 5.140625,-5.78125 4.90625,-5.46875 4.90625,-5.15625 c 0,0.34375 0.265625,0.46875 0.46875,0.46875 0.40625,0 0.734375,-0.34375 0.734375,-0.78125 0,-0.453125 -0.4375,-0.859375 -1.15625,-0.859375 -0.578125,0 -1.234375,0.265625 -1.84375,1.140625 -0.09375,-0.765625 -0.671875,-1.140625 -1.25,-1.140625 -0.546875,0 -0.84375,0.4375 -1.015625,0.75 -0.234375,0.515625 -0.453125,1.375 -0.453125,1.453125 0,0.046875 0.046875,0.125 0.15625,0.125 0.109375,0 0.125,-0.015625 0.21875,-0.34375 0.203125,-0.859375 0.484375,-1.6875 1.0625,-1.6875 0.34375,0 0.4375,0.234375 0.4375,0.65625 0,0.3125 -0.140625,0.875 -0.25,1.3125 L 1.625,-2.515625 c -0.0625,0.28125 -0.21875,0.921875 -0.296875,1.1875 -0.09375,0.359375 -0.25,1.046875 -0.25,1.109375 0,0.203125 0.15625,0.359375 0.375,0.359375 0.15625,0 0.421875,-0.09375 0.515625,-0.390625 0.046875,-0.109375 0.5625,-2.28125 0.65625,-2.609375 0.078125,-0.3125 0.15625,-0.609375 0.234375,-0.921875 0.046875,-0.203125 0.109375,-0.4375 0.15625,-0.625 C 3.0625,-4.53125 3.4375,-5.234375 3.796875,-5.546875 3.96875,-5.703125 4.34375,-6.03125 4.9375,-6.03125 c 0.21875,0 0.453125,0.03125 0.640625,0.171875 z m 0,0"
           id="path1128" />
      </g>
    </g>
    <g
       fill="#000000"
       fill-opacity="1"
       id="g1138"
       transform="translate(0.4375,-0.00899982)">
      <g
         id="g1136"
         transform="translate(20.278355,10.759)">
        <path
           d="M 3.640625,-9.59375 C 3.65625,-9.65625 3.6875,-9.734375 3.6875,-9.8125 c 0,-0.140625 -0.140625,-0.140625 -0.171875,-0.140625 -0.015625,0 -0.53125,0.046875 -0.796875,0.0625 C 2.484375,-9.875 2.265625,-9.84375 2.015625,-9.828125 1.65625,-9.796875 1.5625,-9.78125 1.5625,-9.53125 c 0,0.15625 0.140625,0.15625 0.28125,0.15625 0.734375,0 0.734375,0.125 0.734375,0.265625 0,0.0625 0,0.09375 -0.0625,0.34375 L 0.734375,-1.65625 C 0.6875,-1.484375 0.65625,-1.375 0.65625,-1.140625 c 0,0.703125 0.53125,1.28125 1.265625,1.28125 0.46875,0 0.796875,-0.3125 1.015625,-0.75 0.25,-0.484375 0.453125,-1.390625 0.453125,-1.4375 0,-0.078125 -0.0625,-0.140625 -0.15625,-0.140625 -0.125,0 -0.140625,0.078125 -0.1875,0.296875 -0.265625,0.984375 -0.515625,1.75 -1.09375,1.75 -0.4375,0 -0.4375,-0.46875 -0.4375,-0.65625 0,-0.0625 0,-0.359375 0.109375,-0.765625 z m 0,0"
           id="path1134" />
      </g>
    </g>
    <g
       fill="#000000"
       fill-opacity="1"
       id="g1148"
       transform="translate(0.4375,-0.00899982)">
      <g
         id="g1142"
         transform="translate(24.778757,10.759)">
        <path
           d="M 4.0625,-2.046875 C 4.0625,-2.125 4,-2.1875 3.921875,-2.1875 c -0.140625,0 -0.15625,0.046875 -0.21875,0.296875 -0.375,1.296875 -0.96875,1.75 -1.4375,1.75 -0.171875,0 -0.375,-0.046875 -0.375,-0.46875 0,-0.390625 0.171875,-0.828125 0.328125,-1.25 L 3.234375,-4.53125 C 3.265625,-4.640625 3.375,-4.90625 3.375,-5.171875 c 0,-0.609375 -0.4375,-1.15625 -1.140625,-1.15625 -1.3125,0 -1.84375,2.078125 -1.84375,2.203125 0,0.046875 0.046875,0.125 0.15625,0.125 C 0.671875,-4 0.6875,-4.0625 0.75,-4.265625 1.09375,-5.46875 1.640625,-6.03125 2.1875,-6.03125 c 0.140625,0 0.375,0 0.375,0.46875 0,0.375 -0.1875,0.84375 -0.296875,1.15625 l -1,2.671875 C 1.171875,-1.5 1.09375,-1.28125 1.09375,-1.015625 c 0,0.640625 0.4375,1.15625 1.125,1.15625 1.328125,0 1.84375,-2.09375 1.84375,-2.1875 z m -0.125,-6.90625 c 0,-0.21875 -0.171875,-0.46875 -0.484375,-0.46875 -0.328125,0 -0.703125,0.3125 -0.703125,0.6875 0,0.359375 0.3125,0.46875 0.484375,0.46875 0.375,0 0.703125,-0.375 0.703125,-0.6875 z m 0,0"
           id="path1140" />
      </g>
      <g
         id="g1146"
         transform="translate(29.570387,10.759)">
        <path
           d="M 2.953125,-4.203125 C 2.984375,-4.28125 3.34375,-5 3.875,-5.46875 c 0.375,-0.34375 0.859375,-0.5625 1.421875,-0.5625 0.5625,0 0.765625,0.421875 0.765625,1 0,0.8125 -0.578125,2.453125 -0.875,3.21875 -0.125,0.34375 -0.203125,0.53125 -0.203125,0.796875 0,0.640625 0.453125,1.15625 1.140625,1.15625 1.328125,0 1.828125,-2.109375 1.828125,-2.1875 C 7.953125,-2.125 7.90625,-2.1875 7.8125,-2.1875 c -0.125,0 -0.140625,0.046875 -0.203125,0.296875 -0.34375,1.171875 -0.875,1.75 -1.4375,1.75 -0.140625,0 -0.375,-0.015625 -0.375,-0.46875 0,-0.359375 0.15625,-0.796875 0.234375,-1 C 6.328125,-2.390625 6.921875,-4 6.921875,-4.8125 c 0,-0.875 -0.5,-1.515625 -1.59375,-1.515625 -1.265625,0 -1.9375,0.90625 -2.203125,1.265625 C 3.078125,-5.875 2.5,-6.328125 1.859375,-6.328125 c -0.453125,0 -0.765625,0.28125 -1.015625,0.765625 -0.25,0.515625 -0.453125,1.375 -0.453125,1.4375 0,0.046875 0.046875,0.125 0.15625,0.125 0.109375,0 0.125,-0.015625 0.21875,-0.34375 0.21875,-0.875 0.484375,-1.6875 1.0625,-1.6875 0.328125,0 0.4375,0.21875 0.4375,0.65625 0,0.3125 -0.140625,0.875 -0.25,1.3125 L 1.625,-2.515625 c -0.0625,0.28125 -0.21875,0.921875 -0.296875,1.1875 -0.09375,0.359375 -0.25,1.046875 -0.25,1.109375 0,0.203125 0.15625,0.359375 0.375,0.359375 0.171875,0 0.375,-0.078125 0.484375,-0.296875 0.03125,-0.078125 0.15625,-0.578125 0.234375,-0.859375 l 0.3125,-1.296875 z m 0,0"
           id="path1144" />
      </g>
    </g>
    <path
       fill="none"
       stroke-width="0.398"
       stroke-linecap="butt"
       stroke-linejoin="miter"
       stroke="#000000"
       stroke-opacity="1"
       stroke-miterlimit="10"
       d="m 39.238281,10.549594 h 4.214844"
       id="path1150" />
    <g
       fill="#000000"
       fill-opacity="1"
       id="g1172"
       transform="translate(0.4375,-0.00899982)">
      <g
         id="g1154"
         transform="translate(43.014999,10.759)">
        <path
           d="M 2.953125,-4.203125 C 2.984375,-4.28125 3.34375,-5 3.875,-5.46875 c 0.375,-0.34375 0.859375,-0.5625 1.421875,-0.5625 0.5625,0 0.765625,0.421875 0.765625,1 0,0.8125 -0.578125,2.453125 -0.875,3.21875 -0.125,0.34375 -0.203125,0.53125 -0.203125,0.796875 0,0.640625 0.453125,1.15625 1.140625,1.15625 1.328125,0 1.828125,-2.109375 1.828125,-2.1875 C 7.953125,-2.125 7.90625,-2.1875 7.8125,-2.1875 c -0.125,0 -0.140625,0.046875 -0.203125,0.296875 -0.34375,1.171875 -0.875,1.75 -1.4375,1.75 -0.140625,0 -0.375,-0.015625 -0.375,-0.46875 0,-0.359375 0.15625,-0.796875 0.234375,-1 C 6.328125,-2.390625 6.921875,-4 6.921875,-4.8125 c 0,-0.875 -0.5,-1.515625 -1.59375,-1.515625 -1.265625,0 -1.9375,0.90625 -2.203125,1.265625 C 3.078125,-5.875 2.5,-6.328125 1.859375,-6.328125 c -0.453125,0 -0.765625,0.28125 -1.015625,0.765625 -0.25,0.515625 -0.453125,1.375 -0.453125,1.4375 0,0.046875 0.046875,0.125 0.15625,0.125 0.109375,0 0.125,-0.015625 0.21875,-0.34375 0.21875,-0.875 0.484375,-1.6875 1.0625,-1.6875 0.328125,0 0.4375,0.21875 0.4375,0.65625 0,0.3125 -0.140625,0.875 -0.25,1.3125 L 1.625,-2.515625 c -0.0625,0.28125 -0.21875,0.921875 -0.296875,1.1875 -0.09375,0.359375 -0.25,1.046875 -0.25,1.109375 0,0.203125 0.15625,0.359375 0.375,0.359375 0.171875,0 0.375,-0.078125 0.484375,-0.296875 0.03125,-0.078125 0.15625,-0.578125 0.234375,-0.859375 l 0.3125,-1.296875 z m 0,0"
           id="path1152" />
      </g>
      <g
         id="g1158"
         transform="translate(51.400352,10.759)">
        <path
           d="m 6.546875,-3.9375 c 0,-1.375 -0.890625,-2.390625 -2.203125,-2.390625 -1.890625,0 -3.75,2.0625 -3.75,4.09375 0,1.359375 0.890625,2.375 2.1875,2.375 1.90625,0 3.765625,-2.0625 3.765625,-4.078125 z m -3.75,3.796875 c -0.71875,0 -1.25,-0.578125 -1.25,-1.578125 0,-0.65625 0.34375,-2.125 0.75,-2.84375 C 2.9375,-5.671875 3.75,-6.03125 4.328125,-6.03125 c 0.703125,0 1.25,0.5625 1.25,1.578125 0,0.5625 -0.296875,2.09375 -0.84375,2.96875 -0.59375,0.96875 -1.375,1.34375 -1.9375,1.34375 z m 0,0"
           id="path1156" />
      </g>
      <g
         id="g1162"
         transform="translate(58.153111,10.759)">
        <path
           d="M 4.0625,-2.046875 C 4.0625,-2.125 4,-2.1875 3.921875,-2.1875 c -0.140625,0 -0.15625,0.046875 -0.21875,0.296875 -0.375,1.296875 -0.96875,1.75 -1.4375,1.75 -0.171875,0 -0.375,-0.046875 -0.375,-0.46875 0,-0.390625 0.171875,-0.828125 0.328125,-1.25 L 3.234375,-4.53125 C 3.265625,-4.640625 3.375,-4.90625 3.375,-5.171875 c 0,-0.609375 -0.4375,-1.15625 -1.140625,-1.15625 -1.3125,0 -1.84375,2.078125 -1.84375,2.203125 0,0.046875 0.046875,0.125 0.15625,0.125 C 0.671875,-4 0.6875,-4.0625 0.75,-4.265625 1.09375,-5.46875 1.640625,-6.03125 2.1875,-6.03125 c 0.140625,0 0.375,0 0.375,0.46875 0,0.375 -0.1875,0.84375 -0.296875,1.15625 l -1,2.671875 C 1.171875,-1.5 1.09375,-1.28125 1.09375,-1.015625 c 0,0.640625 0.4375,1.15625 1.125,1.15625 1.328125,0 1.84375,-2.09375 1.84375,-2.1875 z m -0.125,-6.90625 c 0,-0.21875 -0.171875,-0.46875 -0.484375,-0.46875 -0.328125,0 -0.703125,0.3125 -0.703125,0.6875 0,0.359375 0.3125,0.46875 0.484375,0.46875 0.375,0 0.703125,-0.375 0.703125,-0.6875 z m 0,0"
           id="path1160" />
      </g>
      <g
         id="g1166"
         transform="translate(62.94474,10.759)">
        <path
           d="m 3.265625,-2.875 c 0.25,0.046875 0.640625,0.140625 0.71875,0.15625 0.1875,0.046875 0.828125,0.28125 0.828125,0.96875 0,0.4375 -0.390625,1.609375 -2.0625,1.609375 -0.296875,0 -1.375,-0.046875 -1.65625,-0.828125 0.5625,0.0625 0.859375,-0.375 0.859375,-0.6875 0,-0.3125 -0.203125,-0.46875 -0.484375,-0.46875 -0.328125,0 -0.734375,0.25 -0.734375,0.890625 0,0.84375 0.859375,1.375 2,1.375 2.1875,0 2.828125,-1.609375 2.828125,-2.34375 0,-0.21875 0,-0.625 -0.453125,-1.078125 C 4.75,-3.625 4.40625,-3.703125 3.625,-3.859375 c -0.390625,-0.078125 -1,-0.21875 -1,-0.859375 0,-0.28125 0.265625,-1.3125 1.625,-1.3125 0.59375,0 1.1875,0.21875 1.328125,0.734375 -0.625,0 -0.65625,0.546875 -0.65625,0.5625 0,0.296875 0.265625,0.390625 0.40625,0.390625 0.1875,0 0.59375,-0.15625 0.59375,-0.765625 0,-0.59375 -0.546875,-1.21875 -1.65625,-1.21875 -1.890625,0 -2.390625,1.484375 -2.390625,2.0625 0,1.09375 1.0625,1.328125 1.390625,1.390625 z m 0,0"
           id="path1164" />
      </g>
      <g
         id="g1170"
         transform="translate(69.561211,10.759)">
        <path
           d="m 2.5625,-3.328125 c 0.390625,0 1.375,-0.03125 2.0625,-0.28125 1.078125,-0.421875 1.1875,-1.25 1.1875,-1.515625 0,-0.625 -0.546875,-1.203125 -1.5,-1.203125 -1.5,0 -3.671875,1.359375 -3.671875,3.921875 0,1.5 0.859375,2.546875 2.171875,2.546875 C 4.765625,0.140625 6,-1.375 6,-1.5625 6,-1.65625 5.90625,-1.71875 5.859375,-1.71875 c -0.046875,0 -0.0625,0.015625 -0.1875,0.140625 -0.921875,1.21875 -2.28125,1.4375 -2.828125,1.4375 -0.828125,0 -1.25,-0.640625 -1.25,-1.703125 0,-0.203125 0,-0.5625 0.21875,-1.484375 z M 1.875,-3.609375 C 2.5,-5.828125 3.859375,-6.03125 4.3125,-6.03125 c 0.640625,0 1.0625,0.359375 1.0625,0.90625 0,1.515625 -2.296875,1.515625 -2.890625,1.515625 z m 0,0"
           id="path1168" />
      </g>
    </g>
    <g
       fill="#000000"
       fill-opacity="1"
       id="g1178"
       transform="translate(0.4375,-0.00899982)">
      <g
         id="g1176"
         transform="translate(76.072998,12.911)">
        <path
           d="m 2.9375,-6.375 c 0,-0.25 0,-0.265625 -0.234375,-0.265625 C 2.078125,-6 1.203125,-6 0.890625,-6 v 0.3125 c 0.203125,0 0.78125,0 1.296875,-0.265625 v 5.171875 c 0,0.359375 -0.03125,0.46875 -0.921875,0.46875 h -0.3125 V 0 c 0.34375,-0.03125 1.203125,-0.03125 1.609375,-0.03125 0.390625,0 1.265625,0 1.609375,0.03125 v -0.3125 h -0.3125 c -0.90625,0 -0.921875,-0.109375 -0.921875,-0.46875 z m 0,0"
           id="path1174" />
      </g>
    </g>
    <g
       clip-path="url(#clipPath5228)"
       id="g1186"
       transform="translate(0.4375,-0.00899982)">
      <g
         fill="#000000"
         fill-opacity="1"
         id="g1184">
        <g
           id="g1182"
           transform="translate(81.552002,10.759)">
          <path
             d="m 4.65625,3.484375 c 0,-0.046875 0,-0.078125 -0.234375,-0.3125 -1.4375,-1.453125 -2.234375,-3.8125 -2.234375,-6.75 0,-2.78125 0.671875,-5.171875 2.328125,-6.859375 0.140625,-0.140625 0.140625,-0.15625 0.140625,-0.203125 0,-0.09375 -0.0625,-0.109375 -0.125,-0.109375 -0.1875,0 -1.359375,1.03125 -2.0625,2.4375 -0.734375,1.4375 -1.0625,2.984375 -1.0625,4.734375 0,1.28125 0.203125,2.984375 0.953125,4.53125 0.84375,1.71875 2.015625,2.640625 2.171875,2.640625 0.0625,0 0.125,-0.015625 0.125,-0.109375 z m 0,0"
             id="path1180" />
        </g>
      </g>
    </g>
    <g
       fill="#000000"
       fill-opacity="1"
       id="g1192"
       transform="translate(0.4375,-0.00899982)">
      <g
         id="g1190"
         transform="translate(87.014999,10.759)">
        <path
           d="M 5.578125,-5.859375 C 5.140625,-5.78125 4.90625,-5.46875 4.90625,-5.15625 c 0,0.34375 0.265625,0.46875 0.46875,0.46875 0.40625,0 0.734375,-0.34375 0.734375,-0.78125 0,-0.453125 -0.4375,-0.859375 -1.15625,-0.859375 -0.578125,0 -1.234375,0.265625 -1.84375,1.140625 -0.09375,-0.765625 -0.671875,-1.140625 -1.25,-1.140625 -0.546875,0 -0.84375,0.4375 -1.015625,0.75 -0.234375,0.515625 -0.453125,1.375 -0.453125,1.453125 0,0.046875 0.046875,0.125 0.15625,0.125 0.109375,0 0.125,-0.015625 0.21875,-0.34375 0.203125,-0.859375 0.484375,-1.6875 1.0625,-1.6875 0.34375,0 0.4375,0.234375 0.4375,0.65625 0,0.3125 -0.140625,0.875 -0.25,1.3125 L 1.625,-2.515625 c -0.0625,0.28125 -0.21875,0.921875 -0.296875,1.1875 -0.09375,0.359375 -0.25,1.046875 -0.25,1.109375 0,0.203125 0.15625,0.359375 0.375,0.359375 0.15625,0 0.421875,-0.09375 0.515625,-0.390625 0.046875,-0.109375 0.5625,-2.28125 0.65625,-2.609375 0.078125,-0.3125 0.15625,-0.609375 0.234375,-0.921875 0.046875,-0.203125 0.109375,-0.4375 0.15625,-0.625 C 3.0625,-4.53125 3.4375,-5.234375 3.796875,-5.546875 3.96875,-5.703125 4.34375,-6.03125 4.9375,-6.03125 c 0.21875,0 0.453125,0.03125 0.640625,0.171875 z m 0,0"
           id="path1188" />
      </g>
    </g>
    <g
       clip-path="url(#clipPath4500)"
       id="g1200"
       transform="translate(0.4375,-0.00899982)">
      <g
         fill="#000000"
         fill-opacity="1"
         id="g1198">
        <g
           id="g1196"
           transform="translate(93.735001,10.759)">
          <path
             d="M 4.046875,-3.578125 C 4.046875,-4.65625 3.90625,-6.4375 3.09375,-8.109375 2.25,-9.828125 1.078125,-10.75 0.921875,-10.75 c -0.0625,0 -0.140625,0.01563 -0.140625,0.109375 0,0.04687 0,0.0625 0.25,0.3125 1.4375,1.453125 2.234375,3.8125 2.234375,6.75 0,2.78125 -0.671875,5.171875 -2.328125,6.859375 -0.15625,0.125 -0.15625,0.15625 -0.15625,0.203125 0,0.09375 0.078125,0.109375 0.140625,0.109375 0.1875,0 1.359375,-1.03125 2.0625,-2.4375 0.734375,-1.453125 1.0625,-3 1.0625,-4.734375 z m 0,0"
             id="path1194" />
        </g>
      </g>
    </g>
  </g>
  <g
     inkscape:label=""
     transform="translate(324.67703,130.71343)"
     id="g1786">
    <g
       fill="#000000"
       fill-opacity="1"
       id="g1716"
       transform="translate(0.4375,-0.00899982)">
      <g
         id="g1706"
         transform="translate(0,10.759)">
        <path
           d="M 0.609375,1.828125 C 0.515625,2.25 0.453125,2.359375 -0.125,2.359375 c -0.171875,0 -0.3125,0 -0.3125,0.28125 0,0.03125 0,0.140625 0.171875,0.140625 0.171875,0 0.375,-0.03125 0.5625,-0.03125 h 0.625 c 0.296875,0 1.03125,0.03125 1.328125,0.03125 0.09375,0 0.265625,0 0.265625,-0.25 0,-0.171875 -0.109375,-0.171875 -0.34375,-0.171875 C 1.5,2.359375 1.46875,2.265625 1.46875,2.15625 c 0,-0.171875 0.640625,-2.640625 0.71875,-2.96875 0.171875,0.390625 0.546875,0.953125 1.296875,0.953125 1.625,0 3.375,-2.109375 3.375,-4.21875 0,-1.3125 -0.75,-2.25 -1.828125,-2.25 -0.921875,0 -1.6875,0.890625 -1.84375,1.09375 -0.125,-0.71875 -0.671875,-1.09375 -1.25,-1.09375 -0.421875,0 -0.75,0.203125 -1.015625,0.75 C 0.65625,-5.0625 0.453125,-4.1875 0.453125,-4.125 c 0,0.046875 0.0625,0.125 0.15625,0.125 0.125,0 0.140625,-0.015625 0.21875,-0.34375 0.21875,-0.84375 0.484375,-1.6875 1.0625,-1.6875 0.328125,0 0.453125,0.21875 0.453125,0.65625 0,0.34375 -0.046875,0.484375 -0.109375,0.734375 z M 3.09375,-4.46875 C 3.203125,-4.875 3.59375,-5.296875 3.828125,-5.5 3.984375,-5.640625 4.453125,-6.03125 5,-6.03125 c 0.640625,0 0.921875,0.625 0.921875,1.375 0,0.6875 -0.40625,2.296875 -0.765625,3.046875 -0.34375,0.78125 -1.015625,1.46875 -1.671875,1.46875 -0.96875,0 -1.125,-1.234375 -1.125,-1.296875 0,-0.046875 0.015625,-0.15625 0.03125,-0.21875 z m 0,0"
           id="path1704" />
      </g>
      <g
         id="g1710"
         transform="translate(7.0497231,10.759)">
        <path
           d="m 2.5625,-3.328125 c 0.390625,0 1.375,-0.03125 2.0625,-0.28125 1.078125,-0.421875 1.1875,-1.25 1.1875,-1.515625 0,-0.625 -0.546875,-1.203125 -1.5,-1.203125 -1.5,0 -3.671875,1.359375 -3.671875,3.921875 0,1.5 0.859375,2.546875 2.171875,2.546875 C 4.765625,0.140625 6,-1.375 6,-1.5625 6,-1.65625 5.90625,-1.71875 5.859375,-1.71875 c -0.046875,0 -0.0625,0.015625 -0.1875,0.140625 -0.921875,1.21875 -2.28125,1.4375 -2.828125,1.4375 -0.828125,0 -1.25,-0.640625 -1.25,-1.703125 0,-0.203125 0,-0.5625 0.21875,-1.484375 z M 1.875,-3.609375 C 2.5,-5.828125 3.859375,-6.03125 4.3125,-6.03125 c 0.640625,0 1.0625,0.359375 1.0625,0.90625 0,1.515625 -2.296875,1.515625 -2.890625,1.515625 z m 0,0"
           id="path1708" />
      </g>
      <g
         id="g1714"
         transform="translate(13.560028,10.759)">
        <path
           d="M 5.578125,-5.859375 C 5.140625,-5.78125 4.90625,-5.46875 4.90625,-5.15625 c 0,0.34375 0.265625,0.46875 0.46875,0.46875 0.40625,0 0.734375,-0.34375 0.734375,-0.78125 0,-0.453125 -0.4375,-0.859375 -1.15625,-0.859375 -0.578125,0 -1.234375,0.265625 -1.84375,1.140625 -0.09375,-0.765625 -0.671875,-1.140625 -1.25,-1.140625 -0.546875,0 -0.84375,0.4375 -1.015625,0.75 -0.234375,0.515625 -0.453125,1.375 -0.453125,1.453125 0,0.046875 0.046875,0.125 0.15625,0.125 0.109375,0 0.125,-0.015625 0.21875,-0.34375 0.203125,-0.859375 0.484375,-1.6875 1.0625,-1.6875 0.34375,0 0.4375,0.234375 0.4375,0.65625 0,0.3125 -0.140625,0.875 -0.25,1.3125 L 1.625,-2.515625 c -0.0625,0.28125 -0.21875,0.921875 -0.296875,1.1875 -0.09375,0.359375 -0.25,1.046875 -0.25,1.109375 0,0.203125 0.15625,0.359375 0.375,0.359375 0.15625,0 0.421875,-0.09375 0.515625,-0.390625 0.046875,-0.109375 0.5625,-2.28125 0.65625,-2.609375 0.078125,-0.3125 0.15625,-0.609375 0.234375,-0.921875 0.046875,-0.203125 0.109375,-0.4375 0.15625,-0.625 C 3.0625,-4.53125 3.4375,-5.234375 3.796875,-5.546875 3.96875,-5.703125 4.34375,-6.03125 4.9375,-6.03125 c 0.21875,0 0.453125,0.03125 0.640625,0.171875 z m 0,0"
           id="path1712" />
      </g>
    </g>
    <g
       fill="#000000"
       fill-opacity="1"
       id="g1722"
       transform="translate(0.4375,-0.00899982)">
      <g
         id="g1720"
         transform="translate(20.278355,10.759)">
        <path
           d="M 3.640625,-9.59375 C 3.65625,-9.65625 3.6875,-9.734375 3.6875,-9.8125 c 0,-0.140625 -0.140625,-0.140625 -0.171875,-0.140625 -0.015625,0 -0.53125,0.046875 -0.796875,0.0625 C 2.484375,-9.875 2.265625,-9.84375 2.015625,-9.828125 1.65625,-9.796875 1.5625,-9.78125 1.5625,-9.53125 c 0,0.15625 0.140625,0.15625 0.28125,0.15625 0.734375,0 0.734375,0.125 0.734375,0.265625 0,0.0625 0,0.09375 -0.0625,0.34375 L 0.734375,-1.65625 C 0.6875,-1.484375 0.65625,-1.375 0.65625,-1.140625 c 0,0.703125 0.53125,1.28125 1.265625,1.28125 0.46875,0 0.796875,-0.3125 1.015625,-0.75 0.25,-0.484375 0.453125,-1.390625 0.453125,-1.4375 0,-0.078125 -0.0625,-0.140625 -0.15625,-0.140625 -0.125,0 -0.140625,0.078125 -0.1875,0.296875 -0.265625,0.984375 -0.515625,1.75 -1.09375,1.75 -0.4375,0 -0.4375,-0.46875 -0.4375,-0.65625 0,-0.0625 0,-0.359375 0.109375,-0.765625 z m 0,0"
           id="path1718" />
      </g>
    </g>
    <g
       fill="#000000"
       fill-opacity="1"
       id="g1732"
       transform="translate(0.4375,-0.00899982)">
      <g
         id="g1726"
         transform="translate(24.778757,10.759)">
        <path
           d="M 4.0625,-2.046875 C 4.0625,-2.125 4,-2.1875 3.921875,-2.1875 c -0.140625,0 -0.15625,0.046875 -0.21875,0.296875 -0.375,1.296875 -0.96875,1.75 -1.4375,1.75 -0.171875,0 -0.375,-0.046875 -0.375,-0.46875 0,-0.390625 0.171875,-0.828125 0.328125,-1.25 L 3.234375,-4.53125 C 3.265625,-4.640625 3.375,-4.90625 3.375,-5.171875 c 0,-0.609375 -0.4375,-1.15625 -1.140625,-1.15625 -1.3125,0 -1.84375,2.078125 -1.84375,2.203125 0,0.046875 0.046875,0.125 0.15625,0.125 C 0.671875,-4 0.6875,-4.0625 0.75,-4.265625 1.09375,-5.46875 1.640625,-6.03125 2.1875,-6.03125 c 0.140625,0 0.375,0 0.375,0.46875 0,0.375 -0.1875,0.84375 -0.296875,1.15625 l -1,2.671875 C 1.171875,-1.5 1.09375,-1.28125 1.09375,-1.015625 c 0,0.640625 0.4375,1.15625 1.125,1.15625 1.328125,0 1.84375,-2.09375 1.84375,-2.1875 z m -0.125,-6.90625 c 0,-0.21875 -0.171875,-0.46875 -0.484375,-0.46875 -0.328125,0 -0.703125,0.3125 -0.703125,0.6875 0,0.359375 0.3125,0.46875 0.484375,0.46875 0.375,0 0.703125,-0.375 0.703125,-0.6875 z m 0,0"
           id="path1724" />
      </g>
      <g
         id="g1730"
         transform="translate(29.570387,10.759)">
        <path
           d="M 2.953125,-4.203125 C 2.984375,-4.28125 3.34375,-5 3.875,-5.46875 c 0.375,-0.34375 0.859375,-0.5625 1.421875,-0.5625 0.5625,0 0.765625,0.421875 0.765625,1 0,0.8125 -0.578125,2.453125 -0.875,3.21875 -0.125,0.34375 -0.203125,0.53125 -0.203125,0.796875 0,0.640625 0.453125,1.15625 1.140625,1.15625 1.328125,0 1.828125,-2.109375 1.828125,-2.1875 C 7.953125,-2.125 7.90625,-2.1875 7.8125,-2.1875 c -0.125,0 -0.140625,0.046875 -0.203125,0.296875 -0.34375,1.171875 -0.875,1.75 -1.4375,1.75 -0.140625,0 -0.375,-0.015625 -0.375,-0.46875 0,-0.359375 0.15625,-0.796875 0.234375,-1 C 6.328125,-2.390625 6.921875,-4 6.921875,-4.8125 c 0,-0.875 -0.5,-1.515625 -1.59375,-1.515625 -1.265625,0 -1.9375,0.90625 -2.203125,1.265625 C 3.078125,-5.875 2.5,-6.328125 1.859375,-6.328125 c -0.453125,0 -0.765625,0.28125 -1.015625,0.765625 -0.25,0.515625 -0.453125,1.375 -0.453125,1.4375 0,0.046875 0.046875,0.125 0.15625,0.125 0.109375,0 0.125,-0.015625 0.21875,-0.34375 0.21875,-0.875 0.484375,-1.6875 1.0625,-1.6875 0.328125,0 0.4375,0.21875 0.4375,0.65625 0,0.3125 -0.140625,0.875 -0.25,1.3125 L 1.625,-2.515625 c -0.0625,0.28125 -0.21875,0.921875 -0.296875,1.1875 -0.09375,0.359375 -0.25,1.046875 -0.25,1.109375 0,0.203125 0.15625,0.359375 0.375,0.359375 0.171875,0 0.375,-0.078125 0.484375,-0.296875 0.03125,-0.078125 0.15625,-0.578125 0.234375,-0.859375 l 0.3125,-1.296875 z m 0,0"
           id="path1728" />
      </g>
    </g>
    <path
       fill="none"
       stroke-width="0.398"
       stroke-linecap="butt"
       stroke-linejoin="miter"
       stroke="#000000"
       stroke-opacity="1"
       stroke-miterlimit="10"
       d="m 39.238281,10.549594 h 4.214844"
       id="path1734" />
    <g
       fill="#000000"
       fill-opacity="1"
       id="g1756"
       transform="translate(0.4375,-0.00899982)">
      <g
         id="g1738"
         transform="translate(43.014999,10.759)">
        <path
           d="M 2.953125,-4.203125 C 2.984375,-4.28125 3.34375,-5 3.875,-5.46875 c 0.375,-0.34375 0.859375,-0.5625 1.421875,-0.5625 0.5625,0 0.765625,0.421875 0.765625,1 0,0.8125 -0.578125,2.453125 -0.875,3.21875 -0.125,0.34375 -0.203125,0.53125 -0.203125,0.796875 0,0.640625 0.453125,1.15625 1.140625,1.15625 1.328125,0 1.828125,-2.109375 1.828125,-2.1875 C 7.953125,-2.125 7.90625,-2.1875 7.8125,-2.1875 c -0.125,0 -0.140625,0.046875 -0.203125,0.296875 -0.34375,1.171875 -0.875,1.75 -1.4375,1.75 -0.140625,0 -0.375,-0.015625 -0.375,-0.46875 0,-0.359375 0.15625,-0.796875 0.234375,-1 C 6.328125,-2.390625 6.921875,-4 6.921875,-4.8125 c 0,-0.875 -0.5,-1.515625 -1.59375,-1.515625 -1.265625,0 -1.9375,0.90625 -2.203125,1.265625 C 3.078125,-5.875 2.5,-6.328125 1.859375,-6.328125 c -0.453125,0 -0.765625,0.28125 -1.015625,0.765625 -0.25,0.515625 -0.453125,1.375 -0.453125,1.4375 0,0.046875 0.046875,0.125 0.15625,0.125 0.109375,0 0.125,-0.015625 0.21875,-0.34375 0.21875,-0.875 0.484375,-1.6875 1.0625,-1.6875 0.328125,0 0.4375,0.21875 0.4375,0.65625 0,0.3125 -0.140625,0.875 -0.25,1.3125 L 1.625,-2.515625 c -0.0625,0.28125 -0.21875,0.921875 -0.296875,1.1875 -0.09375,0.359375 -0.25,1.046875 -0.25,1.109375 0,0.203125 0.15625,0.359375 0.375,0.359375 0.171875,0 0.375,-0.078125 0.484375,-0.296875 0.03125,-0.078125 0.15625,-0.578125 0.234375,-0.859375 l 0.3125,-1.296875 z m 0,0"
           id="path1736" />
      </g>
      <g
         id="g1742"
         transform="translate(51.400352,10.759)">
        <path
           d="m 6.546875,-3.9375 c 0,-1.375 -0.890625,-2.390625 -2.203125,-2.390625 -1.890625,0 -3.75,2.0625 -3.75,4.09375 0,1.359375 0.890625,2.375 2.1875,2.375 1.90625,0 3.765625,-2.0625 3.765625,-4.078125 z m -3.75,3.796875 c -0.71875,0 -1.25,-0.578125 -1.25,-1.578125 0,-0.65625 0.34375,-2.125 0.75,-2.84375 C 2.9375,-5.671875 3.75,-6.03125 4.328125,-6.03125 c 0.703125,0 1.25,0.5625 1.25,1.578125 0,0.5625 -0.296875,2.09375 -0.84375,2.96875 -0.59375,0.96875 -1.375,1.34375 -1.9375,1.34375 z m 0,0"
           id="path1740" />
      </g>
      <g
         id="g1746"
         transform="translate(58.153111,10.759)">
        <path
           d="M 4.0625,-2.046875 C 4.0625,-2.125 4,-2.1875 3.921875,-2.1875 c -0.140625,0 -0.15625,0.046875 -0.21875,0.296875 -0.375,1.296875 -0.96875,1.75 -1.4375,1.75 -0.171875,0 -0.375,-0.046875 -0.375,-0.46875 0,-0.390625 0.171875,-0.828125 0.328125,-1.25 L 3.234375,-4.53125 C 3.265625,-4.640625 3.375,-4.90625 3.375,-5.171875 c 0,-0.609375 -0.4375,-1.15625 -1.140625,-1.15625 -1.3125,0 -1.84375,2.078125 -1.84375,2.203125 0,0.046875 0.046875,0.125 0.15625,0.125 C 0.671875,-4 0.6875,-4.0625 0.75,-4.265625 1.09375,-5.46875 1.640625,-6.03125 2.1875,-6.03125 c 0.140625,0 0.375,0 0.375,0.46875 0,0.375 -0.1875,0.84375 -0.296875,1.15625 l -1,2.671875 C 1.171875,-1.5 1.09375,-1.28125 1.09375,-1.015625 c 0,0.640625 0.4375,1.15625 1.125,1.15625 1.328125,0 1.84375,-2.09375 1.84375,-2.1875 z m -0.125,-6.90625 c 0,-0.21875 -0.171875,-0.46875 -0.484375,-0.46875 -0.328125,0 -0.703125,0.3125 -0.703125,0.6875 0,0.359375 0.3125,0.46875 0.484375,0.46875 0.375,0 0.703125,-0.375 0.703125,-0.6875 z m 0,0"
           id="path1744" />
      </g>
      <g
         id="g1750"
         transform="translate(62.94474,10.759)">
        <path
           d="m 3.265625,-2.875 c 0.25,0.046875 0.640625,0.140625 0.71875,0.15625 0.1875,0.046875 0.828125,0.28125 0.828125,0.96875 0,0.4375 -0.390625,1.609375 -2.0625,1.609375 -0.296875,0 -1.375,-0.046875 -1.65625,-0.828125 0.5625,0.0625 0.859375,-0.375 0.859375,-0.6875 0,-0.3125 -0.203125,-0.46875 -0.484375,-0.46875 -0.328125,0 -0.734375,0.25 -0.734375,0.890625 0,0.84375 0.859375,1.375 2,1.375 2.1875,0 2.828125,-1.609375 2.828125,-2.34375 0,-0.21875 0,-0.625 -0.453125,-1.078125 C 4.75,-3.625 4.40625,-3.703125 3.625,-3.859375 c -0.390625,-0.078125 -1,-0.21875 -1,-0.859375 0,-0.28125 0.265625,-1.3125 1.625,-1.3125 0.59375,0 1.1875,0.21875 1.328125,0.734375 -0.625,0 -0.65625,0.546875 -0.65625,0.5625 0,0.296875 0.265625,0.390625 0.40625,0.390625 0.1875,0 0.59375,-0.15625 0.59375,-0.765625 0,-0.59375 -0.546875,-1.21875 -1.65625,-1.21875 -1.890625,0 -2.390625,1.484375 -2.390625,2.0625 0,1.09375 1.0625,1.328125 1.390625,1.390625 z m 0,0"
           id="path1748" />
      </g>
      <g
         id="g1754"
         transform="translate(69.561211,10.759)">
        <path
           d="m 2.5625,-3.328125 c 0.390625,0 1.375,-0.03125 2.0625,-0.28125 1.078125,-0.421875 1.1875,-1.25 1.1875,-1.515625 0,-0.625 -0.546875,-1.203125 -1.5,-1.203125 -1.5,0 -3.671875,1.359375 -3.671875,3.921875 0,1.5 0.859375,2.546875 2.171875,2.546875 C 4.765625,0.140625 6,-1.375 6,-1.5625 6,-1.65625 5.90625,-1.71875 5.859375,-1.71875 c -0.046875,0 -0.0625,0.015625 -0.1875,0.140625 -0.921875,1.21875 -2.28125,1.4375 -2.828125,1.4375 -0.828125,0 -1.25,-0.640625 -1.25,-1.703125 0,-0.203125 0,-0.5625 0.21875,-1.484375 z M 1.875,-3.609375 C 2.5,-5.828125 3.859375,-6.03125 4.3125,-6.03125 c 0.640625,0 1.0625,0.359375 1.0625,0.90625 0,1.515625 -2.296875,1.515625 -2.890625,1.515625 z m 0,0"
           id="path1752" />
      </g>
    </g>
    <g
       fill="#000000"
       fill-opacity="1"
       id="g1762"
       transform="translate(0.4375,-0.00899982)">
      <g
         id="g1760"
         transform="translate(76.072998,12.911)">
        <path
           d="m 1.265625,-0.765625 1.0625,-1.03125 c 1.546875,-1.375 2.140625,-1.90625 2.140625,-2.90625 0,-1.140625 -0.890625,-1.9375 -2.109375,-1.9375 -1.125,0 -1.859375,0.921875 -1.859375,1.8125 0,0.546875 0.5,0.546875 0.53125,0.546875 0.171875,0 0.515625,-0.109375 0.515625,-0.53125 0,-0.25 -0.1875,-0.515625 -0.53125,-0.515625 -0.078125,0 -0.09375,0 -0.125,0.015625 0.21875,-0.65625 0.765625,-1.015625 1.34375,-1.015625 0.90625,0 1.328125,0.8125 1.328125,1.625 C 3.5625,-3.90625 3.078125,-3.125 2.515625,-2.5 l -1.90625,2.125 C 0.5,-0.265625 0.5,-0.234375 0.5,0 H 4.203125 L 4.46875,-1.734375 H 4.234375 C 4.171875,-1.4375 4.109375,-1 4,-0.84375 3.9375,-0.765625 3.28125,-0.765625 3.0625,-0.765625 Z m 0,0"
           id="path1758" />
      </g>
    </g>
    <g
       clip-path="url(#clipPath5449)"
       id="g1770"
       transform="translate(0.4375,-0.00899982)">
      <g
         fill="#000000"
         fill-opacity="1"
         id="g1768">
        <g
           id="g1766"
           transform="translate(81.552002,10.759)">
          <path
             d="m 4.65625,3.484375 c 0,-0.046875 0,-0.078125 -0.234375,-0.3125 -1.4375,-1.453125 -2.234375,-3.8125 -2.234375,-6.75 0,-2.78125 0.671875,-5.171875 2.328125,-6.859375 0.140625,-0.140625 0.140625,-0.15625 0.140625,-0.203125 0,-0.09375 -0.0625,-0.109375 -0.125,-0.109375 -0.1875,0 -1.359375,1.03125 -2.0625,2.4375 -0.734375,1.4375 -1.0625,2.984375 -1.0625,4.734375 0,1.28125 0.203125,2.984375 0.953125,4.53125 0.84375,1.71875 2.015625,2.640625 2.171875,2.640625 0.0625,0 0.125,-0.015625 0.125,-0.109375 z m 0,0"
             id="path1764" />
        </g>
      </g>
    </g>
    <g
       fill="#000000"
       fill-opacity="1"
       id="g1776"
       transform="translate(0.4375,-0.00899982)">
      <g
         id="g1774"
         transform="translate(87.014999,10.759)">
        <path
           d="M 5.578125,-5.859375 C 5.140625,-5.78125 4.90625,-5.46875 4.90625,-5.15625 c 0,0.34375 0.265625,0.46875 0.46875,0.46875 0.40625,0 0.734375,-0.34375 0.734375,-0.78125 0,-0.453125 -0.4375,-0.859375 -1.15625,-0.859375 -0.578125,0 -1.234375,0.265625 -1.84375,1.140625 -0.09375,-0.765625 -0.671875,-1.140625 -1.25,-1.140625 -0.546875,0 -0.84375,0.4375 -1.015625,0.75 -0.234375,0.515625 -0.453125,1.375 -0.453125,1.453125 0,0.046875 0.046875,0.125 0.15625,0.125 0.109375,0 0.125,-0.015625 0.21875,-0.34375 0.203125,-0.859375 0.484375,-1.6875 1.0625,-1.6875 0.34375,0 0.4375,0.234375 0.4375,0.65625 0,0.3125 -0.140625,0.875 -0.25,1.3125 L 1.625,-2.515625 c -0.0625,0.28125 -0.21875,0.921875 -0.296875,1.1875 -0.09375,0.359375 -0.25,1.046875 -0.25,1.109375 0,0.203125 0.15625,0.359375 0.375,0.359375 0.15625,0 0.421875,-0.09375 0.515625,-0.390625 0.046875,-0.109375 0.5625,-2.28125 0.65625,-2.609375 0.078125,-0.3125 0.15625,-0.609375 0.234375,-0.921875 0.046875,-0.203125 0.109375,-0.4375 0.15625,-0.625 C 3.0625,-4.53125 3.4375,-5.234375 3.796875,-5.546875 3.96875,-5.703125 4.34375,-6.03125 4.9375,-6.03125 c 0.21875,0 0.453125,0.03125 0.640625,0.171875 z m 0,0"
           id="path1772" />
      </g>
    </g>
    <g
       clip-path="url(#clipPath3940)"
       id="g1784"
       transform="translate(0.4375,-0.00899982)">
      <g
         fill="#000000"
         fill-opacity="1"
         id="g1782">
        <g
           id="g1780"
           transform="translate(93.735001,10.759)">
          <path
             d="M 4.046875,-3.578125 C 4.046875,-4.65625 3.90625,-6.4375 3.09375,-8.109375 2.25,-9.828125 1.078125,-10.75 0.921875,-10.75 c -0.0625,0 -0.140625,0.01563 -0.140625,0.109375 0,0.04687 0,0.0625 0.25,0.3125 1.4375,1.453125 2.234375,3.8125 2.234375,6.75 0,2.78125 -0.671875,5.171875 -2.328125,6.859375 -0.15625,0.125 -0.15625,0.15625 -0.15625,0.203125 0,0.09375 0.078125,0.109375 0.140625,0.109375 0.1875,0 1.359375,-1.03125 2.0625,-2.4375 0.734375,-1.453125 1.0625,-3 1.0625,-4.734375 z m 0,0"
             id="path1778" />
        </g>
      </g>
    </g>
  </g>
  <g
     inkscape:label=""
     transform="translate(443.17032,127.96598)"
     id="g2462">
    <g
       fill="#000000"
       fill-opacity="1"
       id="g2392"
       transform="translate(0.4375,-0.00899982)">
      <g
         id="g2382"
         transform="translate(0,10.759)">
        <path
           d="M 0.609375,1.828125 C 0.515625,2.25 0.453125,2.359375 -0.125,2.359375 c -0.171875,0 -0.3125,0 -0.3125,0.28125 0,0.03125 0,0.140625 0.171875,0.140625 0.171875,0 0.375,-0.03125 0.5625,-0.03125 h 0.625 c 0.296875,0 1.03125,0.03125 1.328125,0.03125 0.09375,0 0.265625,0 0.265625,-0.25 0,-0.171875 -0.109375,-0.171875 -0.34375,-0.171875 C 1.5,2.359375 1.46875,2.265625 1.46875,2.15625 c 0,-0.171875 0.640625,-2.640625 0.71875,-2.96875 0.171875,0.390625 0.546875,0.953125 1.296875,0.953125 1.625,0 3.375,-2.109375 3.375,-4.21875 0,-1.3125 -0.75,-2.25 -1.828125,-2.25 -0.921875,0 -1.6875,0.890625 -1.84375,1.09375 -0.125,-0.71875 -0.671875,-1.09375 -1.25,-1.09375 -0.421875,0 -0.75,0.203125 -1.015625,0.75 C 0.65625,-5.0625 0.453125,-4.1875 0.453125,-4.125 c 0,0.046875 0.0625,0.125 0.15625,0.125 0.125,0 0.140625,-0.015625 0.21875,-0.34375 0.21875,-0.84375 0.484375,-1.6875 1.0625,-1.6875 0.328125,0 0.453125,0.21875 0.453125,0.65625 0,0.34375 -0.046875,0.484375 -0.109375,0.734375 z M 3.09375,-4.46875 C 3.203125,-4.875 3.59375,-5.296875 3.828125,-5.5 3.984375,-5.640625 4.453125,-6.03125 5,-6.03125 c 0.640625,0 0.921875,0.625 0.921875,1.375 0,0.6875 -0.40625,2.296875 -0.765625,3.046875 -0.34375,0.78125 -1.015625,1.46875 -1.671875,1.46875 -0.96875,0 -1.125,-1.234375 -1.125,-1.296875 0,-0.046875 0.015625,-0.15625 0.03125,-0.21875 z m 0,0"
           id="path2380" />
      </g>
      <g
         id="g2386"
         transform="translate(7.0497231,10.759)">
        <path
           d="m 2.5625,-3.328125 c 0.390625,0 1.375,-0.03125 2.0625,-0.28125 1.078125,-0.421875 1.1875,-1.25 1.1875,-1.515625 0,-0.625 -0.546875,-1.203125 -1.5,-1.203125 -1.5,0 -3.671875,1.359375 -3.671875,3.921875 0,1.5 0.859375,2.546875 2.171875,2.546875 C 4.765625,0.140625 6,-1.375 6,-1.5625 6,-1.65625 5.90625,-1.71875 5.859375,-1.71875 c -0.046875,0 -0.0625,0.015625 -0.1875,0.140625 -0.921875,1.21875 -2.28125,1.4375 -2.828125,1.4375 -0.828125,0 -1.25,-0.640625 -1.25,-1.703125 0,-0.203125 0,-0.5625 0.21875,-1.484375 z M 1.875,-3.609375 C 2.5,-5.828125 3.859375,-6.03125 4.3125,-6.03125 c 0.640625,0 1.0625,0.359375 1.0625,0.90625 0,1.515625 -2.296875,1.515625 -2.890625,1.515625 z m 0,0"
           id="path2384" />
      </g>
      <g
         id="g2390"
         transform="translate(13.560028,10.759)">
        <path
           d="M 5.578125,-5.859375 C 5.140625,-5.78125 4.90625,-5.46875 4.90625,-5.15625 c 0,0.34375 0.265625,0.46875 0.46875,0.46875 0.40625,0 0.734375,-0.34375 0.734375,-0.78125 0,-0.453125 -0.4375,-0.859375 -1.15625,-0.859375 -0.578125,0 -1.234375,0.265625 -1.84375,1.140625 -0.09375,-0.765625 -0.671875,-1.140625 -1.25,-1.140625 -0.546875,0 -0.84375,0.4375 -1.015625,0.75 -0.234375,0.515625 -0.453125,1.375 -0.453125,1.453125 0,0.046875 0.046875,0.125 0.15625,0.125 0.109375,0 0.125,-0.015625 0.21875,-0.34375 0.203125,-0.859375 0.484375,-1.6875 1.0625,-1.6875 0.34375,0 0.4375,0.234375 0.4375,0.65625 0,0.3125 -0.140625,0.875 -0.25,1.3125 L 1.625,-2.515625 c -0.0625,0.28125 -0.21875,0.921875 -0.296875,1.1875 -0.09375,0.359375 -0.25,1.046875 -0.25,1.109375 0,0.203125 0.15625,0.359375 0.375,0.359375 0.15625,0 0.421875,-0.09375 0.515625,-0.390625 0.046875,-0.109375 0.5625,-2.28125 0.65625,-2.609375 0.078125,-0.3125 0.15625,-0.609375 0.234375,-0.921875 0.046875,-0.203125 0.109375,-0.4375 0.15625,-0.625 C 3.0625,-4.53125 3.4375,-5.234375 3.796875,-5.546875 3.96875,-5.703125 4.34375,-6.03125 4.9375,-6.03125 c 0.21875,0 0.453125,0.03125 0.640625,0.171875 z m 0,0"
           id="path2388" />
      </g>
    </g>
    <g
       fill="#000000"
       fill-opacity="1"
       id="g2398"
       transform="translate(0.4375,-0.00899982)">
      <g
         id="g2396"
         transform="translate(20.278355,10.759)">
        <path
           d="M 3.640625,-9.59375 C 3.65625,-9.65625 3.6875,-9.734375 3.6875,-9.8125 c 0,-0.140625 -0.140625,-0.140625 -0.171875,-0.140625 -0.015625,0 -0.53125,0.046875 -0.796875,0.0625 C 2.484375,-9.875 2.265625,-9.84375 2.015625,-9.828125 1.65625,-9.796875 1.5625,-9.78125 1.5625,-9.53125 c 0,0.15625 0.140625,0.15625 0.28125,0.15625 0.734375,0 0.734375,0.125 0.734375,0.265625 0,0.0625 0,0.09375 -0.0625,0.34375 L 0.734375,-1.65625 C 0.6875,-1.484375 0.65625,-1.375 0.65625,-1.140625 c 0,0.703125 0.53125,1.28125 1.265625,1.28125 0.46875,0 0.796875,-0.3125 1.015625,-0.75 0.25,-0.484375 0.453125,-1.390625 0.453125,-1.4375 0,-0.078125 -0.0625,-0.140625 -0.15625,-0.140625 -0.125,0 -0.140625,0.078125 -0.1875,0.296875 -0.265625,0.984375 -0.515625,1.75 -1.09375,1.75 -0.4375,0 -0.4375,-0.46875 -0.4375,-0.65625 0,-0.0625 0,-0.359375 0.109375,-0.765625 z m 0,0"
           id="path2394" />
      </g>
    </g>
    <g
       fill="#000000"
       fill-opacity="1"
       id="g2408"
       transform="translate(0.4375,-0.00899982)">
      <g
         id="g2402"
         transform="translate(24.778757,10.759)">
        <path
           d="M 4.0625,-2.046875 C 4.0625,-2.125 4,-2.1875 3.921875,-2.1875 c -0.140625,0 -0.15625,0.046875 -0.21875,0.296875 -0.375,1.296875 -0.96875,1.75 -1.4375,1.75 -0.171875,0 -0.375,-0.046875 -0.375,-0.46875 0,-0.390625 0.171875,-0.828125 0.328125,-1.25 L 3.234375,-4.53125 C 3.265625,-4.640625 3.375,-4.90625 3.375,-5.171875 c 0,-0.609375 -0.4375,-1.15625 -1.140625,-1.15625 -1.3125,0 -1.84375,2.078125 -1.84375,2.203125 0,0.046875 0.046875,0.125 0.15625,0.125 C 0.671875,-4 0.6875,-4.0625 0.75,-4.265625 1.09375,-5.46875 1.640625,-6.03125 2.1875,-6.03125 c 0.140625,0 0.375,0 0.375,0.46875 0,0.375 -0.1875,0.84375 -0.296875,1.15625 l -1,2.671875 C 1.171875,-1.5 1.09375,-1.28125 1.09375,-1.015625 c 0,0.640625 0.4375,1.15625 1.125,1.15625 1.328125,0 1.84375,-2.09375 1.84375,-2.1875 z m -0.125,-6.90625 c 0,-0.21875 -0.171875,-0.46875 -0.484375,-0.46875 -0.328125,0 -0.703125,0.3125 -0.703125,0.6875 0,0.359375 0.3125,0.46875 0.484375,0.46875 0.375,0 0.703125,-0.375 0.703125,-0.6875 z m 0,0"
           id="path2400" />
      </g>
      <g
         id="g2406"
         transform="translate(29.570387,10.759)">
        <path
           d="M 2.953125,-4.203125 C 2.984375,-4.28125 3.34375,-5 3.875,-5.46875 c 0.375,-0.34375 0.859375,-0.5625 1.421875,-0.5625 0.5625,0 0.765625,0.421875 0.765625,1 0,0.8125 -0.578125,2.453125 -0.875,3.21875 -0.125,0.34375 -0.203125,0.53125 -0.203125,0.796875 0,0.640625 0.453125,1.15625 1.140625,1.15625 1.328125,0 1.828125,-2.109375 1.828125,-2.1875 C 7.953125,-2.125 7.90625,-2.1875 7.8125,-2.1875 c -0.125,0 -0.140625,0.046875 -0.203125,0.296875 -0.34375,1.171875 -0.875,1.75 -1.4375,1.75 -0.140625,0 -0.375,-0.015625 -0.375,-0.46875 0,-0.359375 0.15625,-0.796875 0.234375,-1 C 6.328125,-2.390625 6.921875,-4 6.921875,-4.8125 c 0,-0.875 -0.5,-1.515625 -1.59375,-1.515625 -1.265625,0 -1.9375,0.90625 -2.203125,1.265625 C 3.078125,-5.875 2.5,-6.328125 1.859375,-6.328125 c -0.453125,0 -0.765625,0.28125 -1.015625,0.765625 -0.25,0.515625 -0.453125,1.375 -0.453125,1.4375 0,0.046875 0.046875,0.125 0.15625,0.125 0.109375,0 0.125,-0.015625 0.21875,-0.34375 0.21875,-0.875 0.484375,-1.6875 1.0625,-1.6875 0.328125,0 0.4375,0.21875 0.4375,0.65625 0,0.3125 -0.140625,0.875 -0.25,1.3125 L 1.625,-2.515625 c -0.0625,0.28125 -0.21875,0.921875 -0.296875,1.1875 -0.09375,0.359375 -0.25,1.046875 -0.25,1.109375 0,0.203125 0.15625,0.359375 0.375,0.359375 0.171875,0 0.375,-0.078125 0.484375,-0.296875 0.03125,-0.078125 0.15625,-0.578125 0.234375,-0.859375 l 0.3125,-1.296875 z m 0,0"
           id="path2404" />
      </g>
    </g>
    <path
       fill="none"
       stroke-width="0.398"
       stroke-linecap="butt"
       stroke-linejoin="miter"
       stroke="#000000"
       stroke-opacity="1"
       stroke-miterlimit="10"
       d="m 39.238281,10.549594 h 4.214844"
       id="path2410" />
    <g
       fill="#000000"
       fill-opacity="1"
       id="g2432"
       transform="translate(0.4375,-0.00899982)">
      <g
         id="g2414"
         transform="translate(43.014999,10.759)">
        <path
           d="M 2.953125,-4.203125 C 2.984375,-4.28125 3.34375,-5 3.875,-5.46875 c 0.375,-0.34375 0.859375,-0.5625 1.421875,-0.5625 0.5625,0 0.765625,0.421875 0.765625,1 0,0.8125 -0.578125,2.453125 -0.875,3.21875 -0.125,0.34375 -0.203125,0.53125 -0.203125,0.796875 0,0.640625 0.453125,1.15625 1.140625,1.15625 1.328125,0 1.828125,-2.109375 1.828125,-2.1875 C 7.953125,-2.125 7.90625,-2.1875 7.8125,-2.1875 c -0.125,0 -0.140625,0.046875 -0.203125,0.296875 -0.34375,1.171875 -0.875,1.75 -1.4375,1.75 -0.140625,0 -0.375,-0.015625 -0.375,-0.46875 0,-0.359375 0.15625,-0.796875 0.234375,-1 C 6.328125,-2.390625 6.921875,-4 6.921875,-4.8125 c 0,-0.875 -0.5,-1.515625 -1.59375,-1.515625 -1.265625,0 -1.9375,0.90625 -2.203125,1.265625 C 3.078125,-5.875 2.5,-6.328125 1.859375,-6.328125 c -0.453125,0 -0.765625,0.28125 -1.015625,0.765625 -0.25,0.515625 -0.453125,1.375 -0.453125,1.4375 0,0.046875 0.046875,0.125 0.15625,0.125 0.109375,0 0.125,-0.015625 0.21875,-0.34375 0.21875,-0.875 0.484375,-1.6875 1.0625,-1.6875 0.328125,0 0.4375,0.21875 0.4375,0.65625 0,0.3125 -0.140625,0.875 -0.25,1.3125 L 1.625,-2.515625 c -0.0625,0.28125 -0.21875,0.921875 -0.296875,1.1875 -0.09375,0.359375 -0.25,1.046875 -0.25,1.109375 0,0.203125 0.15625,0.359375 0.375,0.359375 0.171875,0 0.375,-0.078125 0.484375,-0.296875 0.03125,-0.078125 0.15625,-0.578125 0.234375,-0.859375 l 0.3125,-1.296875 z m 0,0"
           id="path2412" />
      </g>
      <g
         id="g2418"
         transform="translate(51.400352,10.759)">
        <path
           d="m 6.546875,-3.9375 c 0,-1.375 -0.890625,-2.390625 -2.203125,-2.390625 -1.890625,0 -3.75,2.0625 -3.75,4.09375 0,1.359375 0.890625,2.375 2.1875,2.375 1.90625,0 3.765625,-2.0625 3.765625,-4.078125 z m -3.75,3.796875 c -0.71875,0 -1.25,-0.578125 -1.25,-1.578125 0,-0.65625 0.34375,-2.125 0.75,-2.84375 C 2.9375,-5.671875 3.75,-6.03125 4.328125,-6.03125 c 0.703125,0 1.25,0.5625 1.25,1.578125 0,0.5625 -0.296875,2.09375 -0.84375,2.96875 -0.59375,0.96875 -1.375,1.34375 -1.9375,1.34375 z m 0,0"
           id="path2416" />
      </g>
      <g
         id="g2422"
         transform="translate(58.153111,10.759)">
        <path
           d="M 4.0625,-2.046875 C 4.0625,-2.125 4,-2.1875 3.921875,-2.1875 c -0.140625,0 -0.15625,0.046875 -0.21875,0.296875 -0.375,1.296875 -0.96875,1.75 -1.4375,1.75 -0.171875,0 -0.375,-0.046875 -0.375,-0.46875 0,-0.390625 0.171875,-0.828125 0.328125,-1.25 L 3.234375,-4.53125 C 3.265625,-4.640625 3.375,-4.90625 3.375,-5.171875 c 0,-0.609375 -0.4375,-1.15625 -1.140625,-1.15625 -1.3125,0 -1.84375,2.078125 -1.84375,2.203125 0,0.046875 0.046875,0.125 0.15625,0.125 C 0.671875,-4 0.6875,-4.0625 0.75,-4.265625 1.09375,-5.46875 1.640625,-6.03125 2.1875,-6.03125 c 0.140625,0 0.375,0 0.375,0.46875 0,0.375 -0.1875,0.84375 -0.296875,1.15625 l -1,2.671875 C 1.171875,-1.5 1.09375,-1.28125 1.09375,-1.015625 c 0,0.640625 0.4375,1.15625 1.125,1.15625 1.328125,0 1.84375,-2.09375 1.84375,-2.1875 z m -0.125,-6.90625 c 0,-0.21875 -0.171875,-0.46875 -0.484375,-0.46875 -0.328125,0 -0.703125,0.3125 -0.703125,0.6875 0,0.359375 0.3125,0.46875 0.484375,0.46875 0.375,0 0.703125,-0.375 0.703125,-0.6875 z m 0,0"
           id="path2420" />
      </g>
      <g
         id="g2426"
         transform="translate(62.94474,10.759)">
        <path
           d="m 3.265625,-2.875 c 0.25,0.046875 0.640625,0.140625 0.71875,0.15625 0.1875,0.046875 0.828125,0.28125 0.828125,0.96875 0,0.4375 -0.390625,1.609375 -2.0625,1.609375 -0.296875,0 -1.375,-0.046875 -1.65625,-0.828125 0.5625,0.0625 0.859375,-0.375 0.859375,-0.6875 0,-0.3125 -0.203125,-0.46875 -0.484375,-0.46875 -0.328125,0 -0.734375,0.25 -0.734375,0.890625 0,0.84375 0.859375,1.375 2,1.375 2.1875,0 2.828125,-1.609375 2.828125,-2.34375 0,-0.21875 0,-0.625 -0.453125,-1.078125 C 4.75,-3.625 4.40625,-3.703125 3.625,-3.859375 c -0.390625,-0.078125 -1,-0.21875 -1,-0.859375 0,-0.28125 0.265625,-1.3125 1.625,-1.3125 0.59375,0 1.1875,0.21875 1.328125,0.734375 -0.625,0 -0.65625,0.546875 -0.65625,0.5625 0,0.296875 0.265625,0.390625 0.40625,0.390625 0.1875,0 0.59375,-0.15625 0.59375,-0.765625 0,-0.59375 -0.546875,-1.21875 -1.65625,-1.21875 -1.890625,0 -2.390625,1.484375 -2.390625,2.0625 0,1.09375 1.0625,1.328125 1.390625,1.390625 z m 0,0"
           id="path2424" />
      </g>
      <g
         id="g2430"
         transform="translate(69.561211,10.759)">
        <path
           d="m 2.5625,-3.328125 c 0.390625,0 1.375,-0.03125 2.0625,-0.28125 1.078125,-0.421875 1.1875,-1.25 1.1875,-1.515625 0,-0.625 -0.546875,-1.203125 -1.5,-1.203125 -1.5,0 -3.671875,1.359375 -3.671875,3.921875 0,1.5 0.859375,2.546875 2.171875,2.546875 C 4.765625,0.140625 6,-1.375 6,-1.5625 6,-1.65625 5.90625,-1.71875 5.859375,-1.71875 c -0.046875,0 -0.0625,0.015625 -0.1875,0.140625 -0.921875,1.21875 -2.28125,1.4375 -2.828125,1.4375 -0.828125,0 -1.25,-0.640625 -1.25,-1.703125 0,-0.203125 0,-0.5625 0.21875,-1.484375 z M 1.875,-3.609375 C 2.5,-5.828125 3.859375,-6.03125 4.3125,-6.03125 c 0.640625,0 1.0625,0.359375 1.0625,0.90625 0,1.515625 -2.296875,1.515625 -2.890625,1.515625 z m 0,0"
           id="path2428" />
      </g>
    </g>
    <g
       fill="#000000"
       fill-opacity="1"
       id="g2438"
       transform="translate(0.4375,-0.00899982)">
      <g
         id="g2436"
         transform="translate(76.072998,12.911)">
        <path
           d="m 2.890625,-3.515625 c 0.8125,-0.265625 1.390625,-0.953125 1.390625,-1.75 0,-0.8125 -0.875,-1.375 -1.828125,-1.375 -1,0 -1.765625,0.59375 -1.765625,1.359375 0,0.328125 0.21875,0.515625 0.515625,0.515625 0.296875,0 0.5,-0.21875 0.5,-0.515625 0,-0.484375 -0.46875,-0.484375 -0.609375,-0.484375 0.296875,-0.5 0.953125,-0.625 1.3125,-0.625 0.421875,0 0.96875,0.21875 0.96875,1.109375 0,0.125 -0.03125,0.703125 -0.28125,1.140625 C 2.796875,-3.65625 2.453125,-3.625 2.203125,-3.625 2.125,-3.609375 1.890625,-3.59375 1.8125,-3.59375 c -0.078125,0.015625 -0.140625,0.03125 -0.140625,0.125 0,0.109375 0.0625,0.109375 0.234375,0.109375 h 0.4375 c 0.8125,0 1.1875,0.671875 1.1875,1.65625 0,1.359375 -0.6875,1.640625 -1.125,1.640625 -0.4375,0 -1.1875,-0.171875 -1.53125,-0.75 0.34375,0.046875 0.65625,-0.171875 0.65625,-0.546875 0,-0.359375 -0.265625,-0.5625 -0.546875,-0.5625 -0.25,0 -0.5625,0.140625 -0.5625,0.578125 0,0.90625 0.921875,1.5625 2.015625,1.5625 1.21875,0 2.125,-0.90625 2.125,-1.921875 0,-0.8125 -0.640625,-1.59375 -1.671875,-1.8125 z m 0,0"
           id="path2434" />
      </g>
    </g>
    <g
       clip-path="url(#clipPath3736)"
       id="g2446"
       transform="translate(0.4375,-0.00899982)">
      <g
         fill="#000000"
         fill-opacity="1"
         id="g2444">
        <g
           id="g2442"
           transform="translate(81.552002,10.759)">
          <path
             d="m 4.65625,3.484375 c 0,-0.046875 0,-0.078125 -0.234375,-0.3125 -1.4375,-1.453125 -2.234375,-3.8125 -2.234375,-6.75 0,-2.78125 0.671875,-5.171875 2.328125,-6.859375 0.140625,-0.140625 0.140625,-0.15625 0.140625,-0.203125 0,-0.09375 -0.0625,-0.109375 -0.125,-0.109375 -0.1875,0 -1.359375,1.03125 -2.0625,2.4375 -0.734375,1.4375 -1.0625,2.984375 -1.0625,4.734375 0,1.28125 0.203125,2.984375 0.953125,4.53125 0.84375,1.71875 2.015625,2.640625 2.171875,2.640625 0.0625,0 0.125,-0.015625 0.125,-0.109375 z m 0,0"
             id="path2440" />
        </g>
      </g>
    </g>
    <g
       fill="#000000"
       fill-opacity="1"
       id="g2452"
       transform="translate(0.4375,-0.00899982)">
      <g
         id="g2450"
         transform="translate(87.014999,10.759)">
        <path
           d="M 5.578125,-5.859375 C 5.140625,-5.78125 4.90625,-5.46875 4.90625,-5.15625 c 0,0.34375 0.265625,0.46875 0.46875,0.46875 0.40625,0 0.734375,-0.34375 0.734375,-0.78125 0,-0.453125 -0.4375,-0.859375 -1.15625,-0.859375 -0.578125,0 -1.234375,0.265625 -1.84375,1.140625 -0.09375,-0.765625 -0.671875,-1.140625 -1.25,-1.140625 -0.546875,0 -0.84375,0.4375 -1.015625,0.75 -0.234375,0.515625 -0.453125,1.375 -0.453125,1.453125 0,0.046875 0.046875,0.125 0.15625,0.125 0.109375,0 0.125,-0.015625 0.21875,-0.34375 0.203125,-0.859375 0.484375,-1.6875 1.0625,-1.6875 0.34375,0 0.4375,0.234375 0.4375,0.65625 0,0.3125 -0.140625,0.875 -0.25,1.3125 L 1.625,-2.515625 c -0.0625,0.28125 -0.21875,0.921875 -0.296875,1.1875 -0.09375,0.359375 -0.25,1.046875 -0.25,1.109375 0,0.203125 0.15625,0.359375 0.375,0.359375 0.15625,0 0.421875,-0.09375 0.515625,-0.390625 0.046875,-0.109375 0.5625,-2.28125 0.65625,-2.609375 0.078125,-0.3125 0.15625,-0.609375 0.234375,-0.921875 0.046875,-0.203125 0.109375,-0.4375 0.15625,-0.625 C 3.0625,-4.53125 3.4375,-5.234375 3.796875,-5.546875 3.96875,-5.703125 4.34375,-6.03125 4.9375,-6.03125 c 0.21875,0 0.453125,0.03125 0.640625,0.171875 z m 0,0"
           id="path2448" />
      </g>
    </g>
    <g
       clip-path="url(#clipPath4849)"
       id="g2460"
       transform="translate(0.4375,-0.00899982)">
      <g
         fill="#000000"
         fill-opacity="1"
         id="g2458">
        <g
           id="g2456"
           transform="translate(93.735001,10.759)">
          <path
             d="M 4.046875,-3.578125 C 4.046875,-4.65625 3.90625,-6.4375 3.09375,-8.109375 2.25,-9.828125 1.078125,-10.75 0.921875,-10.75 c -0.0625,0 -0.140625,0.01563 -0.140625,0.109375 0,0.04687 0,0.0625 0.25,0.3125 1.4375,1.453125 2.234375,3.8125 2.234375,6.75 0,2.78125 -0.671875,5.171875 -2.328125,6.859375 -0.15625,0.125 -0.15625,0.15625 -0.15625,0.203125 0,0.09375 0.078125,0.109375 0.140625,0.109375 0.1875,0 1.359375,-1.03125 2.0625,-2.4375 0.734375,-1.453125 1.0625,-3 1.0625,-4.734375 z m 0,0"
             id="path2454" />
        </g>
      </g>
    </g>
  </g>
</svg>
