<?xml version="1.0" encoding="UTF-8" standalone="no"?>
<svg
   width="288pt"
   height="288pt"
   viewBox="0 0 288 288"
   version="1.1"
   id="svg155"
   sodipodi:docname="perlinfrom0to1.svg"
   inkscape:version="1.2.2 (b0a8486541, 2022-12-01)"
   xmlns:inkscape="http://www.inkscape.org/namespaces/inkscape"
   xmlns:sodipodi="http://sodipodi.sourceforge.net/DTD/sodipodi-0.dtd"
   xmlns:xlink="http://www.w3.org/1999/xlink"
   xmlns="http://www.w3.org/2000/svg"
   xmlns:svg="http://www.w3.org/2000/svg"
   xmlns:rdf="http://www.w3.org/1999/02/22-rdf-syntax-ns#"
   xmlns:cc="http://creativecommons.org/ns#"
   xmlns:dc="http://purl.org/dc/elements/1.1/">
  <sodipodi:namedview
     id="namedview157"
     pagecolor="#ffffff"
     bordercolor="#000000"
     borderopacity="0.25"
     inkscape:showpageshadow="2"
     inkscape:pageopacity="0.0"
     inkscape:pagecheckerboard="0"
     inkscape:deskcolor="#d1d1d1"
     inkscape:document-units="pt"
     showgrid="false"
     inkscape:zoom="1.7383042"
     inkscape:cx="207.9613"
     inkscape:cy="153.88561"
     inkscape:window-width="1415"
     inkscape:window-height="877"
     inkscape:window-x="25"
     inkscape:window-y="0"
     inkscape:window-maximized="1"
     inkscape:current-layer="svg155" />
  <metadata
     id="metadata2">
    <rdf:RDF>
      <cc:Work>
        <dc:type
           rdf:resource="http://purl.org/dc/dcmitype/StillImage" />
        <dc:date>2024-12-16T23:04:48.429127</dc:date>
        <dc:format>image/svg+xml</dc:format>
        <dc:creator>
          <cc:Agent>
            <dc:title>Matplotlib v3.9.2, https://matplotlib.org/</dc:title>
          </cc:Agent>
        </dc:creator>
      </cc:Work>
    </rdf:RDF>
  </metadata>
  <defs
     id="defs6">
    <style
       type="text/css"
       id="style4">*{stroke-linejoin: round; stroke-linecap: butt}</style>
    <clipPath
       id="clipPath1769">
      <path
         clip-rule="nonzero"
         d="m 82,0 h 5 v 14.347656 h -5 z m 0,0"
         id="path4272" />
    </clipPath>
    <clipPath
       id="clipPath5825">
      <path
         clip-rule="nonzero"
         d="m 95,0 h 5 v 14.347656 h -5 z m 0,0"
         id="path4797" />
    </clipPath>
    <clipPath
       id="clipPath2342">
      <path
         clip-rule="nonzero"
         d="m 98,0 h 5 v 17.1875 h -5 z m 0,0"
         id="path1432" />
    </clipPath>
    <clipPath
       id="clipPath6465">
      <path
         clip-rule="nonzero"
         d="m 112,0 h 4 v 17.1875 h -4 z m 0,0"
         id="path5410" />
    </clipPath>
  </defs>
  <g
     id="figure_1">
    <g
       id="patch_1">
      <path
         d="M 0 288  L 288 288  L 288 0  L 0 0  z "
         style="fill: #ffffff"
         id="path8" />
    </g>
    <g
       id="axes_1">
      <g
         id="patch_2">
        <path
           d="M 47.961178 254.64351  L 284.99976 254.64351  L 284.99976 6.799459  L 47.961178 6.799459  z "
           style="fill: #ffffff"
           id="path11" />
      </g>
      <g
         id="matplotlib.axis_1">
        <g
           id="xtick_1">
          <g
             id="line2d_1">
            <path
               d="M 58.735659 254.64351  L 58.735659 6.799459  "
               clip-path="url(#pc75549eb13)"
               style="fill: none; stroke: #b0b0b0; stroke-width: 0.8; stroke-linecap: square"
               id="path14" />
          </g>
          <g
             id="line2d_2">
            <defs
               id="defs18">
              <path
                 id="m119a83fdb2"
                 d="M 0 0  L 0 3.5  "
                 style="stroke: #000000; stroke-width: 0.8" />
            </defs>
            <g
               id="g22">
              <use
                 xlink:href="#m119a83fdb2"
                 x="58.735659"
                 y="254.64351"
                 style="stroke: #000000; stroke-width: 0.8"
                 id="use20" />
            </g>
          </g>
          <g
             id="text_1">
            <!-- 0 -->
            <g
               transform="translate(55.554409 269.241947) scale(0.1 -0.1)"
               id="g30">
              <defs
                 id="defs26">
                <path
                   id="DejaVuSans-30"
                   d="M 2034 4250  Q 1547 4250 1301 3770  Q 1056 3291 1056 2328  Q 1056 1369 1301 889  Q 1547 409 2034 409  Q 2525 409 2770 889  Q 3016 1369 3016 2328  Q 3016 3291 2770 3770  Q 2525 4250 2034 4250  z M 2034 4750  Q 2819 4750 3233 4129  Q 3647 3509 3647 2328  Q 3647 1150 3233 529  Q 2819 -91 2034 -91  Q 1250 -91 836 529  Q 422 1150 422 2328  Q 422 3509 836 4129  Q 1250 4750 2034 4750  z "
                   transform="scale(0.015625)" />
              </defs>
              <use
                 xlink:href="#DejaVuSans-30"
                 id="use28" />
            </g>
          </g>
        </g>
        <g
           id="xtick_2">
          <g
             id="line2d_3">
            <path
               d="M 276.401942 254.64351  L 276.401942 6.799459  "
               clip-path="url(#pc75549eb13)"
               style="fill: none; stroke: #b0b0b0; stroke-width: 0.8; stroke-linecap: square"
               id="path34" />
          </g>
          <g
             id="line2d_4">
            <g
               id="g39">
              <use
                 xlink:href="#m119a83fdb2"
                 x="276.401942"
                 y="254.64351"
                 style="stroke: #000000; stroke-width: 0.8"
                 id="use37" />
            </g>
          </g>
          <g
             id="text_2">
            <!-- 1 -->
            <g
               transform="translate(273.220692 269.241947) scale(0.1 -0.1)"
               id="g47">
              <defs
                 id="defs43">
                <path
                   id="DejaVuSans-31"
                   d="M 794 531  L 1825 531  L 1825 4091  L 703 3866  L 703 4441  L 1819 4666  L 2450 4666  L 2450 531  L 3481 531  L 3481 0  L 794 0  L 794 531  z "
                   transform="scale(0.015625)" />
              </defs>
              <use
                 xlink:href="#DejaVuSans-31"
                 id="use45" />
            </g>
          </g>
        </g>
        <g
           id="text_3">
          <!-- x -->
          <g
             transform="translate(163.521094 282.920073) scale(0.1 -0.1)"
             id="g56">
            <defs
               id="defs52">
              <path
                 id="DejaVuSans-78"
                 d="M 3513 3500  L 2247 1797  L 3578 0  L 2900 0  L 1881 1375  L 863 0  L 184 0  L 1544 1831  L 300 3500  L 978 3500  L 1906 2253  L 2834 3500  L 3513 3500  z "
                 transform="scale(0.015625)" />
            </defs>
            <use
               xlink:href="#DejaVuSans-78"
               id="use54" />
          </g>
        </g>
      </g>
      <g
         id="matplotlib.axis_2">
        <g
           id="ytick_1">
          <g
             id="line2d_5">
            <path
               d="M 47.961178 254.64351  L 284.99976 254.64351  "
               clip-path="url(#pc75549eb13)"
               style="fill: none; stroke: #b0b0b0; stroke-width: 0.8; stroke-linecap: square"
               id="path60" />
          </g>
          <g
             id="line2d_6">
            <defs
               id="defs64">
              <path
                 id="m4b4ef1d5b9"
                 d="M 0 0  L -3.5 0  "
                 style="stroke: #000000; stroke-width: 0.8" />
            </defs>
            <g
               id="g68">
              <use
                 xlink:href="#m4b4ef1d5b9"
                 x="47.961178"
                 y="254.64351"
                 style="stroke: #000000; stroke-width: 0.8"
                 id="use66" />
            </g>
          </g>
          <g
             id="text_4">
            <!-- &#8722;0.5 -->
            <g
               transform="translate(16.678365 258.442729) scale(0.1 -0.1)"
               id="g84">
              <defs
                 id="defs74">
                <path
                   id="DejaVuSans-2212"
                   d="M 678 2272  L 4684 2272  L 4684 1741  L 678 1741  L 678 2272  z "
                   transform="scale(0.015625)" />
                <path
                   id="DejaVuSans-2e"
                   d="M 684 794  L 1344 794  L 1344 0  L 684 0  L 684 794  z "
                   transform="scale(0.015625)" />
                <path
                   id="DejaVuSans-35"
                   d="M 691 4666  L 3169 4666  L 3169 4134  L 1269 4134  L 1269 2991  Q 1406 3038 1543 3061  Q 1681 3084 1819 3084  Q 2600 3084 3056 2656  Q 3513 2228 3513 1497  Q 3513 744 3044 326  Q 2575 -91 1722 -91  Q 1428 -91 1123 -41  Q 819 9 494 109  L 494 744  Q 775 591 1075 516  Q 1375 441 1709 441  Q 2250 441 2565 725  Q 2881 1009 2881 1497  Q 2881 1984 2565 2268  Q 2250 2553 1709 2553  Q 1456 2553 1204 2497  Q 953 2441 691 2322  L 691 4666  z "
                   transform="scale(0.015625)" />
              </defs>
              <use
                 xlink:href="#DejaVuSans-2212"
                 id="use76" />
              <use
                 xlink:href="#DejaVuSans-30"
                 x="83.789062"
                 id="use78" />
              <use
                 xlink:href="#DejaVuSans-2e"
                 x="147.412109"
                 id="use80" />
              <use
                 xlink:href="#DejaVuSans-35"
                 x="179.199219"
                 id="use82" />
            </g>
          </g>
        </g>
        <g
           id="ytick_2">
          <g
             id="line2d_7">
            <path
               d="M 47.961178 130.721484  L 284.99976 130.721484  "
               clip-path="url(#pc75549eb13)"
               style="fill: none; stroke: #b0b0b0; stroke-width: 0.8; stroke-linecap: square"
               id="path88" />
          </g>
          <g
             id="line2d_8">
            <g
               id="g93">
              <use
                 xlink:href="#m4b4ef1d5b9"
                 x="47.961178"
                 y="130.721484"
                 style="stroke: #000000; stroke-width: 0.8"
                 id="use91" />
            </g>
          </g>
          <g
             id="text_5">
            <!-- 0.0 -->
            <g
               transform="translate(25.058053 134.520703) scale(0.1 -0.1)"
               id="g102">
              <use
                 xlink:href="#DejaVuSans-30"
                 id="use96" />
              <use
                 xlink:href="#DejaVuSans-2e"
                 x="63.623047"
                 id="use98" />
              <use
                 xlink:href="#DejaVuSans-30"
                 x="95.410156"
                 id="use100" />
            </g>
          </g>
        </g>
        <g
           id="ytick_3">
          <g
             id="line2d_9">
            <path
               d="M 47.961178 6.799459  L 284.99976 6.799459  "
               clip-path="url(#pc75549eb13)"
               style="fill: none; stroke: #b0b0b0; stroke-width: 0.8; stroke-linecap: square"
               id="path106" />
          </g>
          <g
             id="line2d_10">
            <g
               id="g111">
              <use
                 xlink:href="#m4b4ef1d5b9"
                 x="47.961178"
                 y="6.799459"
                 style="stroke: #000000; stroke-width: 0.8"
                 id="use109" />
            </g>
          </g>
          <g
             id="text_6">
            <!-- 0.5 -->
            <g
               transform="translate(25.058053 10.598678) scale(0.1 -0.1)"
               id="g120">
              <use
                 xlink:href="#DejaVuSans-30"
                 id="use114" />
              <use
                 xlink:href="#DejaVuSans-2e"
                 x="63.623047"
                 id="use116" />
              <use
                 xlink:href="#DejaVuSans-35"
                 x="95.410156"
                 id="use118" />
            </g>
          </g>
        </g>
        <g
           id="text_7">
          <!-- y -->
          <g
             transform="translate(10.598678 133.680859) rotate(-90) scale(0.1 -0.1)"
             id="g129">
            <defs
               id="defs125">
              <path
                 id="DejaVuSans-79"
                 d="M 2059 -325  Q 1816 -950 1584 -1140  Q 1353 -1331 966 -1331  L 506 -1331  L 506 -850  L 844 -850  Q 1081 -850 1212 -737  Q 1344 -625 1503 -206  L 1606 56  L 191 3500  L 800 3500  L 1894 763  L 2988 3500  L 3597 3500  L 2059 -325  z "
                 transform="scale(0.015625)" />
            </defs>
            <use
               xlink:href="#DejaVuSans-79"
               id="use127" />
          </g>
        </g>
      </g>
      <g
         id="line2d_11">
        <path
           d="M 58.735659 130.721484  L 60.912321 128.440369  L 63.088984 126.064269  L 65.265647 123.602116  L 67.44231 121.062657  L 69.618973 118.454443  L 71.795636 115.785839  L 73.972298 113.065017  L 76.148961 110.299959  L 78.325624 107.498459  L 80.502287 104.668118  L 82.67895 101.816347  L 84.855613 98.950367  L 87.032275 96.07721  L 89.208938 93.203716  L 91.385601 90.336535  L 93.562264 87.482127  L 95.738927 84.646762  L 97.91559 81.836518  L 100.092252 79.057284  L 102.268915 76.314758  L 104.445578 73.61445  L 106.622241 70.961676  L 108.798904 68.361564  L 110.975567 65.81905  L 113.152229 63.338883  L 115.328892 60.925617  L 117.505555 58.58362  L 119.682218 56.317066  L 121.858881 54.129942  L 124.035544 52.026041  L 126.212206 50.008969  L 128.388869 48.08214  L 130.565532 46.248779  L 132.742195 44.511917  L 134.918858 42.8744  L 137.095521 41.338879  L 139.272183 39.907817  L 141.448846 38.583487  L 143.625509 37.367971  L 145.802172 36.26316  L 147.978835 35.270754  L 150.155498 34.392266  L 152.33216 33.629015  L 154.508823 32.982133  L 156.685486 32.452557  L 158.862149 32.041039  L 161.038812 31.748137  L 163.215475 31.57422  L 165.392137 31.519466  L 167.5688 31.583864  L 169.745463 31.767211  L 171.922126 32.069115  L 174.098789 32.488992  L 176.275451 33.02607  L 178.452114 33.679385  L 180.628777 34.447783  L 182.80544 35.32992  L 184.982103 36.32426  L 187.158766 37.429079  L 189.335428 38.642462  L 191.512091 39.962303  L 193.688754 41.386306  L 195.865417 42.911985  L 198.04208 44.536662  L 200.218743 46.257471  L 202.395405 48.071354  L 204.572068 49.975064  L 206.748731 51.965163  L 208.925394 54.038021  L 211.102057 56.189821  L 213.27872 58.416553  L 215.455382 60.714018  L 217.632045 63.077826  L 219.808708 65.503396  L 221.985371 67.985959  L 224.162034 70.520553  L 226.338697 73.102027  L 228.515359 75.72504  L 230.692022 78.38406  L 232.868685 81.073364  L 235.045348 83.78704  L 237.222011 86.518986  L 239.398674 89.262907  L 241.575336 92.01232  L 243.751999 94.760552  L 245.928662 97.500737  L 248.105325 100.225822  L 250.281988 102.928562  L 252.458651 105.60152  L 254.635313 108.237072  L 256.811976 110.827401  L 258.988639 113.364502  L 261.165302 115.840176  L 263.341965 118.246038  L 265.518628 120.57351  L 267.69529 122.813824  L 269.871953 124.958022  L 272.048616 126.996955  L 274.225279 128.921286  "
           clip-path="url(#pc75549eb13)"
           style="fill: none; stroke: #1f77b4; stroke-width: 1.5; stroke-linecap: square"
           id="path133" />
      </g>
      <g
         id="patch_3">
        <path
           d="M 47.961178 254.64351  L 47.961178 6.799459  "
           style="fill: none; stroke: #000000; stroke-width: 0.8; stroke-linejoin: miter; stroke-linecap: square"
           id="path136" />
      </g>
      <g
         id="patch_4">
        <path
           d="M 284.99976 254.64351  L 284.99976 6.799459  "
           style="fill: none; stroke: #000000; stroke-width: 0.8; stroke-linejoin: miter; stroke-linecap: square"
           id="path139" />
      </g>
      <g
         id="patch_5">
        <path
           d="M 47.961178 254.64351  L 284.99976 254.64351  "
           style="fill: none; stroke: #000000; stroke-width: 0.8; stroke-linejoin: miter; stroke-linecap: square"
           id="path142" />
      </g>
      <g
         id="patch_6">
        <path
           d="M 47.961178 6.799459  L 284.99976 6.799459  "
           style="fill: none; stroke: #000000; stroke-width: 0.8; stroke-linejoin: miter; stroke-linecap: square"
           id="path145" />
      </g>
    </g>
  </g>
  <defs
     id="defs153">
    <clipPath
       id="pc75549eb13">
      <rect
         x="47.961178"
         y="6.799459"
         width="237.038583"
         height="247.844051"
         id="rect150" />
    </clipPath>
  </defs>
  <g
     inkscape:label=""
     transform="translate(109.32955,10.393903)"
     id="g593">
    <g
       fill="#000000"
       fill-opacity="1"
       id="g51"
       transform="translate(0.53125,-0.00637531)">
      <g
         id="g548"
         transform="translate(0,12.897)">
        <path
           d="M 0.734375,2.1875 C 0.625,2.703125 0.546875,2.84375 -0.15625,2.84375 c -0.203125,0 -0.375,0 -0.375,0.328125 0,0.03125 0.015625,0.171875 0.203125,0.171875 0.21875,0 0.46875,-0.03125 0.6875,-0.03125 h 0.75 c 0.359375,0 1.234375,0.03125 1.59375,0.03125 0.109375,0 0.3125,0 0.3125,-0.3125 0,-0.1875 -0.125,-0.1875 -0.421875,-0.1875 C 1.8125,2.84375 1.75,2.71875 1.75,2.578125 1.75,2.375 2.53125,-0.578125 2.640625,-0.984375 2.828125,-0.5 3.28125,0.171875 4.1875,0.171875 c 1.9375,0 4.046875,-2.53125 4.046875,-5.0625 0,-1.578125 -0.90625,-2.703125 -2.1875,-2.703125 -1.109375,0 -2.03125,1.0625 -2.21875,1.3125 -0.140625,-0.859375 -0.8125,-1.3125 -1.5,-1.3125 -0.5,0 -0.90625,0.234375 -1.21875,0.890625 -0.3125,0.625 -0.5625,1.671875 -0.5625,1.75 0,0.0625 0.078125,0.15625 0.1875,0.15625 C 0.875,-4.796875 0.890625,-4.828125 1,-5.21875 1.25,-6.234375 1.578125,-7.25 2.265625,-7.25 c 0.40625,0 0.546875,0.28125 0.546875,0.796875 0,0.40625 -0.0625,0.578125 -0.125,0.890625 z M 3.71875,-5.375 c 0.125,-0.484375 0.609375,-0.984375 0.875,-1.21875 C 4.78125,-6.765625 5.359375,-7.25 6.015625,-7.25 c 0.75,0 1.09375,0.765625 1.09375,1.65625 0,0.828125 -0.484375,2.765625 -0.90625,3.671875 -0.4375,0.921875 -1.234375,1.75 -2.015625,1.75 -1.171875,0 -1.359375,-1.484375 -1.359375,-1.546875 0,-0.0625 0.03125,-0.1875 0.046875,-0.28125 z m 0,0"
           id="path101" />
      </g>
      <g
         id="use47"
         transform="translate(8.4596481,12.897)">
        <path
           d="m 3.078125,-4 c 0.46875,0 1.640625,-0.03125 2.46875,-0.34375 1.3125,-0.5 1.421875,-1.5 1.421875,-1.796875 0,-0.765625 -0.65625,-1.453125 -1.78125,-1.453125 -1.8125,0 -4.40625,1.640625 -4.40625,4.703125 0,1.8125 1.03125,3.0625 2.59375,3.0625 2.34375,0 3.828125,-1.828125 3.828125,-2.046875 0,-0.109375 -0.109375,-0.1875 -0.171875,-0.1875 -0.0625,0 -0.078125,0.015625 -0.234375,0.171875 -1.09375,1.453125 -2.734375,1.71875 -3.390625,1.71875 -0.984375,0 -1.5,-0.78125 -1.5,-2.046875 0,-0.25 0,-0.671875 0.265625,-1.78125 z M 2.25,-4.34375 C 3,-6.984375 4.625,-7.25 5.1875,-7.25 c 0.75,0 1.265625,0.453125 1.265625,1.109375 0,1.796875 -2.75,1.796875 -3.46875,1.796875 z m 0,0"
           id="path105" />
      </g>
      <g
         id="use49"
         transform="translate(16.271996,12.897)">
        <path
           d="m 6.703125,-7.046875 c -0.53125,0.109375 -0.8125,0.484375 -0.8125,0.859375 0,0.421875 0.328125,0.5625 0.5625,0.5625 0.484375,0 0.875,-0.421875 0.875,-0.9375 0,-0.546875 -0.53125,-1.03125 -1.390625,-1.03125 -0.6875,0 -1.484375,0.3125 -2.203125,1.359375 -0.125,-0.90625 -0.8125,-1.359375 -1.5,-1.359375 -0.671875,0 -1.015625,0.515625 -1.21875,0.890625 -0.296875,0.625 -0.546875,1.65625 -0.546875,1.75 0,0.0625 0.0625,0.15625 0.1875,0.15625 0.140625,0 0.15625,-0.03125 0.25,-0.421875 C 1.171875,-6.25 1.5,-7.25 2.1875,-7.25 c 0.40625,0 0.53125,0.296875 0.53125,0.796875 0,0.375 -0.171875,1.046875 -0.296875,1.578125 l -0.46875,1.859375 C 1.875,-2.6875 1.6875,-1.90625 1.59375,-1.59375 c -0.109375,0.4375 -0.296875,1.25 -0.296875,1.328125 0,0.25 0.1875,0.4375 0.4375,0.4375 0.1875,0 0.515625,-0.125 0.625,-0.46875 0.046875,-0.140625 0.6875,-2.734375 0.796875,-3.125 0.078125,-0.390625 0.1875,-0.75 0.265625,-1.125 C 3.5,-4.78125 3.5625,-5.0625 3.609375,-5.28125 3.671875,-5.4375 4.125,-6.28125 4.5625,-6.65625 4.765625,-6.859375 5.21875,-7.25 5.921875,-7.25 c 0.28125,0 0.546875,0.046875 0.78125,0.203125 z m 0,0"
           id="path109" />
      </g>
    </g>
    <g
       fill="#000000"
       fill-opacity="1"
       id="g55"
       transform="translate(0.53125,-0.00637531)">
      <g
         id="use53"
         transform="translate(24.333967,12.897)">
        <path
           d="m 4.375,-11.515625 c 0.015625,-0.07813 0.046875,-0.171875 0.046875,-0.265625 0,-0.171875 -0.171875,-0.171875 -0.203125,-0.171875 -0.015625,0 -0.640625,0.0625 -0.953125,0.09375 -0.28125,0.01563 -0.546875,0.04687 -0.859375,0.0625 C 2,-11.765625 1.875,-11.75 1.875,-11.4375 c 0,0.171875 0.171875,0.171875 0.34375,0.171875 0.875,0 0.875,0.15625 0.875,0.328125 0,0.07813 0,0.109375 -0.078125,0.421875 L 0.875,-1.984375 c -0.046875,0.1875 -0.078125,0.328125 -0.078125,0.609375 0,0.859375 0.625,1.546875 1.515625,1.546875 0.5625,0 0.9375,-0.375 1.21875,-0.90625 C 3.828125,-1.3125 4.0625,-2.390625 4.0625,-2.46875 4.0625,-2.546875 4,-2.625 3.890625,-2.625 c -0.15625,0 -0.171875,0.09375 -0.234375,0.359375 -0.3125,1.1875 -0.625,2.09375 -1.3125,2.09375 -0.515625,0 -0.515625,-0.546875 -0.515625,-0.796875 0,-0.0625 0,-0.421875 0.125,-0.90625 z m 0,0"
           id="path113" />
      </g>
    </g>
    <g
       fill="#000000"
       fill-opacity="1"
       id="g61"
       transform="translate(0.53125,-0.00637531)">
      <g
         id="use57"
         transform="translate(29.73444,12.897)">
        <path
           d="m 4.875,-2.46875 c 0,-0.078125 -0.078125,-0.15625 -0.171875,-0.15625 -0.15625,0 -0.171875,0.0625 -0.265625,0.359375 -0.4375,1.5625 -1.15625,2.09375 -1.71875,2.09375 -0.203125,0 -0.453125,-0.046875 -0.453125,-0.5625 0,-0.46875 0.21875,-0.984375 0.40625,-1.5 L 3.875,-5.4375 c 0.046875,-0.140625 0.171875,-0.453125 0.171875,-0.78125 0,-0.71875 -0.515625,-1.375 -1.359375,-1.375 -1.578125,0 -2.21875,2.5 -2.21875,2.640625 0,0.0625 0.0625,0.15625 0.1875,0.15625 0.15625,0 0.171875,-0.078125 0.234375,-0.3125 C 1.3125,-6.5625 1.96875,-7.25 2.640625,-7.25 c 0.15625,0 0.4375,0.015625 0.4375,0.5625 0,0.453125 -0.21875,1.015625 -0.359375,1.40625 L 1.515625,-2.078125 C 1.40625,-1.8125 1.3125,-1.53125 1.3125,-1.21875 c 0,0.765625 0.53125,1.390625 1.359375,1.390625 C 4.25,0.171875 4.875,-2.34375 4.875,-2.46875 Z M 4.734375,-10.75 c 0,-0.25 -0.203125,-0.5625 -0.578125,-0.5625 -0.40625,0 -0.84375,0.375 -0.84375,0.828125 0,0.421875 0.359375,0.5625 0.5625,0.5625 0.46875,0 0.859375,-0.4375 0.859375,-0.828125 z m 0,0"
           id="path117" />
      </g>
      <g
         id="use59"
         transform="translate(35.484383,12.897)">
        <path
           d="M 3.546875,-5.046875 C 3.578125,-5.140625 4.015625,-6.015625 4.65625,-6.5625 5.09375,-6.96875 5.6875,-7.25 6.359375,-7.25 c 0.6875,0 0.921875,0.515625 0.921875,1.203125 0,0.984375 -0.703125,2.953125 -1.046875,3.875 -0.15625,0.421875 -0.25,0.640625 -0.25,0.953125 0,0.765625 0.546875,1.390625 1.375,1.390625 1.59375,0 2.203125,-2.53125 2.203125,-2.640625 0,-0.078125 -0.078125,-0.15625 -0.171875,-0.15625 -0.15625,0 -0.171875,0.0625 -0.265625,0.359375 -0.390625,1.40625 -1.046875,2.09375 -1.71875,2.09375 -0.171875,0 -0.453125,-0.015625 -0.453125,-0.5625 0,-0.4375 0.1875,-0.953125 0.296875,-1.1875 0.34375,-0.953125 1.0625,-2.875 1.0625,-3.859375 0,-1.03125 -0.59375,-1.8125 -1.90625,-1.8125 C 4.875,-7.59375 4.0625,-6.515625 3.75,-6.078125 3.703125,-7.0625 3,-7.59375 2.234375,-7.59375 c -0.546875,0 -0.921875,0.328125 -1.21875,0.90625 -0.3125,0.625 -0.546875,1.65625 -0.546875,1.734375 0,0.0625 0.0625,0.15625 0.1875,0.15625 0.140625,0 0.15625,-0.03125 0.25,-0.421875 C 1.1875,-6.265625 1.5,-7.25 2.1875,-7.25 c 0.390625,0 0.53125,0.28125 0.53125,0.796875 0,0.375 -0.171875,1.046875 -0.296875,1.578125 l -0.46875,1.859375 C 1.875,-2.6875 1.6875,-1.90625 1.59375,-1.59375 c -0.109375,0.4375 -0.296875,1.25 -0.296875,1.328125 0,0.25 0.1875,0.4375 0.4375,0.4375 0.21875,0 0.453125,-0.109375 0.59375,-0.359375 0.03125,-0.09375 0.1875,-0.6875 0.265625,-1.03125 l 0.390625,-1.546875 z m 0,0"
           id="path121" />
      </g>
    </g>
    <path
       fill="none"
       stroke-width="0.398"
       stroke-linecap="butt"
       stroke-linejoin="miter"
       stroke="#000000"
       stroke-opacity="1"
       stroke-miterlimit="10"
       d="m 47.027344,12.688937 h 4.738281"
       id="path63" />
    <g
       fill="#000000"
       fill-opacity="1"
       id="g75"
       transform="translate(0.53125,-0.00637531)">
      <g
         id="use65"
         transform="translate(51.234001,12.897)">
        <path
           d="M 3.546875,-5.046875 C 3.578125,-5.140625 4.015625,-6.015625 4.65625,-6.5625 5.09375,-6.96875 5.6875,-7.25 6.359375,-7.25 c 0.6875,0 0.921875,0.515625 0.921875,1.203125 0,0.984375 -0.703125,2.953125 -1.046875,3.875 -0.15625,0.421875 -0.25,0.640625 -0.25,0.953125 0,0.765625 0.546875,1.390625 1.375,1.390625 1.59375,0 2.203125,-2.53125 2.203125,-2.640625 0,-0.078125 -0.078125,-0.15625 -0.171875,-0.15625 -0.15625,0 -0.171875,0.0625 -0.265625,0.359375 -0.390625,1.40625 -1.046875,2.09375 -1.71875,2.09375 -0.171875,0 -0.453125,-0.015625 -0.453125,-0.5625 0,-0.4375 0.1875,-0.953125 0.296875,-1.1875 0.34375,-0.953125 1.0625,-2.875 1.0625,-3.859375 0,-1.03125 -0.59375,-1.8125 -1.90625,-1.8125 C 4.875,-7.59375 4.0625,-6.515625 3.75,-6.078125 3.703125,-7.0625 3,-7.59375 2.234375,-7.59375 c -0.546875,0 -0.921875,0.328125 -1.21875,0.90625 -0.3125,0.625 -0.546875,1.65625 -0.546875,1.734375 0,0.0625 0.0625,0.15625 0.1875,0.15625 0.140625,0 0.15625,-0.03125 0.25,-0.421875 C 1.1875,-6.265625 1.5,-7.25 2.1875,-7.25 c 0.390625,0 0.53125,0.28125 0.53125,0.796875 0,0.375 -0.171875,1.046875 -0.296875,1.578125 l -0.46875,1.859375 C 1.875,-2.6875 1.6875,-1.90625 1.59375,-1.59375 c -0.109375,0.4375 -0.296875,1.25 -0.296875,1.328125 0,0.25 0.1875,0.4375 0.4375,0.4375 0.21875,0 0.453125,-0.109375 0.59375,-0.359375 0.03125,-0.09375 0.1875,-0.6875 0.265625,-1.03125 l 0.390625,-1.546875 z m 0,0"
           id="path125" />
      </g>
      <g
         id="use67"
         transform="translate(61.296402,12.897)">
        <path
           d="m 7.859375,-4.734375 c 0,-1.640625 -1.078125,-2.859375 -2.640625,-2.859375 -2.28125,0 -4.515625,2.484375 -4.515625,4.90625 0,1.640625 1.078125,2.859375 2.640625,2.859375 2.28125,0 4.515625,-2.484375 4.515625,-4.90625 z m -4.5,4.5625 c -0.859375,0 -1.5,-0.6875 -1.5,-1.890625 0,-0.796875 0.40625,-2.546875 0.890625,-3.40625 C 3.53125,-6.796875 4.5,-7.25 5.203125,-7.25 c 0.84375,0 1.5,0.6875 1.5,1.890625 0,0.6875 -0.359375,2.53125 -1.015625,3.578125 -0.71875,1.15625 -1.65625,1.609375 -2.328125,1.609375 z m 0,0"
           id="path129" />
      </g>
      <g
         id="use69"
         transform="translate(69.399689,12.897)">
        <path
           d="m 4.875,-2.46875 c 0,-0.078125 -0.078125,-0.15625 -0.171875,-0.15625 -0.15625,0 -0.171875,0.0625 -0.265625,0.359375 -0.4375,1.5625 -1.15625,2.09375 -1.71875,2.09375 -0.203125,0 -0.453125,-0.046875 -0.453125,-0.5625 0,-0.46875 0.21875,-0.984375 0.40625,-1.5 L 3.875,-5.4375 c 0.046875,-0.140625 0.171875,-0.453125 0.171875,-0.78125 0,-0.71875 -0.515625,-1.375 -1.359375,-1.375 -1.578125,0 -2.21875,2.5 -2.21875,2.640625 0,0.0625 0.0625,0.15625 0.1875,0.15625 0.15625,0 0.171875,-0.078125 0.234375,-0.3125 C 1.3125,-6.5625 1.96875,-7.25 2.640625,-7.25 c 0.15625,0 0.4375,0.015625 0.4375,0.5625 0,0.453125 -0.21875,1.015625 -0.359375,1.40625 L 1.515625,-2.078125 C 1.40625,-1.8125 1.3125,-1.53125 1.3125,-1.21875 c 0,0.765625 0.53125,1.390625 1.359375,1.390625 C 4.25,0.171875 4.875,-2.34375 4.875,-2.46875 Z M 4.734375,-10.75 c 0,-0.25 -0.203125,-0.5625 -0.578125,-0.5625 -0.40625,0 -0.84375,0.375 -0.84375,0.828125 0,0.421875 0.359375,0.5625 0.5625,0.5625 0.46875,0 0.859375,-0.4375 0.859375,-0.828125 z m 0,0"
           id="path568" />
      </g>
      <g
         id="use71"
         transform="translate(75.149635,12.897)">
        <path
           d="m 3.921875,-3.4375 c 0.296875,0.046875 0.765625,0.15625 0.859375,0.171875 0.234375,0.0625 1,0.34375 1,1.171875 0,0.53125 -0.484375,1.921875 -2.46875,1.921875 -0.375,0 -1.65625,-0.046875 -2,-1 C 2,-1.078125 2.34375,-1.625 2.34375,-2 c 0,-0.359375 -0.25,-0.546875 -0.59375,-0.546875 -0.375,0 -0.875,0.296875 -0.875,1.0625 0,1.015625 1.03125,1.65625 2.40625,1.65625 2.625,0 3.40625,-1.921875 3.40625,-2.828125 0,-0.25 0,-0.734375 -0.5625,-1.28125 C 5.703125,-4.359375 5.28125,-4.4375 4.359375,-4.625 3.890625,-4.734375 3.15625,-4.890625 3.15625,-5.671875 c 0,-0.34375 0.3125,-1.578125 1.9375,-1.578125 0.71875,0 1.4375,0.28125 1.609375,0.890625 -0.765625,0 -0.796875,0.65625 -0.796875,0.671875 0,0.359375 0.328125,0.46875 0.484375,0.46875 0.234375,0 0.71875,-0.1875 0.71875,-0.90625 0,-0.734375 -0.65625,-1.46875 -2,-1.46875 -2.25,0 -2.859375,1.78125 -2.859375,2.484375 0,1.296875 1.28125,1.578125 1.671875,1.671875 z m 0,0"
           id="path137" />
      </g>
      <g
         id="use73"
         transform="translate(83.089378,12.897)">
        <path
           d="m 3.078125,-4 c 0.46875,0 1.640625,-0.03125 2.46875,-0.34375 1.3125,-0.5 1.421875,-1.5 1.421875,-1.796875 0,-0.765625 -0.65625,-1.453125 -1.78125,-1.453125 -1.8125,0 -4.40625,1.640625 -4.40625,4.703125 0,1.8125 1.03125,3.0625 2.59375,3.0625 2.34375,0 3.828125,-1.828125 3.828125,-2.046875 0,-0.109375 -0.109375,-0.1875 -0.171875,-0.1875 -0.0625,0 -0.078125,0.015625 -0.234375,0.171875 -1.09375,1.453125 -2.734375,1.71875 -3.390625,1.71875 -0.984375,0 -1.5,-0.78125 -1.5,-2.046875 0,-0.25 0,-0.671875 0.265625,-1.78125 z M 2.25,-4.34375 C 3,-6.984375 4.625,-7.25 5.1875,-7.25 c 0.75,0 1.265625,0.453125 1.265625,1.109375 0,1.796875 -2.75,1.796875 -3.46875,1.796875 z m 0,0"
           id="path141" />
      </g>
    </g>
    <g
       fill="#000000"
       fill-opacity="1"
       id="g79"
       transform="translate(0.53125,-0.00637531)">
      <g
         id="use77"
         transform="translate(90.903,15.479)">
        <path
           d="m 5.359375,-3.828125 c 0,-0.984375 -0.0625,-1.953125 -0.5,-2.859375 -0.484375,-1 -1.34375,-1.265625 -1.9375,-1.265625 -0.6875,0 -1.53125,0.34375 -1.984375,1.34375 -0.328125,0.75 -0.453125,1.5 -0.453125,2.78125 0,1.15625 0.09375,2.03125 0.515625,2.890625 0.46875,0.90625 1.296875,1.1875 1.921875,1.1875 1.03125,0 1.625,-0.625 1.984375,-1.3125 0.421875,-0.890625 0.453125,-2.0625 0.453125,-2.765625 z m -2.4375,3.84375 C 2.53125,0.015625 1.75,-0.203125 1.53125,-1.5 c -0.125,-0.71875 -0.125,-1.625 -0.125,-2.46875 0,-0.984375 0,-1.859375 0.1875,-2.5625 0.203125,-0.8125 0.8125,-1.171875 1.328125,-1.171875 0.453125,0 1.140625,0.265625 1.375,1.296875 0.15625,0.6875 0.15625,1.625 0.15625,2.4375 0,0.796875 0,1.703125 -0.140625,2.4375 -0.21875,1.3125 -0.984375,1.546875 -1.390625,1.546875 z m 0,0"
           id="path576" />
      </g>
    </g>
    <g
       clip-path="url(#clipPath2342)"
       id="g85"
       transform="translate(0.53125,-0.00637531)">
      <g
         fill="#000000"
         fill-opacity="1"
         id="g83">
        <g
           id="use81"
           transform="translate(97.254997,12.897)">
          <path
             d="m 5.265625,4.203125 c 0,-0.015625 0,-0.046875 -0.046875,-0.109375 -0.796875,-0.8125 -2.90625,-3.015625 -2.90625,-8.375 0,-5.375 2.078125,-7.5625 2.921875,-8.421875 0,-0.01563 0.03125,-0.0625 0.03125,-0.109375 0,-0.04687 -0.046875,-0.07813 -0.125,-0.07813 -0.1875,0 -1.640625,1.265625 -2.484375,3.15625 -0.859375,1.921875 -1.109375,3.78125 -1.109375,5.421875 0,1.25 0.125,3.34375 1.15625,5.5625 0.828125,1.796875 2.234375,3.0625 2.4375,3.0625 0.09375,0 0.125,-0.046875 0.125,-0.109375 z m 0,0"
             id="path149" />
        </g>
      </g>
    </g>
    <g
       fill="#000000"
       fill-opacity="1"
       id="g89"
       transform="translate(0.53125,-0.00637531)">
      <g
         id="use87"
         transform="translate(103.351,12.897)">
        <path
           d="m 6.703125,-7.046875 c -0.53125,0.109375 -0.8125,0.484375 -0.8125,0.859375 0,0.421875 0.328125,0.5625 0.5625,0.5625 0.484375,0 0.875,-0.421875 0.875,-0.9375 0,-0.546875 -0.53125,-1.03125 -1.390625,-1.03125 -0.6875,0 -1.484375,0.3125 -2.203125,1.359375 -0.125,-0.90625 -0.8125,-1.359375 -1.5,-1.359375 -0.671875,0 -1.015625,0.515625 -1.21875,0.890625 -0.296875,0.625 -0.546875,1.65625 -0.546875,1.75 0,0.0625 0.0625,0.15625 0.1875,0.15625 0.140625,0 0.15625,-0.03125 0.25,-0.421875 C 1.171875,-6.25 1.5,-7.25 2.1875,-7.25 c 0.40625,0 0.53125,0.296875 0.53125,0.796875 0,0.375 -0.171875,1.046875 -0.296875,1.578125 l -0.46875,1.859375 C 1.875,-2.6875 1.6875,-1.90625 1.59375,-1.59375 c -0.109375,0.4375 -0.296875,1.25 -0.296875,1.328125 0,0.25 0.1875,0.4375 0.4375,0.4375 0.1875,0 0.515625,-0.125 0.625,-0.46875 0.046875,-0.140625 0.6875,-2.734375 0.796875,-3.125 0.078125,-0.390625 0.1875,-0.75 0.265625,-1.125 C 3.5,-4.78125 3.5625,-5.0625 3.609375,-5.28125 3.671875,-5.4375 4.125,-6.28125 4.5625,-6.65625 4.765625,-6.859375 5.21875,-7.25 5.921875,-7.25 c 0.28125,0 0.546875,0.046875 0.78125,0.203125 z m 0,0"
           id="path153" />
      </g>
    </g>
    <g
       clip-path="url(#clipPath6465)"
       id="g95"
       transform="translate(0.53125,-0.00637531)">
      <g
         fill="#000000"
         fill-opacity="1"
         id="g590">
        <g
           id="g588"
           transform="translate(111.416,12.897)">
          <path
             d="m 4.53125,-4.28125 c 0,-1.25 -0.125,-3.34375 -1.15625,-5.5625 -0.828125,-1.796875 -2.234375,-3.046875 -2.4375,-3.046875 -0.0625,0 -0.125,0.01563 -0.125,0.09375 0,0.03125 0.015625,0.0625 0.03125,0.09375 0.828125,0.859375 2.921875,3.046875 2.921875,8.390625 0,5.375 -2.078125,7.5625 -2.921875,8.421875 C 0.828125,4.15625 0.8125,4.171875 0.8125,4.203125 0.8125,4.28125 0.875,4.3125 0.9375,4.3125 1.125,4.3125 2.578125,3.03125 3.421875,1.140625 4.28125,-0.78125 4.53125,-2.640625 4.53125,-4.28125 Z m 0,0"
             id="path157" />
        </g>
      </g>
    </g>
  </g>
</svg>
