<?xml version="1.0" encoding="utf-8" standalone="no"?>
<!DOCTYPE svg PUBLIC "-//W3C//DTD SVG 1.1//EN"
  "http://www.w3.org/Graphics/SVG/1.1/DTD/svg11.dtd">
<svg xmlns:xlink="http://www.w3.org/1999/xlink" width="576pt" height="144pt" viewBox="0 0 576 144" xmlns="http://www.w3.org/2000/svg" version="1.1">
 <metadata>
  <rdf:RDF xmlns:dc="http://purl.org/dc/elements/1.1/" xmlns:cc="http://creativecommons.org/ns#" xmlns:rdf="http://www.w3.org/1999/02/22-rdf-syntax-ns#">
   <cc:Work>
    <dc:type rdf:resource="http://purl.org/dc/dcmitype/StillImage"/>
    <dc:date>2025-02-26T18:43:03.127934</dc:date>
    <dc:format>image/svg+xml</dc:format>
    <dc:creator>
     <cc:Agent>
      <dc:title>Matplotlib v3.6.3, https://matplotlib.org/</dc:title>
     </cc:Agent>
    </dc:creator>
   </cc:Work>
  </rdf:RDF>
 </metadata>
 <defs>
  <style type="text/css">*{stroke-linejoin: round; stroke-linecap: butt}</style>
 </defs>
 <g id="figure_1">
  <g id="patch_1">
   <path d="M 0 144 
L 576 144 
L 576 0 
L 0 0 
z
" style="fill: #ffffff"/>
  </g>
  <g id="axes_1">
   <g id="patch_2">
    <path d="M 47.961178 110.64351 
L 572.99976 110.64351 
L 572.99976 6.799459 
L 47.961178 6.799459 
z
" style="fill: #ffffff"/>
   </g>
   <g id="matplotlib.axis_1">
    <g id="xtick_1">
     <g id="line2d_1">
      <path d="M 71.826568 110.64351 
L 71.826568 6.799459 
" clip-path="url(#pa089610189)" style="fill: none; stroke: #b0b0b0; stroke-width: 0.8; stroke-linecap: square"/>
     </g>
     <g id="line2d_2">
      <defs>
       <path id="m572d4ebe38" d="M 0 0 
L 0 3.5 
" style="stroke: #000000; stroke-width: 0.8"/>
      </defs>
      <g>
       <use xlink:href="#m572d4ebe38" x="71.826568" y="110.64351" style="stroke: #000000; stroke-width: 0.8"/>
      </g>
     </g>
     <g id="text_1">
      <!-- 0 -->
      <g transform="translate(68.645318 125.241948) scale(0.1 -0.1)">
       <defs>
        <path id="DejaVuSans-30" d="M 2034 4250 
Q 1547 4250 1301 3770 
Q 1056 3291 1056 2328 
Q 1056 1369 1301 889 
Q 1547 409 2034 409 
Q 2525 409 2770 889 
Q 3016 1369 3016 2328 
Q 3016 3291 2770 3770 
Q 2525 4250 2034 4250 
z
M 2034 4750 
Q 2819 4750 3233 4129 
Q 3647 3509 3647 2328 
Q 3647 1150 3233 529 
Q 2819 -91 2034 -91 
Q 1250 -91 836 529 
Q 422 1150 422 2328 
Q 422 3509 836 4129 
Q 1250 4750 2034 4750 
z
" transform="scale(0.015625)"/>
       </defs>
       <use xlink:href="#DejaVuSans-30"/>
      </g>
     </g>
    </g>
    <g id="xtick_2">
     <g id="line2d_3">
      <path d="M 167.288128 110.64351 
L 167.288128 6.799459 
" clip-path="url(#pa089610189)" style="fill: none; stroke: #b0b0b0; stroke-width: 0.8; stroke-linecap: square"/>
     </g>
     <g id="line2d_4">
      <g>
       <use xlink:href="#m572d4ebe38" x="167.288128" y="110.64351" style="stroke: #000000; stroke-width: 0.8"/>
      </g>
     </g>
     <g id="text_2">
      <!-- 10 -->
      <g transform="translate(160.925628 125.241948) scale(0.1 -0.1)">
       <defs>
        <path id="DejaVuSans-31" d="M 794 531 
L 1825 531 
L 1825 4091 
L 703 3866 
L 703 4441 
L 1819 4666 
L 2450 4666 
L 2450 531 
L 3481 531 
L 3481 0 
L 794 0 
L 794 531 
z
" transform="scale(0.015625)"/>
       </defs>
       <use xlink:href="#DejaVuSans-31"/>
       <use xlink:href="#DejaVuSans-30" x="63.623047"/>
      </g>
     </g>
    </g>
    <g id="xtick_3">
     <g id="line2d_5">
      <path d="M 262.749689 110.64351 
L 262.749689 6.799459 
" clip-path="url(#pa089610189)" style="fill: none; stroke: #b0b0b0; stroke-width: 0.8; stroke-linecap: square"/>
     </g>
     <g id="line2d_6">
      <g>
       <use xlink:href="#m572d4ebe38" x="262.749689" y="110.64351" style="stroke: #000000; stroke-width: 0.8"/>
      </g>
     </g>
     <g id="text_3">
      <!-- 20 -->
      <g transform="translate(256.387189 125.241948) scale(0.1 -0.1)">
       <defs>
        <path id="DejaVuSans-32" d="M 1228 531 
L 3431 531 
L 3431 0 
L 469 0 
L 469 531 
Q 828 903 1448 1529 
Q 2069 2156 2228 2338 
Q 2531 2678 2651 2914 
Q 2772 3150 2772 3378 
Q 2772 3750 2511 3984 
Q 2250 4219 1831 4219 
Q 1534 4219 1204 4116 
Q 875 4013 500 3803 
L 500 4441 
Q 881 4594 1212 4672 
Q 1544 4750 1819 4750 
Q 2544 4750 2975 4387 
Q 3406 4025 3406 3419 
Q 3406 3131 3298 2873 
Q 3191 2616 2906 2266 
Q 2828 2175 2409 1742 
Q 1991 1309 1228 531 
z
" transform="scale(0.015625)"/>
       </defs>
       <use xlink:href="#DejaVuSans-32"/>
       <use xlink:href="#DejaVuSans-30" x="63.623047"/>
      </g>
     </g>
    </g>
    <g id="xtick_4">
     <g id="line2d_7">
      <path d="M 358.211249 110.64351 
L 358.211249 6.799459 
" clip-path="url(#pa089610189)" style="fill: none; stroke: #b0b0b0; stroke-width: 0.8; stroke-linecap: square"/>
     </g>
     <g id="line2d_8">
      <g>
       <use xlink:href="#m572d4ebe38" x="358.211249" y="110.64351" style="stroke: #000000; stroke-width: 0.8"/>
      </g>
     </g>
     <g id="text_4">
      <!-- 30 -->
      <g transform="translate(351.848749 125.241948) scale(0.1 -0.1)">
       <defs>
        <path id="DejaVuSans-33" d="M 2597 2516 
Q 3050 2419 3304 2112 
Q 3559 1806 3559 1356 
Q 3559 666 3084 287 
Q 2609 -91 1734 -91 
Q 1441 -91 1130 -33 
Q 819 25 488 141 
L 488 750 
Q 750 597 1062 519 
Q 1375 441 1716 441 
Q 2309 441 2620 675 
Q 2931 909 2931 1356 
Q 2931 1769 2642 2001 
Q 2353 2234 1838 2234 
L 1294 2234 
L 1294 2753 
L 1863 2753 
Q 2328 2753 2575 2939 
Q 2822 3125 2822 3475 
Q 2822 3834 2567 4026 
Q 2313 4219 1838 4219 
Q 1578 4219 1281 4162 
Q 984 4106 628 3988 
L 628 4550 
Q 988 4650 1302 4700 
Q 1616 4750 1894 4750 
Q 2613 4750 3031 4423 
Q 3450 4097 3450 3541 
Q 3450 3153 3228 2886 
Q 3006 2619 2597 2516 
z
" transform="scale(0.015625)"/>
       </defs>
       <use xlink:href="#DejaVuSans-33"/>
       <use xlink:href="#DejaVuSans-30" x="63.623047"/>
      </g>
     </g>
    </g>
    <g id="xtick_5">
     <g id="line2d_9">
      <path d="M 453.672809 110.64351 
L 453.672809 6.799459 
" clip-path="url(#pa089610189)" style="fill: none; stroke: #b0b0b0; stroke-width: 0.8; stroke-linecap: square"/>
     </g>
     <g id="line2d_10">
      <g>
       <use xlink:href="#m572d4ebe38" x="453.672809" y="110.64351" style="stroke: #000000; stroke-width: 0.8"/>
      </g>
     </g>
     <g id="text_5">
      <!-- 40 -->
      <g transform="translate(447.310309 125.241948) scale(0.1 -0.1)">
       <defs>
        <path id="DejaVuSans-34" d="M 2419 4116 
L 825 1625 
L 2419 1625 
L 2419 4116 
z
M 2253 4666 
L 3047 4666 
L 3047 1625 
L 3713 1625 
L 3713 1100 
L 3047 1100 
L 3047 0 
L 2419 0 
L 2419 1100 
L 313 1100 
L 313 1709 
L 2253 4666 
z
" transform="scale(0.015625)"/>
       </defs>
       <use xlink:href="#DejaVuSans-34"/>
       <use xlink:href="#DejaVuSans-30" x="63.623047"/>
      </g>
     </g>
    </g>
    <g id="xtick_6">
     <g id="line2d_11">
      <path d="M 549.13437 110.64351 
L 549.13437 6.799459 
" clip-path="url(#pa089610189)" style="fill: none; stroke: #b0b0b0; stroke-width: 0.8; stroke-linecap: square"/>
     </g>
     <g id="line2d_12">
      <g>
       <use xlink:href="#m572d4ebe38" x="549.13437" y="110.64351" style="stroke: #000000; stroke-width: 0.8"/>
      </g>
     </g>
     <g id="text_6">
      <!-- 50 -->
      <g transform="translate(542.77187 125.241948) scale(0.1 -0.1)">
       <defs>
        <path id="DejaVuSans-35" d="M 691 4666 
L 3169 4666 
L 3169 4134 
L 1269 4134 
L 1269 2991 
Q 1406 3038 1543 3061 
Q 1681 3084 1819 3084 
Q 2600 3084 3056 2656 
Q 3513 2228 3513 1497 
Q 3513 744 3044 326 
Q 2575 -91 1722 -91 
Q 1428 -91 1123 -41 
Q 819 9 494 109 
L 494 744 
Q 775 591 1075 516 
Q 1375 441 1709 441 
Q 2250 441 2565 725 
Q 2881 1009 2881 1497 
Q 2881 1984 2565 2268 
Q 2250 2553 1709 2553 
Q 1456 2553 1204 2497 
Q 953 2441 691 2322 
L 691 4666 
z
" transform="scale(0.015625)"/>
       </defs>
       <use xlink:href="#DejaVuSans-35"/>
       <use xlink:href="#DejaVuSans-30" x="63.623047"/>
      </g>
     </g>
    </g>
    <g id="text_7">
     <!-- x -->
     <g transform="translate(307.521094 138.920073) scale(0.1 -0.1)">
      <defs>
       <path id="DejaVuSans-78" d="M 3513 3500 
L 2247 1797 
L 3578 0 
L 2900 0 
L 1881 1375 
L 863 0 
L 184 0 
L 1544 1831 
L 300 3500 
L 978 3500 
L 1906 2253 
L 2834 3500 
L 3513 3500 
z
" transform="scale(0.015625)"/>
      </defs>
      <use xlink:href="#DejaVuSans-78"/>
     </g>
    </g>
   </g>
   <g id="matplotlib.axis_2">
    <g id="ytick_1">
     <g id="line2d_13">
      <path d="M 47.961178 110.64351 
L 572.99976 110.64351 
" clip-path="url(#pa089610189)" style="fill: none; stroke: #b0b0b0; stroke-width: 0.8; stroke-linecap: square"/>
     </g>
     <g id="line2d_14">
      <defs>
       <path id="m8d58722f7f" d="M 0 0 
L -3.5 0 
" style="stroke: #000000; stroke-width: 0.8"/>
      </defs>
      <g>
       <use xlink:href="#m8d58722f7f" x="47.961178" y="110.64351" style="stroke: #000000; stroke-width: 0.8"/>
      </g>
     </g>
     <g id="text_8">
      <!-- −0.5 -->
      <g transform="translate(16.678365 114.442729) scale(0.1 -0.1)">
       <defs>
        <path id="DejaVuSans-2212" d="M 678 2272 
L 4684 2272 
L 4684 1741 
L 678 1741 
L 678 2272 
z
" transform="scale(0.015625)"/>
        <path id="DejaVuSans-2e" d="M 684 794 
L 1344 794 
L 1344 0 
L 684 0 
L 684 794 
z
" transform="scale(0.015625)"/>
       </defs>
       <use xlink:href="#DejaVuSans-2212"/>
       <use xlink:href="#DejaVuSans-30" x="83.789062"/>
       <use xlink:href="#DejaVuSans-2e" x="147.412109"/>
       <use xlink:href="#DejaVuSans-35" x="179.199219"/>
      </g>
     </g>
    </g>
    <g id="ytick_2">
     <g id="line2d_15">
      <path d="M 47.961178 58.721484 
L 572.99976 58.721484 
" clip-path="url(#pa089610189)" style="fill: none; stroke: #b0b0b0; stroke-width: 0.8; stroke-linecap: square"/>
     </g>
     <g id="line2d_16">
      <g>
       <use xlink:href="#m8d58722f7f" x="47.961178" y="58.721484" style="stroke: #000000; stroke-width: 0.8"/>
      </g>
     </g>
     <g id="text_9">
      <!-- 0.0 -->
      <g transform="translate(25.058053 62.520703) scale(0.1 -0.1)">
       <use xlink:href="#DejaVuSans-30"/>
       <use xlink:href="#DejaVuSans-2e" x="63.623047"/>
       <use xlink:href="#DejaVuSans-30" x="95.410156"/>
      </g>
     </g>
    </g>
    <g id="ytick_3">
     <g id="line2d_17">
      <path d="M 47.961178 6.799459 
L 572.99976 6.799459 
" clip-path="url(#pa089610189)" style="fill: none; stroke: #b0b0b0; stroke-width: 0.8; stroke-linecap: square"/>
     </g>
     <g id="line2d_18">
      <g>
       <use xlink:href="#m8d58722f7f" x="47.961178" y="6.799459" style="stroke: #000000; stroke-width: 0.8"/>
      </g>
     </g>
     <g id="text_10">
      <!-- 0.5 -->
      <g transform="translate(25.058053 10.598677) scale(0.1 -0.1)">
       <use xlink:href="#DejaVuSans-30"/>
       <use xlink:href="#DejaVuSans-2e" x="63.623047"/>
       <use xlink:href="#DejaVuSans-35" x="95.410156"/>
      </g>
     </g>
    </g>
    <g id="text_11">
     <!-- y -->
     <g transform="translate(10.598678 61.680859) rotate(-90) scale(0.1 -0.1)">
      <defs>
       <path id="DejaVuSans-79" d="M 2059 -325 
Q 1816 -950 1584 -1140 
Q 1353 -1331 966 -1331 
L 506 -1331 
L 506 -850 
L 844 -850 
Q 1081 -850 1212 -737 
Q 1344 -625 1503 -206 
L 1606 56 
L 191 3500 
L 800 3500 
L 1894 763 
L 2988 3500 
L 3597 3500 
L 2059 -325 
z
" transform="scale(0.015625)"/>
      </defs>
      <use xlink:href="#DejaVuSans-79"/>
     </g>
    </g>
   </g>
   <g id="line2d_19">
    <path d="M 71.826568 58.721484 
L 74.308568 84.830404 
L 74.881338 88.983828 
L 75.454107 91.558489 
L 75.835953 92.268451 
L 76.026876 92.307496 
L 76.217799 92.135509 
L 76.599646 91.17275 
L 76.981492 89.434478 
L 77.554261 85.588017 
L 78.508877 77.094093 
L 79.654416 66.911996 
L 80.418108 62.095378 
L 80.990877 59.819334 
L 81.945493 57.263055 
L 82.518262 56.305021 
L 82.900109 56.084782 
L 83.281955 56.235873 
L 83.663801 56.751616 
L 84.23657 58.130508 
L 85.000263 60.779023 
L 86.718571 67.04073 
L 87.29134 68.29546 
L 87.673187 68.726855 
L 88.055033 68.794254 
L 88.436879 68.48097 
L 88.818725 67.786831 
L 89.391495 66.072601 
L 90.155187 62.748368 
L 91.491649 55.419977 
L 92.255342 49.647567 
L 93.209957 40.062707 
L 94.546419 26.332421 
L 95.119188 22.156373 
L 95.501035 20.349945 
L 95.882881 19.443385 
L 96.073804 19.34493 
L 96.264727 19.4863 
L 96.646573 20.480289 
L 97.02842 22.379794 
L 97.601189 26.721525 
L 98.364881 34.561777 
L 101.419651 68.416988 
L 101.992421 72.731147 
L 102.56519 75.344924 
L 102.947036 76.043806 
L 103.137959 76.076815 
L 103.328883 75.903417 
L 103.710729 74.965242 
L 104.092575 73.306419 
L 104.665344 69.710803 
L 105.810883 60.365548 
L 106.765499 53.130887 
L 107.338268 50.207567 
L 107.720114 49.13212 
L 107.911037 48.891598 
L 108.101961 48.858792 
L 108.292884 49.037041 
L 108.67473 50.022498 
L 109.056576 51.799863 
L 109.629346 55.668074 
L 110.965807 65.643106 
L 111.538577 68.016732 
L 111.920423 68.584177 
L 112.111346 68.55137 
L 112.302269 68.310849 
L 112.684115 67.235401 
L 113.256885 64.312081 
L 114.020577 58.667111 
L 115.738885 45.203481 
L 116.311655 42.477727 
L 116.693501 41.539551 
L 116.884424 41.366154 
L 117.075347 41.399162 
L 117.26627 41.642612 
L 117.648117 42.764392 
L 118.029963 44.711822 
L 118.602732 49.025981 
L 119.557348 58.721484 
L 120.511963 68.216984 
L 121.084733 72.038576 
L 121.466579 73.475647 
L 121.657502 73.83767 
L 121.848425 73.960477 
L 122.039348 73.847157 
L 122.421195 72.939812 
L 122.803041 71.198258 
L 123.37581 67.294849 
L 124.330426 58.721484 
L 125.475965 48.699568 
L 126.048734 45.276407 
L 126.43058 43.939057 
L 126.621503 43.595812 
L 126.812426 43.482492 
L 127.00335 43.605298 
L 127.194273 43.967322 
L 127.576119 45.404393 
L 127.957965 47.747131 
L 128.530735 52.695442 
L 129.867196 67.207579 
L 131.967351 90.721444 
L 132.54012 95.063175 
L 132.921966 96.962679 
L 133.303813 97.956669 
L 133.494736 98.098039 
L 133.685659 97.999583 
L 133.876582 97.663004 
L 134.258428 96.297351 
L 134.831198 92.675997 
L 135.59489 85.624742 
L 137.504121 66.171412 
L 138.267814 60.85715 
L 139.413352 54.802683 
L 139.986122 52.594701 
L 140.367968 51.644893 
L 140.749814 51.163391 
L 140.940737 51.101988 
L 141.322584 51.330271 
L 141.70443 51.998945 
L 142.277199 53.710526 
L 143.040892 56.920797 
L 144.568277 63.732443 
L 145.141046 65.444023 
L 145.522892 66.112698 
L 145.904739 66.340981 
L 146.095662 66.279577 
L 146.477508 65.798075 
L 146.859354 64.848268 
L 147.432123 62.640286 
L 148.386739 57.675225 
L 149.150432 52.773712 
L 149.914124 46.062234 
L 152.205202 23.368823 
L 152.777971 20.349945 
L 153.159817 19.443385 
L 153.35074 19.34493 
L 153.541663 19.4863 
L 153.92351 20.480289 
L 154.305356 22.379794 
L 154.878125 26.721525 
L 155.641818 34.561777 
L 159.651203 79.490295 
L 160.414896 86.368428 
L 160.987665 90.033176 
L 161.369511 91.558489 
L 161.751358 92.268451 
L 161.942281 92.307496 
L 162.133204 92.135509 
L 162.51505 91.17275 
L 162.896896 89.434478 
L 163.469666 85.588017 
L 164.424281 77.094093 
L 165.56982 66.911996 
L 166.333512 62.095378 
L 166.906282 59.819334 
L 167.860897 57.263055 
L 168.433667 56.305021 
L 168.815513 56.084782 
L 169.197359 56.235873 
L 169.579206 56.751616 
L 170.151975 58.130508 
L 170.915667 60.779023 
L 172.633975 67.04073 
L 173.206745 68.29546 
L 173.588591 68.726855 
L 173.970437 68.794254 
L 174.352284 68.48097 
L 174.73413 67.786831 
L 175.306899 66.072601 
L 176.070592 62.748368 
L 177.407053 55.468058 
L 178.170746 50.138756 
L 179.507208 38.465754 
L 180.461823 30.895438 
L 181.034593 27.805546 
L 181.416439 26.594108 
L 181.798285 26.140828 
L 181.989208 26.207803 
L 182.180131 26.470509 
L 182.561978 27.568269 
L 182.943824 29.380881 
L 183.516593 33.239712 
L 184.471209 41.641215 
L 186.38044 58.721484 
L 187.716902 70.367605 
L 189.43521 85.622559 
L 190.007979 89.05301 
L 190.389826 90.51713 
L 190.771672 91.235165 
L 190.962595 91.30214 
L 191.153518 91.17275 
L 191.535364 90.334822 
L 191.917211 88.765809 
L 192.48998 85.229671 
L 193.444596 77.267568 
L 194.781057 65.844287 
L 195.735673 59.765769 
L 196.690289 54.154191 
L 197.453981 47.907513 
L 198.59952 35.892851 
L 199.554136 26.332421 
L 200.126905 22.156373 
L 200.508751 20.349945 
L 200.890597 19.443385 
L 201.08152 19.34493 
L 201.272444 19.4863 
L 201.65429 20.480289 
L 202.036136 22.379794 
L 202.608905 26.721525 
L 203.372598 34.561777 
L 208.336599 90.721444 
L 208.909368 95.063175 
L 209.291215 96.962679 
L 209.673061 97.956669 
L 209.863984 98.098039 
L 210.054907 97.999583 
L 210.24583 97.663004 
L 210.627677 96.297351 
L 211.200446 92.675997 
L 211.964138 85.624742 
L 213.87337 66.171412 
L 214.637062 60.85715 
L 215.973524 53.773731 
L 216.737216 50.71445 
L 217.309986 49.262108 
L 217.691832 48.757368 
L 218.073678 48.635492 
L 218.455524 48.887981 
L 218.837371 49.490164 
L 219.41014 50.958267 
L 220.173833 53.659298 
L 221.701218 59.312461 
L 222.273987 60.691352 
L 222.655833 61.207096 
L 223.037679 61.358186 
L 223.419526 61.137948 
L 223.801372 60.572803 
L 224.374141 59.236715 
L 225.51968 56.347609 
L 226.092449 55.392212 
L 226.474296 55.032944 
L 226.856142 54.911736 
L 227.237988 55.025878 
L 227.619834 55.360215 
L 228.192604 56.216005 
L 228.956296 57.821141 
L 230.483681 61.226964 
L 231.05645 62.082754 
L 231.438297 62.417091 
L 231.820143 62.531233 
L 232.201989 62.410025 
L 232.583835 62.050757 
L 233.156605 61.095359 
L 233.920297 59.23869 
L 234.68399 56.974568 
L 235.256759 54.34227 
L 235.829528 50.530973 
L 236.784144 42.161361 
L 238.120606 30.428481 
L 238.693375 27.047388 
L 239.075222 25.687549 
L 239.457068 25.135473 
L 239.647991 25.174518 
L 239.838914 25.424928 
L 240.22076 26.548464 
L 240.602606 28.459141 
L 241.175376 32.612565 
L 242.129991 41.941538 
L 244.802915 70.022963 
L 245.375685 73.805109 
L 245.757531 75.344924 
L 246.139377 76.043806 
L 246.3303 76.076815 
L 246.521223 75.903417 
L 246.903069 74.965242 
L 247.284916 73.306419 
L 247.857685 69.710803 
L 249.003224 60.365548 
L 249.957839 53.130887 
L 250.530609 50.207567 
L 250.912455 49.13212 
L 251.103378 48.891598 
L 251.294301 48.858792 
L 251.485224 49.037041 
L 251.867071 50.022498 
L 252.248917 51.799863 
L 252.821686 55.668074 
L 254.158148 66.843128 
L 256.449226 86.913983 
L 257.021995 89.8747 
L 257.403841 90.972459 
L 257.594764 91.235165 
L 257.785687 91.30214 
L 257.97661 91.17275 
L 258.358457 90.334822 
L 258.740303 88.765809 
L 259.313072 85.229671 
L 260.267688 77.267568 
L 261.60415 65.844287 
L 262.558765 59.765769 
L 263.704304 52.973716 
L 264.65892 45.329756 
L 266.377228 30.895438 
L 266.949997 27.805546 
L 267.331843 26.594108 
L 267.71369 26.140828 
L 267.904613 26.207803 
L 268.095536 26.470509 
L 268.477382 27.568269 
L 268.859228 29.380881 
L 269.431998 33.239712 
L 270.386613 41.641215 
L 272.295845 58.721484 
L 275.159691 81.239652 
L 275.732461 83.893417 
L 276.114307 84.930061 
L 276.496153 85.323286 
L 276.687076 85.272636 
L 277.068923 84.682497 
L 277.450769 83.471948 
L 278.023538 80.643379 
L 278.787231 75.536566 
L 280.314616 64.821041 
L 281.078308 61.113213 
L 281.842001 58.721484 
L 282.41477 56.974568 
L 282.987539 54.34227 
L 283.560309 50.530973 
L 284.514924 42.161361 
L 285.851386 30.428481 
L 286.424156 27.047388 
L 286.806002 25.687549 
L 287.187848 25.135473 
L 287.378771 25.174518 
L 287.569694 25.424928 
L 287.95154 26.548464 
L 288.333387 28.459141 
L 288.906156 32.612565 
L 289.860772 41.941538 
L 292.915542 76.194001 
L 294.252003 90.721444 
L 294.824773 95.063175 
L 295.206619 96.962679 
L 295.588465 97.956669 
L 295.779388 98.098039 
L 295.970312 97.999583 
L 296.161235 97.663004 
L 296.543081 96.297351 
L 297.11585 92.675997 
L 297.879543 85.624742 
L 299.788774 66.171412 
L 300.552466 60.85715 
L 301.888928 53.773731 
L 302.652621 50.71445 
L 303.22539 49.262108 
L 303.607236 48.757368 
L 303.989083 48.635492 
L 304.370929 48.887981 
L 304.752775 49.490164 
L 305.325544 50.958267 
L 306.089237 53.659298 
L 307.616622 59.312461 
L 308.189391 60.691352 
L 308.571238 61.207096 
L 308.953084 61.358186 
L 309.33493 61.137948 
L 309.716776 60.572803 
L 310.289546 59.236715 
L 311.244161 56.870166 
L 311.626007 56.305021 
L 312.007854 56.084782 
L 312.3897 56.235873 
L 312.771546 56.751616 
L 313.344316 58.130508 
L 314.108008 60.779023 
L 315.826316 67.04073 
L 316.399085 68.29546 
L 316.780932 68.726855 
L 317.162778 68.794254 
L 317.544624 68.48097 
L 317.92647 67.786831 
L 318.49924 66.072601 
L 319.262932 62.748368 
L 320.599394 55.468058 
L 321.363087 50.138756 
L 322.699548 38.465754 
L 323.654164 30.895438 
L 324.226933 27.805546 
L 324.60878 26.594108 
L 324.990626 26.140828 
L 325.181549 26.207803 
L 325.372472 26.470509 
L 325.754318 27.568269 
L 326.136165 29.380881 
L 326.708934 33.239712 
L 327.66355 41.641215 
L 329.572781 58.721484 
L 330.527396 65.643106 
L 331.100166 68.016732 
L 331.482012 68.584177 
L 331.672935 68.55137 
L 331.863858 68.310849 
L 332.245705 67.235401 
L 332.818474 64.312081 
L 333.582166 58.667111 
L 335.300474 45.203481 
L 335.873244 42.477727 
L 336.25509 41.539551 
L 336.446013 41.366154 
L 336.636936 41.399162 
L 336.827859 41.642612 
L 337.209706 42.764392 
L 337.591552 44.711822 
L 338.164321 49.025981 
L 339.118937 58.721484 
L 340.264476 70.022963 
L 340.837245 73.805109 
L 341.219091 75.344924 
L 341.600937 76.043806 
L 341.791861 76.076815 
L 341.982784 75.903417 
L 342.36463 74.965242 
L 342.746476 73.306419 
L 343.319246 69.710803 
L 344.464784 60.365548 
L 345.4194 53.130887 
L 345.992169 50.207567 
L 346.374015 49.13212 
L 346.564939 48.891598 
L 346.755862 48.858792 
L 346.946785 49.037041 
L 347.328631 50.022498 
L 347.710477 51.799863 
L 348.283247 55.668074 
L 349.810632 66.95225 
L 350.383401 69.336371 
L 350.765247 70.058624 
L 350.95617 70.150729 
L 351.147094 70.065739 
L 351.52894 69.38523 
L 351.910786 68.079065 
L 352.483555 65.151508 
L 353.438171 58.721484 
L 354.58371 51.205047 
L 355.156479 48.637676 
L 355.538325 47.634664 
L 355.920172 47.29224 
L 356.111095 47.384345 
L 356.492941 48.106598 
L 356.874787 49.531309 
L 357.447556 52.843282 
L 358.402172 60.280999 
L 360.884173 80.099918 
L 361.456942 83.146999 
L 361.838788 84.489992 
L 362.220635 85.208794 
L 362.411558 85.323286 
L 362.602481 85.272636 
L 362.984327 84.682497 
L 363.366173 83.471948 
L 363.938943 80.643379 
L 364.702635 75.536566 
L 366.23002 64.821041 
L 366.993713 61.113213 
L 367.757405 58.721484 
L 368.330174 56.974568 
L 368.902944 54.34227 
L 369.475713 50.530973 
L 370.430329 42.161361 
L 371.766791 30.428481 
L 372.33956 27.047388 
L 372.721406 25.687549 
L 373.103252 25.135473 
L 373.294176 25.174518 
L 373.485099 25.424928 
L 373.866945 26.548464 
L 374.248791 28.459141 
L 374.82156 32.612565 
L 375.776176 41.941538 
L 379.976485 86.368428 
L 380.549254 90.033176 
L 380.9311 91.558489 
L 381.312947 92.268451 
L 381.50387 92.307496 
L 381.694793 92.135509 
L 382.076639 91.17275 
L 382.458485 89.434478 
L 383.031255 85.588017 
L 383.98587 77.094093 
L 385.131409 66.911996 
L 385.895102 62.095378 
L 386.467871 59.819334 
L 387.804333 55.547595 
L 388.377102 52.621928 
L 389.331718 46.153468 
L 390.66818 36.79959 
L 391.240949 33.971021 
L 391.622795 32.760472 
L 392.004641 32.170333 
L 392.195564 32.119682 
L 392.386488 32.234175 
L 392.768334 32.952977 
L 393.15018 34.29597 
L 393.722949 37.343051 
L 394.486642 42.844144 
L 397.541412 66.625124 
L 397.923258 68.016732 
L 398.305104 68.584177 
L 398.496027 68.55137 
L 398.686951 68.310849 
L 399.068797 67.235401 
L 399.641566 64.312081 
L 400.405259 58.667111 
L 402.123567 45.203481 
L 402.696336 42.477727 
L 403.078182 41.539551 
L 403.269106 41.366154 
L 403.460029 41.399162 
L 403.650952 41.642612 
L 404.032798 42.764392 
L 404.414644 44.711822 
L 404.987414 49.025981 
L 405.942029 58.721484 
L 408.42403 84.830404 
L 408.996799 88.983828 
L 409.569569 91.558489 
L 409.951415 92.268451 
L 410.142338 92.307496 
L 410.333261 92.135509 
L 410.715107 91.17275 
L 411.096953 89.434478 
L 411.669723 85.588017 
L 412.624338 77.094093 
L 413.769877 66.911996 
L 414.53357 62.095378 
L 415.106339 59.819334 
L 416.442801 55.547595 
L 417.01557 52.621928 
L 417.970186 46.153468 
L 419.306648 36.79959 
L 419.879417 33.971021 
L 420.261263 32.760472 
L 420.64311 32.170333 
L 420.834033 32.119682 
L 421.024956 32.234175 
L 421.406802 32.952977 
L 421.788648 34.29597 
L 422.361418 37.343051 
L 423.12511 42.844144 
L 425.988957 66.843128 
L 428.280034 86.913983 
L 428.852804 89.8747 
L 429.23465 90.972459 
L 429.425573 91.235165 
L 429.616496 91.30214 
L 429.807419 91.17275 
L 430.189266 90.334822 
L 430.571112 88.765809 
L 431.143881 85.229671 
L 432.098497 77.267568 
L 433.434959 65.844287 
L 434.389574 59.765769 
L 435.535113 52.973716 
L 436.489729 45.329756 
L 438.208037 30.895438 
L 438.780806 27.805546 
L 439.162652 26.594108 
L 439.544498 26.140828 
L 439.735422 26.207803 
L 439.926345 26.470509 
L 440.308191 27.568269 
L 440.690037 29.380881 
L 441.262807 33.239712 
L 442.217422 41.641215 
L 444.126653 58.721484 
L 445.081269 65.843109 
L 445.654038 68.709303 
L 446.035885 69.787106 
L 446.417731 70.150729 
L 446.608654 70.065739 
L 446.9905 69.38523 
L 447.372346 68.079065 
L 447.945116 65.151508 
L 448.899731 58.721484 
L 450.04527 51.205047 
L 450.618039 48.637676 
L 450.999886 47.634664 
L 451.381732 47.29224 
L 451.572655 47.384345 
L 451.954501 48.106598 
L 452.336348 49.531309 
L 452.909117 52.843282 
L 453.863733 60.280999 
L 456.345733 80.099918 
L 456.918502 83.146999 
L 457.300349 84.489992 
L 457.682195 85.208794 
L 457.873118 85.323286 
L 458.064041 85.272636 
L 458.445887 84.682497 
L 458.827734 83.471948 
L 459.400503 80.643379 
L 460.164196 75.536566 
L 461.691581 64.821041 
L 462.455273 61.113213 
L 463.218965 58.721484 
L 463.791735 56.974568 
L 464.364504 54.34227 
L 464.937274 50.530973 
L 465.891889 42.161361 
L 467.228351 30.428481 
L 467.80112 27.047388 
L 468.182967 25.687549 
L 468.564813 25.135473 
L 468.755736 25.174518 
L 468.946659 25.424928 
L 469.328505 26.548464 
L 469.710352 28.459141 
L 470.283121 32.612565 
L 471.237737 41.941538 
L 473.719737 68.216984 
L 474.292506 72.038576 
L 474.674353 73.475647 
L 474.865276 73.83767 
L 475.056199 73.960477 
L 475.247122 73.847157 
L 475.628968 72.939812 
L 476.010815 71.198258 
L 476.583584 67.294849 
L 477.5382 58.721484 
L 478.683738 48.699568 
L 479.256508 45.276407 
L 479.638354 43.939057 
L 479.829277 43.595812 
L 480.0202 43.482492 
L 480.211123 43.605298 
L 480.402046 43.967322 
L 480.783893 45.404393 
L 481.165739 47.747131 
L 481.738508 52.695442 
L 483.07497 67.207579 
L 485.175124 90.721444 
L 485.747894 95.063175 
L 486.12974 96.962679 
L 486.511586 97.956669 
L 486.702509 98.098039 
L 486.893432 97.999583 
L 487.084356 97.663004 
L 487.466202 96.297351 
L 488.038971 92.675997 
L 488.802664 85.624742 
L 490.711895 66.171412 
L 491.475587 60.85715 
L 492.812049 52.773712 
L 493.575742 46.062234 
L 495.866819 23.368823 
L 496.439589 20.349945 
L 496.821435 19.443385 
L 497.012358 19.34493 
L 497.203281 19.4863 
L 497.585127 20.480289 
L 497.966973 22.379794 
L 498.539743 26.721525 
L 499.303435 34.561777 
L 502.167282 66.559087 
L 502.740052 70.975052 
L 503.121898 72.874666 
L 503.503744 73.83767 
L 503.694667 73.960477 
L 503.88559 73.847157 
L 504.267436 72.939812 
L 504.649283 71.198258 
L 505.222052 67.294849 
L 506.176668 58.721484 
L 507.322206 48.699568 
L 507.894976 45.276407 
L 508.276822 43.939057 
L 508.467745 43.595812 
L 508.658668 43.482492 
L 508.849591 43.605298 
L 509.040514 43.967322 
L 509.422361 45.404393 
L 509.804207 47.747131 
L 510.376976 52.695442 
L 511.904361 69.217003 
L 513.240823 83.159878 
L 514.004516 88.983828 
L 514.577285 91.558489 
L 514.959131 92.268451 
L 515.150054 92.307496 
L 515.340977 92.135509 
L 515.722824 91.17275 
L 516.10467 89.434478 
L 516.677439 85.588017 
L 517.632055 77.094093 
L 518.777594 66.911996 
L 519.541286 62.095378 
L 520.114056 59.819334 
L 521.068671 57.263055 
L 521.64144 56.305021 
L 522.023287 56.084782 
L 522.405133 56.235873 
L 522.786979 56.751616 
L 523.359749 58.130508 
L 524.123441 60.779023 
L 525.841749 67.04073 
L 526.414518 68.29546 
L 526.796365 68.726855 
L 527.178211 68.794254 
L 527.560057 68.48097 
L 527.941903 67.786831 
L 528.514673 66.072601 
L 529.278365 62.748368 
L 531.37852 52.594701 
L 531.760366 51.644893 
L 532.142212 51.163391 
L 532.333135 51.101988 
L 532.714981 51.330271 
L 533.096828 51.998945 
L 533.669597 53.710526 
L 534.43329 56.920797 
L 535.960675 63.732443 
L 536.533444 65.444023 
L 536.91529 66.112698 
L 537.297136 66.340981 
L 537.48806 66.279577 
L 537.869906 65.798075 
L 538.251752 64.848268 
L 538.824521 62.640286 
L 539.97006 56.675872 
L 540.733753 53.234308 
L 541.306522 51.644893 
L 541.688368 51.163391 
L 541.879291 51.101988 
L 542.261138 51.330271 
L 542.642984 51.998945 
L 543.215753 53.710526 
L 543.979446 56.920797 
L 545.506831 63.732443 
L 546.0796 65.444023 
L 546.461446 66.112698 
L 546.843292 66.340981 
L 547.034216 66.279577 
L 547.416062 65.798075 
L 547.797908 64.848268 
L 548.370677 62.640286 
L 549.13437 58.721484 
L 549.13437 58.721484 
" clip-path="url(#pa089610189)" style="fill: none; stroke: #1f77b4; stroke-width: 1.5; stroke-linecap: square"/>
   </g>
   <g id="patch_3">
    <path d="M 47.961178 110.64351 
L 47.961178 6.799459 
" style="fill: none; stroke: #000000; stroke-width: 0.8; stroke-linejoin: miter; stroke-linecap: square"/>
   </g>
   <g id="patch_4">
    <path d="M 572.99976 110.64351 
L 572.99976 6.799459 
" style="fill: none; stroke: #000000; stroke-width: 0.8; stroke-linejoin: miter; stroke-linecap: square"/>
   </g>
   <g id="patch_5">
    <path d="M 47.961178 110.64351 
L 572.99976 110.64351 
" style="fill: none; stroke: #000000; stroke-width: 0.8; stroke-linejoin: miter; stroke-linecap: square"/>
   </g>
   <g id="patch_6">
    <path d="M 47.961178 6.799459 
L 572.99976 6.799459 
" style="fill: none; stroke: #000000; stroke-width: 0.8; stroke-linejoin: miter; stroke-linecap: square"/>
   </g>
  </g>
 </g>
 <defs>
  <clipPath id="pa089610189">
   <rect x="47.961178" y="6.799459" width="525.038582" height="103.844051"/>
  </clipPath>
 </defs>
</svg>
