<?xml version="1.0" encoding="utf-8" standalone="no"?>
<!DOCTYPE svg PUBLIC "-//W3C//DTD SVG 1.1//EN"
  "http://www.w3.org/Graphics/SVG/1.1/DTD/svg11.dtd">
<svg xmlns:xlink="http://www.w3.org/1999/xlink" width="288pt" height="288pt" viewBox="0 0 288 288" xmlns="http://www.w3.org/2000/svg" version="1.1">
 <metadata>
  <rdf:RDF xmlns:dc="http://purl.org/dc/elements/1.1/" xmlns:cc="http://creativecommons.org/ns#" xmlns:rdf="http://www.w3.org/1999/02/22-rdf-syntax-ns#">
   <cc:Work>
    <dc:type rdf:resource="http://purl.org/dc/dcmitype/StillImage"/>
    <dc:date>2025-02-17T17:03:37.000316</dc:date>
    <dc:format>image/svg+xml</dc:format>
    <dc:creator>
     <cc:Agent>
      <dc:title>Matplotlib v3.6.3, https://matplotlib.org/</dc:title>
     </cc:Agent>
    </dc:creator>
   </cc:Work>
  </rdf:RDF>
 </metadata>
 <defs>
  <style type="text/css">*{stroke-linejoin: round; stroke-linecap: butt}</style>
 </defs>
 <g id="figure_1">
  <g id="patch_1">
   <path d="M 0 288 
L 288 288 
L 288 0 
L 0 0 
z
" style="fill: #ffffff"/>
  </g>
  <g id="axes_1">
   <g id="patch_2">
    <path d="M 39.58149 254.64351 
L 277.048198 254.64351 
L 277.048198 6.799459 
L 39.58149 6.799459 
z
" style="fill: #ffffff"/>
   </g>
   <g id="matplotlib.axis_1">
    <g id="xtick_1">
     <g id="line2d_1">
      <path d="M 39.58149 254.64351 
L 39.58149 6.799459 
" clip-path="url(#pac12bb2529)" style="fill: none; stroke: #b0b0b0; stroke-width: 0.8; stroke-linecap: square"/>
     </g>
     <g id="line2d_2">
      <defs>
       <path id="mba3fa2cba9" d="M 0 0 
L 0 3.5 
" style="stroke: #000000; stroke-width: 0.8"/>
      </defs>
      <g>
       <use xlink:href="#mba3fa2cba9" x="39.58149" y="254.64351" style="stroke: #000000; stroke-width: 0.8"/>
      </g>
     </g>
     <g id="text_1">
      <!-- 0.0 -->
      <g transform="translate(31.629928 269.241947) scale(0.1 -0.1)">
       <defs>
        <path id="DejaVuSans-30" d="M 2034 4250 
Q 1547 4250 1301 3770 
Q 1056 3291 1056 2328 
Q 1056 1369 1301 889 
Q 1547 409 2034 409 
Q 2525 409 2770 889 
Q 3016 1369 3016 2328 
Q 3016 3291 2770 3770 
Q 2525 4250 2034 4250 
z
M 2034 4750 
Q 2819 4750 3233 4129 
Q 3647 3509 3647 2328 
Q 3647 1150 3233 529 
Q 2819 -91 2034 -91 
Q 1250 -91 836 529 
Q 422 1150 422 2328 
Q 422 3509 836 4129 
Q 1250 4750 2034 4750 
z
" transform="scale(0.015625)"/>
        <path id="DejaVuSans-2e" d="M 684 794 
L 1344 794 
L 1344 0 
L 684 0 
L 684 794 
z
" transform="scale(0.015625)"/>
       </defs>
       <use xlink:href="#DejaVuSans-30"/>
       <use xlink:href="#DejaVuSans-2e" x="63.623047"/>
       <use xlink:href="#DejaVuSans-30" x="95.410156"/>
      </g>
     </g>
    </g>
    <g id="xtick_2">
     <g id="line2d_3">
      <path d="M 87.074832 254.64351 
L 87.074832 6.799459 
" clip-path="url(#pac12bb2529)" style="fill: none; stroke: #b0b0b0; stroke-width: 0.8; stroke-linecap: square"/>
     </g>
     <g id="line2d_4">
      <g>
       <use xlink:href="#mba3fa2cba9" x="87.074832" y="254.64351" style="stroke: #000000; stroke-width: 0.8"/>
      </g>
     </g>
     <g id="text_2">
      <!-- 0.2 -->
      <g transform="translate(79.123269 269.241947) scale(0.1 -0.1)">
       <defs>
        <path id="DejaVuSans-32" d="M 1228 531 
L 3431 531 
L 3431 0 
L 469 0 
L 469 531 
Q 828 903 1448 1529 
Q 2069 2156 2228 2338 
Q 2531 2678 2651 2914 
Q 2772 3150 2772 3378 
Q 2772 3750 2511 3984 
Q 2250 4219 1831 4219 
Q 1534 4219 1204 4116 
Q 875 4013 500 3803 
L 500 4441 
Q 881 4594 1212 4672 
Q 1544 4750 1819 4750 
Q 2544 4750 2975 4387 
Q 3406 4025 3406 3419 
Q 3406 3131 3298 2873 
Q 3191 2616 2906 2266 
Q 2828 2175 2409 1742 
Q 1991 1309 1228 531 
z
" transform="scale(0.015625)"/>
       </defs>
       <use xlink:href="#DejaVuSans-30"/>
       <use xlink:href="#DejaVuSans-2e" x="63.623047"/>
       <use xlink:href="#DejaVuSans-32" x="95.410156"/>
      </g>
     </g>
    </g>
    <g id="xtick_3">
     <g id="line2d_5">
      <path d="M 134.568173 254.64351 
L 134.568173 6.799459 
" clip-path="url(#pac12bb2529)" style="fill: none; stroke: #b0b0b0; stroke-width: 0.8; stroke-linecap: square"/>
     </g>
     <g id="line2d_6">
      <g>
       <use xlink:href="#mba3fa2cba9" x="134.568173" y="254.64351" style="stroke: #000000; stroke-width: 0.8"/>
      </g>
     </g>
     <g id="text_3">
      <!-- 0.4 -->
      <g transform="translate(126.616611 269.241947) scale(0.1 -0.1)">
       <defs>
        <path id="DejaVuSans-34" d="M 2419 4116 
L 825 1625 
L 2419 1625 
L 2419 4116 
z
M 2253 4666 
L 3047 4666 
L 3047 1625 
L 3713 1625 
L 3713 1100 
L 3047 1100 
L 3047 0 
L 2419 0 
L 2419 1100 
L 313 1100 
L 313 1709 
L 2253 4666 
z
" transform="scale(0.015625)"/>
       </defs>
       <use xlink:href="#DejaVuSans-30"/>
       <use xlink:href="#DejaVuSans-2e" x="63.623047"/>
       <use xlink:href="#DejaVuSans-34" x="95.410156"/>
      </g>
     </g>
    </g>
    <g id="xtick_4">
     <g id="line2d_7">
      <path d="M 182.061515 254.64351 
L 182.061515 6.799459 
" clip-path="url(#pac12bb2529)" style="fill: none; stroke: #b0b0b0; stroke-width: 0.8; stroke-linecap: square"/>
     </g>
     <g id="line2d_8">
      <g>
       <use xlink:href="#mba3fa2cba9" x="182.061515" y="254.64351" style="stroke: #000000; stroke-width: 0.8"/>
      </g>
     </g>
     <g id="text_4">
      <!-- 0.6 -->
      <g transform="translate(174.109952 269.241947) scale(0.1 -0.1)">
       <defs>
        <path id="DejaVuSans-36" d="M 2113 2584 
Q 1688 2584 1439 2293 
Q 1191 2003 1191 1497 
Q 1191 994 1439 701 
Q 1688 409 2113 409 
Q 2538 409 2786 701 
Q 3034 994 3034 1497 
Q 3034 2003 2786 2293 
Q 2538 2584 2113 2584 
z
M 3366 4563 
L 3366 3988 
Q 3128 4100 2886 4159 
Q 2644 4219 2406 4219 
Q 1781 4219 1451 3797 
Q 1122 3375 1075 2522 
Q 1259 2794 1537 2939 
Q 1816 3084 2150 3084 
Q 2853 3084 3261 2657 
Q 3669 2231 3669 1497 
Q 3669 778 3244 343 
Q 2819 -91 2113 -91 
Q 1303 -91 875 529 
Q 447 1150 447 2328 
Q 447 3434 972 4092 
Q 1497 4750 2381 4750 
Q 2619 4750 2861 4703 
Q 3103 4656 3366 4563 
z
" transform="scale(0.015625)"/>
       </defs>
       <use xlink:href="#DejaVuSans-30"/>
       <use xlink:href="#DejaVuSans-2e" x="63.623047"/>
       <use xlink:href="#DejaVuSans-36" x="95.410156"/>
      </g>
     </g>
    </g>
    <g id="xtick_5">
     <g id="line2d_9">
      <path d="M 229.554856 254.64351 
L 229.554856 6.799459 
" clip-path="url(#pac12bb2529)" style="fill: none; stroke: #b0b0b0; stroke-width: 0.8; stroke-linecap: square"/>
     </g>
     <g id="line2d_10">
      <g>
       <use xlink:href="#mba3fa2cba9" x="229.554856" y="254.64351" style="stroke: #000000; stroke-width: 0.8"/>
      </g>
     </g>
     <g id="text_5">
      <!-- 0.8 -->
      <g transform="translate(221.603294 269.241947) scale(0.1 -0.1)">
       <defs>
        <path id="DejaVuSans-38" d="M 2034 2216 
Q 1584 2216 1326 1975 
Q 1069 1734 1069 1313 
Q 1069 891 1326 650 
Q 1584 409 2034 409 
Q 2484 409 2743 651 
Q 3003 894 3003 1313 
Q 3003 1734 2745 1975 
Q 2488 2216 2034 2216 
z
M 1403 2484 
Q 997 2584 770 2862 
Q 544 3141 544 3541 
Q 544 4100 942 4425 
Q 1341 4750 2034 4750 
Q 2731 4750 3128 4425 
Q 3525 4100 3525 3541 
Q 3525 3141 3298 2862 
Q 3072 2584 2669 2484 
Q 3125 2378 3379 2068 
Q 3634 1759 3634 1313 
Q 3634 634 3220 271 
Q 2806 -91 2034 -91 
Q 1263 -91 848 271 
Q 434 634 434 1313 
Q 434 1759 690 2068 
Q 947 2378 1403 2484 
z
M 1172 3481 
Q 1172 3119 1398 2916 
Q 1625 2713 2034 2713 
Q 2441 2713 2670 2916 
Q 2900 3119 2900 3481 
Q 2900 3844 2670 4047 
Q 2441 4250 2034 4250 
Q 1625 4250 1398 4047 
Q 1172 3844 1172 3481 
z
" transform="scale(0.015625)"/>
       </defs>
       <use xlink:href="#DejaVuSans-30"/>
       <use xlink:href="#DejaVuSans-2e" x="63.623047"/>
       <use xlink:href="#DejaVuSans-38" x="95.410156"/>
      </g>
     </g>
    </g>
    <g id="xtick_6">
     <g id="line2d_11">
      <path d="M 277.048198 254.64351 
L 277.048198 6.799459 
" clip-path="url(#pac12bb2529)" style="fill: none; stroke: #b0b0b0; stroke-width: 0.8; stroke-linecap: square"/>
     </g>
     <g id="line2d_12">
      <g>
       <use xlink:href="#mba3fa2cba9" x="277.048198" y="254.64351" style="stroke: #000000; stroke-width: 0.8"/>
      </g>
     </g>
     <g id="text_6">
      <!-- 1.0 -->
      <g transform="translate(269.096635 269.241947) scale(0.1 -0.1)">
       <defs>
        <path id="DejaVuSans-31" d="M 794 531 
L 1825 531 
L 1825 4091 
L 703 3866 
L 703 4441 
L 1819 4666 
L 2450 4666 
L 2450 531 
L 3481 531 
L 3481 0 
L 794 0 
L 794 531 
z
" transform="scale(0.015625)"/>
       </defs>
       <use xlink:href="#DejaVuSans-31"/>
       <use xlink:href="#DejaVuSans-2e" x="63.623047"/>
       <use xlink:href="#DejaVuSans-30" x="95.410156"/>
      </g>
     </g>
    </g>
    <g id="text_7">
     <!-- r -->
     <g transform="translate(156.259375 282.920073) scale(0.1 -0.1)">
      <defs>
       <path id="DejaVuSans-72" d="M 2631 2963 
Q 2534 3019 2420 3045 
Q 2306 3072 2169 3072 
Q 1681 3072 1420 2755 
Q 1159 2438 1159 1844 
L 1159 0 
L 581 0 
L 581 3500 
L 1159 3500 
L 1159 2956 
Q 1341 3275 1631 3429 
Q 1922 3584 2338 3584 
Q 2397 3584 2469 3576 
Q 2541 3569 2628 3553 
L 2631 2963 
z
" transform="scale(0.015625)"/>
      </defs>
      <use xlink:href="#DejaVuSans-72"/>
     </g>
    </g>
   </g>
   <g id="matplotlib.axis_2">
    <g id="ytick_1">
     <g id="line2d_13">
      <path d="M 39.58149 254.64351 
L 277.048198 254.64351 
" clip-path="url(#pac12bb2529)" style="fill: none; stroke: #b0b0b0; stroke-width: 0.8; stroke-linecap: square"/>
     </g>
     <g id="line2d_14">
      <defs>
       <path id="mad45026320" d="M 0 0 
L -3.5 0 
" style="stroke: #000000; stroke-width: 0.8"/>
      </defs>
      <g>
       <use xlink:href="#mad45026320" x="39.58149" y="254.64351" style="stroke: #000000; stroke-width: 0.8"/>
      </g>
     </g>
     <g id="text_8">
      <!-- 0.0 -->
      <g transform="translate(16.678365 258.442729) scale(0.1 -0.1)">
       <use xlink:href="#DejaVuSans-30"/>
       <use xlink:href="#DejaVuSans-2e" x="63.623047"/>
       <use xlink:href="#DejaVuSans-30" x="95.410156"/>
      </g>
     </g>
    </g>
    <g id="ytick_2">
     <g id="line2d_15">
      <path d="M 39.58149 205.0747 
L 277.048198 205.0747 
" clip-path="url(#pac12bb2529)" style="fill: none; stroke: #b0b0b0; stroke-width: 0.8; stroke-linecap: square"/>
     </g>
     <g id="line2d_16">
      <g>
       <use xlink:href="#mad45026320" x="39.58149" y="205.0747" style="stroke: #000000; stroke-width: 0.8"/>
      </g>
     </g>
     <g id="text_9">
      <!-- 0.2 -->
      <g transform="translate(16.678365 208.873919) scale(0.1 -0.1)">
       <use xlink:href="#DejaVuSans-30"/>
       <use xlink:href="#DejaVuSans-2e" x="63.623047"/>
       <use xlink:href="#DejaVuSans-32" x="95.410156"/>
      </g>
     </g>
    </g>
    <g id="ytick_3">
     <g id="line2d_17">
      <path d="M 39.58149 155.505889 
L 277.048198 155.505889 
" clip-path="url(#pac12bb2529)" style="fill: none; stroke: #b0b0b0; stroke-width: 0.8; stroke-linecap: square"/>
     </g>
     <g id="line2d_18">
      <g>
       <use xlink:href="#mad45026320" x="39.58149" y="155.505889" style="stroke: #000000; stroke-width: 0.8"/>
      </g>
     </g>
     <g id="text_10">
      <!-- 0.4 -->
      <g transform="translate(16.678365 159.305108) scale(0.1 -0.1)">
       <use xlink:href="#DejaVuSans-30"/>
       <use xlink:href="#DejaVuSans-2e" x="63.623047"/>
       <use xlink:href="#DejaVuSans-34" x="95.410156"/>
      </g>
     </g>
    </g>
    <g id="ytick_4">
     <g id="line2d_19">
      <path d="M 39.58149 105.937079 
L 277.048198 105.937079 
" clip-path="url(#pac12bb2529)" style="fill: none; stroke: #b0b0b0; stroke-width: 0.8; stroke-linecap: square"/>
     </g>
     <g id="line2d_20">
      <g>
       <use xlink:href="#mad45026320" x="39.58149" y="105.937079" style="stroke: #000000; stroke-width: 0.8"/>
      </g>
     </g>
     <g id="text_11">
      <!-- 0.6 -->
      <g transform="translate(16.678365 109.736298) scale(0.1 -0.1)">
       <use xlink:href="#DejaVuSans-30"/>
       <use xlink:href="#DejaVuSans-2e" x="63.623047"/>
       <use xlink:href="#DejaVuSans-36" x="95.410156"/>
      </g>
     </g>
    </g>
    <g id="ytick_5">
     <g id="line2d_21">
      <path d="M 39.58149 56.368269 
L 277.048198 56.368269 
" clip-path="url(#pac12bb2529)" style="fill: none; stroke: #b0b0b0; stroke-width: 0.8; stroke-linecap: square"/>
     </g>
     <g id="line2d_22">
      <g>
       <use xlink:href="#mad45026320" x="39.58149" y="56.368269" style="stroke: #000000; stroke-width: 0.8"/>
      </g>
     </g>
     <g id="text_12">
      <!-- 0.8 -->
      <g transform="translate(16.678365 60.167488) scale(0.1 -0.1)">
       <use xlink:href="#DejaVuSans-30"/>
       <use xlink:href="#DejaVuSans-2e" x="63.623047"/>
       <use xlink:href="#DejaVuSans-38" x="95.410156"/>
      </g>
     </g>
    </g>
    <g id="ytick_6">
     <g id="line2d_23">
      <path d="M 39.58149 6.799459 
L 277.048198 6.799459 
" clip-path="url(#pac12bb2529)" style="fill: none; stroke: #b0b0b0; stroke-width: 0.8; stroke-linecap: square"/>
     </g>
     <g id="line2d_24">
      <g>
       <use xlink:href="#mad45026320" x="39.58149" y="6.799459" style="stroke: #000000; stroke-width: 0.8"/>
      </g>
     </g>
     <g id="text_13">
      <!-- 1.0 -->
      <g transform="translate(16.678365 10.598678) scale(0.1 -0.1)">
       <use xlink:href="#DejaVuSans-31"/>
       <use xlink:href="#DejaVuSans-2e" x="63.623047"/>
       <use xlink:href="#DejaVuSans-30" x="95.410156"/>
      </g>
     </g>
    </g>
    <g id="text_14">
     <!-- y -->
     <g transform="translate(10.598677 133.680859) rotate(-90) scale(0.1 -0.1)">
      <defs>
       <path id="DejaVuSans-79" d="M 2059 -325 
Q 1816 -950 1584 -1140 
Q 1353 -1331 966 -1331 
L 506 -1331 
L 506 -850 
L 844 -850 
Q 1081 -850 1212 -737 
Q 1344 -625 1503 -206 
L 1606 56 
L 191 3500 
L 800 3500 
L 1894 763 
L 2988 3500 
L 3597 3500 
L 2059 -325 
z
" transform="scale(0.015625)"/>
      </defs>
      <use xlink:href="#DejaVuSans-79"/>
     </g>
    </g>
   </g>
   <g id="line2d_25">
    <path d="M 39.58149 254.64351 
L 41.980144 254.640994 
L 44.378797 254.62369 
L 46.777451 254.577641 
L 49.176104 254.489782 
L 51.574758 254.347922 
L 53.973412 254.140721 
L 56.372065 253.857677 
L 58.770719 253.489103 
L 61.169373 253.026109 
L 63.568026 252.460583 
L 65.96668 251.785175 
L 68.365333 250.993276 
L 70.763987 250.078997 
L 73.162641 249.037156 
L 75.561294 247.863253 
L 77.959948 246.553455 
L 80.358601 245.104578 
L 82.757255 243.514065 
L 85.155909 241.779969 
L 87.554562 239.900935 
L 89.953216 237.876178 
L 92.351869 235.705469 
L 94.750523 233.389114 
L 97.149177 230.927932 
L 99.54783 228.323242 
L 101.946484 225.576841 
L 104.345138 222.690985 
L 106.743791 219.668372 
L 109.142445 216.512121 
L 111.541098 213.225756 
L 113.939752 209.813183 
L 116.338406 206.278676 
L 118.737059 202.626857 
L 121.135713 198.862674 
L 123.534366 194.991387 
L 125.93302 191.018544 
L 128.331674 186.949967 
L 130.730327 182.791731 
L 133.128981 178.550147 
L 135.527634 174.231738 
L 137.926288 169.843228 
L 140.324942 165.391517 
L 142.723595 160.883665 
L 145.122249 156.326874 
L 147.520903 151.728465 
L 149.919556 147.095865 
L 152.31821 142.436584 
L 154.716863 137.758199 
L 157.115517 133.068333 
L 159.514171 128.374636 
L 161.912824 123.684769 
L 164.311478 119.006384 
L 166.710131 114.347104 
L 169.108785 109.714504 
L 171.507439 105.116095 
L 173.906092 100.559303 
L 176.304746 96.051452 
L 178.703399 91.599741 
L 181.102053 87.211231 
L 183.500707 82.892822 
L 185.89936 78.651237 
L 188.298014 74.493002 
L 190.696668 70.424425 
L 193.095321 66.451582 
L 195.493975 62.580294 
L 197.892628 58.816111 
L 200.291282 55.164292 
L 202.689936 51.629786 
L 205.088589 48.217213 
L 207.487243 44.930847 
L 209.885896 41.774596 
L 212.28455 38.751983 
L 214.683204 35.866128 
L 217.081857 33.119727 
L 219.480511 30.515037 
L 221.879164 28.053855 
L 224.277818 25.737499 
L 226.676472 23.566791 
L 229.075125 21.542034 
L 231.473779 19.662999 
L 233.872433 17.928903 
L 236.271086 16.33839 
L 238.66974 14.889513 
L 241.068393 13.579716 
L 243.467047 12.405813 
L 245.865701 11.363972 
L 248.264354 10.449693 
L 250.663008 9.657793 
L 253.061661 8.982386 
L 255.460315 8.41686 
L 257.858969 7.953866 
L 260.257622 7.585291 
L 262.656276 7.302247 
L 265.054929 7.095047 
L 267.453583 6.953187 
L 269.852237 6.865328 
L 272.25089 6.819279 
L 274.649544 6.801975 
L 277.048198 6.799459 
" style="fill: none; stroke: #0000ff; stroke-width: 1.5; stroke-linecap: square"/>
   </g>
   <g id="line2d_26">
    <path d="M 39.58149 6.799459 
L 41.980144 6.801975 
L 44.378797 6.819279 
L 46.777451 6.865328 
L 49.176104 6.953187 
L 51.574758 7.095047 
L 53.973412 7.302247 
L 56.372065 7.585291 
L 58.770719 7.953866 
L 61.169373 8.41686 
L 63.568026 8.982386 
L 65.96668 9.657793 
L 68.365333 10.449693 
L 70.763987 11.363972 
L 73.162641 12.405813 
L 75.561294 13.579716 
L 77.959948 14.889513 
L 80.358601 16.33839 
L 82.757255 17.928903 
L 85.155909 19.662999 
L 87.554562 21.542034 
L 89.953216 23.566791 
L 92.351869 25.737499 
L 94.750523 28.053855 
L 97.149177 30.515037 
L 99.54783 33.119727 
L 101.946484 35.866128 
L 104.345138 38.751983 
L 106.743791 41.774596 
L 109.142445 44.930847 
L 111.541098 48.217213 
L 113.939752 51.629786 
L 116.338406 55.164292 
L 118.737059 58.816111 
L 121.135713 62.580294 
L 123.534366 66.451582 
L 125.93302 70.424425 
L 128.331674 74.493002 
L 130.730327 78.651237 
L 133.128981 82.892822 
L 135.527634 87.211231 
L 137.926288 91.599741 
L 140.324942 96.051452 
L 142.723595 100.559303 
L 145.122249 105.116095 
L 147.520903 109.714504 
L 149.919556 114.347104 
L 152.31821 119.006384 
L 154.716863 123.684769 
L 157.115517 128.374636 
L 159.514171 133.068333 
L 161.912824 137.758199 
L 164.311478 142.436584 
L 166.710131 147.095865 
L 169.108785 151.728465 
L 171.507439 156.326874 
L 173.906092 160.883665 
L 176.304746 165.391517 
L 178.703399 169.843228 
L 181.102053 174.231738 
L 183.500707 178.550147 
L 185.89936 182.791731 
L 188.298014 186.949967 
L 190.696668 191.018544 
L 193.095321 194.991387 
L 195.493975 198.862674 
L 197.892628 202.626857 
L 200.291282 206.278676 
L 202.689936 209.813183 
L 205.088589 213.225756 
L 207.487243 216.512121 
L 209.885896 219.668372 
L 212.28455 222.690985 
L 214.683204 225.576841 
L 217.081857 228.323242 
L 219.480511 230.927932 
L 221.879164 233.389114 
L 224.277818 235.705469 
L 226.676472 237.876178 
L 229.075125 239.900935 
L 231.473779 241.779969 
L 233.872433 243.514065 
L 236.271086 245.104578 
L 238.66974 246.553455 
L 241.068393 247.863253 
L 243.467047 249.037156 
L 245.865701 250.078997 
L 248.264354 250.993276 
L 250.663008 251.785175 
L 253.061661 252.460583 
L 255.460315 253.026109 
L 257.858969 253.489103 
L 260.257622 253.857677 
L 262.656276 254.140721 
L 265.054929 254.347922 
L 267.453583 254.489782 
L 269.852237 254.577641 
L 272.25089 254.62369 
L 274.649544 254.640994 
L 277.048198 254.64351 
" style="fill: none; stroke: #ff0000; stroke-width: 1.5; stroke-linecap: square"/>
   </g>
   <g id="patch_3">
    <path d="M 39.58149 254.64351 
L 39.58149 6.799459 
" style="fill: none; stroke: #000000; stroke-width: 0.8; stroke-linejoin: miter; stroke-linecap: square"/>
   </g>
   <g id="patch_4">
    <path d="M 277.048198 254.64351 
L 277.048198 6.799459 
" style="fill: none; stroke: #000000; stroke-width: 0.8; stroke-linejoin: miter; stroke-linecap: square"/>
   </g>
   <g id="patch_5">
    <path d="M 39.58149 254.64351 
L 277.048198 254.64351 
" style="fill: none; stroke: #000000; stroke-width: 0.8; stroke-linejoin: miter; stroke-linecap: square"/>
   </g>
   <g id="patch_6">
    <path d="M 39.58149 6.799459 
L 277.048198 6.799459 
" style="fill: none; stroke: #000000; stroke-width: 0.8; stroke-linejoin: miter; stroke-linecap: square"/>
   </g>
   <g id="text_15">
    <!-- $1-s(r)$ -->
    <g style="fill: #ff0000" transform="translate(51.094838 86.671424) scale(0.2 -0.2)">
     <defs>
      <path id="DejaVuSans-2212" d="M 678 2272 
L 4684 2272 
L 4684 1741 
L 678 1741 
L 678 2272 
z
" transform="scale(0.015625)"/>
      <path id="DejaVuSans-Oblique-73" d="M 3200 3397 
L 3091 2853 
Q 2863 2978 2609 3040 
Q 2356 3103 2088 3103 
Q 1634 3103 1373 2948 
Q 1113 2794 1113 2528 
Q 1113 2219 1719 2053 
Q 1766 2041 1788 2034 
L 1972 1978 
Q 2547 1819 2739 1644 
Q 2931 1469 2931 1166 
Q 2931 609 2489 259 
Q 2047 -91 1331 -91 
Q 1053 -91 747 -37 
Q 441 16 72 128 
L 184 722 
Q 500 559 806 475 
Q 1113 391 1394 391 
Q 1816 391 2080 572 
Q 2344 753 2344 1031 
Q 2344 1331 1650 1516 
L 1591 1531 
L 1394 1581 
Q 956 1697 753 1886 
Q 550 2075 550 2369 
Q 550 2928 970 3256 
Q 1391 3584 2113 3584 
Q 2397 3584 2667 3537 
Q 2938 3491 3200 3397 
z
" transform="scale(0.015625)"/>
      <path id="DejaVuSans-28" d="M 1984 4856 
Q 1566 4138 1362 3434 
Q 1159 2731 1159 2009 
Q 1159 1288 1364 580 
Q 1569 -128 1984 -844 
L 1484 -844 
Q 1016 -109 783 600 
Q 550 1309 550 2009 
Q 550 2706 781 3412 
Q 1013 4119 1484 4856 
L 1984 4856 
z
" transform="scale(0.015625)"/>
      <path id="DejaVuSans-Oblique-72" d="M 2853 2969 
Q 2766 3016 2653 3041 
Q 2541 3066 2413 3066 
Q 1953 3066 1609 2717 
Q 1266 2369 1153 1784 
L 800 0 
L 225 0 
L 909 3500 
L 1484 3500 
L 1375 2956 
Q 1603 3259 1920 3421 
Q 2238 3584 2597 3584 
Q 2691 3584 2781 3573 
Q 2872 3563 2963 3538 
L 2853 2969 
z
" transform="scale(0.015625)"/>
      <path id="DejaVuSans-29" d="M 513 4856 
L 1013 4856 
Q 1481 4119 1714 3412 
Q 1947 2706 1947 2009 
Q 1947 1309 1714 600 
Q 1481 -109 1013 -844 
L 513 -844 
Q 928 -128 1133 580 
Q 1338 1288 1338 2009 
Q 1338 2731 1133 3434 
Q 928 4138 513 4856 
z
" transform="scale(0.015625)"/>
     </defs>
     <use xlink:href="#DejaVuSans-31" transform="translate(0 0.125)"/>
     <use xlink:href="#DejaVuSans-2212" transform="translate(83.105469 0.125)"/>
     <use xlink:href="#DejaVuSans-Oblique-73" transform="translate(186.376953 0.125)"/>
     <use xlink:href="#DejaVuSans-28" transform="translate(238.476562 0.125)"/>
     <use xlink:href="#DejaVuSans-Oblique-72" transform="translate(277.490234 0.125)"/>
     <use xlink:href="#DejaVuSans-29" transform="translate(318.603516 0.125)"/>
    </g>
   </g>
   <g id="text_16">
    <!-- $s(r)$ -->
    <g style="fill: #0000ff" transform="translate(205.808185 86.671424) scale(0.2 -0.2)">
     <use xlink:href="#DejaVuSans-Oblique-73" transform="translate(0 0.125)"/>
     <use xlink:href="#DejaVuSans-28" transform="translate(52.099609 0.125)"/>
     <use xlink:href="#DejaVuSans-Oblique-72" transform="translate(91.113281 0.125)"/>
     <use xlink:href="#DejaVuSans-29" transform="translate(132.226562 0.125)"/>
    </g>
   </g>
  </g>
 </g>
 <defs>
  <clipPath id="pac12bb2529">
   <rect x="39.58149" y="6.799459" width="237.466708" height="247.844051"/>
  </clipPath>
 </defs>
</svg>
