<?xml version="1.0" encoding="UTF-8" standalone="no"?>
<svg
   width="288pt"
   height="288pt"
   viewBox="0 0 288 288"
   version="1.1"
   id="svg298"
   sodipodi:docname="s_curve.svg"
   inkscape:version="1.2.2 (b0a8486541, 2022-12-01)"
   xmlns:inkscape="http://www.inkscape.org/namespaces/inkscape"
   xmlns:sodipodi="http://sodipodi.sourceforge.net/DTD/sodipodi-0.dtd"
   xmlns:xlink="http://www.w3.org/1999/xlink"
   xmlns="http://www.w3.org/2000/svg"
   xmlns:svg="http://www.w3.org/2000/svg"
   xmlns:rdf="http://www.w3.org/1999/02/22-rdf-syntax-ns#"
   xmlns:cc="http://creativecommons.org/ns#"
   xmlns:dc="http://purl.org/dc/elements/1.1/">
  <sodipodi:namedview
     id="namedview300"
     pagecolor="#ffffff"
     bordercolor="#000000"
     borderopacity="0.25"
     inkscape:showpageshadow="2"
     inkscape:pageopacity="0.0"
     inkscape:pagecheckerboard="0"
     inkscape:deskcolor="#d1d1d1"
     inkscape:document-units="pt"
     showgrid="false"
     inkscape:zoom="1.5755208"
     inkscape:cx="192"
     inkscape:cy="192"
     inkscape:window-width="1415"
     inkscape:window-height="877"
     inkscape:window-x="25"
     inkscape:window-y="0"
     inkscape:window-maximized="1"
     inkscape:current-layer="svg298" />
  <metadata
     id="metadata2">
    <rdf:RDF>
      <cc:Work>
        <dc:type
           rdf:resource="http://purl.org/dc/dcmitype/StillImage" />
        <dc:date>2024-12-19T10:19:31.149784</dc:date>
        <dc:format>image/svg+xml</dc:format>
        <dc:creator>
          <cc:Agent>
            <dc:title>Matplotlib v3.9.2, https://matplotlib.org/</dc:title>
          </cc:Agent>
        </dc:creator>
      </cc:Work>
    </rdf:RDF>
  </metadata>
  <defs
     id="defs6">
    <style
       type="text/css"
       id="style4">*{stroke-linejoin: round; stroke-linecap: butt}</style>
    <clipPath
       id="clipPath9517">
      <path
         clip-rule="nonzero"
         d="m 8,0 h 4 V 15.214844 H 8 Z m 0,0"
         id="path3915" />
    </clipPath>
    <clipPath
       id="clipPath3474">
      <path
         clip-rule="nonzero"
         d="m 19,0 h 4 v 15.214844 h -4 z m 0,0"
         id="path4371" />
    </clipPath>
    <clipPath
       id="clipPath7142">
      <path
         clip-rule="nonzero"
         d="m 9,1 h 5 V 18.242188 H 9 Z m 0,0"
         id="path8116" />
    </clipPath>
    <clipPath
       id="clipPath5073">
      <path
         clip-rule="nonzero"
         d="m 22,1 h 5 v 17.242188 h -5 z m 0,0"
         id="path52" />
    </clipPath>
    <clipPath
       id="clipPath8867">
      <path
         clip-rule="nonzero"
         d="m 38,0 h 5 v 17.1875 h -5 z m 0,0"
         id="path3443" />
    </clipPath>
    <clipPath
       id="clipPath5761">
      <path
         clip-rule="nonzero"
         d="m 51,0 h 5 v 17.1875 h -5 z m 0,0"
         id="path8746" />
    </clipPath>
  </defs>
  <g
     id="figure_1">
    <g
       id="patch_1">
      <path
         d="M 0 288  L 288 288  L 288 0  L 0 0  z "
         style="fill: #ffffff"
         id="path8" />
    </g>
    <g
       id="axes_1">
      <g
         id="patch_2">
        <path
           d="M 39.58149 254.64351  L 277.048198 254.64351  L 277.048198 6.799459  L 39.58149 6.799459  z "
           style="fill: #ffffff"
           id="path11" />
      </g>
      <g
         id="matplotlib.axis_1">
        <g
           id="xtick_1">
          <g
             id="line2d_1">
            <path
               d="M 39.58149 254.64351  L 39.58149 6.799459  "
               clip-path="url(#p645c6369db)"
               style="fill: none; stroke: #b0b0b0; stroke-width: 0.8; stroke-linecap: square"
               id="path14" />
          </g>
          <g
             id="line2d_2">
            <defs
               id="defs18">
              <path
                 id="m08c4f82c55"
                 d="M 0 0  L 0 3.5  "
                 style="stroke: #000000; stroke-width: 0.8" />
            </defs>
            <g
               id="g22">
              <use
                 xlink:href="#m08c4f82c55"
                 x="39.58149"
                 y="254.64351"
                 style="stroke: #000000; stroke-width: 0.8"
                 id="use20" />
            </g>
          </g>
          <g
             id="text_1">
            <!-- 0.0 -->
            <g
               transform="translate(31.629928 269.241947) scale(0.1 -0.1)"
               id="g35">
              <defs
                 id="defs27">
                <path
                   id="DejaVuSans-30"
                   d="M 2034 4250  Q 1547 4250 1301 3770  Q 1056 3291 1056 2328  Q 1056 1369 1301 889  Q 1547 409 2034 409  Q 2525 409 2770 889  Q 3016 1369 3016 2328  Q 3016 3291 2770 3770  Q 2525 4250 2034 4250  z M 2034 4750  Q 2819 4750 3233 4129  Q 3647 3509 3647 2328  Q 3647 1150 3233 529  Q 2819 -91 2034 -91  Q 1250 -91 836 529  Q 422 1150 422 2328  Q 422 3509 836 4129  Q 1250 4750 2034 4750  z "
                   transform="scale(0.015625)" />
                <path
                   id="DejaVuSans-2e"
                   d="M 684 794  L 1344 794  L 1344 0  L 684 0  L 684 794  z "
                   transform="scale(0.015625)" />
              </defs>
              <use
                 xlink:href="#DejaVuSans-30"
                 id="use29" />
              <use
                 xlink:href="#DejaVuSans-2e"
                 x="63.623047"
                 id="use31" />
              <use
                 xlink:href="#DejaVuSans-30"
                 x="95.410156"
                 id="use33" />
            </g>
          </g>
        </g>
        <g
           id="xtick_2">
          <g
             id="line2d_3">
            <path
               d="M 87.074832 254.64351  L 87.074832 6.799459  "
               clip-path="url(#p645c6369db)"
               style="fill: none; stroke: #b0b0b0; stroke-width: 0.8; stroke-linecap: square"
               id="path39" />
          </g>
          <g
             id="line2d_4">
            <g
               id="g44">
              <use
                 xlink:href="#m08c4f82c55"
                 x="87.074832"
                 y="254.64351"
                 style="stroke: #000000; stroke-width: 0.8"
                 id="use42" />
            </g>
          </g>
          <g
             id="text_2">
            <!-- 0.2 -->
            <g
               transform="translate(79.123269 269.241947) scale(0.1 -0.1)"
               id="g56">
              <defs
                 id="defs48">
                <path
                   id="DejaVuSans-32"
                   d="M 1228 531  L 3431 531  L 3431 0  L 469 0  L 469 531  Q 828 903 1448 1529  Q 2069 2156 2228 2338  Q 2531 2678 2651 2914  Q 2772 3150 2772 3378  Q 2772 3750 2511 3984  Q 2250 4219 1831 4219  Q 1534 4219 1204 4116  Q 875 4013 500 3803  L 500 4441  Q 881 4594 1212 4672  Q 1544 4750 1819 4750  Q 2544 4750 2975 4387  Q 3406 4025 3406 3419  Q 3406 3131 3298 2873  Q 3191 2616 2906 2266  Q 2828 2175 2409 1742  Q 1991 1309 1228 531  z "
                   transform="scale(0.015625)" />
              </defs>
              <use
                 xlink:href="#DejaVuSans-30"
                 id="use50" />
              <use
                 xlink:href="#DejaVuSans-2e"
                 x="63.623047"
                 id="use52" />
              <use
                 xlink:href="#DejaVuSans-32"
                 x="95.410156"
                 id="use54" />
            </g>
          </g>
        </g>
        <g
           id="xtick_3">
          <g
             id="line2d_5">
            <path
               d="M 134.568173 254.64351  L 134.568173 6.799459  "
               clip-path="url(#p645c6369db)"
               style="fill: none; stroke: #b0b0b0; stroke-width: 0.8; stroke-linecap: square"
               id="path60" />
          </g>
          <g
             id="line2d_6">
            <g
               id="g65">
              <use
                 xlink:href="#m08c4f82c55"
                 x="134.568173"
                 y="254.64351"
                 style="stroke: #000000; stroke-width: 0.8"
                 id="use63" />
            </g>
          </g>
          <g
             id="text_3">
            <!-- 0.4 -->
            <g
               transform="translate(126.616611 269.241947) scale(0.1 -0.1)"
               id="g77">
              <defs
                 id="defs69">
                <path
                   id="DejaVuSans-34"
                   d="M 2419 4116  L 825 1625  L 2419 1625  L 2419 4116  z M 2253 4666  L 3047 4666  L 3047 1625  L 3713 1625  L 3713 1100  L 3047 1100  L 3047 0  L 2419 0  L 2419 1100  L 313 1100  L 313 1709  L 2253 4666  z "
                   transform="scale(0.015625)" />
              </defs>
              <use
                 xlink:href="#DejaVuSans-30"
                 id="use71" />
              <use
                 xlink:href="#DejaVuSans-2e"
                 x="63.623047"
                 id="use73" />
              <use
                 xlink:href="#DejaVuSans-34"
                 x="95.410156"
                 id="use75" />
            </g>
          </g>
        </g>
        <g
           id="xtick_4">
          <g
             id="line2d_7">
            <path
               d="M 182.061515 254.64351  L 182.061515 6.799459  "
               clip-path="url(#p645c6369db)"
               style="fill: none; stroke: #b0b0b0; stroke-width: 0.8; stroke-linecap: square"
               id="path81" />
          </g>
          <g
             id="line2d_8">
            <g
               id="g86">
              <use
                 xlink:href="#m08c4f82c55"
                 x="182.061515"
                 y="254.64351"
                 style="stroke: #000000; stroke-width: 0.8"
                 id="use84" />
            </g>
          </g>
          <g
             id="text_4">
            <!-- 0.6 -->
            <g
               transform="translate(174.109952 269.241947) scale(0.1 -0.1)"
               id="g98">
              <defs
                 id="defs90">
                <path
                   id="DejaVuSans-36"
                   d="M 2113 2584  Q 1688 2584 1439 2293  Q 1191 2003 1191 1497  Q 1191 994 1439 701  Q 1688 409 2113 409  Q 2538 409 2786 701  Q 3034 994 3034 1497  Q 3034 2003 2786 2293  Q 2538 2584 2113 2584  z M 3366 4563  L 3366 3988  Q 3128 4100 2886 4159  Q 2644 4219 2406 4219  Q 1781 4219 1451 3797  Q 1122 3375 1075 2522  Q 1259 2794 1537 2939  Q 1816 3084 2150 3084  Q 2853 3084 3261 2657  Q 3669 2231 3669 1497  Q 3669 778 3244 343  Q 2819 -91 2113 -91  Q 1303 -91 875 529  Q 447 1150 447 2328  Q 447 3434 972 4092  Q 1497 4750 2381 4750  Q 2619 4750 2861 4703  Q 3103 4656 3366 4563  z "
                   transform="scale(0.015625)" />
              </defs>
              <use
                 xlink:href="#DejaVuSans-30"
                 id="use92" />
              <use
                 xlink:href="#DejaVuSans-2e"
                 x="63.623047"
                 id="use94" />
              <use
                 xlink:href="#DejaVuSans-36"
                 x="95.410156"
                 id="use96" />
            </g>
          </g>
        </g>
        <g
           id="xtick_5">
          <g
             id="line2d_9">
            <path
               d="M 229.554856 254.64351  L 229.554856 6.799459  "
               clip-path="url(#p645c6369db)"
               style="fill: none; stroke: #b0b0b0; stroke-width: 0.8; stroke-linecap: square"
               id="path102" />
          </g>
          <g
             id="line2d_10">
            <g
               id="g107">
              <use
                 xlink:href="#m08c4f82c55"
                 x="229.554856"
                 y="254.64351"
                 style="stroke: #000000; stroke-width: 0.8"
                 id="use105" />
            </g>
          </g>
          <g
             id="text_5">
            <!-- 0.8 -->
            <g
               transform="translate(221.603294 269.241947) scale(0.1 -0.1)"
               id="g119">
              <defs
                 id="defs111">
                <path
                   id="DejaVuSans-38"
                   d="M 2034 2216  Q 1584 2216 1326 1975  Q 1069 1734 1069 1313  Q 1069 891 1326 650  Q 1584 409 2034 409  Q 2484 409 2743 651  Q 3003 894 3003 1313  Q 3003 1734 2745 1975  Q 2488 2216 2034 2216  z M 1403 2484  Q 997 2584 770 2862  Q 544 3141 544 3541  Q 544 4100 942 4425  Q 1341 4750 2034 4750  Q 2731 4750 3128 4425  Q 3525 4100 3525 3541  Q 3525 3141 3298 2862  Q 3072 2584 2669 2484  Q 3125 2378 3379 2068  Q 3634 1759 3634 1313  Q 3634 634 3220 271  Q 2806 -91 2034 -91  Q 1263 -91 848 271  Q 434 634 434 1313  Q 434 1759 690 2068  Q 947 2378 1403 2484  z M 1172 3481  Q 1172 3119 1398 2916  Q 1625 2713 2034 2713  Q 2441 2713 2670 2916  Q 2900 3119 2900 3481  Q 2900 3844 2670 4047  Q 2441 4250 2034 4250  Q 1625 4250 1398 4047  Q 1172 3844 1172 3481  z "
                   transform="scale(0.015625)" />
              </defs>
              <use
                 xlink:href="#DejaVuSans-30"
                 id="use113" />
              <use
                 xlink:href="#DejaVuSans-2e"
                 x="63.623047"
                 id="use115" />
              <use
                 xlink:href="#DejaVuSans-38"
                 x="95.410156"
                 id="use117" />
            </g>
          </g>
        </g>
        <g
           id="xtick_6">
          <g
             id="line2d_11">
            <path
               d="M 277.048198 254.64351  L 277.048198 6.799459  "
               clip-path="url(#p645c6369db)"
               style="fill: none; stroke: #b0b0b0; stroke-width: 0.8; stroke-linecap: square"
               id="path123" />
          </g>
          <g
             id="line2d_12">
            <g
               id="g128">
              <use
                 xlink:href="#m08c4f82c55"
                 x="277.048198"
                 y="254.64351"
                 style="stroke: #000000; stroke-width: 0.8"
                 id="use126" />
            </g>
          </g>
          <g
             id="text_6">
            <!-- 1.0 -->
            <g
               transform="translate(269.096635 269.241947) scale(0.1 -0.1)"
               id="g140">
              <defs
                 id="defs132">
                <path
                   id="DejaVuSans-31"
                   d="M 794 531  L 1825 531  L 1825 4091  L 703 3866  L 703 4441  L 1819 4666  L 2450 4666  L 2450 531  L 3481 531  L 3481 0  L 794 0  L 794 531  z "
                   transform="scale(0.015625)" />
              </defs>
              <use
                 xlink:href="#DejaVuSans-31"
                 id="use134" />
              <use
                 xlink:href="#DejaVuSans-2e"
                 x="63.623047"
                 id="use136" />
              <use
                 xlink:href="#DejaVuSans-30"
                 x="95.410156"
                 id="use138" />
            </g>
          </g>
        </g>
        <g
           id="text_7">
          <!-- r -->
          <g
             transform="translate(156.259375 282.920073) scale(0.1 -0.1)"
             id="g149">
            <defs
               id="defs145">
              <path
                 id="DejaVuSans-72"
                 d="M 2631 2963  Q 2534 3019 2420 3045  Q 2306 3072 2169 3072  Q 1681 3072 1420 2755  Q 1159 2438 1159 1844  L 1159 0  L 581 0  L 581 3500  L 1159 3500  L 1159 2956  Q 1341 3275 1631 3429  Q 1922 3584 2338 3584  Q 2397 3584 2469 3576  Q 2541 3569 2628 3553  L 2631 2963  z "
                 transform="scale(0.015625)" />
            </defs>
            <use
               xlink:href="#DejaVuSans-72"
               id="use147" />
          </g>
        </g>
      </g>
      <g
         id="matplotlib.axis_2">
        <g
           id="ytick_1">
          <g
             id="line2d_13">
            <path
               d="M 39.58149 254.64351  L 277.048198 254.64351  "
               clip-path="url(#p645c6369db)"
               style="fill: none; stroke: #b0b0b0; stroke-width: 0.8; stroke-linecap: square"
               id="path153" />
          </g>
          <g
             id="line2d_14">
            <defs
               id="defs157">
              <path
                 id="m1647360478"
                 d="M 0 0  L -3.5 0  "
                 style="stroke: #000000; stroke-width: 0.8" />
            </defs>
            <g
               id="g161">
              <use
                 xlink:href="#m1647360478"
                 x="39.58149"
                 y="254.64351"
                 style="stroke: #000000; stroke-width: 0.8"
                 id="use159" />
            </g>
          </g>
          <g
             id="text_8">
            <!-- 0.0 -->
            <g
               transform="translate(16.678365 258.442729) scale(0.1 -0.1)"
               id="g170">
              <use
                 xlink:href="#DejaVuSans-30"
                 id="use164" />
              <use
                 xlink:href="#DejaVuSans-2e"
                 x="63.623047"
                 id="use166" />
              <use
                 xlink:href="#DejaVuSans-30"
                 x="95.410156"
                 id="use168" />
            </g>
          </g>
        </g>
        <g
           id="ytick_2">
          <g
             id="line2d_15">
            <path
               d="M 39.58149 205.0747  L 277.048198 205.0747  "
               clip-path="url(#p645c6369db)"
               style="fill: none; stroke: #b0b0b0; stroke-width: 0.8; stroke-linecap: square"
               id="path174" />
          </g>
          <g
             id="line2d_16">
            <g
               id="g179">
              <use
                 xlink:href="#m1647360478"
                 x="39.58149"
                 y="205.0747"
                 style="stroke: #000000; stroke-width: 0.8"
                 id="use177" />
            </g>
          </g>
          <g
             id="text_9">
            <!-- 0.2 -->
            <g
               transform="translate(16.678365 208.873919) scale(0.1 -0.1)"
               id="g188">
              <use
                 xlink:href="#DejaVuSans-30"
                 id="use182" />
              <use
                 xlink:href="#DejaVuSans-2e"
                 x="63.623047"
                 id="use184" />
              <use
                 xlink:href="#DejaVuSans-32"
                 x="95.410156"
                 id="use186" />
            </g>
          </g>
        </g>
        <g
           id="ytick_3">
          <g
             id="line2d_17">
            <path
               d="M 39.58149 155.505889  L 277.048198 155.505889  "
               clip-path="url(#p645c6369db)"
               style="fill: none; stroke: #b0b0b0; stroke-width: 0.8; stroke-linecap: square"
               id="path192" />
          </g>
          <g
             id="line2d_18">
            <g
               id="g197">
              <use
                 xlink:href="#m1647360478"
                 x="39.58149"
                 y="155.505889"
                 style="stroke: #000000; stroke-width: 0.8"
                 id="use195" />
            </g>
          </g>
          <g
             id="text_10">
            <!-- 0.4 -->
            <g
               transform="translate(16.678365 159.305108) scale(0.1 -0.1)"
               id="g206">
              <use
                 xlink:href="#DejaVuSans-30"
                 id="use200" />
              <use
                 xlink:href="#DejaVuSans-2e"
                 x="63.623047"
                 id="use202" />
              <use
                 xlink:href="#DejaVuSans-34"
                 x="95.410156"
                 id="use204" />
            </g>
          </g>
        </g>
        <g
           id="ytick_4">
          <g
             id="line2d_19">
            <path
               d="M 39.58149 105.937079  L 277.048198 105.937079  "
               clip-path="url(#p645c6369db)"
               style="fill: none; stroke: #b0b0b0; stroke-width: 0.8; stroke-linecap: square"
               id="path210" />
          </g>
          <g
             id="line2d_20">
            <g
               id="g215">
              <use
                 xlink:href="#m1647360478"
                 x="39.58149"
                 y="105.937079"
                 style="stroke: #000000; stroke-width: 0.8"
                 id="use213" />
            </g>
          </g>
          <g
             id="text_11">
            <!-- 0.6 -->
            <g
               transform="translate(16.678365 109.736298) scale(0.1 -0.1)"
               id="g224">
              <use
                 xlink:href="#DejaVuSans-30"
                 id="use218" />
              <use
                 xlink:href="#DejaVuSans-2e"
                 x="63.623047"
                 id="use220" />
              <use
                 xlink:href="#DejaVuSans-36"
                 x="95.410156"
                 id="use222" />
            </g>
          </g>
        </g>
        <g
           id="ytick_5">
          <g
             id="line2d_21">
            <path
               d="M 39.58149 56.368269  L 277.048198 56.368269  "
               clip-path="url(#p645c6369db)"
               style="fill: none; stroke: #b0b0b0; stroke-width: 0.8; stroke-linecap: square"
               id="path228" />
          </g>
          <g
             id="line2d_22">
            <g
               id="g233">
              <use
                 xlink:href="#m1647360478"
                 x="39.58149"
                 y="56.368269"
                 style="stroke: #000000; stroke-width: 0.8"
                 id="use231" />
            </g>
          </g>
          <g
             id="text_12">
            <!-- 0.8 -->
            <g
               transform="translate(16.678365 60.167488) scale(0.1 -0.1)"
               id="g242">
              <use
                 xlink:href="#DejaVuSans-30"
                 id="use236" />
              <use
                 xlink:href="#DejaVuSans-2e"
                 x="63.623047"
                 id="use238" />
              <use
                 xlink:href="#DejaVuSans-38"
                 x="95.410156"
                 id="use240" />
            </g>
          </g>
        </g>
        <g
           id="ytick_6">
          <g
             id="line2d_23">
            <path
               d="M 39.58149 6.799459  L 277.048198 6.799459  "
               clip-path="url(#p645c6369db)"
               style="fill: none; stroke: #b0b0b0; stroke-width: 0.8; stroke-linecap: square"
               id="path246" />
          </g>
          <g
             id="line2d_24">
            <g
               id="g251">
              <use
                 xlink:href="#m1647360478"
                 x="39.58149"
                 y="6.799459"
                 style="stroke: #000000; stroke-width: 0.8"
                 id="use249" />
            </g>
          </g>
          <g
             id="text_13">
            <!-- 1.0 -->
            <g
               transform="translate(16.678365 10.598678) scale(0.1 -0.1)"
               id="g260">
              <use
                 xlink:href="#DejaVuSans-31"
                 id="use254" />
              <use
                 xlink:href="#DejaVuSans-2e"
                 x="63.623047"
                 id="use256" />
              <use
                 xlink:href="#DejaVuSans-30"
                 x="95.410156"
                 id="use258" />
            </g>
          </g>
        </g>
        <g
           id="text_14">
          <!-- y -->
          <g
             transform="translate(10.598677 133.680859) rotate(-90) scale(0.1 -0.1)"
             id="g269">
            <defs
               id="defs265">
              <path
                 id="DejaVuSans-79"
                 d="M 2059 -325  Q 1816 -950 1584 -1140  Q 1353 -1331 966 -1331  L 506 -1331  L 506 -850  L 844 -850  Q 1081 -850 1212 -737  Q 1344 -625 1503 -206  L 1606 56  L 191 3500  L 800 3500  L 1894 763  L 2988 3500  L 3597 3500  L 2059 -325  z "
                 transform="scale(0.015625)" />
            </defs>
            <use
               xlink:href="#DejaVuSans-79"
               id="use267" />
          </g>
        </g>
      </g>
      <g
         id="line2d_25">
        <path
           d="M 39.58149 254.64351  L 41.980144 254.568158  L 44.378797 254.344145  L 46.777451 253.974537  L 49.176104 253.462399  L 51.574758 252.810795  L 53.973412 252.022792  L 56.372065 251.101454  L 58.770719 250.049846  L 61.169373 248.871034  L 63.568026 247.568083  L 65.96668 246.144057  L 68.365333 244.602022  L 70.763987 242.945044  L 73.162641 241.176187  L 75.561294 239.298517  L 77.959948 237.315098  L 80.358601 235.228997  L 82.757255 233.043277  L 85.155909 230.761005  L 87.554562 228.385245  L 89.953216 225.919062  L 92.351869 223.365523  L 94.750523 220.727691  L 97.149177 218.008632  L 99.54783 215.211412  L 101.946484 212.339095  L 104.345138 209.394746  L 106.743791 206.381432  L 109.142445 203.302216  L 111.541098 200.160164  L 113.939752 196.958341  L 116.338406 193.699813  L 118.737059 190.387645  L 121.135713 187.024901  L 123.534366 183.614647  L 125.93302 180.159948  L 128.331674 176.66387  L 130.730327 173.129477  L 133.128981 169.559834  L 135.527634 165.958007  L 137.926288 162.327061  L 140.324942 158.670062  L 142.723595 154.990073  L 145.122249 151.290161  L 147.520903 147.57339  L 149.919556 143.842826  L 152.31821 140.101534  L 154.716863 136.35258  L 157.115517 132.599027  L 159.514171 128.843942  L 161.912824 125.090389  L 164.311478 121.341434  L 166.710131 117.600142  L 169.108785 113.869579  L 171.507439 110.152808  L 173.906092 106.452896  L 176.304746 102.772907  L 178.703399 99.115907  L 181.102053 95.484961  L 183.500707 91.883135  L 185.89936 88.313492  L 188.298014 84.779099  L 190.696668 81.28302  L 193.095321 77.828322  L 195.493975 74.418068  L 197.892628 71.055324  L 200.291282 67.743155  L 202.689936 64.484627  L 205.088589 61.282805  L 207.487243 58.140753  L 209.885896 55.061537  L 212.28455 52.048222  L 214.683204 49.103874  L 217.081857 46.231557  L 219.480511 43.434336  L 221.879164 40.715278  L 224.277818 38.077446  L 226.676472 35.523906  L 229.075125 33.057724  L 231.473779 30.681964  L 233.872433 28.399692  L 236.271086 26.213972  L 238.66974 24.12787  L 241.068393 22.144452  L 243.467047 20.266781  L 245.865701 18.497925  L 248.264354 16.840946  L 250.663008 15.298912  L 253.061661 13.874886  L 255.460315 12.571935  L 257.858969 11.393123  L 260.257622 10.341515  L 262.656276 9.420177  L 265.054929 8.632173  L 267.453583 7.98057  L 269.852237 7.468431  L 272.25089 7.098823  L 274.649544 6.874811  L 277.048198 6.799459  "
           clip-path="url(#p645c6369db)"
           style="fill: none; stroke: #0000ff; stroke-width: 1.5; stroke-linecap: square"
           id="path273" />
      </g>
      <g
         id="line2d_26">
        <path
           d="M 39.58149 6.799459  L 41.980144 6.874811  L 44.378797 7.098823  L 46.777451 7.468431  L 49.176104 7.98057  L 51.574758 8.632173  L 53.973412 9.420177  L 56.372065 10.341515  L 58.770719 11.393123  L 61.169373 12.571935  L 63.568026 13.874886  L 65.96668 15.298912  L 68.365333 16.840946  L 70.763987 18.497925  L 73.162641 20.266781  L 75.561294 22.144452  L 77.959948 24.12787  L 80.358601 26.213972  L 82.757255 28.399692  L 85.155909 30.681964  L 87.554562 33.057724  L 89.953216 35.523906  L 92.351869 38.077446  L 94.750523 40.715278  L 97.149177 43.434336  L 99.54783 46.231557  L 101.946484 49.103874  L 104.345138 52.048222  L 106.743791 55.061537  L 109.142445 58.140753  L 111.541098 61.282805  L 113.939752 64.484627  L 116.338406 67.743155  L 118.737059 71.055324  L 121.135713 74.418068  L 123.534366 77.828322  L 125.93302 81.28302  L 128.331674 84.779099  L 130.730327 88.313492  L 133.128981 91.883135  L 135.527634 95.484961  L 137.926288 99.115907  L 140.324942 102.772907  L 142.723595 106.452896  L 145.122249 110.152808  L 147.520903 113.869579  L 149.919556 117.600142  L 152.31821 121.341434  L 154.716863 125.090389  L 157.115517 128.843942  L 159.514171 132.599027  L 161.912824 136.35258  L 164.311478 140.101534  L 166.710131 143.842826  L 169.108785 147.57339  L 171.507439 151.290161  L 173.906092 154.990073  L 176.304746 158.670062  L 178.703399 162.327061  L 181.102053 165.958007  L 183.500707 169.559834  L 185.89936 173.129477  L 188.298014 176.66387  L 190.696668 180.159948  L 193.095321 183.614647  L 195.493975 187.024901  L 197.892628 190.387645  L 200.291282 193.699813  L 202.689936 196.958341  L 205.088589 200.160164  L 207.487243 203.302216  L 209.885896 206.381432  L 212.28455 209.394746  L 214.683204 212.339095  L 217.081857 215.211412  L 219.480511 218.008632  L 221.879164 220.727691  L 224.277818 223.365523  L 226.676472 225.919062  L 229.075125 228.385245  L 231.473779 230.761005  L 233.872433 233.043277  L 236.271086 235.228997  L 238.66974 237.315098  L 241.068393 239.298517  L 243.467047 241.176187  L 245.865701 242.945044  L 248.264354 244.602022  L 250.663008 246.144057  L 253.061661 247.568083  L 255.460315 248.871034  L 257.858969 250.049846  L 260.257622 251.101454  L 262.656276 252.022792  L 265.054929 252.810795  L 267.453583 253.462399  L 269.852237 253.974537  L 272.25089 254.344145  L 274.649544 254.568158  L 277.048198 254.64351  "
           clip-path="url(#p645c6369db)"
           style="fill: none; stroke: #ff0000; stroke-width: 1.5; stroke-linecap: square"
           id="path276" />
      </g>
      <g
         id="patch_3">
        <path
           d="M 39.58149 254.64351  L 39.58149 6.799459  "
           style="fill: none; stroke: #000000; stroke-width: 0.8; stroke-linejoin: miter; stroke-linecap: square"
           id="path279" />
      </g>
      <g
         id="patch_4">
        <path
           d="M 277.048198 254.64351  L 277.048198 6.799459  "
           style="fill: none; stroke: #000000; stroke-width: 0.8; stroke-linejoin: miter; stroke-linecap: square"
           id="path282" />
      </g>
      <g
         id="patch_5">
        <path
           d="M 39.58149 254.64351  L 277.048198 254.64351  "
           style="fill: none; stroke: #000000; stroke-width: 0.8; stroke-linejoin: miter; stroke-linecap: square"
           id="path285" />
      </g>
      <g
         id="patch_6">
        <path
           d="M 39.58149 6.799459  L 277.048198 6.799459  "
           style="fill: none; stroke: #000000; stroke-width: 0.8; stroke-linejoin: miter; stroke-linecap: square"
           id="path288" />
      </g>
    </g>
  </g>
  <defs
     id="defs296">
    <clipPath
       id="p645c6369db">
      <rect
         x="39.58149"
         y="6.799459"
         width="237.466708"
         height="247.844051"
         id="rect293" />
    </clipPath>
  </defs>
  <g
     inkscape:label=""
     transform="translate(102.44232,211.98161)"
     id="g1381"
     style="fill:#0000ff;stroke:#ffffff;paint-order:stroke markers fill">
    <g
       fill="#000000"
       fill-opacity="1"
       id="g1342"
       transform="translate(-0.875,0.249125)"
       style="fill:#0000ff;stroke:#ffffff;paint-order:stroke markers fill">
      <g
         id="g1340"
         transform="translate(0,13.952)"
         style="fill:#0000ff;stroke:#ffffff;paint-order:stroke markers fill">
        <path
           d="m 3.921875,-3.4375 c 0.296875,0.046875 0.765625,0.15625 0.859375,0.171875 0.234375,0.0625 1,0.34375 1,1.171875 0,0.53125 -0.484375,1.921875 -2.46875,1.921875 -0.375,0 -1.65625,-0.046875 -2,-1 C 2,-1.078125 2.34375,-1.625 2.34375,-2 c 0,-0.359375 -0.25,-0.546875 -0.59375,-0.546875 -0.375,0 -0.875,0.296875 -0.875,1.0625 0,1.015625 1.03125,1.65625 2.40625,1.65625 2.625,0 3.40625,-1.921875 3.40625,-2.828125 0,-0.25 0,-0.734375 -0.5625,-1.28125 C 5.703125,-4.359375 5.28125,-4.4375 4.359375,-4.625 3.890625,-4.734375 3.15625,-4.890625 3.15625,-5.671875 c 0,-0.34375 0.3125,-1.578125 1.9375,-1.578125 0.71875,0 1.4375,0.28125 1.609375,0.890625 -0.765625,0 -0.796875,0.65625 -0.796875,0.671875 0,0.359375 0.328125,0.46875 0.484375,0.46875 0.234375,0 0.71875,-0.1875 0.71875,-0.90625 0,-0.734375 -0.65625,-1.46875 -2,-1.46875 -2.25,0 -2.859375,1.78125 -2.859375,2.484375 0,1.296875 1.28125,1.578125 1.671875,1.671875 z m 0,0"
           id="path98"
           style="fill:#0000ff;stroke:#ffffff;paint-order:stroke markers fill" />
      </g>
    </g>
    <g
       clip-path="url(#clipPath7142)"
       id="g50"
       transform="translate(-0.875,0.249125)"
       style="fill:#0000ff;stroke:#ffffff;paint-order:stroke markers fill">
      <g
         fill="#000000"
         fill-opacity="1"
         id="g48"
         style="fill:#0000ff;stroke:#ffffff;paint-order:stroke markers fill">
        <g
           id="use46"
           transform="translate(7.9400001,13.952)"
           style="fill:#0000ff;stroke:#ffffff;paint-order:stroke markers fill">
          <path
             d="m 5.265625,4.203125 c 0,-0.015625 0,-0.046875 -0.046875,-0.109375 -0.796875,-0.8125 -2.90625,-3.015625 -2.90625,-8.375 0,-5.375 2.078125,-7.5625 2.921875,-8.421875 0,-0.01563 0.03125,-0.0625 0.03125,-0.109375 0,-0.04687 -0.046875,-0.07813 -0.125,-0.07813 -0.1875,0 -1.640625,1.265625 -2.484375,3.15625 -0.859375,1.921875 -1.109375,3.78125 -1.109375,5.421875 0,1.25 0.125,3.34375 1.15625,5.5625 0.828125,1.796875 2.234375,3.0625 2.4375,3.0625 0.09375,0 0.125,-0.046875 0.125,-0.109375 z m 0,0"
             id="path1344"
             style="fill:#0000ff;stroke:#ffffff;paint-order:stroke markers fill" />
        </g>
      </g>
    </g>
    <g
       fill="#000000"
       fill-opacity="1"
       id="g54"
       transform="translate(-0.875,0.249125)"
       style="fill:#0000ff;stroke:#ffffff;paint-order:stroke markers fill">
      <g
         id="g1350"
         transform="translate(14.037,13.952)"
         style="fill:#0000ff;stroke:#ffffff;paint-order:stroke markers fill">
        <path
           d="m 6.703125,-7.046875 c -0.53125,0.109375 -0.8125,0.484375 -0.8125,0.859375 0,0.421875 0.328125,0.5625 0.5625,0.5625 0.484375,0 0.875,-0.421875 0.875,-0.9375 0,-0.546875 -0.53125,-1.03125 -1.390625,-1.03125 -0.6875,0 -1.484375,0.3125 -2.203125,1.359375 -0.125,-0.90625 -0.8125,-1.359375 -1.5,-1.359375 -0.671875,0 -1.015625,0.515625 -1.21875,0.890625 -0.296875,0.625 -0.546875,1.65625 -0.546875,1.75 0,0.0625 0.0625,0.15625 0.1875,0.15625 0.140625,0 0.15625,-0.03125 0.25,-0.421875 C 1.171875,-6.25 1.5,-7.25 2.1875,-7.25 c 0.40625,0 0.53125,0.296875 0.53125,0.796875 0,0.375 -0.171875,1.046875 -0.296875,1.578125 l -0.46875,1.859375 C 1.875,-2.6875 1.6875,-1.90625 1.59375,-1.59375 c -0.109375,0.4375 -0.296875,1.25 -0.296875,1.328125 0,0.25 0.1875,0.4375 0.4375,0.4375 0.1875,0 0.515625,-0.125 0.625,-0.46875 0.046875,-0.140625 0.6875,-2.734375 0.796875,-3.125 0.078125,-0.390625 0.1875,-0.75 0.265625,-1.125 C 3.5,-4.78125 3.5625,-5.0625 3.609375,-5.28125 3.671875,-5.4375 4.125,-6.28125 4.5625,-6.65625 4.765625,-6.859375 5.21875,-7.25 5.921875,-7.25 c 0.28125,0 0.546875,0.046875 0.78125,0.203125 z m 0,0"
           id="path106"
           style="fill:#0000ff;stroke:#ffffff;paint-order:stroke markers fill" />
      </g>
    </g>
    <g
       clip-path="url(#clipPath5073)"
       id="g60"
       transform="translate(-0.875,0.249125)"
       style="fill:#0000ff;stroke:#ffffff;paint-order:stroke markers fill">
      <g
         fill="#000000"
         fill-opacity="1"
         id="g58"
         style="fill:#0000ff;stroke:#ffffff;paint-order:stroke markers fill">
        <g
           id="use56"
           transform="translate(22.101,13.952)"
           style="fill:#0000ff;stroke:#ffffff;paint-order:stroke markers fill">
          <path
             d="m 4.53125,-4.28125 c 0,-1.25 -0.125,-3.34375 -1.15625,-5.5625 -0.828125,-1.796875 -2.234375,-3.046875 -2.4375,-3.046875 -0.0625,0 -0.125,0.01563 -0.125,0.09375 0,0.03125 0.015625,0.0625 0.03125,0.09375 0.828125,0.859375 2.921875,3.046875 2.921875,8.390625 0,5.375 -2.078125,7.5625 -2.921875,8.421875 C 0.828125,4.15625 0.8125,4.171875 0.8125,4.203125 0.8125,4.28125 0.875,4.3125 0.9375,4.3125 1.125,4.3125 2.578125,3.03125 3.421875,1.140625 4.28125,-0.78125 4.53125,-2.640625 4.53125,-4.28125 Z m 0,0"
             id="path110"
             style="fill:#0000ff;stroke:#ffffff;paint-order:stroke markers fill" />
        </g>
      </g>
    </g>
    <g
       fill="#000000"
       fill-opacity="1"
       id="g64"
       transform="translate(-0.875,0.249125)"
       style="fill:#0000ff;stroke:#ffffff;paint-order:stroke markers fill">
      <g
         id="use62"
         transform="translate(30.107883,13.952)"
         style="fill:#0000ff;stroke:#ffffff;paint-order:stroke markers fill">
        <path
           d="m 11.078125,-5.53125 c 0.25,0 0.515625,0 0.515625,-0.28125 C 11.59375,-6.125 11.296875,-6.125 11,-6.125 H 1.375 c -0.296875,0 -0.578125,0 -0.578125,0.3125 0,0.28125 0.25,0.28125 0.515625,0.28125 z M 11,-2.46875 c 0.296875,0 0.59375,0 0.59375,-0.296875 0,-0.296875 -0.265625,-0.296875 -0.515625,-0.296875 H 1.3125 c -0.265625,0 -0.515625,0 -0.515625,0.296875 0,0.296875 0.28125,0.296875 0.578125,0.296875 z m 0,0"
           id="path114"
           style="fill:#0000ff;stroke:#ffffff;paint-order:stroke markers fill" />
      </g>
    </g>
    <g
       fill="#000000"
       fill-opacity="1"
       id="g68"
       transform="translate(-0.875,0.249125)"
       style="fill:#0000ff;stroke:#ffffff;paint-order:stroke markers fill">
      <g
         id="use66"
         transform="translate(44.410439,13.952)"
         style="fill:#0000ff;stroke:#ffffff;paint-order:stroke markers fill">
        <path
           d="m 3.8125,-5.859375 c 1.53125,0 2.203125,1.328125 2.203125,2.859375 0,2.0625 -1.109375,2.859375 -2.109375,2.859375 C 3,-0.140625 1.515625,-0.578125 1.046875,-1.90625 1.140625,-1.875 1.21875,-1.875 1.3125,-1.875 c 0.40625,0 0.71875,-0.28125 0.71875,-0.71875 0,-0.5 -0.375,-0.734375 -0.71875,-0.734375 -0.296875,0 -0.75,0.140625 -0.75,0.78125 0,1.578125 1.5625,2.828125 3.375,2.828125 1.921875,0 3.375,-1.5 3.375,-3.265625 0,-1.671875 -1.375,-2.875 -3,-3.0625 1.296875,-0.265625 2.5625,-1.4375 2.5625,-3.015625 0,-1.34375 -1.359375,-2.3125 -2.921875,-2.3125 -1.5625,0 -2.9375,0.953125 -2.9375,2.328125 0,0.609375 0.453125,0.71875 0.671875,0.71875 0.359375,0 0.671875,-0.234375 0.671875,-0.671875 0,-0.453125 -0.3125,-0.671875 -0.671875,-0.671875 -0.0625,0 -0.15625,0 -0.21875,0.03125 0.5,-1.140625 1.859375,-1.34375 2.453125,-1.34375 0.609375,0 1.75,0.296875 1.75,1.9375 0,0.484375 -0.078125,1.34375 -0.65625,2.109375 C 4.5,-6.265625 3.90625,-6.234375 3.34375,-6.1875 c -0.09375,0 -0.484375,0.046875 -0.546875,0.046875 -0.125,0.015625 -0.203125,0.03125 -0.203125,0.15625 0,0.109375 0.03125,0.125 0.375,0.125 z m 0,0"
           id="path118"
           style="fill:#0000ff;stroke:#ffffff;paint-order:stroke markers fill" />
      </g>
    </g>
    <g
       fill="#000000"
       fill-opacity="1"
       id="g72"
       transform="translate(-0.875,0.249125)"
       style="fill:#0000ff;stroke:#ffffff;paint-order:stroke markers fill">
      <g
         id="use70"
         transform="translate(52.311001,13.952)"
         style="fill:#0000ff;stroke:#ffffff;paint-order:stroke markers fill">
        <path
           d="m 6.703125,-7.046875 c -0.53125,0.109375 -0.8125,0.484375 -0.8125,0.859375 0,0.421875 0.328125,0.5625 0.5625,0.5625 0.484375,0 0.875,-0.421875 0.875,-0.9375 0,-0.546875 -0.53125,-1.03125 -1.390625,-1.03125 -0.6875,0 -1.484375,0.3125 -2.203125,1.359375 -0.125,-0.90625 -0.8125,-1.359375 -1.5,-1.359375 -0.671875,0 -1.015625,0.515625 -1.21875,0.890625 -0.296875,0.625 -0.546875,1.65625 -0.546875,1.75 0,0.0625 0.0625,0.15625 0.1875,0.15625 0.140625,0 0.15625,-0.03125 0.25,-0.421875 C 1.171875,-6.25 1.5,-7.25 2.1875,-7.25 c 0.40625,0 0.53125,0.296875 0.53125,0.796875 0,0.375 -0.171875,1.046875 -0.296875,1.578125 l -0.46875,1.859375 C 1.875,-2.6875 1.6875,-1.90625 1.59375,-1.59375 c -0.109375,0.4375 -0.296875,1.25 -0.296875,1.328125 0,0.25 0.1875,0.4375 0.4375,0.4375 0.1875,0 0.515625,-0.125 0.625,-0.46875 0.046875,-0.140625 0.6875,-2.734375 0.796875,-3.125 0.078125,-0.390625 0.1875,-0.75 0.265625,-1.125 C 3.5,-4.78125 3.5625,-5.0625 3.609375,-5.28125 3.671875,-5.4375 4.125,-6.28125 4.5625,-6.65625 4.765625,-6.859375 5.21875,-7.25 5.921875,-7.25 c 0.28125,0 0.546875,0.046875 0.78125,0.203125 z m 0,0"
           id="path122"
           style="fill:#0000ff;stroke:#ffffff;paint-order:stroke markers fill" />
      </g>
    </g>
    <g
       fill="#000000"
       fill-opacity="1"
       id="g76"
       transform="translate(-0.875,0.249125)"
       style="fill:#0000ff;stroke:#ffffff;paint-order:stroke markers fill">
      <g
         id="use74"
         transform="translate(60.375999,7.704)"
         style="fill:#0000ff;stroke:#ffffff;paint-order:stroke markers fill">
        <path
           d="M 5.265625,-2.015625 H 5 c -0.046875,0.203125 -0.140625,0.875 -0.25,1.0625 C 4.65625,-0.84375 3.984375,-0.84375 3.625,-0.84375 H 1.40625 c 0.328125,-0.28125 1.0625,-1.046875 1.359375,-1.328125 1.828125,-1.671875 2.5,-2.296875 2.5,-3.484375 0,-1.375 -1.09375,-2.296875 -2.484375,-2.296875 -1.375,0 -2.203125,1.1875 -2.203125,2.21875 0,0.609375 0.53125,0.609375 0.5625,0.609375 0.265625,0 0.5625,-0.1875 0.5625,-0.5625 0,-0.34375 -0.21875,-0.5625 -0.5625,-0.5625 -0.09375,0 -0.125,0 -0.15625,0.015625 0.21875,-0.8125 0.875,-1.375 1.640625,-1.375 1.015625,0 1.640625,0.859375 1.640625,1.953125 C 4.265625,-4.640625 3.6875,-3.75 3,-2.984375 L 0.578125,-0.28125 V 0 h 4.375 z m 0,0"
           id="path126"
           style="fill:#0000ff;stroke:#ffffff;paint-order:stroke markers fill" />
      </g>
    </g>
    <g
       fill="#000000"
       fill-opacity="1"
       id="g80"
       transform="translate(-0.875,0.249125)"
       style="fill:#0000ff;stroke:#ffffff;paint-order:stroke markers fill">
      <g
         id="use78"
         transform="translate(70.552002,13.952)"
         style="fill:#0000ff;stroke:#ffffff;paint-order:stroke markers fill">
        <path
           d="m 11.34375,-3.953125 c 0.296875,0 0.609375,0 0.609375,-0.359375 0,-0.34375 -0.3125,-0.34375 -0.609375,-0.34375 h -9.3125 c -0.296875,0 -0.609375,0 -0.609375,0.34375 0,0.359375 0.3125,0.359375 0.609375,0.359375 z m 0,0"
           id="path130"
           style="fill:#0000ff;stroke:#ffffff;paint-order:stroke markers fill" />
      </g>
    </g>
    <g
       fill="#000000"
       fill-opacity="1"
       id="g84"
       transform="translate(-0.875,0.249125)"
       style="fill:#0000ff;stroke:#ffffff;paint-order:stroke markers fill">
      <g
         id="use82"
         transform="translate(87.767998,13.952)"
         style="fill:#0000ff;stroke:#ffffff;paint-order:stroke markers fill">
        <path
           d="M 7.1875,-2.671875 H 6.875 c -0.171875,1.21875 -0.3125,1.4375 -0.390625,1.53125 C 6.40625,-1 5.171875,-1 4.921875,-1 H 1.625 c 0.609375,-0.671875 1.8125,-1.890625 3.28125,-3.3125 1.046875,-0.984375 2.28125,-2.15625 2.28125,-3.859375 0,-2.03125 -1.625,-3.203125 -3.4375,-3.203125 -1.890625,0 -3.046875,1.65625 -3.046875,3.21875 0,0.671875 0.5,0.75 0.703125,0.75 0.171875,0 0.6875,-0.09375 0.6875,-0.703125 0,-0.53125 -0.4375,-0.6875 -0.6875,-0.6875 -0.09375,0 -0.203125,0.015625 -0.265625,0.046875 0.328125,-1.453125 1.328125,-2.1875 2.375,-2.1875 1.5,0 2.46875,1.1875 2.46875,2.765625 0,1.484375 -0.875,2.78125 -1.859375,3.90625 l -3.421875,3.875 V 0 h 6.0625 z m 0,0"
           id="path134"
           style="fill:#0000ff;stroke:#ffffff;paint-order:stroke markers fill" />
      </g>
    </g>
    <g
       fill="#000000"
       fill-opacity="1"
       id="g88"
       transform="translate(-0.875,0.249125)"
       style="fill:#0000ff;stroke:#ffffff;paint-order:stroke markers fill">
      <g
         id="use86"
         transform="translate(95.663002,13.952)"
         style="fill:#0000ff;stroke:#ffffff;paint-order:stroke markers fill">
        <path
           d="m 6.703125,-7.046875 c -0.53125,0.109375 -0.8125,0.484375 -0.8125,0.859375 0,0.421875 0.328125,0.5625 0.5625,0.5625 0.484375,0 0.875,-0.421875 0.875,-0.9375 0,-0.546875 -0.53125,-1.03125 -1.390625,-1.03125 -0.6875,0 -1.484375,0.3125 -2.203125,1.359375 -0.125,-0.90625 -0.8125,-1.359375 -1.5,-1.359375 -0.671875,0 -1.015625,0.515625 -1.21875,0.890625 -0.296875,0.625 -0.546875,1.65625 -0.546875,1.75 0,0.0625 0.0625,0.15625 0.1875,0.15625 0.140625,0 0.15625,-0.03125 0.25,-0.421875 C 1.171875,-6.25 1.5,-7.25 2.1875,-7.25 c 0.40625,0 0.53125,0.296875 0.53125,0.796875 0,0.375 -0.171875,1.046875 -0.296875,1.578125 l -0.46875,1.859375 C 1.875,-2.6875 1.6875,-1.90625 1.59375,-1.59375 c -0.109375,0.4375 -0.296875,1.25 -0.296875,1.328125 0,0.25 0.1875,0.4375 0.4375,0.4375 0.1875,0 0.515625,-0.125 0.625,-0.46875 0.046875,-0.140625 0.6875,-2.734375 0.796875,-3.125 0.078125,-0.390625 0.1875,-0.75 0.265625,-1.125 C 3.5,-4.78125 3.5625,-5.0625 3.609375,-5.28125 3.671875,-5.4375 4.125,-6.28125 4.5625,-6.65625 4.765625,-6.859375 5.21875,-7.25 5.921875,-7.25 c 0.28125,0 0.546875,0.046875 0.78125,0.203125 z m 0,0"
           id="path138"
           style="fill:#0000ff;stroke:#ffffff;paint-order:stroke markers fill" />
      </g>
    </g>
    <g
       fill="#000000"
       fill-opacity="1"
       id="g92"
       transform="translate(-0.875,0.249125)"
       style="fill:#0000ff;stroke:#ffffff;paint-order:stroke markers fill">
      <g
         id="use90"
         transform="translate(103.728,7.704)"
         style="fill:#0000ff;stroke:#ffffff;paint-order:stroke markers fill">
        <path
           d="m 2.203125,-4.296875 c -0.203125,0.015625 -0.25,0.03125 -0.25,0.140625 0,0.109375 0.0625,0.109375 0.265625,0.109375 h 0.546875 c 1.03125,0 1.484375,0.84375 1.484375,1.984375 0,1.578125 -0.8125,1.984375 -1.40625,1.984375 -0.578125,0 -1.546875,-0.265625 -1.90625,-1.0625 0.390625,0.0625 0.734375,-0.15625 0.734375,-0.578125 0,-0.34375 -0.25,-0.59375 -0.578125,-0.59375 -0.296875,0 -0.609375,0.171875 -0.609375,0.625 0,1.0625 1.0625,1.9375 2.390625,1.9375 1.421875,0 2.484375,-1.09375 2.484375,-2.296875 C 5.359375,-3.140625 4.46875,-4 3.328125,-4.203125 4.359375,-4.5 5.03125,-5.375 5.03125,-6.3125 c 0,-0.9375 -0.984375,-1.640625 -2.140625,-1.640625 -1.1875,0 -2.078125,0.734375 -2.078125,1.609375 0,0.46875 0.375,0.578125 0.546875,0.578125 0.25,0 0.546875,-0.1875 0.546875,-0.546875 0,-0.375 -0.296875,-0.546875 -0.5625,-0.546875 -0.0625,0 -0.09375,0 -0.125,0.015625 0.453125,-0.8125 1.578125,-0.8125 1.640625,-0.8125 0.390625,0 1.171875,0.171875 1.171875,1.34375 0,0.234375 -0.03125,0.890625 -0.390625,1.40625 C 3.28125,-4.375 2.875,-4.34375 2.5625,-4.328125 Z m 0,0"
           id="path142"
           style="fill:#0000ff;stroke:#ffffff;paint-order:stroke markers fill" />
      </g>
    </g>
  </g>
  <g
     inkscape:label=""
     transform="translate(102.61768,32.23483)"
     id="g3690"
     style="fill:#ff0000;stroke:#ffffff;paint-order:stroke markers fill">
    <g
       fill="#000000"
       fill-opacity="1"
       id="g32"
       transform="translate(-1.5,-0.00637531)"
       style="fill:#ff0000;stroke:#ffffff;paint-order:stroke markers fill">
      <g
         id="use30"
         transform="translate(0,12.897)"
         style="fill:#ff0000;stroke:#ffffff;paint-order:stroke markers fill">
        <path
           d="m 4.578125,-11 c 0,-0.359375 -0.015625,-0.375 -0.25,-0.375 -0.671875,0.796875 -1.6875,1.0625 -2.65625,1.09375 -0.046875,0 -0.140625,0 -0.15625,0.03125 C 1.5,-10.203125 1.5,-10.171875 1.5,-9.8125 c 0.53125,0 1.421875,-0.109375 2.109375,-0.515625 V -1.25 c 0,0.59375 -0.03125,0.796875 -1.515625,0.796875 H 1.578125 V 0 c 0.828125,-0.015625 1.6875,-0.03125 2.515625,-0.03125 0.828125,0 1.6875,0.015625 2.515625,0.03125 V -0.453125 H 6.09375 c -1.484375,0 -1.515625,-0.1875 -1.515625,-0.796875 z m 0,0"
           id="path62"
           style="fill:#ff0000;stroke:#ffffff;paint-order:stroke markers fill" />
      </g>
    </g>
    <g
       fill="#000000"
       fill-opacity="1"
       id="g36"
       transform="translate(-1.5,-0.00637531)"
       style="fill:#ff0000;stroke:#ffffff;paint-order:stroke markers fill">
      <g
         id="use34"
         transform="translate(11.721,12.897)"
         style="fill:#ff0000;stroke:#ffffff;paint-order:stroke markers fill">
        <path
           d="m 11.34375,-3.953125 c 0.296875,0 0.609375,0 0.609375,-0.359375 0,-0.34375 -0.3125,-0.34375 -0.609375,-0.34375 h -9.3125 c -0.296875,0 -0.609375,0 -0.609375,0.34375 0,0.359375 0.3125,0.359375 0.609375,0.359375 z m 0,0"
           id="path66"
           style="fill:#ff0000;stroke:#ffffff;paint-order:stroke markers fill" />
      </g>
    </g>
    <g
       fill="#000000"
       fill-opacity="1"
       id="g40"
       transform="translate(-1.5,-0.00637531)"
       style="fill:#ff0000;stroke:#ffffff;paint-order:stroke markers fill">
      <g
         id="use38"
         transform="translate(28.936001,12.897)"
         style="fill:#ff0000;stroke:#ffffff;paint-order:stroke markers fill">
        <path
           d="m 3.921875,-3.4375 c 0.296875,0.046875 0.765625,0.15625 0.859375,0.171875 0.234375,0.0625 1,0.34375 1,1.171875 0,0.53125 -0.484375,1.921875 -2.46875,1.921875 -0.375,0 -1.65625,-0.046875 -2,-1 C 2,-1.078125 2.34375,-1.625 2.34375,-2 c 0,-0.359375 -0.25,-0.546875 -0.59375,-0.546875 -0.375,0 -0.875,0.296875 -0.875,1.0625 0,1.015625 1.03125,1.65625 2.40625,1.65625 2.625,0 3.40625,-1.921875 3.40625,-2.828125 0,-0.25 0,-0.734375 -0.5625,-1.28125 C 5.703125,-4.359375 5.28125,-4.4375 4.359375,-4.625 3.890625,-4.734375 3.15625,-4.890625 3.15625,-5.671875 c 0,-0.34375 0.3125,-1.578125 1.9375,-1.578125 0.71875,0 1.4375,0.28125 1.609375,0.890625 -0.765625,0 -0.796875,0.65625 -0.796875,0.671875 0,0.359375 0.328125,0.46875 0.484375,0.46875 0.234375,0 0.71875,-0.1875 0.71875,-0.90625 0,-0.734375 -0.65625,-1.46875 -2,-1.46875 -2.25,0 -2.859375,1.78125 -2.859375,2.484375 0,1.296875 1.28125,1.578125 1.671875,1.671875 z m 0,0"
           id="path70"
           style="fill:#ff0000;stroke:#ffffff;paint-order:stroke markers fill" />
      </g>
    </g>
    <g
       clip-path="url(#clipPath8867)"
       id="g46"
       transform="translate(-1.5,-0.00637531)"
       style="fill:#ff0000;stroke:#ffffff;paint-order:stroke markers fill">
      <g
         fill="#000000"
         fill-opacity="1"
         id="g3676"
         style="fill:#ff0000;stroke:#ffffff;paint-order:stroke markers fill">
        <g
           id="g3674"
           transform="translate(36.876999,12.897)"
           style="fill:#ff0000;stroke:#ffffff;paint-order:stroke markers fill">
          <path
             d="m 5.265625,4.203125 c 0,-0.015625 0,-0.046875 -0.046875,-0.109375 -0.796875,-0.8125 -2.90625,-3.015625 -2.90625,-8.375 0,-5.375 2.078125,-7.5625 2.921875,-8.421875 0,-0.01563 0.03125,-0.0625 0.03125,-0.109375 0,-0.04687 -0.046875,-0.07813 -0.125,-0.07813 -0.1875,0 -1.640625,1.265625 -2.484375,3.15625 -0.859375,1.921875 -1.109375,3.78125 -1.109375,5.421875 0,1.25 0.125,3.34375 1.15625,5.5625 0.828125,1.796875 2.234375,3.0625 2.4375,3.0625 0.09375,0 0.125,-0.046875 0.125,-0.109375 z m 0,0"
             id="path74"
             style="fill:#ff0000;stroke:#ffffff;paint-order:stroke markers fill" />
        </g>
      </g>
    </g>
    <g
       fill="#000000"
       fill-opacity="1"
       id="g3681"
       transform="translate(-1.5,-0.00637531)"
       style="fill:#ff0000;stroke:#ffffff;paint-order:stroke markers fill">
      <g
         id="use48"
         transform="translate(42.973,12.897)"
         style="fill:#ff0000;stroke:#ffffff;paint-order:stroke markers fill">
        <path
           d="m 6.703125,-7.046875 c -0.53125,0.109375 -0.8125,0.484375 -0.8125,0.859375 0,0.421875 0.328125,0.5625 0.5625,0.5625 0.484375,0 0.875,-0.421875 0.875,-0.9375 0,-0.546875 -0.53125,-1.03125 -1.390625,-1.03125 -0.6875,0 -1.484375,0.3125 -2.203125,1.359375 -0.125,-0.90625 -0.8125,-1.359375 -1.5,-1.359375 -0.671875,0 -1.015625,0.515625 -1.21875,0.890625 -0.296875,0.625 -0.546875,1.65625 -0.546875,1.75 0,0.0625 0.0625,0.15625 0.1875,0.15625 0.140625,0 0.15625,-0.03125 0.25,-0.421875 C 1.171875,-6.25 1.5,-7.25 2.1875,-7.25 c 0.40625,0 0.53125,0.296875 0.53125,0.796875 0,0.375 -0.171875,1.046875 -0.296875,1.578125 l -0.46875,1.859375 C 1.875,-2.6875 1.6875,-1.90625 1.59375,-1.59375 c -0.109375,0.4375 -0.296875,1.25 -0.296875,1.328125 0,0.25 0.1875,0.4375 0.4375,0.4375 0.1875,0 0.515625,-0.125 0.625,-0.46875 0.046875,-0.140625 0.6875,-2.734375 0.796875,-3.125 0.078125,-0.390625 0.1875,-0.75 0.265625,-1.125 C 3.5,-4.78125 3.5625,-5.0625 3.609375,-5.28125 3.671875,-5.4375 4.125,-6.28125 4.5625,-6.65625 4.765625,-6.859375 5.21875,-7.25 5.921875,-7.25 c 0.28125,0 0.546875,0.046875 0.78125,0.203125 z m 0,0"
           id="path78"
           style="fill:#ff0000;stroke:#ffffff;paint-order:stroke markers fill" />
      </g>
    </g>
    <g
       clip-path="url(#clipPath5761)"
       id="g3688"
       transform="translate(-1.5,-0.00637531)"
       style="fill:#ff0000;stroke:#ffffff;paint-order:stroke markers fill">
      <g
         fill="#000000"
         fill-opacity="1"
         id="g3686"
         style="fill:#ff0000;stroke:#ffffff;paint-order:stroke markers fill">
        <g
           id="g3684"
           transform="translate(51.037998,12.897)"
           style="fill:#ff0000;stroke:#ffffff;paint-order:stroke markers fill">
          <path
             d="m 4.53125,-4.28125 c 0,-1.25 -0.125,-3.34375 -1.15625,-5.5625 -0.828125,-1.796875 -2.234375,-3.046875 -2.4375,-3.046875 -0.0625,0 -0.125,0.01563 -0.125,0.09375 0,0.03125 0.015625,0.0625 0.03125,0.09375 0.828125,0.859375 2.921875,3.046875 2.921875,8.390625 0,5.375 -2.078125,7.5625 -2.921875,8.421875 C 0.828125,4.15625 0.8125,4.171875 0.8125,4.203125 0.8125,4.28125 0.875,4.3125 0.9375,4.3125 1.125,4.3125 2.578125,3.03125 3.421875,1.140625 4.28125,-0.78125 4.53125,-2.640625 4.53125,-4.28125 Z m 0,0"
             id="path82"
             style="fill:#ff0000;stroke:#ffffff;paint-order:stroke markers fill" />
        </g>
      </g>
    </g>
  </g>
</svg>
